<svg width="80" height="80" viewBox="0 0 80 80" fill="none" xmlns="http://www.w3.org/2000/svg">
<g clip-path="url(#clip0_180_5039)">
<path d="M5.03053 16.3357C2.56722 16.3357 0.570312 18.3326 0.570312 20.7957V60.2689C0.570312 62.7322 2.56722 64.7289 5.03053 64.7289H74.969C77.4323 64.7289 79.4292 62.732 79.4292 60.2689V20.7957C79.4292 18.2362 77.1667 16.3357 74.969 16.3357H5.03053Z" fill="#F5F5F5"/>
<path d="M74.9691 16.3357H68.6191C70.8169 16.3357 73.0794 18.2362 73.0794 20.7957V60.2689C73.0794 62.7322 71.0824 64.7291 68.6191 64.7291H74.9691C77.4324 64.7291 79.4293 62.7322 79.4293 60.2689V20.7957C79.4293 18.2362 77.1668 16.3357 74.9691 16.3357Z" fill="#E2E4E9"/>
<path d="M79.4292 20.7957C79.4292 18.2362 77.1667 16.3357 74.969 16.3357H5.03053C2.56722 16.3357 0.570312 18.3326 0.570312 20.7957V54.0043H79.4292V20.7957Z" fill="url(#paint0_linear_180_5039)"/>
<path d="M74.9691 16.3357H68.6191C70.8169 16.3357 73.0794 18.2362 73.0794 20.7957V54.0043H79.4293V20.7957C79.4293 18.2362 77.1668 16.3357 74.9691 16.3357Z" fill="#A4A8B7"/>
<path d="M18.6773 37.9689H8.86884C8.21114 37.9689 7.67822 37.436 7.67822 36.7783C7.67822 36.1206 8.21114 35.5876 8.86884 35.5876H18.6773C19.335 35.5876 19.8679 36.1206 19.8679 36.7783C19.8679 37.436 19.335 37.9689 18.6773 37.9689Z" fill="#3C4467"/>
<path d="M23.4398 44.0011H8.86884C8.21114 44.0011 7.67822 43.4682 7.67822 42.8105C7.67822 42.1528 8.21114 41.6199 8.86884 41.6199H23.4398C24.0975 41.6199 24.6304 42.1528 24.6304 42.8105C24.6304 43.4682 24.0975 44.0011 23.4398 44.0011Z" fill="#3C4467"/>
<path d="M71.1705 37.9689H61.362C60.7043 37.9689 60.1714 37.436 60.1714 36.7783C60.1714 36.1206 60.7043 35.5876 61.362 35.5876H71.1705C71.8282 35.5876 72.3611 36.1206 72.3611 36.7783C72.3611 37.436 71.8282 37.9689 71.1705 37.9689Z" fill="#3C4467"/>
<path d="M71.1703 44.0011H56.5993C55.9416 44.0011 55.4087 43.4682 55.4087 42.8105C55.4087 42.1528 55.9416 41.6199 56.5993 41.6199H71.1703C71.8279 41.6199 72.3609 42.1528 72.3609 42.8105C72.3609 43.4682 71.8279 44.0011 71.1703 44.0011Z" fill="#3C4467"/>
<path d="M47.4574 78.8095H32.5425L34.1292 64.7292H45.8707L47.4574 78.8095Z" fill="#C6C8D2"/>
<path d="M45.871 64.7292H39.521L41.1077 78.8095H47.4577L45.871 64.7292Z" fill="#3C4467"/>
<path d="M53.2751 80.0001H26.7248C26.0671 80.0001 25.5342 79.4672 25.5342 78.8095C25.5342 78.1518 26.0671 77.6189 26.7248 77.6189H53.2751C53.9328 77.6189 54.4657 78.1518 54.4657 78.8095C54.4657 79.4672 53.9326 80.0001 53.2751 80.0001Z" fill="#E2E4E9"/>
<path d="M53.2753 77.6189H46.9253C47.583 77.6189 48.1159 78.1518 48.1159 78.8095C48.1159 79.4672 47.583 80.0001 46.9253 80.0001H53.2753C53.933 80.0001 54.4659 79.4672 54.4659 78.8095C54.4659 78.1518 53.9328 77.6189 53.2753 77.6189Z" fill="#E2E4E9"/>
<path d="M50.2893 2.18851C51.2023 8.97218 56.2813 11.8141 58.9434 12.8514C59.9401 13.2398 60.5785 14.2319 60.517 15.2999C59.3486 35.6254 40.0295 46.018 40.0295 46.018C40.0295 46.018 20.691 35.6254 19.5226 15.3001C19.4612 14.232 20.0995 13.2398 21.0963 12.8515C23.7584 11.8143 28.8372 8.97234 29.7504 2.18867C29.9182 0.941541 30.9618 0 32.22 0H47.8196C49.0777 0 50.1213 0.941541 50.2893 2.18851Z" fill="#FF7A1A"/>
<path d="M40.0341 40.3913C38.3353 39.2151 35.8885 37.3268 33.4357 34.7608C28.1862 29.2689 25.155 23.1648 24.4106 16.5954C29.4098 14.1577 32.8394 9.9672 34.1056 4.76245H45.9334C47.1997 9.96751 50.6288 14.1575 55.6277 16.5953C54.1856 29.2373 44.5094 37.2981 40.0341 40.3913Z" fill="#FFE4D1"/>
<path d="M44.4477 18.4275C44.4477 15.8778 42.2928 13.8315 39.7051 14.0101C37.5581 14.1584 35.8036 15.8723 35.61 18.0155C35.4371 19.928 36.4818 21.6166 38.0565 22.3968V27.7403C38.0565 28.8244 38.9353 29.7034 40.0195 29.7034C41.1036 29.7034 41.9826 28.8246 41.9826 27.7403V22.3968C43.4431 21.6733 44.4477 20.168 44.4477 18.4275Z" fill="#FFAF76"/>
</g>
<defs>
<linearGradient id="paint0_linear_180_5039" x1="39.9998" y1="21" x2="39.9998" y2="54.0043" gradientUnits="userSpaceOnUse">
<stop stop-color="#C6C8D2"/>
<stop offset="1" stop-color="#F3F3F3"/>
</linearGradient>
<clipPath id="clip0_180_5039">
<rect width="80" height="80" fill="white"/>
</clipPath>
</defs>
</svg>
