<svg width="80" height="80" viewBox="0 0 80 80" fill="none" xmlns="http://www.w3.org/2000/svg">
<g clip-path="url(#clip0_462_1803)">
<path fill-rule="evenodd" clip-rule="evenodd" d="M28.654 79.9999H28.6542H28.6544V69.9073C28.6544 66.0874 27.1069 62.6998 24.2972 60.3685C21.7234 58.2331 18.1827 57.0571 14.327 57.0571C14.327 57.0571 14.327 57.0571 14.327 57.0571C10.4712 57.0571 6.93047 58.2331 4.35688 60.3685C1.54719 62.6998 0 66.0874 0 69.9073V79.9999H14.327H28.654Z" fill="url(#paint0_linear_462_1803)"/>
<path fill-rule="evenodd" clip-rule="evenodd" d="M51.3457 79.9999H65.6727H79.9999V69.9073C79.9999 69.0502 79.922 68.2149 79.7694 67.4084C79.242 64.6204 77.8222 62.1767 75.6429 60.3685C73.0691 58.2331 69.5284 57.0571 65.6727 57.0571C65.6727 57.0571 65.6727 57.0571 65.6727 57.0571C61.8169 57.0571 58.2762 58.2331 55.7026 60.3685C52.8929 62.6998 51.3457 66.0874 51.3457 69.9073V79.9999Z" fill="url(#paint1_linear_462_1803)"/>
<path fill-rule="evenodd" clip-rule="evenodd" d="M56.4238 52.4953C56.4238 57.5953 60.5729 61.7445 65.673 61.7445C65.6731 61.7445 65.6731 61.7445 65.6731 61.7445V61.7447C70.7733 61.7447 74.9223 57.5955 74.9223 52.4955C74.9223 51.3425 74.7103 50.2381 74.3231 49.2192C72.9977 45.7314 69.6203 43.2461 65.6731 43.2461C65.6731 43.2461 65.6731 43.2461 65.673 43.2461C60.573 43.2461 56.4238 47.3953 56.4238 52.4953Z" fill="#EBECED"/>
<path d="M39.9998 23.4502L49.189 28.2812L47.434 18.0489L54.8682 10.8023L44.5945 9.30969L39.9998 0L35.4051 9.30969L25.1313 10.8023L32.5656 18.0489L30.8106 28.2811L39.9998 23.4502Z" fill="#FFAF76"/>
<path d="M54.8684 10.8023L44.5947 9.30969L40 0V23.4502L49.1892 28.2812L47.4342 18.0489L54.8684 10.8023Z" fill="#FF7A1A"/>
<path fill-rule="evenodd" clip-rule="evenodd" d="M17.2954 79.9999H39.9998H62.7042H62.7042V77.51C62.7042 71.4292 60.3491 66.2608 55.8933 62.5639C51.8139 59.1792 46.1695 57.3152 39.9998 57.3152C39.9997 57.3152 39.9996 57.3152 39.9995 57.3152C33.8295 57.3152 28.1851 59.1792 24.1059 62.5639C19.6504 66.2608 17.2954 71.4291 17.2954 77.51V79.9999Z" fill="url(#paint2_linear_462_1803)"/>
<path fill-rule="evenodd" clip-rule="evenodd" d="M39.9998 62.0028C32.238 62.0028 25.9231 55.688 25.9231 47.9261C25.9231 40.1642 32.238 33.8494 39.9998 33.8494C39.9999 33.8494 39.9999 33.8494 39.9999 33.8494C47.7621 33.8494 54.0769 40.1642 54.0769 47.9261C54.0769 55.2028 48.5267 61.2078 41.4371 61.93C40.9645 61.9781 40.485 62.0028 39.9999 62.0028C39.9999 62.0028 39.9999 62.0028 39.9998 62.0028ZM5.07764 52.4953C5.07764 57.5953 9.2267 61.7445 14.3269 61.7445H14.3269V61.7447C19.4271 61.7447 23.5761 57.5955 23.5761 52.4955C23.5761 51.2204 23.3168 50.0048 22.8481 48.8985C21.7206 46.2374 19.3815 44.2094 16.5265 43.5103C15.8213 43.3377 15.0846 43.2461 14.3269 43.2461H14.3269C9.22686 43.2461 5.07764 47.3953 5.07764 52.4953Z" fill="#EBECED"/>
<path d="M21.6309 35.4197L18.8155 27.4886L23.7528 20.6735L15.3405 20.9004L10.3844 14.0986L8 22.1699L0 24.7811L6.93953 29.5427L6.95125 37.9585L13.6239 32.8302L21.6309 35.4197Z" fill="#FFAF76"/>
<path d="M21.631 35.4197L18.8155 27.4887L23.7529 20.6735L15.3405 20.9004L10.3848 14.0991L13.624 32.8302L21.631 35.4197Z" fill="#FF7A1A"/>
<path d="M58.3689 35.4197L61.1844 27.4886L56.2471 20.6735L64.6594 20.9004L69.6155 14.0986L71.9999 22.1699L79.9999 24.7811L73.0604 29.5427L73.0486 37.9585L66.376 32.8302L58.3689 35.4197Z" fill="#FF7A1A"/>
<path d="M58.3689 35.4197L61.1844 27.4887L56.2471 20.6735L64.6594 20.9004L69.6152 14.0991L66.376 32.8302L58.3689 35.4197Z" fill="#FFAF76"/>
</g>
<defs>
<linearGradient id="paint0_linear_462_1803" x1="14.3272" y1="59.898" x2="14.3272" y2="79.9999" gradientUnits="userSpaceOnUse">
<stop stop-color="#C6C8D2"/>
<stop offset="1" stop-color="#F3F3F3"/>
</linearGradient>
<linearGradient id="paint1_linear_462_1803" x1="65.6728" y1="59.898" x2="65.6728" y2="79.9999" gradientUnits="userSpaceOnUse">
<stop stop-color="#C6C8D2"/>
<stop offset="1" stop-color="#F3F3F3"/>
</linearGradient>
<linearGradient id="paint2_linear_462_1803" x1="38.3755" y1="52.1826" x2="45.5808" y2="87.8474" gradientUnits="userSpaceOnUse">
<stop/>
<stop offset="1" stop-color="#E3E3E3"/>
</linearGradient>
<clipPath id="clip0_462_1803">
<rect width="80" height="80" fill="white"/>
</clipPath>
</defs>
</svg>
