<svg width="80" height="80" viewBox="0 0 80 80" fill="none" xmlns="http://www.w3.org/2000/svg">
<path d="M27.5322 36.7521L64.8712 74.0906C67.4179 76.6372 71.5455 76.6367 74.091 74.0906C74.6299 73.5523 75.0551 72.9425 75.3655 72.2921L33.6786 30.6052L27.5322 36.7521ZM67.9447 71.0177C67.096 70.1695 67.096 68.7935 67.9447 67.9448C68.7934 67.0961 70.1694 67.0961 71.0181 67.9448C71.8668 68.7935 71.8668 70.1695 71.0181 71.0177C70.1694 71.8664 68.7934 71.8664 67.9447 71.0177Z" fill="#C6C8D2"/>
<path d="M71.0183 71.0179C71.867 70.1692 71.867 68.7931 71.0177 67.9444C70.169 67.0957 68.7935 67.0957 67.9448 67.9444C67.0967 68.7926 67.0961 70.167 67.9432 71.0157L63.6046 66.6772L33.6787 30.6054L36.7522 27.532L74.0912 64.871C76.0989 66.8788 76.523 69.8682 75.3651 72.2918C72.9431 73.4486 69.9559 73.0257 67.9481 71.0206C68.7974 71.8661 70.1707 71.8655 71.0183 71.0179Z" fill="#E2E4E9"/>
<path d="M38.9103 35.8726L66.6477 63.61C66.0061 63.9198 65.4041 64.3389 64.8718 64.8712C64.3263 65.4167 63.8984 66.0352 63.5869 66.695L35.8374 38.9455L38.9103 35.8726Z" fill="#F5F5F5"/>
<path d="M55.7256 22.7376L65.4513 25.2958L74.7332 16.0139C76.4224 14.3248 76.4224 11.5611 74.7332 9.87198L71.6619 6.80127L55.7256 22.7376Z" fill="#3C4467"/>
<path d="M70.1279 5.26638L71.6622 6.80119C73.3514 8.4898 73.3514 11.254 71.6622 12.9431L58.7965 25.8088L54.7041 14.5483L63.986 5.26638C65.6751 3.57722 68.4388 3.57722 70.1279 5.26638Z" fill="#7F859F"/>
<path d="M19.4141 4.11177C24.4799 3.53498 29.8072 5.24008 33.703 9.11499C33.7244 9.13641 29.0678 17.8629 29.0678 17.8629L19.4141 4.11177Z" fill="#A4A8B7"/>
<path d="M19.4139 4.11157L31.1166 15.8143L28.0437 18.8872L15.7516 6.59505C15.1709 6.01497 15.4209 5.03059 16.2048 4.78614C17.2551 4.45929 18.3295 4.23462 19.4139 4.11157Z" fill="#7F859F"/>
<path d="M19.8481 29.1311L6.56608 15.8491C5.98325 15.2662 4.99502 15.5211 4.75497 16.3099C2.94111 22.2679 4.39296 29.0009 9.11713 33.7004L19.8481 29.1311Z" fill="#A4A8B7"/>
<path d="M9.11719 33.7005C12.512 37.0953 16.9697 38.6873 21.4176 38.7993C23.5698 38.8537 30.0178 39.2355 30.0178 39.2355L39.2376 30.0162C39.2376 30.0162 38.7992 23.52 38.7371 21.3512C38.6091 16.9336 37.054 12.5017 33.7015 9.11621L9.11719 33.7005Z" fill="url(#paint0_linear_180_5074)"/>
<path d="M22.8886 26.0252L25.1935 25.2567L25.9615 22.9523L28.2664 20.6473C28.6905 20.2227 29.3788 20.2227 29.8029 20.6473L31.3399 22.1838C31.7639 22.6079 31.7639 23.2962 31.3399 23.7202L29.0349 26.0252L26.73 26.7937L25.9615 29.0986L23.6565 31.4036C23.2324 31.8277 22.5447 31.8277 22.1201 31.4036L20.5836 29.8666C20.159 29.4425 20.159 28.7542 20.5836 28.3301L22.8886 26.0252Z" fill="#E2E4E9"/>
<path d="M25.9616 29.099L22.8887 26.0261L25.9616 22.9526L29.035 26.0261L25.9616 29.099Z" fill="#F5F5F5"/>
<path d="M5.40332 75.0396C5.66535 75.1825 5.98835 75.2215 6.31409 75.094L12.8329 72.5408L12.2391 66.0132L5.40332 75.0396Z" fill="#2D334D"/>
<path d="M11.6825 68.3176L7.45927 67.1667L4.90603 73.6861C4.68795 74.2431 4.95492 74.7946 5.40316 75.0396L12.2389 70.3589L11.6825 68.3176Z" fill="#3C4467"/>
<path d="M20.5156 61.7849L21.6665 69.0815L12.8328 72.5406L11.2964 71.0042L20.5156 61.7849Z" fill="#FFCAA3"/>
<path d="M10.9185 58.3337L20.352 61.6209L18.5975 66.0127L11.2965 71.0044L7.45947 67.1668L10.9185 58.3337Z" fill="#FFE4D1"/>
<path d="M10.9185 58.3335L18.5974 66.0124L23.5111 64.7836L63.2018 25.093L50.6097 18.6428L10.9185 58.3335Z" fill="#FFAF76"/>
<path d="M61.3571 23.2483V29.3903L21.6659 69.0815L18.5952 66.0102L61.3571 23.2483Z" fill="#FF7A1A"/>
<path d="M62.381 22.2246L65.4517 25.2958L61.3571 29.3905L58.2864 26.3192L57.2603 21.199L62.381 22.2246Z" fill="#C6C8D2"/>
<path d="M58.2866 26.3197L50.6099 18.6435L54.7045 14.5488L62.3813 22.225L58.2866 26.3197Z" fill="#F5F5F5"/>
<defs>
<linearGradient id="paint0_linear_180_5074" x1="24.1774" y1="9.11621" x2="24.1774" y2="51.6621" gradientUnits="userSpaceOnUse">
<stop stop-color="#C6C8D2"/>
<stop offset="1" stop-color="white"/>
</linearGradient>
</defs>
</svg>
