<svg width="80" height="80" viewBox="0 0 80 80" fill="none" xmlns="http://www.w3.org/2000/svg">
<g clip-path="url(#clip0_462_1859)">
<path fill-rule="evenodd" clip-rule="evenodd" d="M37.647 26.0864V9.41187H39.9999L40 9.41255V9.41187H56.4706L58.8235 11.7648L56.4706 14.1177H42.3529V26.0864L41.1765 28.2354L40 25.8825V25.8819L39.9999 25.8825L38.8234 28.2354L37.647 26.0864Z" fill="#C6C8D2"/>
<path fill-rule="evenodd" clip-rule="evenodd" d="M37.6469 65.8823V53.9137L38.8233 51.7646L39.9998 54.1176L40 54.1188V54.1176L41.1765 51.7646L42.3529 53.9137V70.5882H40V70.5866L39.9998 70.5882H23.5292L21.1763 68.2352L23.5292 65.8823H37.6469Z" fill="#C6C8D2"/>
<path d="M53.9137 42.3529H65.8823V56.4705L68.2352 58.8234L70.5882 56.4705C70.5882 52.4391 70.5882 41.5215 70.5882 37.647C68.2196 37.647 56.2823 37.647 53.9294 37.647L51.7646 39.9999L53.9137 42.3529Z" fill="#E2E4E9"/>
<path d="M26.0861 42.353C23.7332 42.353 11.7802 42.353 9.41162 42.353C9.41162 38.4471 9.41162 27.4824 9.41162 23.5295L11.7646 21.1765L14.1175 23.5295V37.6471H26.0861L28.2352 40L26.0861 42.353Z" fill="#E0DDE8"/>
<path d="M23.5294 80.0001C21.9451 80.0001 1.58431 80.0001 0 80.0001C0 78.4158 0 58.055 0 56.4707H23.5294V80.0001Z" fill="#A4A8B7"/>
<path d="M4.70605 75.2942H18.8237C18.8237 73.5844 18.8237 62.902 18.8237 61.1765C17.1139 61.1765 6.43154 61.1765 4.70605 61.1765V75.2942Z" fill="#F9F2F8"/>
<path d="M23.5294 23.5294C21.9451 23.5294 1.58431 23.5294 0 23.5294C0 21.9451 0 1.58431 0 0H23.5294V23.5294Z" fill="#7F859F"/>
<path d="M4.70605 18.8235H18.8237C18.8237 17.1137 18.8237 6.4313 18.8237 4.70581C17.1139 4.70581 6.43154 4.70581 4.70605 4.70581V18.8235Z" fill="#F9F2F8"/>
<path d="M56.4707 80.0001H80.0001C80.0001 78.4158 80.0001 58.055 80.0001 56.4707C78.4158 56.4707 58.055 56.4707 56.4707 56.4707V80.0001Z" fill="#7F859F"/>
<path d="M61.1763 75.2942H75.2939C75.2939 73.5844 75.2939 62.902 75.2939 61.1765C73.5841 61.1765 62.9018 61.1765 61.1763 61.1765V75.2942Z" fill="#F9F2F8"/>
<path d="M80.0001 23.5294C80.0001 21.9451 80.0001 1.58431 80.0001 0C78.4158 0 58.055 0 56.4707 0V23.5294H80.0001Z" fill="#C6C8D2"/>
<path d="M61.1763 18.8235H75.2939C75.2939 17.1137 75.2939 6.4313 75.2939 4.70581C73.5841 4.70581 62.9018 4.70581 61.1763 4.70581V18.8235Z" fill="#F9F2F8"/>
<path d="M25.8823 40C25.8823 47.7804 32.2196 54.1176 40 54.1176L42.3529 40L40 25.8823C32.2196 25.8823 25.8823 32.2196 25.8823 40Z" fill="#FF7A1A"/>
<path d="M54.1176 40C54.1176 32.2196 47.7804 25.8823 40 25.8823V40V54.1176C47.7804 54.1176 54.1176 47.7804 54.1176 40Z" fill="#FFCAA3"/>
<path fill-rule="evenodd" clip-rule="evenodd" d="M37.647 39.9999V37.647H38.8234H39.9999L40 37.6471V37.647H41.1765H42.3529V39.9999V42.3529H41.1765H40V42.3527L39.9999 42.3529H38.8234H37.647V39.9999Z" fill="#344F79"/>
<path d="M65.8823 65.8823H70.5882V70.5882H65.8823V65.8823Z" fill="#C6C8D2"/>
<path d="M65.8823 9.41187H70.5882V14.1177H65.8823V9.41187Z" fill="#7F859F"/>
<path d="M9.41162 65.8823H14.1175V70.5882H9.41162V65.8823Z" fill="#C6C8D2"/>
<path d="M9.41162 9.41187H14.1175V14.1177H9.41162V9.41187Z" fill="#C6C8D2"/>
</g>
<defs>
<clipPath id="clip0_462_1859">
<rect width="80" height="80" fill="white"/>
</clipPath>
</defs>
</svg>
