<svg width="80" height="80" viewBox="0 0 80 80" fill="none" xmlns="http://www.w3.org/2000/svg">
<g clip-path="url(#clip0_180_5123)">
<path d="M78.4348 58.928H1.56516C0.700781 58.928 0 58.2272 0 57.3628V20.7181L0.782656 18.4731H79.2175L80 20.7181V57.3628C80 58.2272 79.2992 58.928 78.4348 58.928Z" fill="#F5F5F5"/>
<path d="M79.2173 18.4731H74.1144V51.4774C74.1144 52.3417 73.4136 53.0425 72.5492 53.0425H0V57.3628C0 58.2272 0.700781 58.928 1.56516 58.928H78.4348C79.2992 58.928 80 58.2272 80 57.3628V20.7181L79.2173 18.4731Z" fill="#E2E4E9"/>
<path d="M80 20.7181H0V6.7854C0 5.92243 0.699531 5.2229 1.5625 5.2229H78.4375C79.3005 5.2229 80 5.92243 80 6.7854V20.7181Z" fill="url(#paint0_linear_180_5123)"/>
<path d="M78.4346 5.2229H74.1143V20.7181H79.9997V6.78806C79.9997 5.92368 79.2989 5.2229 78.4346 5.2229Z" fill="#3C4467"/>
<path d="M7.50293 15.2156C8.76714 15.2156 9.79199 14.1907 9.79199 12.9265C9.79199 11.6623 8.76714 10.6375 7.50293 10.6375C6.23872 10.6375 5.21387 11.6623 5.21387 12.9265C5.21387 14.1907 6.23872 15.2156 7.50293 15.2156Z" fill="#FF9548"/>
<path d="M14.4639 15.2156C15.7281 15.2156 16.7529 14.1907 16.7529 12.9265C16.7529 11.6623 15.7281 10.6375 14.4639 10.6375C13.1997 10.6375 12.1748 11.6623 12.1748 12.9265C12.1748 14.1907 13.1997 15.2156 14.4639 15.2156Z" fill="#FFAF76"/>
<path d="M21.4258 15.2156C22.69 15.2156 23.7148 14.1907 23.7148 12.9265C23.7148 11.6623 22.69 10.6375 21.4258 10.6375C20.1616 10.6375 19.1367 11.6623 19.1367 12.9265C19.1367 14.1907 20.1616 15.2156 21.4258 15.2156Z" fill="#FFCAA3"/>
<path d="M71.693 13.54H68.0721C65.0063 13.54 62.3137 15.7155 61.6696 18.713L59.7023 27.8699C59.6559 28.0858 59.4649 28.2402 59.244 28.2402H16.0996C15.5429 28.2402 14.9902 28.388 14.5285 28.6991C13.5698 29.3455 13.1401 30.4811 13.3707 31.5546L19.6876 60.9549C19.9587 62.2171 21.0745 63.1185 22.3655 63.1185H55.5188C56.8098 63.1185 57.9255 62.2169 58.1968 60.9549L67.0255 19.8638C67.1309 19.3738 67.571 19.018 68.0723 19.018H71.7649C73.2602 19.018 74.4755 17.8199 74.5035 16.3313C74.5323 14.7964 73.2284 13.54 71.693 13.54ZM35.6696 57.3536L35.3652 53.6566C35.3502 53.4746 35.494 53.3185 35.6766 53.3185H41.9021C42.0848 53.3185 42.2285 53.4746 42.2135 53.6566L41.9091 57.3536C41.8959 57.5157 41.7604 57.6405 41.5977 57.6405H35.981C35.8184 57.6405 35.6829 57.5158 35.6696 57.3536ZM34.8626 47.5536L34.5582 43.8566C34.5432 43.6746 34.687 43.5185 34.8696 43.5185H42.709C42.8916 43.5185 43.0354 43.6746 43.0204 43.8566L42.716 47.5536C42.7027 47.7157 42.5673 47.8405 42.4046 47.8405H35.1741C35.0115 47.8405 34.876 47.7157 34.8626 47.5536ZM21.9312 43.5183H28.7459C28.9085 43.5183 29.044 43.643 29.0573 43.8052L29.3616 47.5022C29.3766 47.6843 29.2329 47.8404 29.0502 47.8404H22.7255C22.5782 47.8404 22.451 47.7375 22.4201 47.5935L21.6257 43.8964C21.5838 43.7019 21.7321 43.5183 21.9312 43.5183ZM34.0557 37.7535L33.7513 34.0564C33.7363 33.8744 33.8801 33.7183 34.0627 33.7183H43.5159C43.6985 33.7183 43.8423 33.8744 43.8273 34.0564L43.5229 37.7535C43.5096 37.9155 43.3741 38.0404 43.2115 38.0404H34.3671C34.2045 38.0404 34.069 37.9155 34.0557 37.7535ZM48.8329 43.5183H55.9534C56.1524 43.5183 56.3007 43.7019 56.2588 43.8964L55.4645 47.5935C55.4335 47.7375 55.3062 47.8404 55.159 47.8404H48.5285C48.3459 47.8404 48.2021 47.6843 48.2171 47.5022L48.5215 43.8052C48.5348 43.6432 48.6702 43.5183 48.8329 43.5183ZM57.2646 38.0404H49.3354C49.1527 38.0404 49.009 37.8843 49.024 37.7022L49.3284 34.0052C49.3416 33.8432 49.4771 33.7183 49.6398 33.7183H58.059C58.258 33.7183 58.4063 33.9019 58.3644 34.0964L57.5701 37.7935C57.5391 37.9374 57.4119 38.0404 57.2646 38.0404ZM28.2502 34.0052L28.5546 37.7022C28.5696 37.8843 28.4259 38.0404 28.2432 38.0404H20.6198C20.4724 38.0404 20.3452 37.9375 20.3143 37.7935L19.5199 34.0964C19.478 33.9019 19.6265 33.7183 19.8254 33.7183H27.9388C28.1015 33.7183 28.237 33.843 28.2502 34.0052ZM24.0368 53.3185H29.5527C29.7154 53.3185 29.8509 53.4432 29.8641 53.6054L30.1685 57.3024C30.1835 57.4844 30.0398 57.6405 29.8571 57.6405H24.8312C24.6838 57.6405 24.5566 57.5377 24.5257 57.3936L23.7313 53.6966C23.6895 53.5021 23.8377 53.3185 24.0368 53.3185ZM47.4101 57.3024L47.7144 53.6054C47.7277 53.4433 47.8632 53.3185 48.0259 53.3185H53.8474C54.0465 53.3185 54.1948 53.5021 54.1529 53.6966L53.3585 57.3936C53.3276 57.5377 53.2002 57.6405 53.053 57.6405H47.7213C47.5388 57.6405 47.3951 57.4844 47.4101 57.3024Z" fill="#FFAF76"/>
<path d="M71.8627 13.5449C71.8635 13.5813 71.8673 13.617 71.8665 13.6537C71.8385 15.1423 70.6232 16.3404 69.1279 16.3404H67.0223C65.5805 16.3404 64.3348 17.3474 64.0324 18.7571L55.5596 58.2771C55.2885 59.5393 54.1727 60.4407 52.8816 60.4407H19.7287C19.6774 60.4407 19.627 60.437 19.5762 60.4341L19.688 60.9548C19.9591 62.2169 21.0749 63.1184 22.366 63.1184H55.5193C56.8102 63.1184 57.926 62.2168 58.1973 60.9548L67.026 19.8637C67.1313 19.3737 67.5715 19.0179 68.0727 19.0179H71.7654C73.2782 19.0179 74.5045 17.7916 74.5045 16.2788C74.5045 14.7991 73.3299 13.5966 71.8627 13.5449Z" fill="#FF9548"/>
<path d="M28.5825 74.7772C32.2917 74.7772 35.2987 71.7703 35.2987 68.061C35.2987 64.3517 32.2917 61.3447 28.5825 61.3447C24.8732 61.3447 21.8662 64.3517 21.8662 68.061C21.8662 71.7703 24.8732 74.7772 28.5825 74.7772Z" fill="#ECF4FF"/>
<path d="M48.9965 74.7772C52.7058 74.7772 55.7128 71.7703 55.7128 68.061C55.7128 64.3517 52.7058 61.3447 48.9965 61.3447C45.2872 61.3447 42.2803 64.3517 42.2803 68.061C42.2803 71.7703 45.2872 74.7772 48.9965 74.7772Z" fill="#ECF4FF"/>
<path d="M31.9502 62.251C32.5346 63.2469 32.8712 64.406 32.8712 65.6443C32.8712 69.3536 29.8641 72.3607 26.1549 72.3607C24.9271 72.3607 23.7774 72.0296 22.7871 71.4544C23.9534 73.4421 26.1113 74.7774 28.5824 74.7774C32.2918 74.7774 35.2987 71.7704 35.2987 68.0611C35.2987 65.5794 33.9518 63.4138 31.9502 62.251Z" fill="#DDEAFB"/>
<path d="M52.3643 62.251C52.9487 63.2469 53.2852 64.406 53.2852 65.6443C53.2852 69.3536 50.2782 72.3607 46.569 72.3607C45.3412 72.3607 44.1915 72.0296 43.2012 71.4544C44.3674 73.4421 46.5254 74.7774 48.9965 74.7774C52.7059 74.7774 55.7127 71.7704 55.7127 68.0611C55.7129 65.5794 54.366 63.4138 52.3643 62.251Z" fill="#DDEAFB"/>
<path d="M28.5822 70.0758C29.695 70.0758 30.5971 69.1738 30.5971 68.061C30.5971 66.9482 29.695 66.0461 28.5822 66.0461C27.4695 66.0461 26.5674 66.9482 26.5674 68.061C26.5674 69.1738 27.4695 70.0758 28.5822 70.0758Z" fill="#3C4467"/>
<path d="M48.9963 70.0758C50.1091 70.0758 51.0111 69.1738 51.0111 68.061C51.0111 66.9482 50.1091 66.0461 48.9963 66.0461C47.8835 66.0461 46.9814 66.9482 46.9814 68.061C46.9814 69.1738 47.8835 70.0758 48.9963 70.0758Z" fill="#3C4467"/>
</g>
<defs>
<linearGradient id="paint0_linear_180_5123" x1="80" y1="13" x2="-8.5" y2="17" gradientUnits="userSpaceOnUse">
<stop stop-color="#6F6F6F"/>
<stop offset="1" stop-color="#E2E2E2"/>
</linearGradient>
<clipPath id="clip0_180_5123">
<rect width="80" height="80" fill="white"/>
</clipPath>
</defs>
</svg>
