<svg width="80" height="80" viewBox="0 0 80 80" fill="none" xmlns="http://www.w3.org/2000/svg">
<path d="M1.5564 64.5574C0.697022 64.5574 0 65.2538 0 66.1132V78.4441C0 79.3035 0.697022 79.9999 1.5564 79.9999H17.8741V64.5574H1.5564Z" fill="#E2E4E9"/>
<path d="M4.8291 78.4434V66.113C4.8291 65.2537 5.52612 64.5566 6.3855 64.5566H1.5564C0.697022 64.5566 0 65.2537 0 66.113V78.4434C0 79.3027 0.697022 79.9998 1.5564 79.9998H6.3855C5.52612 79.9998 4.8291 79.3027 4.8291 78.4434Z" fill="#C6C8D2"/>
<path d="M19.1082 49.1143C18.2488 49.1143 17.5518 49.8113 17.5518 50.6707V79.9999H35.4259V49.1143H19.1082Z" fill="#C6C8D2"/>
<path d="M23.9373 49.1143H19.1082C18.2488 49.1143 17.5518 49.8113 17.5518 50.6707V79.9999H22.3815V50.6707C22.3815 49.8113 23.0779 49.1143 23.9373 49.1143Z" fill="#A4A8B7"/>
<path d="M36.6599 33.6719C35.8005 33.6719 35.1035 34.3689 35.1035 35.2283V80H52.9777V33.6719H36.6599Z" fill="#A4A8B7"/>
<path d="M41.489 33.6719H36.6599C35.8005 33.6719 35.1035 34.3689 35.1035 35.2277V80H39.9332V35.2277C39.9332 34.3683 40.6296 33.6719 41.489 33.6719Z" fill="#7F859F"/>
<path d="M68.6517 18.2288H54.212C53.3527 18.2288 52.6562 18.9258 52.6562 19.7852V80H68.6517C69.5111 80 70.2081 79.303 70.2081 78.4436V19.7852C70.2081 18.9258 69.5111 18.2288 68.6517 18.2288Z" fill="url(#paint0_linear_180_5099)"/>
<path d="M59.0411 18.2288H54.212C53.3527 18.2288 52.6562 18.9258 52.6562 19.7852V80H57.4854V19.7852C57.4854 18.9258 58.1818 18.2288 59.0411 18.2288Z" fill="#3C4467"/>
<path d="M7.86993 49.9121C7.42926 49.4117 7.47808 48.6487 7.97857 48.208L60.6342 1.87991C61.1353 1.43985 61.8982 1.48868 62.3383 1.98917C62.779 2.48966 62.7302 3.25259 62.2297 3.69266L9.57342 50.0208C9.07293 50.4615 8.30999 50.4126 7.86993 49.9121Z" fill="#FFE4D1"/>
<path d="M11.5624 49.1144C11.5624 50.6537 10.3148 51.9006 8.77612 51.9006C7.23682 51.9006 5.98926 50.6537 5.98926 49.1144C5.98926 47.5757 7.23682 46.3281 8.77612 46.3281C10.3148 46.3281 11.5624 47.5757 11.5624 49.1144Z" fill="#FFAF76"/>
<path d="M29.114 33.6718C29.114 35.2104 27.8665 36.458 26.3278 36.458C24.7891 36.458 23.5415 35.2104 23.5415 33.6718C23.5415 32.1331 24.7891 30.8855 26.3278 30.8855C27.8665 30.8855 29.114 32.1331 29.114 33.6718Z" fill="#FFAF76"/>
<path d="M46.6663 18.2286C46.6663 19.7679 45.4187 21.0155 43.88 21.0155C42.3413 21.0155 41.0938 19.7679 41.0938 18.2286C41.0938 16.6899 42.3413 15.4424 43.88 15.4424C45.4187 15.4424 46.6663 16.6899 46.6663 18.2286Z" fill="#FFAF76"/>
<path d="M64.218 2.78625C64.218 4.32556 62.9705 5.57251 61.4318 5.57251C59.8931 5.57251 58.6455 4.32556 58.6455 2.78625C58.6455 1.24756 59.8931 0 61.4318 0C62.9705 0 64.218 1.24756 64.218 2.78625Z" fill="#FFAF76"/>
<path d="M9.93335 49.1144C9.93335 48.3459 10.2446 47.6501 10.7482 47.146C10.2434 46.6406 9.54639 46.3281 8.77612 46.3281C7.23682 46.3281 5.98926 47.5757 5.98926 49.1144C5.98926 50.6537 7.23682 51.9006 8.77612 51.9006C9.54639 51.9006 10.2434 51.5881 10.7482 51.0828C10.2446 50.5786 9.93335 49.8834 9.93335 49.1144Z" fill="#FF9548"/>
<path d="M27.4855 33.6718C27.4855 32.9033 27.7968 32.2075 28.3003 31.7034C27.7955 31.198 27.0985 30.8855 26.3282 30.8855C24.7896 30.8855 23.542 32.1331 23.542 33.6718C23.542 35.2104 24.7896 36.458 26.3282 36.458C27.0985 36.458 27.7955 36.1455 28.3003 35.6401C27.7968 35.136 27.4855 34.4402 27.4855 33.6718Z" fill="#FF9548"/>
<path d="M45.0372 18.2286C45.0372 17.4602 45.3485 16.7644 45.8521 16.2603C45.3473 15.7555 44.6503 15.4424 43.88 15.4424C42.3413 15.4424 41.0938 16.6899 41.0938 18.2286C41.0938 19.7679 42.3413 21.0155 43.88 21.0155C44.6503 21.0155 45.3473 20.7024 45.8521 20.1976C45.3485 19.6935 45.0372 18.9977 45.0372 18.2286Z" fill="#FF9548"/>
<path d="M62.5896 2.78625C62.5896 2.01782 62.9009 1.32202 63.4038 0.817871C62.899 0.3125 62.202 0 61.4318 0C59.8931 0 58.6455 1.24756 58.6455 2.78625C58.6455 4.32556 59.8931 5.57251 61.4318 5.57251C62.202 5.57251 62.899 5.26001 63.4038 4.75464C62.9009 4.25049 62.5896 3.5553 62.5896 2.78625Z" fill="#FF9548"/>
<defs>
<linearGradient id="paint0_linear_180_5099" x1="61.4322" y1="29.5" x2="61.4322" y2="80" gradientUnits="userSpaceOnUse">
<stop stop-color="#7F859F"/>
<stop offset="1" stop-color="#7F859F" stop-opacity="0"/>
</linearGradient>
</defs>
</svg>
