<svg width="72" height="73" viewBox="0 0 72 73" fill="none" xmlns="http://www.w3.org/2000/svg">
<path d="M68.256 31.244C67.32 37.508 61.992 41.972 55.944 42.26C57.456 47.876 61.128 50.108 65.592 51.4039C66.024 51.548 65.952 51.98 65.952 51.98L65.232 56.444C65.232 56.444 65.16 56.804 64.584 56.732C49.176 55.004 38.736 43.268 40.68 29.012C42.48 19.148 50.184 15.332 57.312 16.34C64.44 17.492 69.336 24.116 68.256 31.244ZM19.08 42.26C20.52 47.876 24.336 50.108 28.728 51.4039C29.16 51.548 29.088 51.98 29.088 51.98L28.44 56.444C28.44 56.444 28.368 56.804 27.792 56.732C12.312 55.004 2.016 43.268 3.816 29.012C5.688 19.148 13.464 15.332 20.52 16.34C27.648 17.492 32.544 24.116 31.392 31.244C30.456 37.58 25.2 42.044 19.08 42.26Z" fill="url(#paint0_linear_180_5182)"/>
<defs>
<linearGradient id="paint0_linear_180_5182" x1="36.0087" y1="4.5" x2="36.0087" y2="66.2599" gradientUnits="userSpaceOnUse">
<stop stop-color="#FF7A1A"/>
<stop offset="1" stop-color="#FF7A1A" stop-opacity="0"/>
</linearGradient>
</defs>
</svg>
