<svg width="114" height="32" viewBox="0 0 114 32" fill="none" xmlns="http://www.w3.org/2000/svg">
<g clip-path="url(#clip0_194_9091)">
<path d="M38.2947 8.57935C42.6918 8.57935 45.0086 11.7472 45.0086 15.7661C45.0086 16.1916 44.9141 17.2318 44.9141 17.2318H34.4176C34.654 19.8796 36.7344 21.2507 38.9566 21.2507C41.4152 21.2507 43.3538 19.5959 43.3538 19.5959L44.8195 22.2909C44.8195 22.2909 42.5027 24.4659 38.7202 24.4659C33.7084 24.4659 30.5405 20.8252 30.5405 16.5226C30.5405 11.889 33.7557 8.57935 38.2947 8.57935ZM41.1788 14.6786C41.1315 12.5983 39.855 11.5108 38.2001 11.5108C36.2616 11.5108 34.9377 12.6928 34.5594 14.6786H41.1788Z" fill="white"/>
<path d="M53.9924 8.5792C57.3494 8.5792 58.3896 10.5177 58.3896 10.5177H58.4369C58.4369 10.5177 58.3896 10.1395 58.3896 9.66667V3H62.1721V24.1348H58.5787V22.9054C58.5787 22.3381 58.626 21.9125 58.626 21.9125H58.5787C58.5787 21.9125 57.3021 24.513 53.8033 24.513C49.6898 24.513 47.0894 21.2506 47.0894 16.5697C47.0894 11.7471 49.9735 8.5792 53.9924 8.5792ZM54.7017 21.2979C56.6875 21.2979 58.5314 19.8794 58.5314 16.5225C58.5314 14.1584 57.3021 11.8416 54.7489 11.8416C52.6686 11.8416 50.9191 13.5437 50.9191 16.5697C50.9191 19.4539 52.4321 21.2979 54.7017 21.2979Z" fill="white"/>
<path d="M72.1012 27.2082C74.4179 27.2082 76.4038 26.2153 76.4038 23.5203V22.6219C76.4038 22.2437 76.451 21.8181 76.451 21.8181H76.4038C75.5054 23.142 74.1815 23.8512 72.1957 23.8512C67.8458 23.8512 65.3872 20.3524 65.3872 16.1444C65.3872 11.9363 67.7513 8.57935 72.1012 8.57935C75.4109 8.57935 76.5929 10.5179 76.5929 10.5179H76.6874C76.6874 10.5179 76.6402 10.3288 76.6402 10.0923V8.91032H80.1863V23.1893C80.1863 28.3902 76.1201 30.376 72.1957 30.376C70.3045 30.376 68.2714 29.856 66.8056 29.0522L67.9404 26.168C67.8931 26.2153 69.7844 27.2082 72.1012 27.2082ZM76.451 16.1916C76.451 12.7401 74.7489 11.7945 72.7158 11.7945C70.399 11.7945 69.1224 13.4493 69.1224 16.0025C69.1224 18.6503 70.4936 20.6361 72.9522 20.6361C74.7489 20.6834 76.451 19.6432 76.451 16.1916Z" fill="white"/>
<path d="M90.9661 8.57935C95.3632 8.57935 97.68 11.7472 97.68 15.7661C97.68 16.1916 97.5854 17.2318 97.5854 17.2318H87.089C87.3254 19.8796 89.4058 21.2507 91.628 21.2507C94.0866 21.2507 96.0252 19.5959 96.0252 19.5959L97.4909 22.2909C97.4909 22.2909 95.1741 24.4659 91.3916 24.4659C86.3798 24.4659 83.2119 20.8252 83.2119 16.5226C83.2592 11.889 86.427 8.57935 90.9661 8.57935ZM93.8975 14.6786C93.8502 12.6455 92.5736 11.5108 90.8715 11.5108C88.933 11.5108 87.6091 12.6928 87.2308 14.6786H93.8975Z" fill="white"/>
<path d="M107.468 8.57935C111.865 8.57935 114.181 11.7472 114.181 15.7661C114.181 16.1916 114.087 17.2318 114.087 17.2318H103.59C103.827 19.8796 105.907 21.2507 108.129 21.2507C110.588 21.2507 112.527 19.5959 112.527 19.5959L113.992 22.2909C113.992 22.2909 111.676 24.4659 107.893 24.4659C102.881 24.4659 99.7134 20.8252 99.7134 16.5226C99.7607 11.889 102.929 8.57935 107.468 8.57935ZM110.399 14.6786C110.352 12.6455 109.075 11.5108 107.373 11.5108C105.434 11.5108 104.111 12.6928 103.732 14.6786H110.399Z" fill="white"/>
<path fill-rule="evenodd" clip-rule="evenodd" d="M19.6134 9.01261L17.6093 9.83483L5.48149 14.8024L4.57362 12.5756L15.4167 8.139C14.1148 7.41955 12.6245 7.00844 11.0486 7.00844C6.09815 7.00844 2.05556 11.051 2.05556 16.0015C2.05556 17.646 2.50093 19.1705 3.27176 20.5066L1.37037 21.3117C0.49676 19.7358 0 17.92 0 16.0015C0 9.90335 4.95047 4.95288 11.0486 4.95288C14.4917 4.95288 17.575 6.54594 19.6134 9.01261ZM22.097 16.0015C22.097 22.0997 17.1466 27.0501 11.0484 27.0501C7.45117 27.0501 4.2308 25.32 2.22663 22.6307L3.3058 22.1853L4.21367 21.8085L8.95858 19.8557L17.9174 16.1899L17.4378 18.9821L6.23497 23.5728C7.6396 24.4636 9.30117 24.9946 11.0655 24.9946C16.016 24.9946 20.0586 20.9691 20.0586 16.0015C20.0586 14.2029 19.5276 12.5242 18.6026 11.1196L20.5382 10.3316C21.5317 11.9932 22.097 13.9288 22.097 16.0015ZM13.9093 15.9501L5.48155 19.4103L4.57368 17.1835L14.4575 13.1238L13.9093 15.9501Z" fill="#FF7A1A"/>
</g>
<defs>
<clipPath id="clip0_194_9091">
<rect width="114" height="32" fill="white"/>
</clipPath>
</defs>
</svg>
