<svg width="43" height="28" viewBox="0 0 43 28" fill="none" xmlns="http://www.w3.org/2000/svg">
<path d="M42.5559 10.569C41.9449 14.658 38.4669 17.572 34.5189 17.76C35.5059 21.426 37.9029 22.883 40.8169 23.729C41.0989 23.823 41.0519 24.105 41.0519 24.105L40.5819 27.019C40.5819 27.019 40.5349 27.254 40.1589 27.207C30.1009 26.079 23.2859 18.418 24.5549 9.11202C25.7299 2.67302 30.7589 0.182019 35.4119 0.840019C40.0649 1.59202 43.2609 5.91602 42.5559 10.569ZM10.4549 17.76C11.3949 21.426 13.8859 22.883 16.7529 23.729C17.0349 23.823 16.9879 24.105 16.9879 24.105L16.5649 27.019C16.5649 27.019 16.5179 27.254 16.1419 27.207C6.03688 26.079 -0.684124 18.418 0.490875 9.11202C1.71288 2.67302 6.78888 0.182019 11.3949 0.840019C16.0479 1.59202 19.2439 5.91602 18.4919 10.569C17.8809 14.705 14.4499 17.619 10.4549 17.76Z" fill="url(#paint0_linear_180_7260)"/>
<defs>
<linearGradient id="paint0_linear_180_7260" x1="21.5056" y1="4.01611" x2="21.5056" y2="27.2132" gradientUnits="userSpaceOnUse">
<stop stop-color="#C6C8D2"/>
<stop offset="1" stop-color="#F3F3F3"/>
</linearGradient>
</defs>
</svg>
