<svg width="87" height="73" viewBox="0 0 87 73" fill="none" xmlns="http://www.w3.org/2000/svg">
<path d="M85.5546 27.0339L76.373 19.5273V5.60286C76.373 2.78906 74.0839 0.5 71.2695 0.5H57.8333C56.9127 0.5 56.1666 1.24609 56.1666 2.16667C56.1666 3.08724 56.9127 3.83333 57.8333 3.83333H71.2695C72.2454 3.83333 73.0396 4.6276 73.0396 5.60286V35.1849L51.1666 51.8151L29.2935 35.1849V20.3249C29.2935 20.3249 29.2935 20.3242 29.2935 20.3236V5.60286C29.2935 4.6276 30.0878 3.83333 31.0637 3.83333H44.4999C45.4205 3.83333 46.1666 3.08724 46.1666 2.16667C46.1666 1.24609 45.4205 0.5 44.4999 0.5H31.0637C28.2493 0.5 25.9602 2.78906 25.9602 5.60286V19.5273L16.7786 27.0339C16.3912 27.3503 16.1666 27.8242 16.1666 28.3242V46.8275H8.66659C7.74601 46.8275 6.99992 47.5736 6.99992 48.4941C6.99992 49.4141 7.74601 50.1608 8.66659 50.1608H16.1666V67.3971C16.1666 70.2109 18.4556 72.5 21.2695 72.5H81.0637C83.8775 72.5 86.1666 70.2109 86.1666 67.3971V28.3242C86.1666 27.8242 85.942 27.3503 85.5546 27.0339ZM82.8333 66.6393L63.1132 46.9193L82.8333 31.9264V66.6393ZM76.373 23.8327L81.9615 28.4017L76.373 32.6504V23.8327ZM51.1666 55.5755C51.5221 55.5755 51.8775 55.4622 52.1757 55.2357L60.4355 48.9557L80.6464 69.1667H21.6868L41.8977 48.9557L50.1581 55.2357C50.4557 55.4622 50.8111 55.5755 51.1666 55.5755ZM19.4999 31.9264L39.22 46.9193L19.4999 66.6393V31.9264ZM25.9602 32.6504L20.3717 28.4017L25.9602 23.8327V32.6504Z" fill="url(#paint0_linear_118_2576)"/>
<path d="M11.4999 57.4941H2.49992C1.57935 57.4941 0.833252 58.2402 0.833252 59.1608C0.833252 60.0807 1.57935 60.8275 2.49992 60.8275H11.4999C12.4205 60.8275 13.1666 60.0807 13.1666 59.1608C13.1666 58.2402 12.4205 57.4941 11.4999 57.4941Z" fill="url(#paint1_linear_118_2576)"/>
<path d="M51.1666 3.83333C51.6047 3.83333 52.0351 3.65495 52.345 3.34505C52.6549 3.03516 52.8333 2.60482 52.8333 2.16667C52.8333 1.72852 52.6549 1.29818 52.345 0.988281C52.0351 0.678385 51.6047 0.5 51.1666 0.5C50.7284 0.5 50.2981 0.678385 49.9882 0.988281C49.6783 1.29818 49.4999 1.72852 49.4999 2.16667C49.4999 2.60482 49.6783 3.03516 49.9882 3.34505C50.2981 3.65495 50.7284 3.83333 51.1666 3.83333Z" fill="url(#paint2_linear_118_2576)"/>
<path d="M37.6445 24.6654C37.6445 32.1217 43.7102 38.1882 51.1666 38.1882C58.623 38.1882 64.6887 32.1217 64.6887 24.6654C64.6887 17.209 58.623 11.1432 51.1666 11.1432C43.7102 11.1432 37.6445 17.209 37.6445 24.6654ZM61.3554 24.6654C61.3554 30.2839 56.7851 34.8548 51.1666 34.8548C45.5481 34.8548 40.9778 30.2839 40.9778 24.6654C40.9778 19.0469 45.5481 14.4766 51.1666 14.4766C56.7851 14.4766 61.3554 19.0475 61.3554 24.6654Z" fill="url(#paint3_linear_118_2576)"/>
<path d="M48.5702 23.1263C47.9192 22.4753 46.8645 22.4753 46.2135 23.1263C45.5624 23.7767 45.5624 24.832 46.2135 25.4831L49.1555 28.4251C49.481 28.7507 49.9075 28.9134 50.3339 28.9134C50.7603 28.9134 51.1868 28.7507 51.5123 28.4251L56.675 23.2624C57.3254 22.612 57.3254 21.5566 56.675 20.9056C56.024 20.2546 54.9687 20.2546 54.3176 20.9056L50.3339 24.8893L48.5702 23.1263Z" fill="url(#paint4_linear_118_2576)"/>
<defs>
<linearGradient id="paint0_linear_118_2576" x1="0.833239" y1="72.5" x2="86.1666" y2="72.5" gradientUnits="userSpaceOnUse">
<stop stop-color="#FFC43C"/>
<stop offset="1" stop-color="#FFA826"/>
</linearGradient>
<linearGradient id="paint1_linear_118_2576" x1="0.833239" y1="72.5" x2="86.1666" y2="72.5" gradientUnits="userSpaceOnUse">
<stop stop-color="#FFC43C"/>
<stop offset="1" stop-color="#FFA826"/>
</linearGradient>
<linearGradient id="paint2_linear_118_2576" x1="0.833239" y1="72.5" x2="86.1666" y2="72.5" gradientUnits="userSpaceOnUse">
<stop stop-color="#FFC43C"/>
<stop offset="1" stop-color="#FFA826"/>
</linearGradient>
<linearGradient id="paint3_linear_118_2576" x1="0.833239" y1="72.5" x2="86.1666" y2="72.5" gradientUnits="userSpaceOnUse">
<stop stop-color="#FFC43C"/>
<stop offset="1" stop-color="#FFA826"/>
</linearGradient>
<linearGradient id="paint4_linear_118_2576" x1="0.833239" y1="72.5" x2="86.1666" y2="72.5" gradientUnits="userSpaceOnUse">
<stop stop-color="#FFC43C"/>
<stop offset="1" stop-color="#FFA826"/>
</linearGradient>
</defs>
</svg>
