<svg width="300" height="300" viewBox="0 0 300 300" fill="none" xmlns="http://www.w3.org/2000/svg">
<path d="M68.6478 93.2055L13.3965 130.165L67.8187 211.521L123.07 174.562L68.6478 93.2055Z" fill="#F5F5F5"/>
<path d="M94.519 170.714L93.8936 174.594L66.4258 170.635L67.0512 166.754L94.519 170.714Z" fill="#E0E0E0"/>
<path d="M80.6863 156.871L84.6257 157.438L80.2579 184.482L76.3135 183.911L80.6863 156.871Z" fill="#E0E0E0"/>
<path d="M55.4091 122.499C55.4485 122.554 49.9135 126.331 43.0441 130.92C36.1747 135.51 30.5757 139.193 30.5363 139.134C30.4969 139.075 36.0319 135.303 42.9013 130.708C49.7707 126.114 55.3451 122.44 55.4091 122.499Z" fill="#E0E0E0"/>
<path d="M75.7083 117.398C75.7477 117.457 66.5393 123.681 55.1444 131.304C43.7495 138.927 34.4622 145.058 34.4327 145.004C34.4031 144.949 43.5919 138.715 55.0016 131.092C66.4112 123.47 75.6689 117.339 75.7083 117.398Z" fill="#E0E0E0"/>
<path d="M79.7806 123.484C79.82 123.543 70.6115 129.773 59.2166 137.396C47.8218 145.018 38.5345 151.149 38.505 151.09C38.4754 151.031 47.674 144.807 59.0738 137.179C70.4736 129.551 79.7412 123.425 79.7806 123.484Z" fill="#E0E0E0"/>
<path d="M83.8516 129.576C83.891 129.635 74.6825 135.864 63.2876 143.482C51.8927 151.1 42.6055 157.241 42.6055 157.182C42.6055 157.123 51.7696 150.893 63.1694 143.27C74.5692 135.648 83.8122 129.517 83.8516 129.576Z" fill="#E0E0E0"/>
<path d="M87.9104 135.667C87.9498 135.726 78.7413 141.951 67.3465 149.573C55.9516 157.196 46.6643 163.327 46.6397 163.268C46.6151 163.209 55.8186 156.985 67.2283 149.362C78.6379 141.739 87.9104 135.608 87.9104 135.667Z" fill="#E0E0E0"/>
<path d="M253.401 147.719L206.999 178.76L252.704 247.084L299.106 216.044L253.401 147.719Z" fill="#F5F5F5"/>
<path d="M275.132 212.826L274.606 216.086L251.535 212.762L252.067 209.502L275.132 212.826Z" fill="#E0E0E0"/>
<path d="M263.516 201.2L266.825 201.678L263.157 224.389L259.843 223.911L263.516 201.2Z" fill="#E0E0E0"/>
<path d="M242.268 172.358C242.308 172.417 237.664 175.593 231.893 179.449C226.121 183.305 221.414 186.387 221.374 186.343C221.335 186.299 225.983 183.113 231.75 179.252C237.516 175.391 242.229 172.274 242.268 172.358Z" fill="#E0E0E0"/>
<path d="M259.331 168.049C259.371 168.108 251.644 173.348 242.096 179.745C232.548 186.141 224.733 191.292 224.694 191.233C224.654 191.174 232.38 185.934 241.929 179.533C251.477 173.131 259.277 167.99 259.331 168.049Z" fill="#E0E0E0"/>
<path d="M262.753 173.161C262.792 173.22 255.066 178.46 245.518 184.861C235.97 191.263 228.155 196.404 228.115 196.345C228.076 196.286 235.778 191.071 245.351 184.669C254.923 178.268 262.724 173.107 262.753 173.161Z" fill="#E0E0E0"/>
<path d="M266.17 178.267C266.209 178.327 258.478 183.566 248.935 189.968C239.392 196.369 231.572 201.51 231.532 201.451C231.493 201.392 239.219 196.158 248.767 189.751C258.316 183.344 266.136 178.218 266.17 178.267Z" fill="#E0E0E0"/>
<path d="M269.617 183.394C269.657 183.453 261.93 188.687 252.382 195.089C242.834 201.491 235.019 206.632 234.98 206.578C234.94 206.523 242.667 201.279 252.215 194.877C261.763 188.476 269.553 183.335 269.617 183.394Z" fill="#E0E0E0"/>
<path d="M179.99 96.1986L129.359 69.1189L89.4853 143.671L140.116 170.751L179.99 96.1986Z" fill="#F5F5F5"/>
<path d="M131.451 147.426L128.241 148.524L120.086 125.986L123.302 124.883L131.451 147.426Z" fill="#E0E0E0"/>
<path d="M136.375 131.255L137.547 134.49L115.161 142.157L113.989 138.922L136.375 131.255Z" fill="#E0E0E0"/>
<path d="M152.281 98.0012C152.242 98.0751 147.111 95.4061 140.812 92.0428C134.514 88.6795 129.447 85.8874 129.487 85.8135C129.526 85.7396 134.662 88.4086 140.96 91.7719C147.258 95.1352 152.321 97.9224 152.281 98.0012Z" fill="#E0E0E0"/>
<path d="M164.434 111.41C164.395 111.484 155.895 107.013 145.451 101.428C135.006 95.8442 126.576 91.2547 126.615 91.1808C126.655 91.107 135.149 95.5733 145.594 101.162C156.038 106.752 164.474 111.336 164.434 111.41Z" fill="#E0E0E0"/>
<path d="M161.45 116.989C161.41 117.063 152.911 112.597 142.467 107.008C132.022 101.419 123.592 96.834 123.631 96.7602C123.67 96.6863 132.165 101.158 142.609 106.742C153.054 112.326 161.489 116.915 161.45 116.989Z" fill="#E0E0E0"/>
<path d="M158.466 122.568C158.427 122.642 149.928 118.176 139.483 112.592C129.039 107.008 120.608 102.433 120.648 102.344C120.687 102.256 129.181 106.737 139.626 112.321C150.07 117.905 158.506 122.495 158.466 122.568Z" fill="#E0E0E0"/>
<path d="M155.482 128.148C155.443 128.222 146.943 123.755 136.499 118.171C126.054 112.587 117.619 107.997 117.663 107.924C117.708 107.85 126.197 112.316 136.642 117.9C147.086 123.484 155.521 128.074 155.482 128.148Z" fill="#E0E0E0"/>
<path opacity="0.2" d="M155.743 33H154.473V54.6572H155.743V33Z" fill="black"/>
<path d="M125.449 80.8595H184.768C184.768 80.8595 179.292 54.667 154.66 54.667C132.752 54.667 125.449 80.8595 125.449 80.8595Z" fill="#FF9548"/>
<path d="M155.744 33H154.474V54.6572H155.744V33Z" fill="#FF9548"/>
<path d="M287.184 249.586C287.184 249.655 223.537 249.714 145.038 249.714C66.5395 249.714 2.88281 249.67 2.88281 249.586C2.88281 249.503 66.5198 249.458 145.038 249.458C223.556 249.458 287.184 249.512 287.184 249.586Z" fill="#263238"/>
<path d="M18.6207 218.746C19.4532 218.806 20.2652 219.033 21.008 219.414C21.7508 219.794 22.4093 220.321 22.9442 220.962C24.0078 222.251 24.7609 223.767 25.1454 225.393C25.9776 228.506 25.4655 232.184 24.5791 235.282C21.2109 234.075 19.1279 230.48 18.1775 228.589C16.7002 225.605 15.8188 219.302 18.6059 218.741" fill="#FF9548"/>
<path d="M29.4299 239.058C28.9241 238.274 28.6349 237.37 28.5916 236.437C28.5484 235.505 28.7526 234.578 29.1837 233.75C29.6282 232.93 30.2316 232.207 30.9587 231.622C31.6858 231.038 32.5221 230.605 33.4186 230.347C34.2409 230.091 35.1962 229.988 35.9103 230.465C36.2322 230.709 36.4828 231.034 36.6361 231.407C36.7894 231.781 36.8398 232.188 36.7819 232.588C36.6526 233.388 36.3127 234.139 35.797 234.764C34.1572 236.985 32.1678 238.832 29.3954 239.058" fill="#FF9548"/>
<path d="M29.8039 249.464C29.7308 249.254 29.6796 249.038 29.6512 248.818C29.5626 248.356 29.4444 247.76 29.3016 247.046C28.8596 245.091 28.7365 243.077 28.9372 241.082C29.1694 239.078 29.9327 237.172 31.1482 235.562C31.5196 235.081 31.9478 234.646 32.4236 234.267C32.5529 234.165 32.6877 234.069 32.8274 233.981C32.8718 233.945 32.9217 233.915 32.9751 233.893C32.3522 234.425 31.7832 235.017 31.2762 235.661C30.1248 237.273 29.3998 239.149 29.1686 241.117C28.8535 243.412 29.2425 245.514 29.469 247.026C29.5872 247.779 29.6857 248.39 29.7398 248.814C29.7786 249.028 29.8001 249.245 29.8039 249.464Z" fill="#263238"/>
<path d="M19.7041 223.488C19.7603 223.565 19.8066 223.65 19.842 223.739C19.9306 223.936 20.0488 224.182 20.1867 224.492C20.4871 225.147 20.9056 226.098 21.4128 227.275C22.4273 229.633 23.7864 232.913 25.2046 236.567C26.6228 240.221 27.8292 243.554 28.6516 245.982C29.0751 247.193 29.405 248.178 29.6365 248.863C29.7399 249.188 29.8187 249.449 29.8827 249.651C29.9178 249.741 29.9426 249.835 29.9565 249.931C29.9066 249.848 29.8669 249.759 29.8384 249.665C29.7645 249.469 29.6709 249.212 29.5478 248.892L28.5088 246.036C27.6273 243.628 26.3963 240.299 24.983 236.651C23.5697 233.002 22.2303 229.712 21.2553 227.339C20.7628 226.172 20.3837 225.221 20.103 224.527C19.9749 224.212 19.8715 223.961 19.7927 223.759C19.7557 223.671 19.7261 223.58 19.7041 223.488Z" fill="#263238"/>
<path d="M25.8007 242.58C24.7874 240.893 23.3872 239.471 21.7158 238.432C20.0443 237.394 18.1497 236.768 16.1884 236.606C15.2036 236.537 13.9922 236.705 13.549 237.591C13.1058 238.478 13.6967 239.561 14.3763 240.28C15.8201 241.79 17.6788 242.84 19.718 243.295C21.7572 243.751 23.8857 243.593 25.8352 242.841" fill="#FF9548"/>
<path d="M17.7051 239.275C17.9139 239.265 18.1232 239.273 18.3305 239.3C18.5733 239.313 18.815 239.341 19.0544 239.383C19.335 239.438 19.665 239.467 20.0097 239.566C20.395 239.647 20.7749 239.752 21.1472 239.881C21.5786 240.019 22.0012 240.184 22.4127 240.373C23.3594 240.797 24.2548 241.328 25.0817 241.954C25.8991 242.595 26.6394 243.329 27.2878 244.14C27.5678 244.494 27.826 244.864 28.0609 245.248C28.2733 245.58 28.4673 245.924 28.642 246.277C28.79 246.565 28.9215 246.861 29.036 247.164C29.1347 247.388 29.2186 247.618 29.2871 247.853C29.36 248.05 29.4144 248.252 29.4496 248.459C29.3954 248.459 29.1591 247.612 28.4943 246.351C28.3133 246.013 28.1144 245.684 27.8984 245.366C27.6585 244.993 27.3987 244.633 27.1204 244.288C25.8324 242.696 24.1899 241.428 22.3241 240.585C21.8957 240.398 21.487 240.221 21.0881 240.093C20.7219 239.959 20.3488 239.846 19.9703 239.753C18.5915 239.374 17.7002 239.329 17.7051 239.275Z" fill="#263238"/>
<path d="M107.607 148.495L90.1753 238.019L87.9102 249.739L204.124 249.178C209.344 249.153 213.973 244.519 215.642 237.635L236.255 153.119C237.531 147.894 234.734 142.458 230.775 142.463L113.123 142.586C110.562 142.581 108.267 145.004 107.607 148.495Z" fill="#FF9548"/>
<path d="M107.607 148.495L90.1753 238.019L87.9102 249.739L204.124 249.178C209.344 249.153 213.973 244.519 215.642 237.635L236.255 153.119C237.531 147.894 234.734 142.458 230.775 142.463L113.123 142.586C110.562 142.581 108.267 145.004 107.607 148.495Z" fill="url(#paint0_linear_387_1736)"/>
<path d="M192.99 231.943L180.679 132.762C180.187 128.699 176.942 125.666 173.116 125.681L146.13 125.764C145.128 125.776 144.138 125.991 143.221 126.398C142.304 126.804 141.479 127.393 140.797 128.128L127.994 141.754L52.9475 142.157C48.363 142.182 44.8372 146.525 45.4429 151.4L56.8722 243.067C57.3646 247.124 60.6098 250.153 64.4261 250.148L195.241 249.887C209.807 250.187 211.2 245.888 211.2 245.888C194.477 249.586 192.99 231.967 192.99 231.943Z" fill="#FF9548"/>
<g opacity="0.5">
<path d="M136.581 212.107L132.169 216.844L98.1914 186.274L102.604 181.537L136.581 212.107Z" fill="#131620"/>
<path d="M130.323 180.488L135.198 184.876L104.455 217.893L99.5752 213.506L130.323 180.488Z" fill="#131620"/>
</g>
<path d="M252.175 109.471C252.015 109.403 251.878 109.292 251.78 109.15C251.681 109.008 251.625 108.841 251.618 108.668L251.421 104.098C251.414 103.956 251.44 103.814 251.498 103.684C251.555 103.554 251.642 103.439 251.751 103.348C251.861 103.258 251.99 103.194 252.128 103.161C252.266 103.129 252.411 103.129 252.549 103.163C252.93 103.245 253.324 103.248 253.707 103.173C254.09 103.098 254.453 102.945 254.775 102.724C255.071 102.537 255.325 102.291 255.523 102.001C255.72 101.711 255.856 101.384 255.922 101.04C255.967 100.692 255.941 100.338 255.846 99.9993C255.751 99.661 255.59 99.3451 255.37 99.0704C255.14 98.7579 254.849 98.4939 254.517 98.2936C254.184 98.0934 253.814 97.9607 253.43 97.9033C252.655 97.8602 251.889 98.0799 251.254 98.5267C250.62 98.9736 250.154 99.6214 249.934 100.365C249.86 100.591 249.703 100.779 249.494 100.891C249.285 101.003 249.041 101.031 248.812 100.967C248.584 100.904 248.388 100.754 248.267 100.551C248.146 100.347 248.108 100.104 248.161 99.8731C248.496 98.7028 249.224 97.6835 250.222 96.9867C251.22 96.2899 252.428 95.958 253.642 96.0469C254.274 96.131 254.882 96.3414 255.431 96.6654C255.98 96.9894 256.459 97.4204 256.838 97.9329C257.207 98.4078 257.476 98.952 257.631 99.5331C257.786 100.114 257.823 100.72 257.739 101.316C257.627 101.911 257.395 102.476 257.056 102.977C256.717 103.479 256.279 103.905 255.769 104.231C255.03 104.728 254.168 105.01 253.278 105.044L253.43 108.569C253.436 108.724 253.402 108.878 253.333 109.017C253.263 109.155 253.16 109.274 253.032 109.362C252.905 109.45 252.757 109.504 252.602 109.52C252.448 109.535 252.293 109.511 252.15 109.451L252.175 109.471Z" fill="#FF9548"/>
<path d="M252.397 111.342C252.387 111.491 252.421 111.639 252.495 111.768C252.569 111.898 252.68 112.002 252.813 112.069C252.947 112.135 253.097 112.161 253.245 112.142C253.392 112.123 253.531 112.06 253.644 111.962C253.756 111.865 253.837 111.735 253.876 111.592C253.915 111.448 253.911 111.296 253.863 111.154C253.816 111.013 253.727 110.889 253.609 110.798C253.491 110.707 253.349 110.653 253.2 110.643C253.101 110.635 253.002 110.648 252.908 110.679C252.814 110.71 252.727 110.76 252.653 110.825C252.578 110.89 252.517 110.969 252.473 111.058C252.429 111.147 252.404 111.243 252.397 111.342Z" fill="#FF9548"/>
<path d="M268.569 104.025C268.548 103.927 268.533 103.829 268.524 103.729C268.524 103.513 268.47 103.237 268.431 102.848C268.382 102.37 268.302 101.896 268.19 101.43C268.126 101.154 268.091 100.849 267.993 100.538C267.894 100.228 267.796 99.8932 267.687 99.5535C267.117 97.87 266.286 96.2864 265.225 94.8606C263.834 93.0143 262.071 91.4809 260.05 90.3597C258.899 89.711 257.674 89.205 256.401 88.8529C255.027 88.4887 253.612 88.3033 252.19 88.3014C251.442 88.2894 250.693 88.3288 249.95 88.4196C249.571 88.459 249.196 88.5574 248.817 88.6215C248.434 88.6871 248.055 88.7793 247.685 88.8972C246.133 89.331 244.656 90.0003 243.307 90.8817C240.307 92.8275 238.022 95.6968 236.797 99.0561C236.137 100.856 235.804 102.758 235.812 104.675C235.792 106.649 236.141 108.61 236.841 110.456L237.063 111.017L237.093 111.091L237.063 111.165C235.827 114.006 234.601 116.798 233.444 119.502L233.237 119.266L240.623 116.434L240.712 116.4L240.786 116.468C242.74 118.362 245.132 119.742 247.749 120.487C249.985 121.102 252.326 121.237 254.618 120.881C256.91 120.525 259.1 119.688 261.044 118.423C262.637 117.379 264.041 116.072 265.196 114.558C266.869 112.348 267.954 109.748 268.347 107.004C268.406 106.512 268.456 106.098 268.5 105.724C268.544 105.349 268.5 105.044 268.524 104.783C268.549 104.522 268.524 104.35 268.524 104.207C268.5 104.203 268.478 104.19 268.462 104.171C268.447 104.151 268.439 104.127 268.441 104.102C268.443 104.077 268.454 104.054 268.472 104.037C268.49 104.02 268.514 104.011 268.539 104.011C268.564 104.011 268.588 104.02 268.606 104.037C268.624 104.054 268.636 104.077 268.637 104.102C268.639 104.127 268.632 104.151 268.616 104.171C268.601 104.19 268.579 104.203 268.554 104.207C268.554 104.35 268.554 104.542 268.554 104.783C268.554 105.024 268.554 105.359 268.554 105.733C268.554 106.108 268.47 106.536 268.421 107.024C268.259 108.208 267.977 109.373 267.579 110.5C267.015 111.989 266.257 113.396 265.324 114.686C264.164 116.227 262.75 117.559 261.143 118.625C259.175 119.921 256.953 120.784 254.626 121.156C252.299 121.527 249.919 121.4 247.645 120.782C244.997 120.03 242.575 118.636 240.594 116.725L240.756 116.759L233.37 119.605L233 119.748L233.163 119.369C234.335 116.665 235.546 113.878 236.777 111.032V111.175L236.551 110.599C235.832 108.712 235.475 106.708 235.497 104.69C235.482 102.732 235.815 100.788 236.482 98.9478C237.733 95.5215 240.069 92.5976 243.135 90.6207C244.518 89.7187 246.033 89.0376 247.626 88.6018C248.002 88.4825 248.388 88.392 248.778 88.3309C249.162 88.262 249.541 88.1635 249.925 88.129C250.678 88.0355 251.437 87.9928 252.195 88.001C253.639 88.0071 255.076 88.2025 256.47 88.5821C257.76 88.9484 259.001 89.4675 260.168 90.1283C262.209 91.2769 263.984 92.8463 265.373 94.7325C266.431 96.182 267.25 97.7912 267.801 99.4993C267.904 99.8538 268.002 100.194 268.091 100.484C268.169 100.781 268.232 101.082 268.278 101.385C268.384 101.855 268.453 102.333 268.485 102.813C268.515 103.193 268.534 103.483 268.549 103.7C268.57 103.807 268.576 103.916 268.569 104.025Z" fill="#263238"/>
<defs>
<linearGradient id="paint0_linear_387_1736" x1="199.5" y1="134.5" x2="161.13" y2="273.765" gradientUnits="userSpaceOnUse">
<stop/>
<stop offset="1" stop-color="#B9B9B9"/>
</linearGradient>
</defs>
</svg>
