<svg width="28" height="28" viewBox="0 0 28 28" fill="none" xmlns="http://www.w3.org/2000/svg">
<path d="M25.9331 0H2.06694C1.51875 0 0.99302 0.217767 0.605395 0.605395C0.217767 0.99302 0 1.51875 0 2.06694V25.9331C0 26.4812 0.217767 27.007 0.605395 27.3946C0.99302 27.7822 1.51875 28 2.06694 28H25.9331C26.4812 28 27.007 27.7822 27.3946 27.3946C27.7822 27.007 28 26.4812 28 25.9331V2.06694C28 1.51875 27.7822 0.99302 27.3946 0.605395C27.007 0.217767 26.4812 0 25.9331 0ZM8.34557 23.8525H4.13583V10.4806H8.34557V23.8525ZM6.23776 8.6275C5.76026 8.62482 5.29423 8.48073 4.89852 8.21345C4.50281 7.94617 4.19515 7.56764 4.01435 7.12565C3.83357 6.68366 3.78776 6.19803 3.8827 5.73003C3.97765 5.26203 4.2091 4.83265 4.54785 4.49608C4.88659 4.1595 5.31745 3.93081 5.78604 3.83887C6.25462 3.74693 6.73995 3.79586 7.18077 3.97948C7.6216 4.1631 7.99814 4.47319 8.26286 4.87061C8.52763 5.26804 8.66868 5.73497 8.66833 6.2125C8.67282 6.53222 8.61292 6.84956 8.49217 7.1456C8.37142 7.44164 8.19233 7.71038 7.96547 7.93572C7.73867 8.16113 7.46882 8.33852 7.17197 8.45734C6.87517 8.57617 6.55743 8.63403 6.23776 8.6275ZM23.8622 23.8642H19.6544V16.5589C19.6544 14.4044 18.7386 13.7394 17.5564 13.7394C16.3081 13.7394 15.0831 14.6806 15.0831 16.6133V23.8642H10.8733V10.4903H14.9217V12.3433H14.9761C15.3825 11.5208 16.8058 10.115 18.9778 10.115C21.3267 10.115 23.8642 11.5092 23.8642 15.5925L23.8622 23.8642Z" fill="#0A66C2"/>
</svg>
