<svg width="46" height="46" viewBox="0 0 46 46" fill="none" xmlns="http://www.w3.org/2000/svg">
<path fill-rule="evenodd" clip-rule="evenodd" d="M40.8308 8.46315L36.66 10.1742L11.4214 20.5121L9.53209 15.8779L32.0971 6.64512C29.3878 5.14792 26.2865 4.29237 23.0069 4.29237C12.7047 4.29237 4.29188 12.7052 4.29188 23.0074C4.29188 26.4296 5.21872 29.6022 6.82287 32.3827L2.86597 34.0582C1.04794 30.7786 0.0141602 26.9999 0.0141602 23.0074C0.0141602 10.3168 10.3163 0.0146484 23.0069 0.0146484C30.1721 0.0146484 36.5887 3.32988 40.8308 8.46315ZM45.9992 23.0072C45.9992 35.6978 35.697 46 23.0064 46C15.5204 46 8.81861 42.3996 4.64783 36.8029L6.89364 35.8761L8.78297 35.0918L18.6574 31.028L37.3011 23.3994L36.303 29.2099L12.9894 38.7635C15.9125 40.6172 19.3703 41.7223 23.042 41.7223C33.3442 41.7223 41.7571 33.3451 41.7571 23.0072C41.7571 19.2642 40.652 15.7708 38.727 12.8477L42.7552 11.2079C44.8228 14.6657 45.9992 18.6939 45.9992 23.0072ZM28.9591 22.9003L11.4205 30.1011L9.53116 25.4669L30.0999 17.0184L28.9591 22.9003Z" fill="white"/>
</svg>
