<svg width="64" height="24" viewBox="0 0 64 24" fill="none" xmlns="http://www.w3.org/2000/svg">
<path d="M43.1427 13.6305L43.7698 13.8186C43.728 13.9963 43.6653 14.1427 43.5712 14.2577C43.4772 14.3727 43.3726 14.4667 43.2367 14.519C43.1009 14.5817 42.9336 14.6131 42.7246 14.6131C42.4737 14.6131 42.2751 14.5817 42.1078 14.5085C41.951 14.4354 41.8151 14.3099 41.7002 14.1218C41.5852 13.9441 41.5225 13.7037 41.5225 13.4214C41.5225 13.0451 41.627 12.7524 41.8256 12.5434C42.0242 12.3343 42.3169 12.2402 42.6827 12.2402C42.9754 12.2402 43.1949 12.303 43.3622 12.418C43.5294 12.5329 43.6549 12.7106 43.728 12.9615L43.1009 13.0974C43.08 13.0242 43.059 12.972 43.0277 12.9406C42.9859 12.8883 42.9441 12.8465 42.8813 12.8152C42.8186 12.7838 42.7559 12.7734 42.6932 12.7734C42.5364 12.7734 42.411 12.8361 42.3273 12.972C42.2646 13.066 42.2333 13.2228 42.2333 13.4214C42.2333 13.6723 42.2751 13.85 42.3482 13.9441C42.4214 14.0382 42.5364 14.0904 42.6723 14.0904C42.8082 14.0904 42.9127 14.0486 42.9754 13.9754C43.059 13.8814 43.1113 13.7768 43.1427 13.6305Z" fill="#225E63"/>
<path d="M44.0205 13.4216C44.0205 13.0453 44.125 12.7526 44.3341 12.5436C44.5432 12.3345 44.8358 12.23 45.2121 12.23C45.5989 12.23 45.8916 12.3345 46.1006 12.5331C46.3097 12.7422 46.4142 13.0244 46.4142 13.4007C46.4142 13.6725 46.3724 13.892 46.2783 14.0592C46.1843 14.2265 46.0588 14.3624 45.8811 14.4565C45.7139 14.5505 45.4944 14.6028 45.2435 14.6028C44.9822 14.6028 44.7731 14.561 44.5954 14.4774C44.4282 14.3937 44.2923 14.2683 44.1773 14.0802C44.0623 13.892 44.0205 13.6934 44.0205 13.4216ZM44.7313 13.4216C44.7313 13.6516 44.7731 13.8188 44.8567 13.9234C44.9404 14.0279 45.0554 14.0802 45.2121 14.0802C45.3689 14.0802 45.4839 14.0279 45.5675 13.9338C45.6512 13.8293 45.693 13.6516 45.693 13.4007C45.693 13.1812 45.6512 13.0244 45.5571 12.9303C45.4735 12.8258 45.348 12.784 45.2017 12.784C45.0554 12.784 44.9404 12.8363 44.8567 12.9408C44.7731 13.0244 44.7313 13.1917 44.7313 13.4216Z" fill="#225E63"/>
<path d="M46.7802 12.2717H47.7105L48.0659 13.6724L48.4213 12.2717H49.3516V14.5714H48.7662V12.8153L48.3168 14.5714H47.7941L47.3446 12.8153V14.5714H46.7593V12.2717H46.7802Z" fill="#225E63"/>
<path d="M49.8115 12.2717H50.9927C51.254 12.2717 51.4422 12.3344 51.5676 12.4599C51.6931 12.5853 51.7558 12.7525 51.7558 12.9825C51.7558 13.2125 51.6826 13.4006 51.5467 13.5261C51.4108 13.662 51.1913 13.7247 50.9091 13.7247H50.5223V14.5818H49.8115V12.2717ZM50.5223 13.2543H50.7C50.8359 13.2543 50.93 13.2334 50.9927 13.1811C51.045 13.1289 51.0763 13.0766 51.0763 13.0034C51.0763 12.9302 51.0554 12.8675 51.0032 12.8153C50.9509 12.763 50.8673 12.7421 50.7314 12.7421H50.5328V13.2543H50.5223Z" fill="#225E63"/>
<path d="M52.1323 12.2717H52.8431V14.0069H53.9511V14.5714H52.1323V12.2717Z" fill="#225E63"/>
<path d="M54.3066 12.2717H55.0174V14.5714H54.3066V12.2717Z" fill="#225E63"/>
<path d="M56.9404 14.1847H56.1356L56.0206 14.561H55.2993L56.1669 12.2613H56.9404L57.808 14.561H57.0659L56.9404 14.1847ZM56.7941 13.6934L56.5432 12.8676L56.2923 13.6934H56.7941Z" fill="#225E63"/>
<path d="M58.0278 12.2717H58.6864L59.554 13.547V12.2717H60.223V14.5714H59.554L58.6968 13.3066V14.5714H58.0278V12.2717Z" fill="#225E63"/>
<path d="M60.5366 12.2717H62.7004V12.8362H61.9791V14.5714H61.2683V12.8362H60.5471V12.2717H60.5366Z" fill="#225E63"/>
<path d="M34.5922 15.7735L36.6514 15.1254L35.9824 13.6411C35.4911 14.2578 34.9998 15.0523 34.5922 15.7735ZM33.8918 8.98955L29.857 0L0.316895 1.67247L8.50156 24L24.2542 19.0348C23.2507 17.5923 22.8848 15.878 24.0451 15.0418C25.3413 14.101 27.296 15.1882 28.5399 16.7247C29.742 14.7178 33.1183 10.0453 33.8918 8.98955Z" fill="#225E63"/>
<path d="M28.9366 6.49634C30.1701 6.49634 31.1736 5.55558 31.1736 4.38484C31.1736 3.21411 30.1701 2.27335 28.9366 2.27335C27.7032 2.27335 26.6997 3.21411 26.6997 4.38484C26.6997 5.54512 27.7032 6.49634 28.9366 6.49634ZM27.1074 7.40575H30.7659V16.9702H27.1074V7.40575Z" fill="#FEFEFE"/>
<path d="M25.2988 10.1967C25.3302 10.2072 25.3511 10.1967 25.3511 10.1654V7.74028C25.3511 7.70893 25.3302 7.67757 25.2988 7.65666C25.2988 7.65666 24.818 7.34307 23.3545 7.25945C23.2814 7.21764 21.9957 7.20718 21.6507 7.25945C16.3197 7.68802 16.1211 11.5452 16.1211 11.7124V12.6532C16.1211 12.7682 16.1211 16.7089 21.6507 17.0539C22.1943 17.0957 23.25 17.0539 23.3545 17.0539C24.6298 17.0539 25.5079 16.6671 25.5079 16.6671C25.5392 16.6567 25.5601 16.6253 25.5601 16.5939V14.3257C25.5601 14.2943 25.5392 14.2838 25.5183 14.3047C25.5183 14.3047 25.1211 14.6183 23.3859 14.796C22.8946 14.8483 22.6542 14.8274 22.4765 14.796C20.0096 14.3779 19.8946 12.58 19.8946 12.58C19.8946 12.5486 19.8842 12.4964 19.8842 12.4755V11.7856C19.8842 11.7542 19.8842 11.702 19.8946 11.6811C19.8946 11.6811 20.0619 9.74725 22.4765 9.53819H23.3859C24.4417 9.67408 25.2988 10.1967 25.2988 10.1967Z" fill="#FEFEFE"/>
<path d="M5.96094 16.9391C5.96094 16.9704 5.98184 16.9913 6.0132 16.9913H9.57766C9.60902 16.9913 9.62993 16.9704 9.62993 16.9391V14.1586C9.62993 14.1272 9.65083 14.1063 9.68219 14.1063C9.68219 14.1063 15.3791 14.514 15.3791 10.6986C15.3791 7.67773 11.8041 7.35369 10.6334 7.40595C10.6125 7.40595 6.0132 7.40595 6.0132 7.40595C5.98184 7.40595 5.96094 7.42686 5.96094 7.45822V16.9391ZM9.56721 11.9843V9.48609H10.4453C10.4453 9.48609 11.7101 9.53836 11.8146 10.406C11.8355 10.4687 11.8355 10.8972 11.8146 10.9181C11.6473 11.9321 10.5498 11.9843 10.5498 11.9843H9.56721Z" fill="#FEFEFE"/>
<path d="M29.0415 21.5854C29.3342 21.5854 29.5642 21.5854 29.9405 21.4181C31.2367 20.7387 35.6165 10.0453 40.2367 6.7526C40.268 6.73169 40.2994 6.70033 40.3203 6.66897C40.3516 6.62716 40.3516 6.58535 40.3516 6.58535C40.3516 6.58535 40.3516 6.36584 39.6722 6.36584C35.5642 6.25086 31.2889 14.8746 29.0415 18.2822C29.0102 18.324 28.8638 18.2822 28.8638 18.2822C28.8638 18.2822 27.3586 16.5052 26.052 15.8258C26.0206 15.8153 25.8743 15.7631 25.7175 15.7735C25.613 15.7735 25.0067 15.8989 24.7245 16.1916C24.39 16.547 24.4004 16.7456 24.4004 17.1742C24.4004 17.2056 24.4213 17.3519 24.4631 17.4251C24.7872 17.9895 26.2401 19.9965 27.4422 21.1045C27.6199 21.2404 27.9022 21.5854 29.0415 21.5854Z" fill="#2BBC5D"/>
<path d="M41.4492 3.52266H44.8673C45.5468 3.52266 46.0903 3.61674 46.498 3.79444C46.9161 3.98259 47.2611 4.24391 47.5224 4.57841C47.7942 4.92336 47.9928 5.32057 48.1078 5.77005C48.2332 6.21952 48.2959 6.70036 48.2959 7.21255C48.2959 8.00698 48.2018 8.6237 48.0241 9.06273C47.8464 9.50175 47.5956 9.86761 47.2715 10.1707C46.9475 10.4634 46.6025 10.662 46.2367 10.7666C45.7349 10.9024 45.275 10.9652 44.8673 10.9652H41.4492V3.52266ZM43.7489 5.20559V9.27179H44.3133C44.7942 9.27179 45.1391 9.21952 45.3377 9.11499C45.5363 9.01046 45.7036 8.82231 45.8186 8.56099C45.9335 8.29966 45.9963 7.86064 45.9963 7.26482C45.9963 6.47039 45.8708 5.93729 45.6095 5.64461C45.3482 5.35193 44.9301 5.20559 44.3238 5.20559H43.7489Z" fill="#225E63"/>
<path d="M48.9336 8.50863L51.1287 8.37274C51.181 8.72814 51.2751 8.99992 51.4214 9.18807C51.6618 9.4912 51.9963 9.63754 52.4353 9.63754C52.7594 9.63754 53.0207 9.56437 53.1984 9.40758C53.3761 9.25078 53.4702 9.07309 53.4702 8.87448C53.4702 8.68633 53.3866 8.50863 53.2193 8.35183C53.0521 8.19504 52.6548 8.05915 52.0381 7.92326C51.0242 7.69329 50.3134 7.39016 49.8744 7.01385C49.4353 6.63754 49.2263 6.15671 49.2263 5.57134C49.2263 5.18458 49.3413 4.82918 49.5608 4.48424C49.7803 4.13929 50.1148 3.87796 50.5643 3.67936C51.0137 3.48075 51.62 3.38667 52.3935 3.38667C53.3447 3.38667 54.0765 3.56437 54.5677 3.91977C55.0695 4.27518 55.3622 4.83964 55.4562 5.61315L53.282 5.73859C53.2193 5.4041 53.1043 5.16368 52.9162 5.00688C52.728 4.85009 52.4771 4.77692 52.1531 4.77692C51.8813 4.77692 51.6827 4.82918 51.5468 4.94417C51.4109 5.05915 51.3482 5.19504 51.3482 5.36228C51.3482 5.47727 51.4005 5.59225 51.5155 5.68633C51.62 5.7804 51.8813 5.87448 52.289 5.9581C53.2925 6.17761 54.0137 6.39713 54.4528 6.61664C54.8918 6.83615 55.2054 7.11838 55.404 7.44242C55.6026 7.76646 55.6967 8.14277 55.6967 8.55044C55.6967 9.03127 55.5608 9.4703 55.2994 9.86751C55.0381 10.2752 54.6618 10.5783 54.1914 10.7874C53.7211 10.9964 53.1148 11.101 52.3935 11.101C51.1287 11.101 50.2507 10.8605 49.7594 10.3693C49.2785 9.87796 49.0068 9.26124 48.9336 8.50863Z" fill="#225E63"/>
<path d="M56.2822 8.50863L58.4773 8.37274C58.5296 8.72814 58.6237 8.99992 58.77 9.18807C59.0104 9.4912 59.3449 9.63754 59.784 9.63754C60.108 9.63754 60.3693 9.56437 60.547 9.40758C60.7247 9.25078 60.8188 9.07309 60.8188 8.87448C60.8188 8.68633 60.7352 8.50863 60.5679 8.35183C60.4007 8.19504 60.0035 8.05915 59.3868 7.92326C58.3728 7.69329 57.662 7.39016 57.223 7.01385C56.7944 6.63754 56.5749 6.15671 56.5749 5.57134C56.5749 5.18458 56.6899 4.82918 56.9094 4.48424C57.1289 4.13929 57.4634 3.87796 57.9129 3.67936C58.3624 3.48075 58.9686 3.38667 59.7422 3.38667C60.6934 3.38667 61.4251 3.56437 61.9164 3.91977C62.4181 4.27518 62.7108 4.83964 62.8049 5.61315L60.6307 5.73859C60.5679 5.4041 60.453 5.16368 60.2648 5.00688C60.0766 4.85009 59.8258 4.77692 59.5017 4.77692C59.23 4.77692 59.0314 4.82918 58.8955 4.94417C58.7596 5.05915 58.6969 5.19504 58.6969 5.36228C58.6969 5.47727 58.7491 5.59225 58.8641 5.68633C58.9686 5.7804 59.23 5.87448 59.6376 5.9581C60.6411 6.17761 61.3624 6.39713 61.8014 6.61664C62.2404 6.83615 62.554 7.11838 62.7526 7.44242C62.9512 7.76646 63.0453 8.14277 63.0453 8.55044C63.0453 9.03127 62.9094 9.4703 62.6481 9.86751C62.3868 10.2752 62.0104 10.5783 61.5401 10.7874C61.0697 10.9964 60.4634 11.101 59.7422 11.101C58.4773 11.101 57.5993 10.8605 57.108 10.3693C56.6167 9.87796 56.3449 9.26124 56.2822 8.50863Z" fill="#225E63"/>
</svg>
