<svg width="79" height="24" viewBox="0 0 79 24" fill="none" xmlns="http://www.w3.org/2000/svg">
<g clip-path="url(#clip0_149_1397)">
<path d="M40.5898 7.64172C40.545 10.9716 43.7362 12.8298 46.14 13.9346C48.6098 15.0681 49.4394 15.7951 49.4296 16.8088C49.4112 18.3602 47.4595 19.0449 45.6333 19.0715C42.447 19.1181 40.5944 18.2601 39.1216 17.6113L37.9738 22.677C39.4515 23.3192 42.1876 23.8793 45.025 23.9039C51.6854 23.9039 56.0427 20.803 56.0663 15.9952C56.0924 9.89338 47.118 9.55564 47.1793 6.82832C47.2005 6.00133 48.0371 5.11883 49.8704 4.89444C50.7779 4.78109 53.2829 4.69434 56.1231 5.92789L57.2378 1.02668C55.7104 0.502151 53.7474 -0.000114441 51.3034 -0.000114441C45.0345 -0.000114441 40.6253 3.14302 40.5898 7.64172ZM67.9489 0.422054C66.7327 0.422054 65.7079 1.09116 65.2505 2.11796L55.7365 23.5439H62.3919L63.7163 20.0916H71.8492L72.6175 23.5439H78.4835L73.3646 0.422054H67.9489ZM68.88 6.66813L70.8007 15.3506H65.5405L68.88 6.66813ZM32.5204 0.422344L27.2742 23.5436H33.6164L38.8601 0.421766H32.5204M23.1382 0.421766L16.537 16.1597L13.8667 2.77839C13.5534 1.28461 12.3161 0.422054 10.942 0.422054H0.151142L0 1.09348C2.21532 1.54687 4.73231 2.27815 6.25722 3.06061C7.19044 3.53858 7.45655 3.95642 7.76312 5.09222L12.8207 23.5439H19.5228L29.798 0.422054H23.1382" fill="url(#paint0_linear_149_1397)"/>
</g>
<defs>
<linearGradient id="paint0_linear_149_1397" x1="36.082" y1="24.3834" x2="36.7347" y2="-0.16851" gradientUnits="userSpaceOnUse">
<stop stop-color="#222357"/>
<stop offset="1" stop-color="#254AA5"/>
</linearGradient>
<clipPath id="clip0_149_1397">
<rect width="78.4835" height="24" fill="white"/>
</clipPath>
</defs>
</svg>
