<svg width="40" height="24" viewBox="0 0 40 24" fill="none" xmlns="http://www.w3.org/2000/svg">
<path d="M14.6499 2.56656H25.1498V21.4332H14.6499V2.56656Z" fill="#FF5F00"/>
<path d="M15.3168 12C15.3168 8.16672 17.1167 4.76666 19.8833 2.5666C17.8501 0.966633 15.2835 0 12.4836 0C5.84999 0 0.483398 5.36659 0.483398 12C0.483398 18.6333 5.84999 24 12.4834 24C15.2834 24 17.85 23.0334 19.8833 21.4332C17.1167 19.2666 15.3168 15.8333 15.3168 12Z" fill="#EB001B"/>
<path d="M39.3164 12C39.3164 18.6333 33.9498 24 27.3164 24C24.5164 24 21.9498 23.0334 19.9165 21.4333C22.7165 19.2334 24.4832 15.8333 24.4832 12C24.4832 8.16675 22.6831 4.76669 19.9165 2.56663C21.9497 0.966663 24.5164 3.05176e-05 27.3164 3.05176e-05C33.9498 3.05176e-05 39.3166 5.40002 39.3166 12H39.3164Z" fill="#F79E1B"/>
</svg>
