<svg width="172" height="37" viewBox="0 0 172 37" fill="none" xmlns="http://www.w3.org/2000/svg">
<path d="M45.1897 27.4835V13.5461H39.5989V9.51633H55.9032V13.5461H50.3384V27.4835H45.1897Z" fill="white"/>
<path d="M67.2668 27.8428C65.8106 27.8428 64.467 27.6118 63.2362 27.1498C62.0054 26.6878 60.9305 26.0376 60.0118 25.1991C59.1103 24.3435 58.4082 23.3511 57.9055 22.2217C57.4027 21.0923 57.1513 19.8517 57.1513 18.4999C57.1513 17.1481 57.4027 15.9075 57.9055 14.7781C58.4082 13.6488 59.1103 12.6649 60.0118 11.8264C60.9305 10.9708 62.0054 10.312 63.2362 9.85C64.467 9.38799 65.8106 9.15698 67.2668 9.15698C68.7403 9.15698 70.0838 9.38799 71.2973 9.85C72.5282 10.312 73.5943 10.9708 74.4958 11.8264C75.3973 12.6649 76.0994 13.6488 76.6021 14.7781C77.1222 15.9075 77.3822 17.1481 77.3822 18.4999C77.3822 19.8517 77.1222 21.1009 76.6021 22.2474C76.0994 23.3767 75.3973 24.3606 74.4958 25.1991C73.5943 26.0376 72.5282 26.6878 71.2973 27.1498C70.0838 27.6118 68.7403 27.8428 67.2668 27.8428ZM67.2668 23.6334C67.9602 23.6334 68.6016 23.5136 69.191 23.274C69.7978 23.0345 70.3179 22.6923 70.7513 22.2474C71.202 21.7853 71.5487 21.2378 71.7914 20.6046C72.0514 19.9715 72.1815 19.2699 72.1815 18.4999C72.1815 17.7128 72.0514 17.0112 71.7914 16.3952C71.5487 15.7621 71.202 15.223 70.7513 14.7781C70.3179 14.3161 69.7978 13.9653 69.191 13.7258C68.6016 13.4862 67.9602 13.3664 67.2668 13.3664C66.5733 13.3664 65.9233 13.4862 65.3165 13.7258C64.7271 13.9653 64.207 14.3161 63.7563 14.7781C63.3229 15.223 62.9762 15.7621 62.7161 16.3952C62.4734 17.0112 62.3521 17.7128 62.3521 18.4999C62.3521 19.2699 62.4734 19.9715 62.7161 20.6046C62.9762 21.2378 63.3229 21.7853 63.7563 22.2474C64.207 22.6923 64.7271 23.0345 65.3165 23.274C65.9233 23.5136 66.5733 23.6334 67.2668 23.6334Z" fill="white"/>
<path d="M80.5989 27.4835V9.51633H88.9201C90.5843 9.51633 92.0145 9.78156 93.2107 10.312C94.4242 10.8425 95.3603 11.6125 96.0191 12.6221C96.6779 13.6146 97.0072 14.7953 97.0072 16.1642C97.0072 17.516 96.6779 18.6881 96.0191 19.6806C95.3603 20.656 94.4242 21.4089 93.2107 21.9393C92.0145 22.4527 90.5843 22.7094 88.9201 22.7094H83.4593L85.7477 20.579V27.4835H80.5989ZM91.8585 27.4835L87.3339 20.9383H92.8207L97.3713 27.4835H91.8585ZM85.7477 21.118L83.4593 18.7823H88.6081C89.6829 18.7823 90.4803 18.5512 91.0004 18.0892C91.5378 17.6272 91.8065 16.9855 91.8065 16.1642C91.8065 15.3257 91.5378 14.6755 91.0004 14.2135C90.4803 13.7514 89.6829 13.5204 88.6081 13.5204H83.4593L85.7477 11.1847V21.118Z" fill="white"/>
<path d="M100.368 27.4835V9.51633H108.975C110.986 9.51633 112.754 9.88423 114.28 10.62C115.805 11.3558 116.993 12.3911 117.842 13.7258C118.709 15.0605 119.142 16.6519 119.142 18.4999C119.142 20.3309 118.709 21.9222 117.842 23.274C116.993 24.6088 115.805 25.644 114.28 26.3798C112.754 27.1156 110.986 27.4835 108.975 27.4835H100.368ZM105.517 23.4281H108.767C109.807 23.4281 110.709 23.2398 111.471 22.8634C112.251 22.4698 112.858 21.9051 113.292 21.1693C113.725 20.4164 113.942 19.5266 113.942 18.4999C113.942 17.4561 113.725 16.5663 113.292 15.8305C112.858 15.0947 112.251 14.5386 111.471 14.1621C110.709 13.7686 109.807 13.5718 108.767 13.5718H105.517V23.4281Z" fill="white"/>
<path d="M127.104 16.4722H135.555V20.271H127.104V16.4722ZM127.468 23.5564H136.985V27.4835H122.371V9.51633H136.647V13.4434H127.468V23.5564Z" fill="white"/>
<path d="M146.76 27.8428C145.269 27.8428 143.83 27.6632 142.443 27.3038C141.073 26.9274 139.955 26.4482 139.088 25.8665L140.779 22.119C141.594 22.6324 142.53 23.0602 143.587 23.4024C144.662 23.7275 145.728 23.8901 146.786 23.8901C147.496 23.8901 148.068 23.8302 148.502 23.7104C148.935 23.5735 149.247 23.4024 149.438 23.197C149.646 22.9746 149.75 22.7179 149.75 22.427C149.75 22.0163 149.559 21.6912 149.178 21.4517C148.797 21.2121 148.302 21.0153 147.696 20.8613C147.089 20.7073 146.413 20.5533 145.667 20.3993C144.939 20.2453 144.203 20.0485 143.457 19.809C142.729 19.5694 142.062 19.2614 141.455 18.8849C140.848 18.4914 140.354 17.9866 139.973 17.3705C139.591 16.7374 139.401 15.9417 139.401 14.9835C139.401 13.9055 139.695 12.9301 140.285 12.0574C140.891 11.1847 141.793 10.4831 142.989 9.95267C144.185 9.42221 145.676 9.15698 147.462 9.15698C148.658 9.15698 149.828 9.29388 150.972 9.56766C152.134 9.82434 153.165 10.2093 154.067 10.7227L152.48 14.4958C151.614 14.0338 150.755 13.6916 149.906 13.4691C149.057 13.2295 148.233 13.1098 147.436 13.1098C146.725 13.1098 146.153 13.1868 145.719 13.3408C145.286 13.4777 144.974 13.6659 144.783 13.9055C144.593 14.145 144.497 14.4188 144.497 14.7268C144.497 15.1204 144.679 15.4369 145.043 15.6765C145.425 15.899 145.919 16.0872 146.526 16.2412C147.15 16.3781 147.826 16.5235 148.554 16.6775C149.299 16.8315 150.036 17.0283 150.764 17.2679C151.51 17.4903 152.186 17.7983 152.792 18.1919C153.399 18.5684 153.885 19.0732 154.249 19.7063C154.63 20.3223 154.821 21.1009 154.821 22.042C154.821 23.0858 154.517 24.0526 153.911 24.9424C153.321 25.8151 152.428 26.5167 151.232 27.0472C150.053 27.5776 148.562 27.8428 146.76 27.8428Z" fill="white"/>
<path d="M164.116 27.8428C162.625 27.8428 161.186 27.6632 159.799 27.3038C158.43 26.9274 157.312 26.4482 156.445 25.8665L158.135 22.119C158.95 22.6324 159.886 23.0602 160.944 23.4024C162.018 23.7275 163.085 23.8901 164.142 23.8901C164.853 23.8901 165.425 23.8302 165.858 23.7104C166.292 23.5735 166.604 23.4024 166.794 23.197C167.002 22.9746 167.106 22.7179 167.106 22.427C167.106 22.0163 166.916 21.6912 166.534 21.4517C166.153 21.2121 165.659 21.0153 165.052 20.8613C164.445 20.7073 163.769 20.5533 163.024 20.3993C162.296 20.2453 161.559 20.0485 160.814 19.809C160.085 19.5694 159.418 19.2614 158.811 18.8849C158.205 18.4914 157.71 17.9866 157.329 17.3705C156.948 16.7374 156.757 15.9417 156.757 14.9835C156.757 13.9055 157.052 12.9301 157.641 12.0574C158.248 11.1847 159.149 10.4831 160.345 9.95267C161.542 9.42221 163.033 9.15698 164.818 9.15698C166.014 9.15698 167.184 9.29388 168.329 9.56766C169.49 9.82434 170.522 10.2093 171.423 10.7227L169.837 14.4958C168.97 14.0338 168.112 13.6916 167.262 13.4691C166.413 13.2295 165.59 13.1098 164.792 13.1098C164.081 13.1098 163.509 13.1868 163.076 13.3408C162.642 13.4777 162.33 13.6659 162.14 13.9055C161.949 14.145 161.854 14.4188 161.854 14.7268C161.854 15.1204 162.036 15.4369 162.4 15.6765C162.781 15.899 163.275 16.0872 163.882 16.2412C164.506 16.3781 165.182 16.5235 165.91 16.6775C166.656 16.8315 167.392 17.0283 168.121 17.2679C168.866 17.4903 169.542 17.7983 170.149 18.1919C170.756 18.5684 171.241 19.0732 171.605 19.7063C171.986 20.3223 172.177 21.1009 172.177 22.042C172.177 23.0858 171.874 24.0526 171.267 24.9424C170.678 25.8151 169.785 26.5167 168.589 27.0472C167.41 27.5776 165.919 27.8428 164.116 27.8428Z" fill="white"/>
<g clip-path="url(#clip0_118_151)">
<path d="M7.90875 5.08878L15.8167 0.602051L23.037 4.69856L15.5885 8.89349C15.4463 8.97361 15.3586 9.12216 15.3586 9.28299V18.2239L8.13743 22.3209V13.8999C8.13743 13.7396 8.05029 13.5915 7.90877 13.5112C7.76725 13.4309 7.5928 13.4306 7.45102 13.5104L-6.10352e-05 17.7068V9.54298L7.90748 5.0895L7.90875 5.08878Z" fill="white"/>
<path d="M24.4124 13.8998V5.47758L31.5989 9.54227V27.4572L24.4124 31.5219V23.0997C24.4124 22.9394 24.3253 22.7912 24.1837 22.7109L16.2749 18.2237V10.0618L23.7247 14.2886C23.8665 14.369 24.0412 14.3691 24.1831 14.2889C24.325 14.2087 24.4124 14.0603 24.4124 13.8998Z" fill="white"/>
<path d="M-6.10352e-05 27.4569V19.262L7.44975 23.4888C7.59172 23.5693 7.76678 23.5693 7.90875 23.4888L15.8167 19.002L23.0395 23.1L15.5872 27.3281C15.4455 27.4086 15.3583 27.5571 15.3586 27.7176C15.3588 27.8782 15.4465 28.0264 15.5885 28.1064L23.037 32.3013L15.8167 36.3979L7.90875 31.9111L-6.10352e-05 27.4569Z" fill="white"/>
</g>
<defs>
<clipPath id="clip0_118_151">
<rect width="31.599" height="35.7958" fill="white" transform="translate(-6.10352e-05 0.602051)"/>
</clipPath>
</defs>
</svg>
