<svg width="72" height="72" viewBox="0 0 72 72" fill="none" xmlns="http://www.w3.org/2000/svg">
<path fill-rule="evenodd" clip-rule="evenodd" d="M37.4227 5.74036C37.4227 6.51709 36.7932 7.14661 36.0165 7.14661C35.2397 7.14661 34.6102 6.51709 34.6102 5.74036V1.40625C34.6102 0.629517 35.2397 0 36.0165 0C36.7932 0 37.4227 0.629517 37.4227 1.40625V5.74036ZM29.7911 23.369L29.0154 27.897C28.8852 28.6573 29.1918 29.4109 29.8163 29.8641C30.1685 30.1207 30.581 30.2503 30.9963 30.2503C31.316 30.2503 31.6379 30.1734 31.9351 30.0168L36.0005 27.8784L40.0671 30.0152C40.7499 30.3734 41.5618 30.3146 42.1858 29.8614C42.8099 29.4077 43.1164 28.654 42.9857 27.8937L42.2078 23.3657L45.4966 20.1583C46.0492 19.6199 46.2436 18.8295 46.0052 18.0961C45.7668 17.3628 45.1445 16.8382 44.3809 16.7272L39.8348 16.0681L37.8007 11.9487C37.459 11.2577 36.7679 10.8281 35.9967 10.8281H35.9962C35.2249 10.8281 34.5339 11.2582 34.1927 11.9498L32.1608 16.0703L27.6147 16.7316C26.8511 16.8431 26.2293 17.3677 25.9909 18.1016C25.753 18.835 25.9481 19.6254 26.5007 20.1638L29.7911 23.369ZM32.982 18.7927C33.6374 18.6971 34.2037 18.2856 34.4965 17.6918L35.9972 14.6492L37.4991 17.6907C37.7924 18.2845 38.3588 18.6954 39.0141 18.791L42.3715 19.2777L39.943 21.6464C39.4684 22.1089 39.2525 22.7747 39.3646 23.4272L39.9391 26.7704L36.936 25.1927C36.3499 24.8846 35.6501 24.8851 35.064 25.1933L32.0614 26.7726L32.6343 23.4283C32.7458 22.7758 32.5294 22.1105 32.0554 21.6486L29.6252 19.281L32.982 18.7927ZM36.5724 36.9943C36.8339 36.7328 36.9844 36.3697 36.9844 36C36.9844 35.6303 36.8339 35.2672 36.5724 35.0057C36.3109 34.7443 35.9478 34.5938 35.5781 34.5938C35.2084 34.5938 34.8453 34.7443 34.5839 35.0057C34.3224 35.2672 34.1719 35.6303 34.1719 36C34.1719 36.3697 34.3224 36.7328 34.5839 36.9943C34.8453 37.2557 35.2084 37.4062 35.5781 37.4062C35.9478 37.4062 36.3109 37.2557 36.5724 36.9943ZM41.3904 9.34662C41.7502 9.34662 42.1106 9.20929 42.3847 8.93463L45.4367 5.88318C45.9855 5.33386 45.9855 4.44342 45.4367 3.8941C44.8874 3.34479 43.9969 3.34479 43.4476 3.8941L40.3962 6.94556C39.8469 7.49487 39.8469 8.38531 40.3962 8.93463C40.6708 9.20929 41.0306 9.34662 41.3904 9.34662ZM30.642 9.34662C30.2822 9.34662 29.9224 9.20929 29.6477 8.93463L26.599 5.88593C26.0497 5.33661 26.0497 4.44617 26.599 3.8974C27.1483 3.34808 28.0388 3.34808 28.5875 3.8974L31.6362 6.94556C32.1855 7.49487 32.1855 8.38531 31.6362 8.93463C31.3621 9.20929 31.0018 9.34662 30.642 9.34662ZM70.5938 43.0312H48.9375V36C48.9375 35.2233 48.308 34.5938 47.5312 34.5938H42.3984C41.6217 34.5938 40.9922 35.2233 40.9922 36C40.9922 36.7767 41.6217 37.4062 42.3984 37.4062H46.125V69.1875H25.875V37.4062H29.4609C30.2377 37.4062 30.8672 36.7767 30.8672 36C30.8672 35.2233 30.2377 34.5938 29.4609 34.5938H24.4688C23.692 34.5938 23.0625 35.2233 23.0625 36V48.9375H1.40625C0.629517 48.9375 0 49.567 0 50.3438V70.5938C0 71.3705 0.629517 72 1.40625 72H70.5938C71.3705 72 72 71.3705 72 70.5938V44.4375C72 43.6608 71.3705 43.0312 70.5938 43.0312ZM2.8125 51.75H23.0625V69.1875H2.8125V51.75ZM69.1875 69.1875H48.9375V45.8438H69.1875V69.1875ZM31.6055 64.9688C31.6055 64.192 32.235 63.5625 33.0117 63.5625H34.5938V59.3069L34.3575 59.5437C33.8082 60.0925 32.9183 60.0925 32.369 59.5437C31.8197 58.9944 31.8197 58.1039 32.369 57.5546L35.0057 54.9179C35.4078 54.5158 36.0132 54.3961 36.5383 54.613C37.0635 54.8306 37.4062 55.3436 37.4062 55.9122V63.5625H38.9883C39.765 63.5625 40.3945 64.192 40.3945 64.9688C40.3945 65.7455 39.765 66.375 38.9883 66.375H33.0117C32.235 66.375 31.6055 65.7455 31.6055 64.9688ZM56.4598 59.8596C57.2366 59.8596 57.8661 59.23 57.8661 58.4533C57.8661 57.8276 58.3753 57.3184 59.001 57.3184H59.1235C59.7497 57.3184 60.2584 57.8276 60.2584 58.4533C60.2584 59.3465 59.87 60.1913 59.1921 60.7725L55.5447 63.9014C55.0981 64.2843 54.9371 64.905 55.1409 65.4571C55.3453 66.0086 55.8715 66.375 56.4598 66.375H61.6646C62.4413 66.375 63.0709 65.7455 63.0709 64.9688C63.0709 64.192 62.4413 63.5625 61.6646 63.5625H60.2595L61.023 62.9077C62.3249 61.7915 63.0714 60.1683 63.0714 58.4533C63.0714 56.2769 61.3004 54.5059 59.124 54.5059H59.0015C56.8246 54.5059 55.0541 56.2769 55.0541 58.4533C55.0536 59.23 55.6837 59.8596 56.4598 59.8596ZM10.3348 54.3774H13.2435C15.2853 54.3774 16.9464 56.0385 16.9464 58.0803C16.9464 58.9471 16.6459 59.7448 16.145 60.3765C16.6459 61.0082 16.9464 61.8058 16.9464 62.6726C16.9464 64.7139 15.2853 66.375 13.2435 66.375H10.3348C9.55865 66.375 8.92859 65.7455 8.92859 64.9688C8.92859 64.192 9.55865 63.5625 10.3348 63.5625H13.2435C13.7346 63.5625 14.1339 63.1631 14.1339 62.6726C14.1339 62.1815 13.7346 61.7827 13.2435 61.7827H10.3348C9.55865 61.7827 8.92859 61.1526 8.92859 60.3765C8.92859 59.5997 9.55865 58.9702 10.3348 58.9702H13.2435C13.7346 58.9702 14.1339 58.5709 14.1339 58.0803C14.1339 57.5892 13.7346 57.1899 13.2435 57.1899H10.3348C9.55865 57.1899 8.92859 56.5604 8.92859 55.7836C8.92859 55.0074 9.55865 54.3774 10.3348 54.3774Z" fill="url(#paint0_linear_212_36)"/>
<defs>
<linearGradient id="paint0_linear_212_36" x1="-1.07486e-05" y1="72" x2="72" y2="72" gradientUnits="userSpaceOnUse">
<stop stop-color="#FFC43C"/>
<stop offset="1" stop-color="#FFA826"/>
</linearGradient>
</defs>
</svg>
