<svg width="13" height="17" viewBox="0 0 13 17" fill="none" xmlns="http://www.w3.org/2000/svg">
<path d="M2.02338 0.496729L3.42309 0.0831471C3.88504 -0.0531321 4.38181 -0.0200668 4.82071 0.176175C5.25962 0.372417 5.6107 0.718434 5.80846 1.14968L6.78977 3.28841C6.96009 3.65944 7.00756 4.07344 6.92552 4.47227C6.84348 4.8711 6.63605 5.23473 6.33235 5.51212L4.8387 6.87609C4.63854 7.06235 4.79029 7.78824 5.52158 9.0304C6.25359 10.2733 6.8194 10.7648 7.08027 10.6883L9.03712 10.1019C9.43377 9.98299 9.85845 9.98871 10.2516 10.1182C10.6448 10.2478 10.9867 10.4947 11.2295 10.8242L12.6242 12.7186C12.9059 13.1012 13.0363 13.5709 12.9913 14.0406C12.9462 14.5103 12.7287 14.948 12.3792 15.2724L11.3011 16.273C10.953 16.5961 10.5238 16.8228 10.0571 16.9302C9.59047 17.0376 9.1031 17.0217 8.64474 16.8842C6.38583 16.2065 4.29385 14.1952 2.34061 10.8788C0.383034 7.55737 -0.356204 4.75578 0.159023 2.46691C0.262939 2.0057 0.49048 1.58 0.818192 1.23369C1.1459 0.887377 1.56193 0.632982 2.02338 0.496729V0.496729Z" fill="white"/>
</svg>
