<svg width="16" height="16" viewBox="0 0 16 16" fill="none" xmlns="http://www.w3.org/2000/svg">
<path fill-rule="evenodd" clip-rule="evenodd" d="M8.00016 2.83374C8.27631 2.83374 8.50016 3.0576 8.50016 3.33374V7.50041H12.6668C12.943 7.50041 13.1668 7.72426 13.1668 8.00041C13.1668 8.27655 12.943 8.50041 12.6668 8.50041H8.50016V12.6671C8.50016 12.9432 8.27631 13.1671 8.00016 13.1671C7.72402 13.1671 7.50016 12.9432 7.50016 12.6671V8.50041H3.3335C3.05735 8.50041 2.8335 8.27655 2.8335 8.00041C2.8335 7.72426 3.05735 7.50041 3.3335 7.50041H7.50016V3.33374C7.50016 3.0576 7.72402 2.83374 8.00016 2.83374Z" fill="#3C4467"/>
</svg>
