<svg width="73" height="72" viewBox="0 0 73 72" fill="none" xmlns="http://www.w3.org/2000/svg">
<g clip-path="url(#clip0_212_3)">
<path fill-rule="evenodd" clip-rule="evenodd" d="M6.1239 49.5758C5.98383 49.6203 5.8421 49.6412 5.70258 49.6412C5.10437 49.6412 4.55011 49.2567 4.36114 48.6552C4.12878 47.9141 4.54077 47.1253 5.28235 46.8929L7.63892 46.153C28.8052 39.5129 47.7055 27.1708 62.2964 10.4617C62.5524 10.1684 62.9188 9.99481 63.3083 9.98163C63.6978 9.9679 64.0746 10.1173 64.3503 10.3925L65.8906 11.9328V2.8125H56.7698L58.8391 4.88177C59.1274 5.17072 59.2769 5.57062 59.2472 5.97821C59.2175 6.3858 59.0121 6.75989 58.6847 7.00378L57.5756 7.82996C43.829 18.0681 28.4915 25.6086 11.9895 30.2426C11.2419 30.453 10.4651 30.0168 10.2553 29.2687C10.0455 28.5211 10.4816 27.7449 11.2292 27.535C27.3204 23.0164 42.2805 15.678 55.6997 5.72003L52.3802 2.40051C51.9781 1.99841 51.8578 1.39362 52.0759 0.86792C52.2934 0.342773 52.8059 0 53.375 0H67.2969C68.0736 0 68.7031 0.629517 68.7031 1.40625V15.3281C68.7031 15.8972 68.3604 16.4097 67.8347 16.6273C67.3095 16.8448 66.7042 16.7245 66.3026 16.3224L63.4187 13.4385C48.6273 29.9663 29.6627 42.1913 8.48102 48.8364L6.1239 49.5758ZM5.70312 31.8137C6.07281 31.8137 6.43591 31.6631 6.69739 31.4017C6.95886 31.1396 7.10938 30.7771 7.10938 30.4074C7.10938 30.0372 6.95886 29.6746 6.69739 29.4131C6.43591 29.1517 6.07281 29.0012 5.70312 29.0012C5.33344 29.0012 4.97034 29.1517 4.70886 29.4131C4.44739 29.6746 4.29688 30.0377 4.29688 30.4074C4.29688 30.7771 4.44739 31.1396 4.70886 31.4017C4.97034 31.6631 5.33344 31.8137 5.70312 31.8137ZM27.7812 48.9375H37.9062C40.5424 48.9375 42.6875 51.0826 42.6875 53.7188C42.6875 55.0349 42.153 56.2286 41.2895 57.0938C42.153 57.9589 42.6875 59.1526 42.6875 60.4688C42.6875 61.7849 42.153 62.9786 41.2895 63.8438C42.153 64.7089 42.6875 65.9026 42.6875 67.2188C42.6875 69.8549 40.5424 72 37.9062 72H27.7812C25.1451 72 23 69.8549 23 67.2188C23 65.9026 23.5345 64.7089 24.398 63.8438C23.5345 62.9786 23 61.7849 23 60.4688C23 59.1526 23.5345 57.9589 24.398 57.0938C23.5345 56.2286 23 55.0349 23 53.7188C23 51.0826 25.1451 48.9375 27.7812 48.9375ZM37.9062 51.75H27.7812C26.6958 51.75 25.8125 52.6333 25.8125 53.7188C25.8125 54.8042 26.6958 55.6875 27.7812 55.6875H37.9062C38.9917 55.6875 39.875 54.8042 39.875 53.7188C39.875 52.6333 38.9917 51.75 37.9062 51.75ZM37.9062 62.4375C38.9917 62.4375 39.875 61.5542 39.875 60.4688C39.875 59.3833 38.9917 58.5 37.9062 58.5H27.7812C26.6958 58.5 25.8125 59.3833 25.8125 60.4688C25.8125 61.5542 26.6958 62.4375 27.7812 62.4375H37.9062ZM27.7812 69.1875H37.9062C38.9917 69.1875 39.875 68.3042 39.875 67.2188C39.875 66.1333 38.9917 65.25 37.9062 65.25H27.7812C26.6958 65.25 25.8125 66.1333 25.8125 67.2188C25.8125 68.3042 26.6958 69.1875 27.7812 69.1875ZM5.28125 55.6875H15.4062C18.0424 55.6875 20.1875 57.8326 20.1875 60.4688C20.1875 61.7849 19.653 62.9786 18.7895 63.8438C19.653 64.7089 20.1875 65.9026 20.1875 67.2188C20.1875 69.8549 18.0424 72 15.4062 72H5.28125C2.64508 72 0.5 69.8549 0.5 67.2188C0.5 65.9026 1.03448 64.7089 1.89801 63.8438C1.03448 62.9786 0.5 61.7849 0.5 60.4688C0.5 57.8326 2.64508 55.6875 5.28125 55.6875ZM15.4062 58.5H5.28125C4.1958 58.5 3.3125 59.3833 3.3125 60.4688C3.3125 61.5542 4.1958 62.4375 5.28125 62.4375H15.4062C16.4917 62.4375 17.375 61.5542 17.375 60.4688C17.375 59.3833 16.4917 58.5 15.4062 58.5ZM5.28125 69.1875H15.4062C16.4917 69.1875 17.375 68.3042 17.375 67.2188C17.375 66.1333 16.4917 65.25 15.4062 65.25H5.28125C4.1958 65.25 3.3125 66.1333 3.3125 67.2188C3.3125 68.3042 4.1958 69.1875 5.28125 69.1875ZM66.5965 46.7106L68.3796 40.6555C68.5048 40.2303 68.4224 39.7711 68.1566 39.4162C67.8912 39.0613 67.4738 38.8521 67.0305 38.8521H52.6565C52.2132 38.8521 51.7957 39.0608 51.5304 39.4162C51.2645 39.7711 51.1821 40.2303 51.3074 40.6555L53.0905 46.7106C49.5133 48.5755 47.1875 52.3301 47.1875 56.4258V67.6252C47.1875 70.0373 49.1502 72 51.5623 72H68.1247C70.5373 72 72.5 70.0373 72.5 67.6252V56.4258C72.5 52.3295 70.1742 48.5755 66.5965 46.7106ZM65.1507 41.6646L63.8494 46.0844H55.8376L54.5363 41.6646H65.1507ZM69.6875 67.6252C69.6875 68.4866 68.9866 69.1875 68.1252 69.1875H51.5623C50.7009 69.1875 50 68.4866 50 67.6252V56.4258C50 53.1343 52.0215 50.14 55.0543 48.8969H64.6332C67.666 50.1394 69.6875 53.1343 69.6875 56.4258V67.6252ZM58.0156 52.5234C58.0156 51.7856 58.6137 51.1875 59.3516 51.1875C60.0894 51.1875 60.6875 51.7856 60.6875 52.5234V53.3466C62.4416 53.6371 63.7834 55.1647 63.7834 56.9998C63.7834 57.8666 63.483 58.6642 62.982 59.296C63.483 59.9277 63.7834 60.7253 63.7834 61.5921C63.7834 63.4268 62.4416 64.9543 60.6875 65.2448V65.8828C60.6875 66.6206 60.0894 67.2188 59.3516 67.2188C58.6137 67.2188 58.0156 66.6206 58.0156 65.8828V65.2945H57.1719C56.7393 65.2945 56.3522 65.099 56.0942 64.7915C55.8896 64.5568 55.7656 64.2499 55.7656 63.9141V54.6328C55.7656 53.895 56.3637 53.2969 57.1016 53.2969C57.1132 53.2969 57.1247 53.297 57.1363 53.2973C57.1481 53.297 57.16 53.2969 57.1719 53.2969H58.0156V52.5234ZM58.4375 57.8897V56.1094H60.0805C60.5716 56.1094 60.9709 56.5087 60.9709 56.9998C60.9709 57.4904 60.5716 57.8897 60.0805 57.8897H58.4375ZM58.4375 62.482V60.7022H60.0805C60.5716 60.7022 60.9709 61.101 60.9709 61.5921C60.9709 62.0826 60.5716 62.482 60.0805 62.482H58.4375Z" fill="url(#paint0_linear_212_3)"/>
</g>
<defs>
<linearGradient id="paint0_linear_212_3" x1="0.499989" y1="72" x2="72.5" y2="72" gradientUnits="userSpaceOnUse">
<stop stop-color="#FFC43C"/>
<stop offset="1" stop-color="#FFA826"/>
</linearGradient>
<clipPath id="clip0_212_3">
<rect width="72" height="72" fill="white" transform="translate(0.5)"/>
</clipPath>
</defs>
</svg>
