<svg width="72" height="72" viewBox="0 0 72 72" fill="none" xmlns="http://www.w3.org/2000/svg">
<g clip-path="url(#clip0_212_54)">
<path fill-rule="evenodd" clip-rule="evenodd" d="M12.5481 71.9995C12.58 72 12.6113 72 12.6431 72C16.0231 72 19.1976 70.6855 21.5898 68.2932C22.2117 67.6714 22.7648 66.9897 23.2422 66.2563C25.434 67.3599 27.9218 67.8076 30.3882 67.5242C33.4062 67.1781 36.205 65.7493 38.2682 63.5015C42.6924 58.6829 42.6726 51.1496 38.2226 46.3524C37.6046 45.6855 36.9251 45.0923 36.1912 44.5787L51.1601 29.6104L55.5865 34.0362C56.0128 34.463 56.5802 34.6981 57.1833 34.6981C57.7865 34.6981 58.3539 34.463 58.7802 34.0362L61.5526 31.2643C62.4332 30.3838 62.4332 28.9506 61.5526 28.0701L57.1262 23.6442L59.7454 21.0251L65.3566 26.6364C66.2372 27.5169 67.6703 27.5169 68.5509 26.6364L71.3227 23.864C72.2038 22.9834 72.2038 21.5508 71.3227 20.6702L65.7115 15.0584L70.1648 10.6051C71.3381 9.43176 71.9847 7.8717 71.9847 6.21222C71.9847 4.55273 71.3381 2.99268 70.1648 1.81934C68.9914 0.645996 67.4314 0 65.7719 0C64.113 0 62.5524 0.645996 61.3796 1.81934L48.5135 14.6854C47.9642 15.2347 47.9642 16.1246 48.5135 16.674C49.0628 17.2233 49.9532 17.2233 50.502 16.674L63.3681 3.80841C64.0102 3.16626 64.8639 2.8125 65.7719 2.8125C66.6805 2.8125 67.5341 3.16626 68.1768 3.80786C68.819 4.45001 69.1722 5.3042 69.1722 6.21222C69.1722 7.12024 68.819 7.97388 68.1763 8.61603L62.7287 14.0641C62.1794 14.6135 62.1794 15.5039 62.7287 16.0527L68.9431 22.2671L66.954 24.2556L60.7402 18.0417C60.1909 17.4924 59.3004 17.4924 58.7511 18.0417L54.1429 22.6494C53.5941 23.1987 53.5941 24.0892 54.1429 24.6379L59.1724 29.6675L57.1833 31.656L52.1544 26.627C51.605 26.0777 50.7146 26.0777 50.1653 26.627L32.9244 43.8684C32.6036 44.1887 32.4575 44.644 32.5311 45.0917C32.6053 45.5389 32.8898 45.9229 33.2963 46.1239C34.3713 46.654 35.3348 47.3741 36.161 48.2651C39.6212 51.9955 39.6365 57.8529 36.1967 61.5992C32.8948 65.1956 27.556 65.8521 23.5015 63.1609C23.1653 62.9374 22.7483 62.8698 22.3589 62.9742C21.9689 63.0791 21.6426 63.3466 21.4635 63.7086C20.9867 64.6721 20.3599 65.5455 19.6013 66.3041C17.7402 68.1652 15.2716 69.1875 12.6426 69.1875L12.6015 69.1874L12.5684 69.187C9.91247 69.1677 7.42901 68.107 5.57672 66.1998C1.94079 62.4562 1.86114 56.5175 5.39544 52.6794C6.21722 51.7868 7.18402 51.0617 8.26947 50.5239C8.63201 50.3443 8.89953 50.0175 9.0039 49.6263C9.10827 49.2352 9.03906 48.8183 8.81439 48.4821C6.10791 44.4359 6.74621 39.0948 10.3316 35.7814C13.9802 32.4097 19.7595 32.3361 23.4894 35.6133C24.4814 36.485 25.2747 37.5211 25.8476 38.6938C26.047 39.102 26.4315 39.3887 26.8792 39.4634C27.3274 39.5381 27.7845 39.392 28.1053 39.0707L42.2639 24.9126C42.8132 24.3633 42.8132 23.4728 42.2639 22.9235C41.7146 22.3748 40.8247 22.3748 40.2754 22.9235L27.4005 35.7984C26.816 34.9574 26.1288 34.1884 25.3461 33.5006C23.0054 31.4434 19.9836 30.3327 16.8437 30.3734C13.7022 30.414 10.7117 31.6005 8.42327 33.7159C6.18261 35.7858 4.76373 38.5884 4.427 41.6069C4.15179 44.075 4.60772 46.5606 5.71789 48.7485C4.84228 49.3198 4.04193 49.9977 3.32727 50.7739C1.13879 53.1508 -0.0422412 56.2538 0.00115474 59.5124C0.0445507 62.7709 1.30853 65.8416 3.55963 68.1592C5.94091 70.6108 9.13299 71.9747 12.5481 71.9995ZM45.2417 21.3508C44.872 21.3508 44.5089 21.202 44.2475 20.9388C43.986 20.6774 43.8355 20.3159 43.8355 19.9446C43.8355 19.5749 43.986 19.2123 44.2475 18.9509C44.5089 18.6888 44.872 18.5383 45.2417 18.5383C45.6131 18.5383 45.9745 18.6888 46.236 18.9509C46.4991 19.2123 46.648 19.5749 46.648 19.9446C46.648 20.3159 46.4991 20.6774 46.236 20.9388C45.9745 21.202 45.6131 21.3508 45.2417 21.3508ZM12.8277 47.1956C13.9428 48.3113 15.4265 48.9254 17.0041 48.9254C18.5818 48.9254 20.0649 48.3113 21.18 47.1956C23.4828 44.8929 23.4828 41.146 21.18 38.8427C18.8773 36.54 15.1304 36.54 12.8277 38.8427C10.5249 41.1454 10.5249 44.8929 12.8277 47.1956ZM14.8162 45.2065C13.6099 44.0002 13.6099 42.0375 14.8162 40.8312C16.0225 39.6249 17.9852 39.6255 19.1915 40.8312C20.3978 42.0375 20.3978 44.0002 19.1915 45.2065C18.607 45.791 17.8303 46.1129 17.0041 46.1129C16.1774 46.1129 15.4007 45.791 14.8162 45.2065ZM24.7599 59.1279C25.9113 60.2792 27.4241 60.8549 28.9364 60.8549C30.4486 60.8549 31.9615 60.2792 33.1128 59.1279C34.2279 58.0122 34.8426 56.5291 34.8426 54.9514C34.8426 53.3738 34.2279 51.8906 33.1128 50.775C31.9972 49.6593 30.514 49.0452 28.9364 49.0452C27.3587 49.0452 25.8756 49.6593 24.7599 50.775C23.6443 51.8906 23.0301 53.3738 23.0301 54.9514C23.0301 56.5291 23.6443 58.0122 24.7599 59.1279ZM26.7484 52.764C27.3329 52.1796 28.1096 51.8577 28.9364 51.8577C29.7625 51.8577 30.5393 52.1796 31.1237 52.764C31.7082 53.348 32.0301 54.1252 32.0301 54.9514C32.0301 55.7776 31.7082 56.5549 31.1237 57.1388C29.9174 58.3456 27.9547 58.3451 26.7484 57.1388C26.1645 56.5549 25.8426 55.7776 25.8426 54.9514C25.8426 54.1252 26.1645 53.348 26.7484 52.764ZM12.6409 65.2473C11.1281 65.2473 9.61581 64.6716 8.46444 63.5202C6.16171 61.2175 6.16171 57.47 8.46444 55.1673C10.7672 52.8646 14.5141 52.8646 16.8168 55.1673C19.1195 57.47 19.1195 61.2175 16.8168 63.5202C15.6654 64.6716 14.1532 65.2473 12.6409 65.2473ZM10.453 57.1558C9.24667 58.3621 9.24667 60.3248 10.453 61.5311C11.6593 62.7374 13.622 62.7374 14.8283 61.5311C16.0346 60.3248 16.0346 58.3621 14.8283 57.1558C13.622 55.9501 11.6593 55.9495 10.453 57.1558ZM27.2346 44.7204C27.4961 44.983 27.8592 45.1324 28.2288 45.1324C28.5991 45.1324 28.9616 44.983 29.2231 44.7204C29.4846 44.4584 29.6351 44.0969 29.6351 43.7261C29.6351 43.3559 29.4846 42.9933 29.2231 42.7319C28.9616 42.4704 28.5985 42.3199 28.2288 42.3199C27.8592 42.3199 27.4961 42.4704 27.2346 42.7319C26.9731 42.9933 26.8226 43.3559 26.8226 43.7261C26.8226 44.0958 26.9731 44.4584 27.2346 44.7204ZM14.0471 4.56042C13.2704 4.56042 12.6409 3.93091 12.6409 3.15417V1.40625C12.6409 0.629517 13.2704 0 14.0471 0C14.8239 0 15.4534 0.629517 15.4534 1.40625V3.15417C15.4534 3.93091 14.8239 4.56042 14.0471 4.56042ZM12.6409 11.5312C12.6409 12.308 13.2704 12.9375 14.0471 12.9375C14.8239 12.9375 15.4534 12.308 15.4534 11.5312V9.78333C15.4534 9.00659 14.8239 8.37708 14.0471 8.37708C13.2704 8.37708 12.6409 9.00659 12.6409 9.78333V11.5312ZM19.1096 7.875H17.3617C16.585 7.875 15.9555 7.24548 15.9555 6.46875C15.9555 5.69202 16.585 5.0625 17.3617 5.0625H19.1096C19.8864 5.0625 20.5159 5.69202 20.5159 6.46875C20.5159 7.24548 19.8864 7.875 19.1096 7.875ZM8.98464 7.875H10.7326C11.5093 7.875 12.1388 7.24548 12.1388 6.46875C12.1388 5.69202 11.5093 5.0625 10.7326 5.0625H8.98464C8.20791 5.0625 7.57839 5.69202 7.57839 6.46875C7.57839 7.24548 8.20791 7.875 8.98464 7.875ZM57.9221 63.6229C57.1454 63.6229 56.5159 62.9934 56.5159 62.2167V60.4688C56.5159 59.692 57.1454 59.0625 57.9221 59.0625C58.6989 59.0625 59.3284 59.692 59.3284 60.4688V62.2167C59.3284 62.9934 58.6989 63.6229 57.9221 63.6229ZM56.5159 70.5938C56.5159 71.3705 57.1454 72 57.9221 72C58.6989 72 59.3284 71.3705 59.3284 70.5938V68.8458C59.3284 68.0691 58.6989 67.4396 57.9221 67.4396C57.1454 67.4396 56.5159 68.0691 56.5159 68.8458V70.5938ZM62.9846 66.9375H61.2367C60.46 66.9375 59.8305 66.308 59.8305 65.5312C59.8305 64.7545 60.46 64.125 61.2367 64.125H62.9846C63.7614 64.125 64.3909 64.7545 64.3909 65.5312C64.3909 66.308 63.7614 66.9375 62.9846 66.9375ZM52.8596 66.9375H54.6076C55.3843 66.9375 56.0138 66.308 56.0138 65.5312C56.0138 64.7545 55.3843 64.125 54.6076 64.125H52.8596C52.0829 64.125 51.4534 64.7545 51.4534 65.5312C51.4534 66.308 52.0829 66.9375 52.8596 66.9375Z" fill="url(#paint0_linear_212_54)"/>
</g>
<defs>
<linearGradient id="paint0_linear_212_54" x1="-1.07463e-05" y1="72" x2="71.9847" y2="72" gradientUnits="userSpaceOnUse">
<stop stop-color="#FFC43C"/>
<stop offset="1" stop-color="#FFA826"/>
</linearGradient>
<clipPath id="clip0_212_54">
<rect width="72" height="72" fill="white"/>
</clipPath>
</defs>
</svg>
