<svg width="300" height="300" viewBox="0 0 300 300" fill="none" xmlns="http://www.w3.org/2000/svg">
<path d="M52.426 241.308C106.684 269.19 194.626 269.19 248.896 241.308C303.166 213.426 303.154 168.216 248.896 140.328C194.638 112.44 106.696 112.446 52.426 140.328C-1.84399 168.21 -1.80199 213.426 52.426 241.308Z" fill="#F5F5F5"/>
<path d="M244.504 166.614C244.57 162.888 248.47 153.144 252.424 148.368C256.378 143.592 262.516 140.166 266.824 141.72C270.826 143.166 270.298 148.434 265.354 151.848C260.41 155.262 252.994 159.528 250.744 165.534L246.112 172.878L244.504 166.614Z" fill="#FF9548"/>
<path opacity="0.1" d="M244.504 166.614C244.57 162.888 248.47 153.144 252.424 148.368C256.378 143.592 262.516 140.166 266.824 141.72C270.826 143.166 270.298 148.434 265.354 151.848C260.41 155.262 252.994 159.528 250.744 165.534L246.112 172.878L244.504 166.614Z" fill="black"/>
<path d="M245.214 169.638C245.273 169.634 245.328 169.612 245.372 169.574C245.417 169.536 245.448 169.485 245.46 169.428C248.178 156.744 258.66 146.58 264.852 144.402C264.887 144.39 264.918 144.372 264.945 144.348C264.972 144.325 264.994 144.296 265.01 144.263C265.025 144.231 265.034 144.196 265.036 144.16C265.038 144.124 265.033 144.088 265.02 144.054C265.008 144.02 264.99 143.989 264.966 143.963C264.942 143.937 264.913 143.915 264.88 143.9C264.848 143.885 264.813 143.877 264.777 143.875C264.741 143.874 264.706 143.879 264.672 143.892C258.354 146.112 247.686 156.438 244.926 169.314C244.914 169.384 244.928 169.457 244.967 169.517C245.006 169.578 245.067 169.621 245.136 169.638H245.214Z" fill="white"/>
<path d="M246.964 177.816C247.6 175.734 250.222 172.32 254.41 169.536C259.042 166.458 264.862 165.108 266.242 162.666C267.898 159.744 265.456 156.906 260.746 157.41C256.036 157.914 247.648 164.184 246.16 173.826L246.964 177.816Z" fill="#FF9548"/>
<path d="M246.093 175.602C246.145 175.598 246.195 175.58 246.237 175.549C246.28 175.518 246.313 175.476 246.333 175.428C250.425 164.598 258.807 160.914 262.665 160.482C262.7 160.478 262.735 160.467 262.766 160.45C262.797 160.433 262.825 160.41 262.847 160.382C262.87 160.354 262.886 160.322 262.896 160.288C262.906 160.253 262.909 160.217 262.905 160.182C262.902 160.146 262.892 160.111 262.875 160.079C262.858 160.048 262.835 160.02 262.806 159.997C262.778 159.975 262.746 159.958 262.711 159.949C262.677 159.939 262.64 159.937 262.605 159.942C258.339 160.416 250.005 164.178 245.805 175.236C245.779 175.303 245.781 175.377 245.811 175.442C245.84 175.507 245.894 175.558 245.961 175.584C246.001 175.605 246.048 175.612 246.093 175.602Z" fill="white"/>
<path d="M62.4944 201.858L67.0364 199.26C67.0364 199.26 69.2144 187.26 67.5884 176.94C65.2964 162.432 55.4204 157.428 51.8324 158.874C48.2444 160.32 47.3984 164.61 53.8784 172.992C57.7004 177.942 62.6204 188.4 62.4944 201.858Z" fill="#FF9548"/>
<g opacity="0.1">
<path d="M62.4915 201.858L67.0335 199.26C67.0335 199.26 69.2115 187.26 67.5855 176.94C65.2935 162.432 55.4175 157.428 51.8295 158.874C48.2415 160.32 47.3955 164.61 53.8755 172.992C57.6975 177.942 62.6175 188.4 62.4915 201.858Z" fill="black"/>
</g>
<path d="M64.1363 196.098H64.0943C64.0518 196.093 64.0108 196.079 63.9737 196.058C63.9366 196.036 63.9042 196.008 63.8784 195.974C63.8526 195.939 63.834 195.9 63.8237 195.859C63.8133 195.817 63.8115 195.774 63.8183 195.732C65.6963 182.154 60.2183 167.274 54.0983 161.274C54.0678 161.244 54.0436 161.209 54.027 161.17C54.0105 161.131 54.002 161.088 54.002 161.046C54.002 161.003 54.0105 160.961 54.027 160.922C54.0436 160.883 54.0678 160.848 54.0983 160.818C54.159 160.758 54.2409 160.724 54.3263 160.724C54.4117 160.724 54.4936 160.758 54.5543 160.818C60.8063 166.926 66.3683 182.046 64.4663 195.828C64.4521 195.905 64.4112 195.974 64.3507 196.023C64.2903 196.073 64.2143 196.099 64.1363 196.098Z" fill="white"/>
<path d="M49.8918 209.136C49.1778 209.55 47.6958 208.65 47.1318 208.266C46.1602 207.606 45.3749 206.707 44.8518 205.656C44.2565 204.463 44.0468 203.115 44.2518 201.798C44.3655 201.105 44.5279 200.422 44.7378 199.752L45.3378 197.76C45.5693 197.118 45.6674 196.436 45.6258 195.756C45.4518 194.394 44.2458 193.44 43.1478 192.618C41.9478 191.706 40.6698 190.506 40.6758 188.868C40.7654 187.598 41.2716 186.394 42.1158 185.442C42.9018 184.452 43.8318 183.576 44.5158 182.526C45.0793 181.805 45.3799 180.914 45.3678 180C45.2951 179.437 45.1072 178.896 44.8158 178.41C44.1487 177.396 43.5667 176.328 43.0758 175.218C42.6738 174.072 42.7338 172.65 43.6278 171.828C44.0277 171.529 44.483 171.314 44.9672 171.193C45.4513 171.072 45.9547 171.05 46.4478 171.126C47.3762 171.242 48.2687 171.557 49.0638 172.05C51.6678 173.496 53.1498 176.574 55.9098 177.69C57.0062 178.029 58.1223 178.302 59.2518 178.506C59.8167 178.611 60.3534 178.833 60.8276 179.157C61.3019 179.482 61.7031 179.901 62.0058 180.39C63.0198 182.412 61.1358 184.908 61.8498 187.056C62.4498 188.958 64.3278 189.684 65.3658 191.394C65.7863 192.152 65.9564 193.023 65.8518 193.884C65.7593 195.336 65.4035 196.759 64.8018 198.084C64.1257 199.401 63.3536 200.666 62.4918 201.87C62.4498 201.9 49.9998 209.076 49.8918 209.136Z" fill="#FF9548"/>
<path d="M57.2651 205.2C57.2225 205.198 57.1807 205.188 57.142 205.171C57.1032 205.153 57.0684 205.128 57.0394 205.097C57.0104 205.065 56.9879 205.029 56.9731 204.989C56.9583 204.949 56.9515 204.906 56.9531 204.864C57.4871 192.012 51.4271 177.816 47.0231 173.694C46.9644 173.632 46.9316 173.551 46.9316 173.466C46.9316 173.381 46.9644 173.299 47.0231 173.238C47.0837 173.178 47.1657 173.144 47.2511 173.144C47.3365 173.144 47.4184 173.178 47.4791 173.238C51.9731 177.438 58.1531 191.874 57.6131 204.912C57.604 204.996 57.5625 205.073 57.4975 205.126C57.4325 205.18 57.3492 205.207 57.2651 205.2Z" fill="white"/>
<path d="M55.3378 190.02H55.2418C52.196 189.179 49.0674 188.674 45.9118 188.514C45.8693 188.512 45.8274 188.503 45.7887 188.485C45.75 188.467 45.7152 188.442 45.6862 188.411C45.6572 188.379 45.6347 188.343 45.6198 188.303C45.605 188.263 45.5982 188.221 45.5998 188.178C45.6006 188.135 45.61 188.093 45.6274 188.054C45.6449 188.015 45.67 187.98 45.7014 187.95C45.7328 187.921 45.7697 187.899 45.81 187.884C45.8503 187.87 45.8931 187.864 45.9358 187.866C49.148 188.034 52.3325 188.549 55.4338 189.402C55.5054 189.427 55.566 189.476 55.6052 189.541C55.6443 189.606 55.6595 189.682 55.6481 189.757C55.6367 189.832 55.5994 189.9 55.5427 189.951C55.486 190.001 55.4136 190.03 55.3378 190.032V190.02Z" fill="white"/>
<path d="M51.4749 204.366L116.953 242.166C117.758 242.575 118.648 242.787 119.551 242.787C120.454 242.787 121.344 242.575 122.149 242.166L246.127 170.58C247.561 169.752 247.561 168.408 246.127 167.58L180.643 129.78C179.838 129.372 178.948 129.159 178.045 129.159C177.142 129.159 176.252 129.372 175.447 129.78L51.4749 201.366C50.0409 202.2 50.0409 203.538 51.4749 204.366Z" fill="#37474F"/>
<path d="M86.8622 221.928C87.9781 222.493 89.2113 222.788 90.4622 222.788C91.713 222.788 92.9463 222.493 94.0622 221.928C96.0542 220.776 96.0542 218.928 94.0622 217.764C92.9463 217.199 91.713 216.904 90.4622 216.904C89.2113 216.904 87.9781 217.199 86.8622 217.764C84.8702 218.916 84.8702 220.8 86.8622 221.928Z" fill="#263238"/>
<path d="M116.952 242.172L51.474 204.372C50.19 203.634 50.058 202.482 51.066 201.654C50.4261 202.161 49.9002 202.797 49.5229 203.52C49.1455 204.244 48.9251 205.039 48.876 205.854V208.296C48.9243 209.198 49.1848 210.075 49.6362 210.857C50.0876 211.639 50.7173 212.303 51.474 212.796L116.952 250.596C117.753 251.013 118.647 251.219 119.55 251.196V242.79C118.646 242.808 117.751 242.595 116.952 242.172Z" fill="#455A64"/>
<path d="M246.126 179.022C246.882 178.529 247.511 177.864 247.962 177.082C248.414 176.301 248.675 175.424 248.724 174.522V172.08C248.673 171.265 248.452 170.47 248.073 169.746C247.695 169.023 247.168 168.387 246.528 167.88C247.542 168.708 247.41 169.86 246.126 170.604L122.148 242.172C121.347 242.59 120.453 242.797 119.55 242.772V251.22C120.453 251.245 121.347 251.038 122.148 250.62L246.126 179.022Z" fill="#263238"/>
<path d="M127.744 234.336L65.9439 198.648C65.0799 198.15 65.0799 197.346 65.9439 196.848L167.596 138.126C168.079 137.88 168.614 137.752 169.156 137.752C169.698 137.752 170.233 137.88 170.716 138.126L232.546 173.808C233.41 174.3 233.41 175.11 232.546 175.608L130.858 234.336C130.376 234.582 129.842 234.71 129.301 234.71C128.76 234.71 128.226 234.582 127.744 234.336Z" fill="#FAFAFA"/>
<path d="M111.673 186.318L148.231 207.42L125.155 220.746C124.752 220.947 124.307 221.052 123.856 221.052C123.405 221.052 122.961 220.947 122.557 220.746L88.5971 201.138C88.4404 201.085 88.3042 200.984 88.2078 200.849C88.1114 200.715 88.0596 200.553 88.0596 200.388C88.0596 200.222 88.1114 200.061 88.2078 199.927C88.3042 199.792 88.4404 199.691 88.5971 199.638L111.673 186.318Z" fill="#E6E6E6"/>
<path d="M148.199 207.42L143.891 190.296C143.794 189.887 143.566 189.521 143.243 189.252C142.917 188.975 142.512 188.805 142.085 188.766L111.647 186.318L148.199 207.42Z" fill="#E0E0E0"/>
<path d="M148.198 207.42L115.48 206.07C115.088 206.054 114.714 205.899 114.426 205.633C114.138 205.367 113.954 205.007 113.908 204.618L111.64 186.312L148.198 207.42Z" fill="#E0E0E0"/>
<path d="M148.198 207.42L115.48 206.07C115.088 206.054 114.714 205.899 114.426 205.633C114.138 205.367 113.954 205.007 113.908 204.618L111.64 186.312L115.678 204.312C115.714 204.472 115.801 204.617 115.925 204.725C116.049 204.833 116.204 204.898 116.368 204.912L148.198 207.42Z" fill="#FAFAFA"/>
<path d="M118.979 206.016L123.857 221.496L125.153 220.746L118.979 206.016Z" fill="#FAFAFA"/>
<path d="M87.2998 200.388L88.5958 199.638L114.108 203.202L87.2998 200.388Z" fill="#FAFAFA"/>
<path d="M132.468 178.62L161.55 195.42C161.953 195.624 162.398 195.73 162.849 195.73C163.301 195.73 163.746 195.624 164.148 195.42L205.422 171.6C205.579 171.547 205.715 171.446 205.811 171.311C205.908 171.177 205.96 171.016 205.96 170.85C205.96 170.685 205.908 170.523 205.811 170.389C205.715 170.254 205.579 170.153 205.422 170.1L176.34 153.3C175.938 153.096 175.493 152.99 175.041 152.99C174.59 152.99 174.145 153.096 173.742 153.3L132.468 177.12C132.311 177.173 132.175 177.274 132.079 177.409C131.983 177.543 131.931 177.705 131.931 177.87C131.931 178.036 131.983 178.197 132.079 178.331C132.175 178.466 132.311 178.567 132.468 178.62Z" fill="#E6E6E6"/>
<path d="M155.592 176.4C155.245 175.862 155.04 175.245 154.995 174.606C154.95 173.967 155.066 173.328 155.334 172.746C155.874 171.546 157.05 170.394 158.856 169.356C160.836 168.192 163.022 167.42 165.294 167.082C167.51 166.763 169.766 166.844 171.954 167.322C174.21 167.813 176.375 168.657 178.368 169.824C180.296 170.932 181.608 172.076 182.304 173.256C182.644 173.759 182.847 174.341 182.893 174.946C182.939 175.551 182.827 176.158 182.568 176.706C182.04 177.828 180.93 178.878 179.25 179.85C177.639 180.823 175.827 181.415 173.952 181.578C172.391 181.73 170.821 181.408 169.446 180.654C169.199 180.547 168.978 180.389 168.797 180.191C168.616 179.992 168.479 179.757 168.396 179.502C168.356 179.281 168.375 179.054 168.452 178.843C168.529 178.632 168.661 178.445 168.834 178.302C167.867 178.381 166.894 178.314 165.948 178.104C165.02 177.904 164.129 177.56 163.308 177.084C161.924 176.284 161.2 175.416 161.136 174.48C161.072 173.544 161.734 172.684 163.122 171.9C164.797 170.918 166.713 170.425 168.654 170.478C170.636 170.522 172.574 171.074 174.282 172.08C174.989 172.474 175.619 172.992 176.142 173.61C176.557 174.067 176.829 174.637 176.922 175.248L171.522 178.38C171.084 178.632 170.844 178.854 170.808 179.046C170.772 179.238 170.928 179.442 171.27 179.646C172.017 180.009 172.872 180.082 173.67 179.85C174.845 179.575 175.969 179.115 177 178.488C178.356 177.708 179.214 176.868 179.574 175.986C179.754 175.558 179.823 175.091 179.774 174.63C179.724 174.168 179.558 173.726 179.292 173.346C178.568 172.312 177.604 171.468 176.484 170.886C174.181 169.524 171.578 168.751 168.906 168.636C166.195 168.56 163.519 169.264 161.196 170.664C159.72 171.516 158.772 172.416 158.352 173.364C158.141 173.805 158.048 174.294 158.082 174.781C158.116 175.269 158.275 175.74 158.544 176.148C159.271 177.218 160.252 178.09 161.4 178.686C162.162 179.122 162.966 179.482 163.8 179.76C164.577 180.029 165.382 180.21 166.2 180.3C166.287 180.307 166.372 180.329 166.452 180.366C166.494 180.366 166.494 180.444 166.452 180.522L165.66 181.632C165.627 181.675 165.589 181.713 165.546 181.746C165.429 181.786 165.302 181.786 165.186 181.746C164.196 181.621 163.223 181.392 162.282 181.062C161.298 180.735 160.349 180.311 159.45 179.796C157.59 178.8 156.306 177.63 155.592 176.4ZM168.102 176.922C168.929 177.027 169.769 176.87 170.502 176.472L173.64 174.672C173.268 174.042 172.719 173.535 172.062 173.214C171.06 172.627 169.923 172.31 168.762 172.296C167.605 172.276 166.466 172.575 165.468 173.16C164.592 173.664 164.166 174.162 164.19 174.654C164.19 175.146 164.682 175.656 165.6 176.184C166.37 176.611 167.224 176.865 168.102 176.928V176.922Z" fill="#FAFAFA"/>
<path d="M208.355 151.74C208.601 151.867 208.875 151.934 209.153 151.934C209.43 151.934 209.704 151.867 209.951 151.74C210.046 151.707 210.129 151.645 210.187 151.563C210.245 151.48 210.277 151.382 210.277 151.281C210.277 151.18 210.245 151.082 210.187 150.999C210.129 150.917 210.046 150.855 209.951 150.822C209.702 150.699 209.429 150.635 209.153 150.635C208.876 150.635 208.603 150.699 208.355 150.822C208.259 150.855 208.177 150.917 208.118 150.999C208.06 151.082 208.028 151.18 208.028 151.281C208.028 151.382 208.06 151.48 208.118 151.563C208.177 151.645 208.259 151.707 208.355 151.74Z" fill="#263238"/>
<path d="M210.899 158.964C211.392 159.215 211.938 159.346 212.492 159.346C213.045 159.346 213.591 159.215 214.085 158.964C214.967 158.46 214.967 157.632 214.085 157.128C213.591 156.877 213.045 156.746 212.492 156.746C211.938 156.746 211.392 156.877 210.899 157.128C209.999 157.632 209.999 158.46 210.899 158.964Z" fill="#263238"/>
<path d="M208.655 155.766C209.255 155.424 209.213 154.86 208.583 154.5L198.107 148.446C197.771 148.266 197.396 148.168 197.014 148.162C196.632 148.156 196.254 148.241 195.911 148.41C195.311 148.746 195.359 149.316 195.983 149.676L206.459 155.724C206.797 155.902 207.171 155.999 207.552 156.006C207.934 156.013 208.312 155.931 208.655 155.766Z" fill="#263238"/>
<path d="M72.8301 79.4638C72.8632 78.8194 73.0485 78.1921 73.3708 77.6331C73.693 77.0741 74.1431 76.5994 74.6841 76.2478L169.622 21.4378C170.197 21.1449 170.834 20.9922 171.479 20.9922C172.125 20.9922 172.761 21.1449 173.336 21.4378L175.424 22.6378C175.964 22.9888 176.414 23.4626 176.736 24.0205C177.058 24.5783 177.244 25.2045 177.278 25.8478V98.6278C177.241 99.2713 177.054 99.8972 176.732 100.456C176.41 101.014 175.962 101.489 175.424 101.844L80.4861 156.654C79.9111 156.944 79.2761 157.095 78.6321 157.095C77.9881 157.095 77.3531 156.944 76.7781 156.654L74.6841 155.454C74.1457 155.099 73.6977 154.624 73.3758 154.066C73.0539 153.507 72.867 152.881 72.8301 152.238V79.4638Z" fill="#FF9548"/>
<path opacity="0.4" d="M73.3691 77.6339L78.6371 80.6699L176.737 24.0299C176.425 23.4653 175.975 22.9886 175.429 22.6439L173.329 21.4439C172.755 21.151 172.12 20.9983 171.475 20.9983C170.831 20.9983 170.195 21.151 169.621 21.4439L74.6891 76.2479C74.1358 76.5868 73.6807 77.0646 73.3691 77.6339Z" fill="white"/>
<path opacity="0.1" d="M72.8301 79.4578V152.226C72.8644 152.871 73.0508 153.498 73.3741 154.057C73.6973 154.616 74.1483 155.091 74.6901 155.442L76.7781 156.642C76.9395 156.736 77.1105 156.812 77.2881 156.87C77.5361 156.952 77.7912 157.01 78.0501 157.044C78.5377 157.107 79.0324 157.089 79.5141 156.99C79.6359 156.965 79.7561 156.933 79.8741 156.894C79.9507 156.873 80.025 156.845 80.0961 156.81C79.9558 156.87 79.8047 156.901 79.6521 156.901C79.4994 156.901 79.3484 156.87 79.2081 156.81C79.0136 156.68 78.858 156.5 78.7576 156.288C78.6573 156.077 78.616 155.843 78.6381 155.61V82.7998C78.6196 82.4698 78.7022 82.142 78.8748 81.86C79.0473 81.5781 79.3018 81.3555 79.6041 81.2218L78.6381 80.6578L73.3701 77.6218C73.0375 78.1782 72.8517 78.81 72.8301 79.4578Z" fill="black"/>
<path opacity="0.2" d="M78.6388 80.6697L122.607 97.0977C124.127 97.6633 125.795 97.6946 127.336 97.1864C128.877 96.6783 130.199 95.6609 131.085 94.3017L138.147 83.5017L177.087 23.8376L139.551 83.8917L177.279 98.6576C177.24 99.3168 177.034 99.9551 176.679 100.512L139.449 84.0597L131.241 97.1997C130.33 98.658 128.924 99.7389 127.281 100.244C125.637 100.749 123.867 100.643 122.295 99.9477L116.457 97.3677L79.2028 156.804C79.0083 156.674 78.8527 156.493 78.7523 156.282C78.652 156.071 78.6106 155.836 78.6328 155.604V154.404L116.271 97.3196L78.6388 80.6697Z" fill="black"/>
<path d="M89.5162 63.6779L83.0242 59.9399L82.9642 59.9039C80.0842 58.2779 76.1362 58.5239 71.7622 61.0439C62.9602 66.1259 55.8262 78.4859 55.8262 88.6439C55.8262 93.7139 57.6262 97.2839 60.4762 98.9519L66.3802 102.318L67.7902 99.9599C69.3964 99.5946 70.938 98.9877 72.3622 98.1599C81.1642 93.0779 88.2982 80.7179 88.2982 70.5599C88.2975 69.1888 88.1303 67.8227 87.8002 66.4919L89.5162 63.6779Z" fill="#37474F"/>
<path d="M77.9166 64.5899C69.1086 69.6719 61.9746 82.0319 61.9746 92.1899C61.9746 102.348 69.1086 106.476 77.9106 101.394C86.7126 96.3119 93.8526 83.9459 93.8526 73.7939C93.8526 63.6419 86.7186 59.5019 77.9166 64.5899Z" fill="url(#paint0_linear_374_7004)"/>
<path d="M72.9623 84.2039C72.9056 84.1452 72.8644 84.0734 72.8424 83.9948C72.8204 83.9163 72.8183 83.8335 72.8363 83.7539C72.8665 83.5374 72.9489 83.3315 73.0763 83.1539L78.0023 75.8399C78.1283 75.6659 78.2483 75.4919 78.3803 75.3239C78.4901 75.1669 78.631 75.0342 78.7943 74.9339L80.5943 73.9139C80.654 73.8696 80.7254 73.8438 80.7997 73.8399C80.8739 73.836 80.9477 73.854 81.0118 73.8918C81.0758 73.9296 81.1273 73.9854 81.1597 74.0523C81.1922 74.1192 81.2042 74.1942 81.1943 74.2679V91.1519C81.1847 91.3645 81.1207 91.5711 81.0083 91.7519C80.909 91.9388 80.762 92.0961 80.5823 92.2079L78.7463 93.2639C78.6852 93.3102 78.6125 93.3386 78.5362 93.3461C78.4599 93.3535 78.3831 93.3396 78.3143 93.3059C78.2515 93.2622 78.2016 93.2023 78.1699 93.1326C78.1382 93.0629 78.1259 92.986 78.1343 92.9099V80.0039L74.9243 84.7619C74.8182 84.936 74.664 85.0756 74.4803 85.1639C74.4138 85.1974 74.3393 85.2117 74.2652 85.2054C74.191 85.199 74.1201 85.1722 74.0603 85.1279L72.9623 84.2039Z" fill="#FAFAFA"/>
<path d="M219.963 142.398V141.324H220.227C220.625 140.594 221.231 139.999 221.967 139.614C223.468 138.854 225.127 138.458 226.809 138.458C228.491 138.458 230.15 138.854 231.651 139.614C232.387 139.999 232.993 140.594 233.391 141.324H233.655V142.362C233.655 143.388 233.007 144.42 231.651 145.206C230.153 145.96 228.5 146.353 226.823 146.352C225.147 146.351 223.493 145.956 221.997 145.2C220.623 144.432 219.957 143.4 219.963 142.398Z" fill="#263238"/>
<path d="M231.652 138.528C230.152 137.765 228.493 137.367 226.81 137.367C225.127 137.367 223.468 137.765 221.968 138.528C219.292 140.07 219.292 142.572 221.968 144.12C223.469 144.88 225.128 145.276 226.81 145.276C228.492 145.276 230.151 144.88 231.652 144.12C234.328 142.572 234.328 140.07 231.652 138.528Z" fill="#455A64"/>
<path d="M228.598 100.2V140.868C228.584 141.023 228.529 141.171 228.438 141.298C228.347 141.424 228.225 141.524 228.082 141.588C227.696 141.786 227.268 141.889 226.834 141.889C226.4 141.889 225.973 141.786 225.586 141.588C225.444 141.524 225.321 141.424 225.231 141.298C225.14 141.171 225.085 141.023 225.07 140.868V100.2H228.598Z" fill="#37474F"/>
<path d="M225.045 104.628V105.9L228.573 107.934V106.668L225.045 104.628Z" fill="#263238"/>
<path d="M247.552 89.4299L247.252 90.0299L244.024 96.4979L242.494 99.5998L237.31 109.998L236.74 111.144H236.638C236.429 111.151 236.223 111.103 236.038 111.006L212.932 97.6498C212.76 97.5408 212.616 97.3928 212.511 97.2176C212.407 97.0425 212.346 96.8452 212.332 96.6419V87.7139C212.332 83.2619 215.266 77.9578 218.884 75.8698C220.6 74.8798 222.154 74.8019 223.324 75.4559L247.552 89.4299Z" fill="#455A64"/>
<path d="M243.19 89.9038C241.726 90.4438 236.416 94.8298 236.416 101.742C236.416 107.55 236.416 110.562 236.416 111.108H236.632H236.734L237.304 109.962L242.494 99.5998L244.024 96.5278L244.378 95.8258L243.19 89.9038Z" fill="#37474F"/>
<path d="M249.455 103.8C249.397 103.898 249.314 103.978 249.215 104.034L249.155 104.07L237.221 111C237.072 111.079 236.908 111.124 236.741 111.132H236.639V101.742C236.668 100.043 237.021 98.3652 237.677 96.7979L238.277 97.1339L242.507 99.5759L249.071 103.374L249.407 103.566C249.443 103.591 249.468 103.63 249.477 103.673C249.486 103.717 249.478 103.762 249.455 103.8Z" fill="#37474F"/>
<path d="M247.551 89.4298C246.393 88.8298 244.863 88.9318 243.189 89.9038C241.135 91.1949 239.474 93.0255 238.389 95.1958C238.114 95.7159 237.868 96.2507 237.651 96.7978C236.995 98.3651 236.643 100.043 236.613 101.742V111.126H236.715C236.883 111.118 237.047 111.073 237.195 110.994L249.123 104.1L249.183 104.064C249.277 104.002 249.359 103.922 249.423 103.83C249.591 103.619 249.688 103.361 249.699 103.092V94.1998C249.729 91.7998 248.889 90.1378 247.551 89.4298ZM248.883 103.47L237.483 110.07C237.387 110.124 237.309 110.07 237.309 109.968V101.742C237.34 100.16 237.663 98.5976 238.263 97.1338C238.27 97.1019 238.282 97.0715 238.299 97.0438C238.529 96.4644 238.794 95.8994 239.091 95.3518C240.102 93.3586 241.634 91.6769 243.525 90.4858C244.258 90.0209 245.1 89.758 245.967 89.7238C246.415 89.7188 246.856 89.8261 247.251 90.0358C248.391 90.6358 249.051 92.1178 249.051 94.1758V103.176C249.048 103.234 249.031 103.292 249.002 103.343C248.973 103.394 248.932 103.437 248.883 103.47Z" fill="#455A64"/>
<path d="M249.06 94.1998V103.398L238.26 97.1578C238.266 97.1259 238.279 97.0955 238.296 97.0678C239.454 94.1758 241.404 91.7218 243.522 90.5098C244.254 90.0449 245.097 89.782 245.964 89.7478C247.878 89.7238 249.06 91.4338 249.06 94.1998Z" fill="#263238"/>
<path d="M229.293 98.7599L230.247 98.2079C230.45 98.1159 230.675 98.0791 230.897 98.1012C231.119 98.1233 231.332 98.2036 231.513 98.3339C232.037 98.676 232.473 99.1368 232.786 99.6788C233.098 100.221 233.279 100.829 233.313 101.454C233.335 101.673 233.299 101.895 233.208 102.096C233.118 102.297 232.976 102.471 232.797 102.6L231.915 103.11L231.753 102.84C231.572 102.8 231.398 102.733 231.237 102.642C230.713 102.3 230.277 101.839 229.964 101.297C229.652 100.755 229.471 100.147 229.437 99.5219C229.438 99.3664 229.456 99.2115 229.491 99.0599L229.293 98.7599Z" fill="#E0E0E0"/>
<path d="M230.607 98.8619C231.13 99.2031 231.566 99.6628 231.879 100.204C232.191 100.745 232.372 101.352 232.407 101.976C232.407 103.128 231.597 103.59 230.607 103.02C230.083 102.677 229.647 102.217 229.335 101.675C229.022 101.133 228.841 100.525 228.807 99.8999C228.801 98.7539 229.611 98.2859 230.607 98.8619Z" fill="#FAFAFA"/>
<path d="M230.608 101.436C230.469 101.436 230.337 101.381 230.239 101.283C230.141 101.185 230.086 101.052 230.086 100.914V86.148C230.086 86.0095 230.141 85.8768 230.239 85.7789C230.337 85.681 230.469 85.626 230.608 85.626C230.746 85.626 230.879 85.681 230.977 85.7789C231.075 85.8768 231.13 86.0095 231.13 86.148V100.914C231.13 101.052 231.075 101.185 230.977 101.283C230.879 101.381 230.746 101.436 230.608 101.436Z" fill="#EBEBEB"/>
<path d="M230.084 87.6059L224.852 84.5879L226.49 87.7379L224.852 88.9979L230.084 92.0219V87.6059Z" fill="#FF9548"/>
<path d="M246.336 97.1999C246.333 97.1197 246.31 97.0415 246.27 96.9716C246.231 96.9017 246.175 96.8422 246.108 96.7979L234.276 89.9699C234.204 89.9345 234.125 89.916 234.045 89.916C233.965 89.916 233.886 89.9345 233.814 89.9699L233.55 90.1199C233.483 90.1642 233.428 90.2237 233.388 90.2936C233.349 90.3635 233.326 90.4417 233.322 90.5219V99.5999C233.327 99.6798 233.35 99.7575 233.39 99.8272C233.429 99.8968 233.484 99.9566 233.55 100.002L245.4 106.8C245.472 106.835 245.551 106.854 245.631 106.854C245.711 106.854 245.79 106.835 245.862 106.8L246.126 106.65C246.193 106.606 246.249 106.546 246.288 106.476C246.328 106.406 246.351 106.328 246.354 106.248L246.336 97.1999Z" fill="#F0F0F0"/>
<path d="M246.27 96.9598L245.616 97.3378L233.4 90.2818C233.44 90.2117 233.495 90.1521 233.562 90.1078L233.826 89.9578C233.897 89.9195 233.977 89.8994 234.057 89.8994C234.138 89.8994 234.217 89.9195 234.288 89.9578L246.12 96.7858C246.183 96.8315 246.234 96.891 246.27 96.9598Z" fill="#FAFAFA"/>
<path d="M246.336 97.2V106.266C246.332 106.346 246.309 106.424 246.27 106.494C246.23 106.564 246.175 106.624 246.108 106.668L245.844 106.818L245.784 106.848H245.688C245.626 106.86 245.563 106.86 245.502 106.848H245.46H245.43C245.447 106.857 245.467 106.862 245.487 106.862C245.506 106.862 245.526 106.857 245.544 106.848C245.568 106.832 245.588 106.809 245.6 106.783C245.613 106.756 245.618 106.727 245.616 106.698V97.602C245.617 97.5608 245.606 97.5202 245.583 97.4858C245.561 97.4514 245.528 97.4249 245.49 97.41L245.616 97.338L246.27 96.96C246.313 97.0327 246.335 97.1155 246.336 97.2Z" fill="#E0E0E0"/>
<path d="M245.616 97.338L240.132 99.384C239.943 99.4537 239.735 99.4573 239.544 99.3941C239.352 99.3309 239.187 99.2047 239.076 99.036L238.2 97.692L233.346 90.252L238.02 97.74L233.322 99.6C233.327 99.6808 233.351 99.7592 233.394 99.828L238.038 97.776L239.058 99.414C239.172 99.5962 239.347 99.7312 239.552 99.7941C239.757 99.8569 239.978 99.8434 240.174 99.7559L240.9 99.438L245.544 106.8C245.569 106.784 245.588 106.761 245.601 106.735C245.614 106.708 245.619 106.679 245.616 106.65V106.5L240.924 99.384L245.616 97.338Z" fill="#E0E0E0"/>
<path d="M255.493 98.6517L253.093 101.394L253.045 101.454L250.801 104.052C250.667 104.198 250.513 104.326 250.345 104.43L237.745 111.69C237.702 111.714 237.655 111.731 237.607 111.738H237.601L242.137 106.5L242.401 106.2C245.745 102.55 249.582 99.3833 253.801 96.7917C255.451 95.8377 256.507 95.4957 256.909 95.6937C257.401 95.9637 256.945 96.9777 255.493 98.6517Z" fill="#37474F"/>
<defs>
<linearGradient id="paint0_linear_374_7004" x1="82.1198" y1="58.5782" x2="54.0729" y2="90.4052" gradientUnits="userSpaceOnUse">
<stop/>
<stop offset="1" stop-color="#B9B9B9"/>
</linearGradient>
</defs>
</svg>
