<svg width="69" height="72" viewBox="0 0 69 72" fill="none" xmlns="http://www.w3.org/2000/svg">
<path d="M67.3698 36C67.3698 17.8757 52.6245 3.13044 34.5002 3.13044C16.3759 3.13044 1.63065 17.8757 1.63065 36C1.63065 54.1243 16.3759 68.8696 34.5002 68.8696C52.6245 68.8696 67.3698 54.1243 67.3698 36ZM34.5002 65.7391C18.1019 65.7391 4.76109 52.3983 4.76109 36C4.76109 19.6017 18.1019 6.26087 34.5002 6.26087C50.8985 6.26087 64.2393 19.6017 64.2393 36C64.2393 52.3983 50.8985 65.7391 34.5002 65.7391Z" fill="url(#paint0_linear_118_711)"/>
<path d="M34.5003 10.9565C20.6913 10.9565 9.45677 22.191 9.45677 36C9.45677 49.8091 20.6913 61.0435 34.5003 61.0435C48.3094 61.0435 59.5437 49.8091 59.5437 36C59.5437 22.191 48.3094 10.9565 34.5003 10.9565ZM36.0655 57.8565V54.718C45.6925 53.9199 53.2829 45.8296 53.2829 36C53.2829 35.1355 52.582 34.4348 51.7176 34.4348C50.8533 34.4348 50.1524 35.1355 50.1524 36C50.1524 44.6308 43.131 51.6522 34.5003 51.6522C33.6358 51.6522 32.935 52.3531 32.935 53.2174V57.8565C21.58 57.0512 12.5872 47.5566 12.5872 36C12.5872 24.4435 21.58 14.9488 32.935 14.1435V17.282C23.308 18.0801 15.7176 26.1704 15.7176 36C15.7176 36.8643 16.4184 37.5652 17.2829 37.5652C18.1473 37.5652 18.8481 36.8643 18.8481 36C18.8481 27.3694 25.8696 20.3478 34.5003 20.3478C35.3646 20.3478 36.0655 19.6471 36.0655 18.7826V14.1435C47.4207 14.9489 56.4133 24.4435 56.4133 36C56.4133 47.5566 47.4207 57.0512 36.0655 57.8565Z" fill="url(#paint1_linear_118_711)"/>
<path d="M1.63065 57.913C2.49509 57.913 3.19586 57.2123 3.19586 56.3478C3.19586 55.4834 2.49509 54.7826 1.63065 54.7826C0.766201 54.7826 0.0654297 55.4834 0.0654297 56.3478C0.0654297 57.2123 0.766201 57.913 1.63065 57.913Z" fill="url(#paint2_linear_118_711)"/>
<path d="M67.3697 57.913C68.2342 57.913 68.9349 57.2123 68.9349 56.3478C68.9349 55.4834 68.2342 54.7826 67.3697 54.7826C66.5053 54.7826 65.8045 55.4834 65.8045 56.3478C65.8045 57.2123 66.5053 57.913 67.3697 57.913Z" fill="url(#paint3_linear_118_711)"/>
<path d="M67.3697 17.2174C68.2342 17.2174 68.9349 16.5166 68.9349 15.6522C68.9349 14.7877 68.2342 14.087 67.3697 14.087C66.5053 14.087 65.8045 14.7877 65.8045 15.6522C65.8045 16.5166 66.5053 17.2174 67.3697 17.2174Z" fill="url(#paint4_linear_118_711)"/>
<path d="M1.63065 18.7826C2.49509 18.7826 3.19586 18.0818 3.19586 17.2174C3.19586 16.3529 2.49509 15.6522 1.63065 15.6522C0.766201 15.6522 0.0654297 16.3529 0.0654297 17.2174C0.0654297 18.0818 0.766201 18.7826 1.63065 18.7826Z" fill="url(#paint5_linear_118_711)"/>
<path d="M11.022 70.4348C11.8864 70.4348 12.5872 69.734 12.5872 68.8696C12.5872 68.0051 11.8864 67.3044 11.022 67.3044C10.1575 67.3044 9.45677 68.0051 9.45677 68.8696C9.45677 69.734 10.1575 70.4348 11.022 70.4348Z" fill="url(#paint6_linear_118_711)"/>
<path d="M56.4132 3.13043C57.2777 3.13043 57.9785 2.42966 57.9785 1.56522C57.9785 0.700772 57.2777 0 56.4132 0C55.5488 0 54.848 0.700772 54.848 1.56522C54.848 2.42966 55.5488 3.13043 56.4132 3.13043Z" fill="url(#paint7_linear_118_711)"/>
<path d="M7.10891 12.5217C10.1296 12.5217 12.5872 10.0642 12.5872 7.04348C12.5872 4.02276 10.1296 1.56521 7.10891 1.56521C4.0882 1.56521 1.63065 4.02276 1.63065 7.04348C1.63065 10.0642 4.0882 12.5217 7.10891 12.5217ZM7.10891 4.69565C8.40351 4.69565 9.45674 5.74888 9.45674 7.04348C9.45674 8.33807 8.40351 9.3913 7.10891 9.3913C5.81432 9.3913 4.76109 8.33807 4.76109 7.04348C4.76109 5.74888 5.81432 4.69565 7.10891 4.69565Z" fill="url(#paint8_linear_118_711)"/>
<path d="M59.5437 62.6087C56.9545 62.6087 54.848 64.7152 54.848 67.3044C54.848 69.8935 56.9545 72 59.5437 72C62.1329 72 64.2393 69.8935 64.2393 67.3044C64.2393 64.7152 62.1329 62.6087 59.5437 62.6087ZM59.5437 68.8696C58.6806 68.8696 57.9785 68.1674 57.9785 67.3044C57.9785 66.4413 58.6806 65.7391 59.5437 65.7391C60.4067 65.7391 61.1089 66.4413 61.1089 67.3044C61.1089 68.1674 60.4067 68.8696 59.5437 68.8696Z" fill="url(#paint9_linear_118_711)"/>
<path d="M40.6037 27.4929L30.6427 37.4539L28.429 35.2402C26.5982 33.4096 23.6193 33.4097 21.7884 35.2404C19.9534 37.0755 19.9531 40.0456 21.7884 41.8812L29.5358 49.6285C30.1472 50.2397 31.1381 50.2396 31.7495 49.6285L47.2443 34.1336C49.0792 32.2987 49.0796 29.3283 47.2443 27.4929C45.4137 25.6622 42.4346 25.6624 40.6037 27.4929ZM45.0308 31.9201L30.6427 46.3082L24.0021 39.6676C23.3918 39.0573 23.3918 38.0644 24.0021 37.4539C24.6124 36.8438 25.6054 36.8438 26.2156 37.4539L29.5359 40.7744C30.147 41.3853 31.1384 41.3854 31.7496 40.7744L42.8174 29.7066C43.4274 29.0963 44.4205 29.0961 45.031 29.7066C45.6425 30.3183 45.6427 31.3083 45.0308 31.9201Z" fill="url(#paint10_linear_118_711)"/>
<defs>
<linearGradient id="paint0_linear_118_711" x1="0.0654194" y1="72.0001" x2="68.9349" y2="72.0001" gradientUnits="userSpaceOnUse">
<stop stop-color="#FFC43C"/>
<stop offset="1" stop-color="#FFA826"/>
</linearGradient>
<linearGradient id="paint1_linear_118_711" x1="0.0654194" y1="72.0001" x2="68.9349" y2="72.0001" gradientUnits="userSpaceOnUse">
<stop stop-color="#FFC43C"/>
<stop offset="1" stop-color="#FFA826"/>
</linearGradient>
<linearGradient id="paint2_linear_118_711" x1="0.0654194" y1="72.0001" x2="68.9349" y2="72.0001" gradientUnits="userSpaceOnUse">
<stop stop-color="#FFC43C"/>
<stop offset="1" stop-color="#FFA826"/>
</linearGradient>
<linearGradient id="paint3_linear_118_711" x1="0.0654194" y1="72.0001" x2="68.9349" y2="72.0001" gradientUnits="userSpaceOnUse">
<stop stop-color="#FFC43C"/>
<stop offset="1" stop-color="#FFA826"/>
</linearGradient>
<linearGradient id="paint4_linear_118_711" x1="0.0654194" y1="72.0001" x2="68.9349" y2="72.0001" gradientUnits="userSpaceOnUse">
<stop stop-color="#FFC43C"/>
<stop offset="1" stop-color="#FFA826"/>
</linearGradient>
<linearGradient id="paint5_linear_118_711" x1="0.0654194" y1="72.0001" x2="68.9349" y2="72.0001" gradientUnits="userSpaceOnUse">
<stop stop-color="#FFC43C"/>
<stop offset="1" stop-color="#FFA826"/>
</linearGradient>
<linearGradient id="paint6_linear_118_711" x1="0.0654194" y1="72.0001" x2="68.9349" y2="72.0001" gradientUnits="userSpaceOnUse">
<stop stop-color="#FFC43C"/>
<stop offset="1" stop-color="#FFA826"/>
</linearGradient>
<linearGradient id="paint7_linear_118_711" x1="0.0654194" y1="72.0001" x2="68.9349" y2="72.0001" gradientUnits="userSpaceOnUse">
<stop stop-color="#FFC43C"/>
<stop offset="1" stop-color="#FFA826"/>
</linearGradient>
<linearGradient id="paint8_linear_118_711" x1="0.0654194" y1="72.0001" x2="68.9349" y2="72.0001" gradientUnits="userSpaceOnUse">
<stop stop-color="#FFC43C"/>
<stop offset="1" stop-color="#FFA826"/>
</linearGradient>
<linearGradient id="paint9_linear_118_711" x1="0.0654194" y1="72.0001" x2="68.9349" y2="72.0001" gradientUnits="userSpaceOnUse">
<stop stop-color="#FFC43C"/>
<stop offset="1" stop-color="#FFA826"/>
</linearGradient>
<linearGradient id="paint10_linear_118_711" x1="0.0654194" y1="72.0001" x2="68.9349" y2="72.0001" gradientUnits="userSpaceOnUse">
<stop stop-color="#FFC43C"/>
<stop offset="1" stop-color="#FFA826"/>
</linearGradient>
</defs>
</svg>
