<svg width="28" height="28" viewBox="0 0 28 28" fill="none" xmlns="http://www.w3.org/2000/svg">
<path d="M14 28C21.732 28 28 21.732 28 14C28 6.26803 21.732 0 14 0C6.26803 0 0 6.26803 0 14C0 21.732 6.26803 28 14 28Z" fill="url(#paint0_linear_149_1386)"/>
<path fill-rule="evenodd" clip-rule="evenodd" d="M6.33719 13.8522C10.4185 12.0741 13.14 10.9018 14.5017 10.3354C18.3896 8.71827 19.1975 8.43739 19.7241 8.42812C19.8399 8.42607 20.0988 8.45477 20.2666 8.59087C20.4082 8.70578 20.4472 8.86107 20.4658 8.96997C20.4845 9.07894 20.5077 9.32721 20.4892 9.52111C20.2786 11.7349 19.3669 17.107 18.9031 19.5864C18.7068 20.6355 18.3204 20.9873 17.9463 21.0218C17.1333 21.0965 16.516 20.4844 15.7285 19.9683C14.4963 19.1606 13.8002 18.6577 12.6042 17.8696C11.222 16.9587 12.118 16.4581 12.9058 15.6399C13.1119 15.4258 16.694 12.1676 16.7633 11.872C16.772 11.835 16.7801 11.6972 16.6982 11.6245C16.6163 11.5517 16.4955 11.5766 16.4083 11.5964C16.2848 11.6244 14.3163 12.9255 10.5031 15.4996C9.94435 15.8832 9.43825 16.0702 8.98483 16.0604C8.48497 16.0495 7.5234 15.7777 6.80859 15.5454C5.93184 15.2603 5.235 15.1097 5.29568 14.6257C5.32728 14.3736 5.67445 14.1157 6.33719 13.8522Z" fill="white"/>
<defs>
<linearGradient id="paint0_linear_149_1386" x1="14" y1="0" x2="14" y2="27.7923" gradientUnits="userSpaceOnUse">
<stop stop-color="#2AABEE"/>
<stop offset="1" stop-color="#229ED9"/>
</linearGradient>
</defs>
</svg>
