<svg width="28" height="28" viewBox="0 0 28 28" fill="none" xmlns="http://www.w3.org/2000/svg">
<path d="M8.80542 25.3758C19.3715 25.3758 25.1507 16.6219 25.1507 9.03053C25.1507 8.78185 25.1507 8.53434 25.1339 8.28794C26.2582 7.47472 27.2287 6.46783 28 5.31436C26.9516 5.77916 25.8394 6.08382 24.7005 6.21822C25.8998 5.50034 26.7973 4.37111 27.2261 3.04076C26.0984 3.70997 24.8648 4.18156 23.5782 4.43516C22.7121 3.51417 21.5665 2.90431 20.3189 2.69996C19.0712 2.49561 17.791 2.70816 16.6763 3.30472C15.5616 3.90128 14.6746 4.84859 14.1525 6.00005C13.6305 7.15155 13.5025 8.44299 13.7883 9.67453C11.5044 9.55996 9.27004 8.96642 7.23036 7.93234C5.19068 6.89833 3.39123 5.44696 1.9488 3.67244C1.21418 4.9371 0.989182 6.43423 1.31962 7.85896C1.65005 9.28364 2.51106 10.5289 3.72736 11.3411C2.8131 11.3143 1.91876 11.0676 1.12 10.622V10.6948C1.12036 12.0212 1.57949 13.3065 2.41951 14.3329C3.25954 15.3593 4.42874 16.0635 5.7288 16.3262C4.88306 16.5569 3.99569 16.5906 3.13488 16.4247C3.50212 17.5662 4.21684 18.5642 5.17911 19.2795C6.14139 19.9948 7.30316 20.3915 8.50191 20.4142C7.31086 21.3504 5.94685 22.0426 4.48802 22.4512C3.02917 22.8598 1.50408 22.9767 0 22.7953C2.62714 24.4812 5.68391 25.3754 8.80542 25.3713" fill="#1DA1F2"/>
</svg>
