<svg width="19" height="19" viewBox="0 0 19 19" fill="none" xmlns="http://www.w3.org/2000/svg">
<path d="M18.0562 4.91577C17.8563 4.17276 17.2705 3.58705 16.5276 3.38697C15.1704 3.01562 9.74149 3.01562 9.74149 3.01562C9.74149 3.01562 4.31278 3.01562 2.95558 3.3729C2.22696 3.57275 1.62685 4.17286 1.42699 4.91577C1.06982 6.27287 1.06982 9.08731 1.06982 9.08731C1.06982 9.08731 1.06982 11.9159 1.42699 13.2589C1.62706 14.0018 2.21267 14.5875 2.95568 14.7875C4.32707 15.159 9.7417 15.159 9.7417 15.159C9.7417 15.159 15.1704 15.159 16.5276 14.8017C17.2706 14.6018 17.8563 14.0161 18.0564 13.2731C18.4135 11.9159 18.4135 9.1016 18.4135 9.1016C18.4135 9.1016 18.4278 6.27287 18.0562 4.91577V4.91577ZM8.01304 11.6874V6.48723L12.5275 9.08731L8.01304 11.6874Z" fill="white"/>
</svg>
