<svg width="23" height="23" viewBox="0 0 23 23" fill="none" xmlns="http://www.w3.org/2000/svg">
<g clip-path="url(#clip0_342_2282)">
<path d="M0.230314 5.61121L0 6.02606V18.0194C0 18.8109 0.641574 19.4524 1.43301 19.4524H21.567C22.3584 19.4524 23 18.8109 23 18.0194V6.02606L22.7697 5.61121H0.230314Z" fill="#DDEAFB"/>
<path d="M20.6535 5.61121V15.6729C20.6535 16.4644 20.0119 17.106 19.2205 17.106H0V18.0194C0 18.8109 0.641574 19.4524 1.43301 19.4524H21.567C22.3584 19.4524 23 18.8109 23 18.0194V6.02606L22.7697 5.61121H20.6535Z" fill="#CBE2FF"/>
<path d="M21.567 2.07178H1.43301C0.641574 2.07178 0 2.71335 0 3.50479V6.02652H23V3.50479C23 2.71335 22.3584 2.07178 21.567 2.07178Z" fill="#698ED5"/>
<path d="M21.5668 2.07178H20.6533V6.02652H22.9998V3.50479C22.9998 2.71335 22.3582 2.07178 21.5668 2.07178Z" fill="#4073C8"/>
<path d="M2.59556 4.69185C2.95063 4.69185 3.23848 4.404 3.23848 4.04893C3.23848 3.69385 2.95063 3.40601 2.59556 3.40601C2.24048 3.40601 1.95264 3.69385 1.95264 4.04893C1.95264 4.404 2.24048 4.69185 2.59556 4.69185Z" fill="#DD636E"/>
<path d="M4.57359 4.69209C4.92866 4.69209 5.21651 4.40425 5.21651 4.04917C5.21651 3.6941 4.92866 3.40625 4.57359 3.40625C4.21851 3.40625 3.93066 3.6941 3.93066 4.04917C3.93066 4.40425 4.21851 4.69209 4.57359 4.69209Z" fill="#FFE07D"/>
<path d="M6.55113 4.69209C6.9062 4.69209 7.19405 4.40425 7.19405 4.04917C7.19405 3.6941 6.9062 3.40625 6.55113 3.40625C6.19605 3.40625 5.9082 3.6941 5.9082 4.04917C5.9082 4.40425 6.19605 4.69209 6.55113 4.69209Z" fill="#86F1A7"/>
<path d="M3.90139 14.0145H3.90337C4.05008 14.0145 4.18103 13.9223 4.23031 13.7839L5.09007 11.3714L5.91156 13.7795C5.95931 13.9195 6.09066 14.0139 6.23863 14.0145H6.24007C6.38746 14.0145 6.51881 13.9214 6.56764 13.7822L7.73309 10.4573C7.79648 10.2765 7.70124 10.0784 7.52034 10.015C7.33958 9.95161 7.14138 10.0468 7.078 10.2277L6.24456 12.6055L5.42582 10.2052C5.33301 9.90022 4.86717 9.89739 4.77036 10.2008L3.90939 12.6167L3.09046 10.2336C3.0282 10.0523 2.83073 9.95575 2.64942 10.0182C2.46816 10.0805 2.37167 10.278 2.43398 10.4592L3.57517 13.7802C3.62306 13.9197 3.75391 14.0137 3.90139 14.0145Z" fill="#698ED5"/>
<path d="M10.3233 14.0143H10.3252C10.472 14.0143 10.6029 13.922 10.6522 13.7837L11.5119 11.3711L12.3334 13.7793C12.3812 13.9193 12.5125 14.0136 12.6605 14.0142H12.6619C12.8093 14.0142 12.9407 13.9212 12.9895 13.7819L14.155 10.4571C14.2184 10.2762 14.1231 10.0781 13.9422 10.0148C13.7615 9.95137 13.5633 10.0466 13.4999 10.2275L12.6664 12.6052L11.8477 10.205C11.7548 9.89993 11.289 9.89719 11.1922 10.2006L10.3313 12.6165L9.51234 10.2334C9.45008 10.0521 9.25251 9.9555 9.0713 10.0179C8.89004 10.0802 8.79354 10.2777 8.85585 10.459L9.99705 13.78C10.0449 13.9195 10.1758 14.0134 10.3233 14.0143Z" fill="#698ED5"/>
<path d="M16.6407 14.0143H16.6427C16.7894 14.0143 16.9203 13.922 16.9696 13.7837L17.8294 11.3711L18.6509 13.7793C18.6986 13.9193 18.83 14.0136 18.9779 14.0142H18.9794C19.1268 14.0142 19.2581 13.9212 19.3069 13.7819L20.4724 10.4571C20.5357 10.2762 20.4405 10.0781 20.2596 10.0148C20.0788 9.95137 19.8807 10.0466 19.8173 10.2275L18.9839 12.6052L18.1651 10.205C18.0723 9.89998 17.6064 9.89715 17.5097 10.2006L16.6487 12.6165L15.8297 10.2334C15.7675 10.0521 15.5702 9.95559 15.3887 10.0179C15.2074 10.0802 15.1109 10.2777 15.1732 10.459L16.3145 13.78C16.3624 13.9195 16.4932 14.0134 16.6407 14.0143Z" fill="#698ED5"/>
<path d="M12.843 19.8297L11.1626 18.1492L10.1289 19.1828L11.8094 20.8633C11.8971 20.951 12.0393 20.951 12.127 20.8633L12.843 20.1473C12.9307 20.0596 12.9307 19.9174 12.843 19.8297Z" fill="#F6F1F1"/>
<path d="M12.5343 19.5213L12.127 19.9287C12.0393 20.0164 11.8971 20.0164 11.8093 19.9287L10.5964 18.7157L10.1289 19.1832L11.8094 20.8636C11.8971 20.9514 12.0393 20.9514 12.127 20.8636L12.843 20.1476C12.9308 20.0599 12.9308 19.9177 12.843 19.83L12.5343 19.5213Z" fill="#EFE7E4"/>
<path d="M6.82252 14.5541L12.7584 16.7632C12.881 16.8088 12.8408 16.9655 12.7483 17.058L9.05217 20.7416C8.95963 20.8342 8.80645 20.831 8.76081 20.7084L6.62553 14.8936C6.55847 14.7134 6.64229 14.487 6.82252 14.5541Z" fill="#F6F1F1"/>
<path d="M12.7583 16.7632L11.985 16.4754L9.4563 19.0041C9.36376 19.0967 9.20649 19.0624 9.16085 18.9398L7.64218 14.8591L6.82249 14.554C6.64226 14.487 6.46657 14.6626 6.53364 14.8429L8.74276 20.7787C8.78841 20.9014 8.94568 20.9356 9.03822 20.8431L12.8227 17.0586C12.9152 16.9661 12.881 16.8088 12.7583 16.7632Z" fill="#EFE7E4"/>
</g>
<defs>
<clipPath id="clip0_342_2282">
<rect width="23" height="23" fill="white"/>
</clipPath>
</defs>
</svg>
