<svg width="96" height="96" viewBox="0 0 96 96" fill="none" xmlns="http://www.w3.org/2000/svg">
<g filter="url(#filter0_d_192_1966)">
<g clip-path="url(#clip0_192_1966)">
<rect x="32" y="28" width="32" height="32" rx="8" fill="black"/>
<g filter="url(#filter1_d_192_1966)">
<rect x="32" y="28" width="32" height="32" rx="7.27579" fill="white"/>
</g>
<g clip-path="url(#clip1_192_1966)">
<path d="M37.2303 38.6112L37 39.0261V51.0194C37 51.8109 37.6416 52.4524 38.433 52.4524H58.567C59.3584 52.4524 60 51.8109 60 51.0194V39.0261L59.7697 38.6112H37.2303Z" fill="#DDEAFB"/>
<path d="M57.6535 38.6112V48.6729C57.6535 49.4644 57.0119 50.106 56.2205 50.106H37V51.0194C37 51.8109 37.6416 52.4524 38.433 52.4524H58.567C59.3584 52.4524 60 51.8109 60 51.0194V39.0261L59.7697 38.6112H57.6535Z" fill="#CBE2FF"/>
<path d="M58.567 35.0718H38.433C37.6416 35.0718 37 35.7134 37 36.5048V39.0265H60V36.5048C60 35.7134 59.3584 35.0718 58.567 35.0718Z" fill="#698ED5"/>
<path d="M58.5668 35.0718H57.6533V39.0265H59.9998V36.5048C59.9998 35.7134 59.3582 35.0718 58.5668 35.0718Z" fill="#4073C8"/>
<path d="M39.5956 37.6918C39.9506 37.6918 40.2385 37.404 40.2385 37.0489C40.2385 36.6939 39.9506 36.406 39.5956 36.406C39.2405 36.406 38.9526 36.6939 38.9526 37.0489C38.9526 37.404 39.2405 37.6918 39.5956 37.6918Z" fill="#DD636E"/>
<path d="M41.5736 37.6921C41.9287 37.6921 42.2165 37.4042 42.2165 37.0492C42.2165 36.6941 41.9287 36.4062 41.5736 36.4062C41.2185 36.4062 40.9307 36.6941 40.9307 37.0492C40.9307 37.4042 41.2185 37.6921 41.5736 37.6921Z" fill="#FFE07D"/>
<path d="M43.5511 37.6921C43.9062 37.6921 44.194 37.4042 44.194 37.0492C44.194 36.6941 43.9062 36.4062 43.5511 36.4062C43.196 36.4062 42.9082 36.6941 42.9082 37.0492C42.9082 37.4042 43.196 37.6921 43.5511 37.6921Z" fill="#86F1A7"/>
<path d="M40.9014 47.0145H40.9034C41.0501 47.0145 41.181 46.9223 41.2303 46.7839L42.0901 44.3714L42.9116 46.7795C42.9593 46.9195 43.0907 47.0139 43.2386 47.0145H43.2401C43.3875 47.0145 43.5188 46.9214 43.5676 46.7822L44.7331 43.4573C44.7965 43.2765 44.7012 43.0784 44.5203 43.015C44.3396 42.9516 44.1414 43.0468 44.078 43.2277L43.2446 45.6055L42.4258 43.2052C42.333 42.9002 41.8672 42.8974 41.7704 43.2008L40.9094 45.6167L40.0905 43.2336C40.0282 43.0523 39.8307 42.9557 39.6494 43.0182C39.4682 43.0805 39.3717 43.278 39.434 43.4592L40.5752 46.7802C40.6231 46.9197 40.7539 47.0137 40.9014 47.0145Z" fill="#698ED5"/>
<path d="M47.3233 47.0143H47.3252C47.472 47.0143 47.6029 46.922 47.6522 46.7837L48.5119 44.3711L49.3334 46.7793C49.3812 46.9193 49.5125 47.0136 49.6605 47.0142H49.6619C49.8093 47.0142 49.9407 46.9212 49.9895 46.7819L51.155 43.4571C51.2184 43.2762 51.1231 43.0781 50.9422 43.0148C50.7615 42.9514 50.5633 43.0466 50.4999 43.2275L49.6664 45.6052L48.8477 43.205C48.7548 42.8999 48.289 42.8972 48.1922 43.2006L47.3313 45.6165L46.5123 43.2334C46.4501 43.0521 46.2525 42.9555 46.0713 43.0179C45.89 43.0802 45.7935 43.2777 45.8559 43.459L46.997 46.78C47.0449 46.9195 47.1758 47.0134 47.3233 47.0143Z" fill="#698ED5"/>
<path d="M53.6407 47.0143H53.6427C53.7894 47.0143 53.9203 46.922 53.9696 46.7837L54.8294 44.3711L55.6509 46.7793C55.6986 46.9193 55.83 47.0136 55.9779 47.0142H55.9794C56.1268 47.0142 56.2581 46.9212 56.3069 46.7819L57.4724 43.4571C57.5357 43.2762 57.4405 43.0781 57.2596 43.0148C57.0788 42.9514 56.8807 43.0466 56.8173 43.2275L55.9839 45.6052L55.1651 43.205C55.0723 42.9 54.6064 42.8971 54.5097 43.2006L53.6487 45.6165L52.8297 43.2334C52.7675 43.0521 52.5702 42.9556 52.3887 43.0179C52.2074 43.0802 52.1109 43.2777 52.1732 43.459L53.3145 46.78C53.3624 46.9195 53.4932 47.0134 53.6407 47.0143Z" fill="#698ED5"/>
<path d="M49.843 52.8297L48.1626 51.1492L47.1289 52.1828L48.8094 53.8633C48.8971 53.951 49.0393 53.951 49.127 53.8633L49.843 53.1473C49.9307 53.0596 49.9307 52.9174 49.843 52.8297Z" fill="#F6F1F1"/>
<path d="M49.5343 52.5213L49.127 52.9287C49.0393 53.0164 48.8971 53.0164 48.8093 52.9287L47.5964 51.7157L47.1289 52.1832L48.8094 53.8636C48.8971 53.9514 49.0393 53.9514 49.127 53.8636L49.843 53.1476C49.9308 53.0599 49.9308 52.9177 49.843 52.83L49.5343 52.5213Z" fill="#EFE7E4"/>
<path d="M43.8225 47.5541L49.7584 49.7632C49.881 49.8088 49.8408 49.9655 49.7483 50.058L46.0522 53.7416C45.9596 53.8342 45.8064 53.831 45.7608 53.7084L43.6255 47.8936C43.5585 47.7134 43.6423 47.487 43.8225 47.5541Z" fill="#F6F1F1"/>
<path d="M49.7583 49.7632L48.985 49.4754L46.4563 52.0041C46.3638 52.0967 46.2065 52.0624 46.1609 51.9398L44.6422 47.8591L43.8225 47.554C43.6423 47.487 43.4666 47.6626 43.5336 47.8429L45.7428 53.7787C45.7884 53.9014 45.9457 53.9356 46.0382 53.8431L49.8227 50.0586C49.9152 49.9661 49.881 49.8088 49.7583 49.7632Z" fill="#EFE7E4"/>
</g>
</g>
</g>
<defs>
<filter id="filter0_d_192_1966" x="0" y="0" width="96" height="96" filterUnits="userSpaceOnUse" color-interpolation-filters="sRGB">
<feFlood flood-opacity="0" result="BackgroundImageFix"/>
<feColorMatrix in="SourceAlpha" type="matrix" values="0 0 0 0 0 0 0 0 0 0 0 0 0 0 0 0 0 0 127 0" result="hardAlpha"/>
<feOffset dy="4"/>
<feGaussianBlur stdDeviation="16"/>
<feComposite in2="hardAlpha" operator="out"/>
<feColorMatrix type="matrix" values="0 0 0 0 0 0 0 0 0 0 0 0 0 0 0 0 0 0 0.1 0"/>
<feBlend mode="normal" in2="BackgroundImageFix" result="effect1_dropShadow_192_1966"/>
<feBlend mode="normal" in="SourceGraphic" in2="effect1_dropShadow_192_1966" result="shape"/>
</filter>
<filter id="filter1_d_192_1966" x="2.89684" y="2.53474" width="90.2063" height="90.2063" filterUnits="userSpaceOnUse" color-interpolation-filters="sRGB">
<feFlood flood-opacity="0" result="BackgroundImageFix"/>
<feColorMatrix in="SourceAlpha" type="matrix" values="0 0 0 0 0 0 0 0 0 0 0 0 0 0 0 0 0 0 127 0" result="hardAlpha"/>
<feOffset dy="3.63789"/>
<feGaussianBlur stdDeviation="14.5516"/>
<feComposite in2="hardAlpha" operator="out"/>
<feColorMatrix type="matrix" values="0 0 0 0 0.210913 0 0 0 0 0.269834 0 0 0 0 0.579167 0 0 0 0.1 0"/>
<feBlend mode="normal" in2="BackgroundImageFix" result="effect1_dropShadow_192_1966"/>
<feBlend mode="normal" in="SourceGraphic" in2="effect1_dropShadow_192_1966" result="shape"/>
</filter>
<clipPath id="clip0_192_1966">
<rect x="32" y="28" width="32" height="32" rx="8" fill="white"/>
</clipPath>
<clipPath id="clip1_192_1966">
<rect width="23" height="23" fill="white" transform="translate(37 33)"/>
</clipPath>
</defs>
</svg>
