<svg width="96" height="96" viewBox="0 0 96 96" fill="none" xmlns="http://www.w3.org/2000/svg">
<g filter="url(#filter0_d_192_2007)">
<g clip-path="url(#clip0_192_2007)">
<rect x="32" y="28" width="32" height="32" rx="8" fill="black"/>
<g filter="url(#filter1_d_192_2007)">
<rect x="32" y="28" width="32" height="32" rx="7.27579" fill="white"/>
</g>
<path d="M52.5877 33.0586H43.4111C43.154 33.0586 42.9128 33.1269 42.7052 33.2469L42.3706 34.4704V53.3373C42.3706 54.117 43.0027 54.7491 43.7824 54.7491H52.5877L53.811 54.2355C53.9311 54.0279 53.9995 53.7867 53.9995 53.5296V34.4704C53.9995 33.6907 53.3674 33.0586 52.5877 33.0586V33.0586Z" fill="#5D5360"/>
<path d="M52.588 54.2354L42.7054 34.4703V33.2468C42.2852 33.4914 41.9995 33.949 41.9995 34.4703V53.5296C41.9995 54.3093 42.6316 54.9413 43.4113 54.9413H52.588C53.1092 54.9413 53.5667 54.6556 53.8113 54.2354H52.588Z" fill="#4B3F4E"/>
<path d="M52.5881 33.7646H50.9856C50.7415 33.7646 50.5022 33.8837 50.3865 34.0987C50.2674 34.3201 50.0335 34.4705 49.7645 34.4705H46.235C45.966 34.4705 45.7321 34.3201 45.613 34.0987C45.4973 33.8837 45.2581 33.7646 45.0139 33.7646H43.4115C43.0216 33.7646 42.7056 34.0807 42.7056 34.4705V53.5298C42.7056 53.9196 43.0216 54.2356 43.4115 54.2356H52.5881C52.978 54.2356 53.294 53.9196 53.294 53.5298V34.4705C53.294 34.0807 52.9779 33.7646 52.5881 33.7646Z" fill="#ECEAEC"/>
<path d="M51.176 53.5296H49.7642L47.9994 53.1677L46.2347 53.5296H44.8229C44.0432 53.5296 43.4111 52.8975 43.4111 52.1178V36.5881C43.4111 35.8083 44.0432 35.1763 44.8229 35.1763H51.176C51.9557 35.1763 52.5878 35.8083 52.5878 36.5881V52.1178C52.5878 52.8975 51.9557 53.5296 51.176 53.5296Z" fill="white"/>
<path d="M46.9411 51.4162H45.1898C44.7999 51.4162 44.4839 51.1001 44.4839 50.7103V48.2352L44.8234 47.5293H46.9411C47.331 47.5293 47.647 47.8454 47.647 48.2352V51.0588L46.9411 51.4162Z" fill="#FF9A9F"/>
<path d="M44.8231 50.3529V47.5293C44.4332 47.5293 44.1172 47.8453 44.1172 48.2352V51.0588C44.1172 51.4486 44.4332 51.7647 44.8231 51.7647H46.9408C47.3306 51.7647 47.6466 51.4486 47.6466 51.0588H45.529C45.1391 51.0588 44.8231 50.7428 44.8231 50.3529Z" fill="#FF8086"/>
<path d="M51.1764 45.7692H49.4251C49.0353 45.7692 48.7192 45.4532 48.7192 45.0633V42.5882L49.0588 41.8823H51.1764C51.5663 41.8823 51.8823 42.1984 51.8823 42.5882V45.4118L51.1764 45.7692Z" fill="#C3DDFF"/>
<path d="M49.0584 44.7059V41.8823C48.6686 41.8823 48.3525 42.1983 48.3525 42.5882V45.4118C48.3525 45.8017 48.6686 46.1177 49.0584 46.1177H51.1761C51.5659 46.1177 51.882 45.8017 51.882 45.4118H49.7643C49.3745 45.4118 49.0584 45.0958 49.0584 44.7059Z" fill="#A4CCFF"/>
<path d="M46.2351 50.1765H45.5292C45.3343 50.1765 45.1763 50.0185 45.1763 49.8236V49.4706C45.1763 49.2757 45.3343 49.1177 45.5292 49.1177H46.2351C46.43 49.1177 46.5881 49.2757 46.5881 49.4706V49.8236C46.5881 50.0185 46.43 50.1765 46.2351 50.1765Z" fill="white"/>
<path d="M49.7642 53.5296H46.2348C46.0397 53.5296 45.8818 53.3716 45.8818 53.1767C45.8818 52.9818 46.0397 52.8237 46.2348 52.8237H49.7643C49.9594 52.8237 50.1172 52.9818 50.1172 53.1767C50.1172 53.3716 49.9593 53.5296 49.7642 53.5296Z" fill="#C8C5C9"/>
<path d="M46.9411 40.1222H45.1898C44.7999 40.1222 44.4839 39.8062 44.4839 39.4164V36.9412L44.8234 36.2354H46.9411C47.331 36.2354 47.647 36.5514 47.647 36.9412V39.7649L46.9411 40.1222Z" fill="#B3E59F"/>
<path d="M50.4703 43.6468H49.9408C49.7457 43.6468 49.5879 43.4888 49.5879 43.2939C49.5879 43.099 49.7458 42.9409 49.9408 42.9409H50.4703C50.6654 42.9409 50.8232 43.099 50.8232 43.2939C50.8232 43.4888 50.6654 43.6468 50.4703 43.6468Z" fill="white"/>
<path d="M50.4703 45.0589H49.9408C49.7457 45.0589 49.5879 44.9009 49.5879 44.706C49.5879 44.5111 49.7458 44.353 49.9408 44.353H50.4703C50.6654 44.353 50.8232 44.5111 50.8232 44.706C50.8232 44.9009 50.6654 45.0589 50.4703 45.0589Z" fill="white"/>
<path d="M44.8231 39.0589V36.2354C44.4332 36.2354 44.1172 36.5514 44.1172 36.9412V39.7649C44.1172 40.1547 44.4332 40.4707 44.8231 40.4707H46.9408C47.3306 40.4707 47.6466 40.1547 47.6466 39.7649H45.529C45.1391 39.7648 44.8231 39.4488 44.8231 39.0589Z" fill="#95D6A4"/>
<path d="M46.2351 38.8821H45.5292C45.3343 38.8821 45.1763 38.7241 45.1763 38.5291V38.1762C45.1763 37.9813 45.3343 37.8232 45.5292 37.8232H46.2351C46.43 37.8232 46.5881 37.9813 46.5881 38.1762V38.5291C46.5881 38.7241 46.43 38.8821 46.2351 38.8821Z" fill="white"/>
<path d="M51.1764 40.1222H49.4251C49.0353 40.1222 48.7192 39.8062 48.7192 39.4164V36.9412L49.0588 36.2354H51.1764C51.5663 36.2354 51.8823 36.5514 51.8823 36.9412V39.7649L51.1764 40.1222Z" fill="#FFE07D"/>
<path d="M49.0584 39.0589V36.2354C48.6686 36.2354 48.3525 36.5514 48.3525 36.9412V39.7649C48.3525 40.1547 48.6686 40.4707 49.0584 40.4707H51.1761C51.5659 40.4707 51.882 40.1547 51.882 39.7649H49.7643C49.3745 39.7648 49.0584 39.4488 49.0584 39.0589Z" fill="#FFD064"/>
<path d="M46.9411 45.7692H45.1898C44.7999 45.7692 44.4839 45.4532 44.4839 45.0633V42.5882L44.8234 41.8823H46.9411C47.331 41.8823 47.647 42.1984 47.647 42.5882V45.4118L46.9411 45.7692Z" fill="#EAD1FF"/>
<path d="M44.8231 44.7059V41.8823C44.4332 41.8823 44.1172 42.1983 44.1172 42.5882V45.4118C44.1172 45.8017 44.4332 46.1177 44.8231 46.1177H46.9408C47.3306 46.1177 47.6466 45.8017 47.6466 45.4118H45.529C45.1391 45.4118 44.8231 45.0958 44.8231 44.7059Z" fill="#D6BDEF"/>
<path d="M51.1764 51.4162H49.4251C49.0353 51.4162 48.7192 51.1001 48.7192 50.7103V48.2352L49.0588 47.5293H51.1764C51.5663 47.5293 51.8823 47.8454 51.8823 48.2352V51.0588L51.1764 51.4162Z" fill="#E2A975"/>
<path d="M49.0584 50.3529V47.5293C48.6686 47.5293 48.3525 47.8453 48.3525 48.2352V51.0588C48.3525 51.4486 48.6686 51.7647 49.0584 51.7647H51.1761C51.5659 51.7647 51.882 51.4486 51.882 51.0588H49.7643C49.3745 51.0588 49.0584 50.7428 49.0584 50.3529Z" fill="#D19A6E"/>
</g>
</g>
<defs>
<filter id="filter0_d_192_2007" x="0" y="0" width="96" height="96" filterUnits="userSpaceOnUse" color-interpolation-filters="sRGB">
<feFlood flood-opacity="0" result="BackgroundImageFix"/>
<feColorMatrix in="SourceAlpha" type="matrix" values="0 0 0 0 0 0 0 0 0 0 0 0 0 0 0 0 0 0 127 0" result="hardAlpha"/>
<feOffset dy="4"/>
<feGaussianBlur stdDeviation="16"/>
<feComposite in2="hardAlpha" operator="out"/>
<feColorMatrix type="matrix" values="0 0 0 0 0 0 0 0 0 0 0 0 0 0 0 0 0 0 0.1 0"/>
<feBlend mode="normal" in2="BackgroundImageFix" result="effect1_dropShadow_192_2007"/>
<feBlend mode="normal" in="SourceGraphic" in2="effect1_dropShadow_192_2007" result="shape"/>
</filter>
<filter id="filter1_d_192_2007" x="2.89684" y="2.53474" width="90.2063" height="90.2063" filterUnits="userSpaceOnUse" color-interpolation-filters="sRGB">
<feFlood flood-opacity="0" result="BackgroundImageFix"/>
<feColorMatrix in="SourceAlpha" type="matrix" values="0 0 0 0 0 0 0 0 0 0 0 0 0 0 0 0 0 0 127 0" result="hardAlpha"/>
<feOffset dy="3.63789"/>
<feGaussianBlur stdDeviation="14.5516"/>
<feComposite in2="hardAlpha" operator="out"/>
<feColorMatrix type="matrix" values="0 0 0 0 0.210913 0 0 0 0 0.269834 0 0 0 0 0.579167 0 0 0 0.1 0"/>
<feBlend mode="normal" in2="BackgroundImageFix" result="effect1_dropShadow_192_2007"/>
<feBlend mode="normal" in="SourceGraphic" in2="effect1_dropShadow_192_2007" result="shape"/>
</filter>
<clipPath id="clip0_192_2007">
<rect x="32" y="28" width="32" height="32" rx="8" fill="white"/>
</clipPath>
</defs>
</svg>
