<svg width="26" height="26" viewBox="0 0 26 26" fill="none" xmlns="http://www.w3.org/2000/svg">
<path d="M17.5877 2.05859H8.41107C8.15403 2.05859 7.91276 2.12689 7.70517 2.24691L7.37061 3.47038V22.3373C7.37061 23.117 8.00269 23.7491 8.78239 23.7491H17.5877L18.811 23.2355C18.9311 23.0279 18.9995 22.7867 18.9995 22.5296V3.47038C18.9995 2.69067 18.3674 2.05859 17.5877 2.05859V2.05859Z" fill="#5D5360"/>
<path d="M17.588 23.2354L7.7054 3.4703V2.24683C7.28519 2.49138 6.99951 2.94904 6.99951 3.4703V22.5296C6.99951 23.3093 7.63159 23.9413 8.4113 23.9413H17.588C18.1092 23.9413 18.5667 23.6556 18.8113 23.2354H17.588Z" fill="#4B3F4E"/>
<path d="M17.5881 2.76465H15.9856C15.7415 2.76465 15.5022 2.88372 15.3865 3.0987C15.2674 3.32005 15.0335 3.47054 14.7645 3.47054H11.235C10.966 3.47054 10.7321 3.32005 10.613 3.0987C10.4973 2.88368 10.2581 2.76465 10.0139 2.76465H8.41146C8.02158 2.76465 7.70557 3.08071 7.70557 3.47054V22.5298C7.70557 22.9196 8.02163 23.2356 8.41146 23.2356H17.5881C17.978 23.2356 18.294 22.9196 18.294 22.5298V3.47054C18.294 3.08071 17.9779 2.76465 17.5881 2.76465Z" fill="#ECEAEC"/>
<path d="M16.176 22.5296H14.7642L12.9994 22.1677L11.2347 22.5296H9.82292C9.04321 22.5296 8.41113 21.8975 8.41113 21.1178V5.58805C8.41113 4.80835 9.04321 4.17627 9.82292 4.17627H16.176C16.9557 4.17627 17.5878 4.80835 17.5878 5.58805V21.1178C17.5878 21.8975 16.9557 22.5296 16.176 22.5296Z" fill="white"/>
<path d="M11.9411 20.4162H10.1898C9.79991 20.4162 9.48389 20.1001 9.48389 19.7103V17.2352L9.82341 16.5293H11.9411C12.331 16.5293 12.647 16.8454 12.647 17.2352V20.0588L11.9411 20.4162Z" fill="#FF9A9F"/>
<path d="M9.82308 19.3529V16.5293C9.43325 16.5293 9.11719 16.8453 9.11719 17.2352V20.0588C9.11719 20.4486 9.43325 20.7647 9.82308 20.7647H11.9408C12.3306 20.7647 12.6466 20.4486 12.6466 20.0588H10.529C10.1391 20.0588 9.82308 19.7428 9.82308 19.3529Z" fill="#FF8086"/>
<path d="M16.1764 14.7692H14.4251C14.0353 14.7692 13.7192 14.4532 13.7192 14.0633V11.5882L14.0588 10.8823H16.1764C16.5663 10.8823 16.8823 11.1984 16.8823 11.5882V14.4118L16.1764 14.7692Z" fill="#C3DDFF"/>
<path d="M14.0584 13.7059V10.8823C13.6686 10.8823 13.3525 11.1983 13.3525 11.5882V14.4118C13.3525 14.8017 13.6686 15.1177 14.0584 15.1177H16.1761C16.5659 15.1177 16.882 14.8017 16.882 14.4118H14.7643C14.3745 14.4118 14.0584 14.0958 14.0584 13.7059Z" fill="#A4CCFF"/>
<path d="M11.2351 19.1765H10.5292C10.3343 19.1765 10.1763 19.0185 10.1763 18.8236V18.4706C10.1763 18.2757 10.3343 18.1177 10.5292 18.1177H11.2351C11.43 18.1177 11.5881 18.2757 11.5881 18.4706V18.8236C11.5881 19.0185 11.43 19.1765 11.2351 19.1765Z" fill="white"/>
<path d="M14.7642 22.5296H11.2348C11.0397 22.5296 10.8818 22.3716 10.8818 22.1767C10.8818 21.9818 11.0397 21.8237 11.2348 21.8237H14.7643C14.9594 21.8237 15.1172 21.9818 15.1172 22.1767C15.1172 22.3716 14.9593 22.5296 14.7642 22.5296Z" fill="#C8C5C9"/>
<path d="M11.9411 9.12224H10.1898C9.79991 9.12224 9.48389 8.80618 9.48389 8.41635V5.94124L9.82341 5.23535H11.9411C12.331 5.23535 12.647 5.55141 12.647 5.94124V8.76485L11.9411 9.12224Z" fill="#B3E59F"/>
<path d="M15.4703 12.6468H14.9408C14.7457 12.6468 14.5879 12.4888 14.5879 12.2939C14.5879 12.099 14.7458 11.9409 14.9408 11.9409H15.4703C15.6654 11.9409 15.8232 12.099 15.8232 12.2939C15.8232 12.4888 15.6654 12.6468 15.4703 12.6468Z" fill="white"/>
<path d="M15.4703 14.0589H14.9408C14.7457 14.0589 14.5879 13.9009 14.5879 13.706C14.5879 13.5111 14.7458 13.353 14.9408 13.353H15.4703C15.6654 13.353 15.8232 13.5111 15.8232 13.706C15.8232 13.9009 15.6654 14.0589 15.4703 14.0589Z" fill="white"/>
<path d="M9.82308 8.05892V5.23535C9.43325 5.23535 9.11719 5.55137 9.11719 5.94124V8.76485C9.11719 9.15468 9.43325 9.47075 9.82308 9.47075H11.9408C12.3306 9.47075 12.6466 9.15468 12.6466 8.76485H10.529C10.1391 8.76481 9.82308 8.44879 9.82308 8.05892Z" fill="#95D6A4"/>
<path d="M11.2351 7.88208H10.5292C10.3343 7.88208 10.1763 7.72407 10.1763 7.52913V7.17619C10.1763 6.98125 10.3343 6.82324 10.5292 6.82324H11.2351C11.43 6.82324 11.5881 6.98125 11.5881 7.17619V7.52913C11.5881 7.72407 11.43 7.88208 11.2351 7.88208Z" fill="white"/>
<path d="M16.1764 9.12224H14.4251C14.0353 9.12224 13.7192 8.80618 13.7192 8.41635V5.94124L14.0588 5.23535H16.1764C16.5663 5.23535 16.8823 5.55141 16.8823 5.94124V8.76485L16.1764 9.12224Z" fill="#FFE07D"/>
<path d="M14.0584 8.05892V5.23535C13.6686 5.23535 13.3525 5.55137 13.3525 5.94124V8.76485C13.3525 9.15468 13.6686 9.47075 14.0584 9.47075H16.1761C16.5659 9.47075 16.882 9.15468 16.882 8.76485H14.7643C14.3745 8.76481 14.0584 8.44879 14.0584 8.05892Z" fill="#FFD064"/>
<path d="M11.9411 14.7692H10.1898C9.79991 14.7692 9.48389 14.4532 9.48389 14.0633V11.5882L9.82341 10.8823H11.9411C12.331 10.8823 12.647 11.1984 12.647 11.5882V14.4118L11.9411 14.7692Z" fill="#EAD1FF"/>
<path d="M9.82308 13.7059V10.8823C9.43325 10.8823 9.11719 11.1983 9.11719 11.5882V14.4118C9.11719 14.8017 9.43325 15.1177 9.82308 15.1177H11.9408C12.3306 15.1177 12.6466 14.8017 12.6466 14.4118H10.529C10.1391 14.4118 9.82308 14.0958 9.82308 13.7059Z" fill="#D6BDEF"/>
<path d="M16.1764 20.4162H14.4251C14.0353 20.4162 13.7192 20.1001 13.7192 19.7103V17.2352L14.0588 16.5293H16.1764C16.5663 16.5293 16.8823 16.8454 16.8823 17.2352V20.0588L16.1764 20.4162Z" fill="#E2A975"/>
<path d="M14.0584 19.3529V16.5293C13.6686 16.5293 13.3525 16.8453 13.3525 17.2352V20.0588C13.3525 20.4486 13.6686 20.7647 14.0584 20.7647H16.1761C16.5659 20.7647 16.882 20.4486 16.882 20.0588H14.7643C14.3745 20.0588 14.0584 19.7428 14.0584 19.3529Z" fill="#D19A6E"/>
</svg>
