<svg width="24" height="25" viewBox="0 0 24 25" fill="none" xmlns="http://www.w3.org/2000/svg">
<path fill-rule="evenodd" clip-rule="evenodd" d="M21.2648 4.94002L19.0969 5.82942L5.97819 11.2029L4.99614 8.7941L16.7251 3.99502C15.3169 3.2168 13.7049 2.77209 12.0002 2.77209C6.64524 2.77209 2.27234 7.145 2.27234 12.4999C2.27234 14.2788 2.7541 15.9279 3.58791 17.3731L1.53117 18.244C0.586176 16.5393 0.0488281 14.5752 0.0488281 12.4999C0.0488281 5.90354 5.40378 0.548584 12.0002 0.548584C15.7246 0.548584 19.0598 2.2718 21.2648 4.94002ZM23.9514 12.5002C23.9514 19.0966 18.5964 24.4515 12 24.4515C8.10887 24.4515 4.62537 22.5801 2.45745 19.671L3.62479 19.1892L4.60684 18.7816L9.73944 16.6692L19.4302 12.704L18.9114 15.7242L6.79329 20.6901C8.31269 21.6536 10.11 22.228 12.0185 22.228C17.3735 22.228 21.7464 17.8736 21.7464 12.5002C21.7464 10.5546 21.172 8.73872 20.1714 7.21933L22.2652 6.36698C23.3399 8.16432 23.9514 10.2581 23.9514 12.5002ZM15.0947 12.4444L5.97831 16.1873L4.99626 13.7785L15.6876 9.38709L15.0947 12.4444Z" fill="#FF7A1A"/>
</svg>
