<svg width="252" height="240" viewBox="0 0 252 240" fill="none" xmlns="http://www.w3.org/2000/svg">
<path d="M8.71577 167.363C10.0754 166.775 10.9941 165.341 10.9941 163.688C10.9574 161.52 9.30373 159.793 7.24586 159.829C5.22475 159.866 3.60786 161.63 3.6446 163.798C3.68135 165.452 4.67353 166.848 6.06994 167.399C0.410817 168.391 0.778293 174.528 0.778293 174.528L14.1544 174.345C14.1544 174.308 14.3381 168.098 8.71577 167.363Z" fill="#F5F5F5"/>
<path d="M227.254 189.926C228.724 190.073 230.23 189.301 231.039 187.831C232.068 185.92 231.443 183.605 229.679 182.65C227.878 181.694 225.6 182.429 224.571 184.34C223.763 185.81 223.983 187.5 224.902 188.676C219.5 186.765 216.817 192.277 216.817 192.277L228.577 198.635C228.613 198.635 231.81 193.306 227.254 189.926Z" fill="#F5F5F5"/>
<path d="M12.3544 123.339C13.0158 123.412 13.6038 122.898 13.6405 122.237C13.6773 121.906 13.567 121.575 13.3466 121.355C12.9791 120.987 12.5014 120.289 12.5749 119.554C12.6851 118.415 13.6405 117.68 14.9267 117.79C16.2129 117.9 17.0581 118.782 16.9846 119.921C16.9111 120.656 16.3231 121.244 15.9189 121.575C15.6617 121.759 15.5147 122.09 15.4779 122.42C15.4044 123.082 15.9189 123.67 16.5803 123.706L23.8196 123.633H23.8564V123.265L25.1425 116.136C25.1793 115.475 24.7016 114.887 24.0401 114.85C23.7094 114.813 23.3786 114.924 23.1582 115.144C22.7907 115.512 22.0925 115.989 21.3575 115.916C20.2184 115.806 19.4834 114.85 19.5937 113.564C19.7039 112.278 20.5858 111.433 21.725 111.506C22.46 111.58 23.0479 112.168 23.3786 112.572C23.5624 112.829 23.8931 112.976 24.2238 113.013C24.8853 113.086 25.4733 112.572 25.51 111.91L25.3998 105.149H25.363L18.234 103.863C17.5725 103.789 16.9846 104.304 16.9478 104.965C16.9111 105.296 17.0213 105.627 17.2418 105.847C17.6093 106.215 18.087 106.913 18.0135 107.648C17.9033 108.787 16.9478 109.522 15.6617 109.412C14.3755 109.301 13.5303 108.419 13.6038 107.28C13.6773 106.545 14.2653 105.957 14.6695 105.627C14.9267 105.443 15.0737 105.112 15.1104 104.781C15.1839 104.12 14.6695 103.532 14.008 103.495L6.76875 103.569H6.732L5.51933 110.22C5.44584 110.882 5.9603 111.469 6.62176 111.506C6.95249 111.543 7.28321 111.433 7.5037 111.212C7.87118 110.845 8.56938 110.367 9.30433 110.441C10.4435 110.551 11.1785 111.506 11.0682 112.792C10.958 114.079 10.076 114.924 8.93686 114.85C8.2019 114.777 7.61394 114.189 7.28321 113.785C7.09948 113.527 6.76875 113.38 6.43802 113.344C5.77656 113.27 5.1886 113.785 5.15186 114.446L5.22535 121.685L5.15186 122.053H5.1886L12.3544 123.339Z" fill="#F5F5F5"/>
<path d="M118.15 131.056C119.29 130.358 120.502 129.843 121.788 129.476L122.523 125.875L128.587 125.764L129.469 129.329C130.755 129.66 131.967 130.137 133.143 130.762L136.23 128.741L140.603 132.967L138.692 136.09C139.39 137.23 139.905 138.479 140.272 139.728L143.874 140.463L143.984 146.527L140.419 147.409C140.089 148.695 139.611 149.908 138.986 151.083L141.007 154.17L136.745 158.58L133.621 156.669C132.482 157.367 131.233 157.882 129.983 158.249L129.248 161.851L123.185 161.961L122.303 158.396C121.017 158.066 119.804 157.588 118.628 156.963L115.541 158.984L111.168 154.758L113.079 151.635C112.381 150.496 111.867 149.246 111.499 147.997L107.898 147.262L107.788 141.198L111.352 140.316C111.683 139.03 112.161 137.818 112.785 136.642L110.764 133.555L114.99 129.182L118.15 131.056ZM121.384 139.141C118.885 141.713 118.959 145.865 121.531 148.364C124.104 150.863 128.256 150.789 130.755 148.217C133.254 145.645 133.18 141.492 130.608 138.994C127.999 136.458 123.883 136.531 121.384 139.141Z" fill="#E0E0E0"/>
<path d="M100.144 108.236C100.842 107.611 101.577 107.097 102.385 106.656V104.12L106.464 103.201L107.567 105.48C108.485 105.516 109.367 105.663 110.249 105.957L112.05 104.157L115.578 106.398L114.733 108.787C115.357 109.485 115.872 110.22 116.313 111.029H118.848L119.767 115.108L117.489 116.21C117.452 117.129 117.305 118.011 117.011 118.893L118.812 120.693L116.57 124.221L114.181 123.376C113.483 124 112.748 124.515 111.94 124.956V127.491L107.861 128.41L106.758 126.132C105.84 126.095 104.958 125.948 104.076 125.654L102.275 127.455L98.7473 125.213L99.5925 122.825C98.9678 122.126 98.4534 121.391 98.0124 120.583H95.4768L94.5581 116.504L96.8365 115.401C96.8732 114.483 97.0202 113.601 97.3142 112.719L95.5135 110.918L97.7551 107.391L100.144 108.236ZM103.451 113.27C102.128 115.365 102.753 118.158 104.847 119.48C106.942 120.803 109.735 120.179 111.058 118.084C112.381 115.989 111.756 113.197 109.661 111.874C107.567 110.551 104.774 111.139 103.451 113.27Z" fill="#E0E0E0"/>
<path d="M165.151 63.1096C165.849 62.4849 166.584 61.9704 167.392 61.5295V58.9939L171.471 58.0752L172.574 60.3535C173.492 60.3903 174.374 60.5373 175.256 60.8313L177.057 59.0306L180.585 61.2722L179.739 63.6608C180.364 64.359 180.879 65.094 181.32 65.9024H183.855L184.774 69.9814L182.496 71.0838C182.459 72.0025 182.312 72.8845 182.018 73.7664L183.818 75.567L181.577 79.0948L179.188 78.2496C178.49 78.8743 177.755 79.3888 176.947 79.8298V82.3653L172.868 83.284L171.765 81.0057C170.847 80.9689 169.965 80.8219 169.083 80.528L167.282 82.3286L163.754 80.087L164.599 77.6984C163.975 77.0002 163.46 76.2652 163.019 75.4568H160.484L159.528 71.3778L161.807 70.2754C161.843 69.3567 161.99 68.4748 162.284 67.5928L160.484 65.7922L162.725 62.2644L165.151 63.1096ZM168.458 68.1073C167.135 70.2019 167.76 72.9947 169.854 74.3176C171.949 75.6405 174.742 75.0158 176.065 72.9212C177.388 70.8266 176.763 68.0338 174.668 66.7109C172.574 65.388 169.781 66.0127 168.458 68.1073Z" fill="#E0E0E0"/>
<path d="M202.339 142.264C203.037 141.639 203.772 141.125 204.58 140.684V138.148L208.659 137.23L209.762 139.508C210.68 139.545 211.562 139.692 212.444 139.986L214.245 138.185L217.773 140.427L216.927 142.815C217.552 143.513 218.067 144.248 218.507 145.057H221.043L221.962 149.136L219.683 150.238C219.647 151.157 219.5 152.039 219.206 152.921L221.006 154.721L218.765 158.249L216.376 157.404C215.678 158.029 214.943 158.543 214.135 158.984V161.52L210.056 162.438L208.953 160.16C208.034 160.123 207.153 159.976 206.271 159.682L204.47 161.483L200.942 159.241L201.787 156.853C201.163 156.155 200.648 155.42 200.207 154.611H197.672L196.753 150.532L199.031 149.43C199.068 148.511 199.215 147.629 199.509 146.747L197.708 144.947L199.95 141.419L202.339 142.264ZM205.646 147.298C204.323 149.393 204.948 152.186 207.042 153.509C209.137 154.832 211.93 154.207 213.253 152.112C214.576 150.018 213.951 147.225 211.856 145.902C209.762 144.579 207.006 145.204 205.646 147.298Z" fill="#E0E0E0"/>
<path d="M56.4142 69.9816C57.1124 69.3569 57.8474 68.8424 58.6558 68.4014V65.8658L62.7348 64.9471L63.8373 67.2255C64.7559 67.2622 65.6379 67.4092 66.5198 67.7032L68.3205 65.9026L71.8482 68.1442L71.003 70.5328C71.6277 71.231 72.1422 71.9659 72.5832 72.7744H75.1188L76.0374 76.8534L73.7591 77.9558C73.7224 78.8745 73.5754 79.7564 73.2814 80.6384L75.082 82.439L72.8404 85.9668L70.4518 85.1216C69.7536 85.7463 69.0187 86.2607 68.2102 86.7017V89.2373L64.1312 90.156L63.0288 87.8776C62.1101 87.8409 61.2282 87.6939 60.3462 87.3999L58.5456 89.2005L55.0178 86.9589L55.863 84.5703C55.2383 83.8721 54.7239 83.1372 54.2829 82.3287H51.7473L50.8286 78.2498L53.107 77.1473C53.1437 76.2286 53.2907 75.3467 53.5847 74.4648L51.7841 72.6641L54.0257 69.1364L56.4142 69.9816ZM59.7215 75.016C58.3986 77.1106 59.0233 79.9034 61.1179 81.2263C63.2125 82.5492 66.0054 81.9245 67.3283 79.8299C68.6512 77.7353 68.0265 74.9425 65.9319 73.6196C63.8373 72.2599 61.0444 72.8846 59.7215 75.016Z" fill="#E0E0E0"/>
<path d="M130.865 107.942C131.379 107.464 131.93 107.097 132.518 106.766V104.892L135.568 104.23L136.377 105.921C137.038 105.957 137.736 106.068 138.361 106.251L139.684 104.928L142.293 106.582L141.668 108.346C142.146 108.86 142.514 109.412 142.844 110H144.718L145.38 113.05L143.726 113.895C143.69 114.556 143.579 115.254 143.396 115.879L144.718 117.202L143.065 119.811L141.301 119.186C140.786 119.664 140.235 120.032 139.647 120.362V122.237L136.597 122.898L135.789 121.208C135.127 121.171 134.429 121.061 133.804 120.877L132.482 122.2L129.872 120.546L130.497 118.782C130.019 118.268 129.652 117.717 129.321 117.129H127.447L126.786 114.079L128.476 113.27C128.513 112.609 128.623 111.91 128.807 111.286L127.484 109.963L129.137 107.354L130.865 107.942ZM133.327 111.69C132.335 113.233 132.812 115.291 134.356 116.283C135.899 117.276 137.957 116.798 138.949 115.254C139.941 113.711 139.464 111.653 137.92 110.661C136.377 109.669 134.319 110.11 133.327 111.69Z" fill="#F5F5F5"/>
<path d="M114.99 40.069C115.504 39.5913 116.055 39.2239 116.643 38.8931V37.019L119.693 36.3575L120.502 38.0479C121.163 38.0847 121.862 38.1949 122.486 38.3787L123.809 37.0557L126.418 38.7094L125.794 40.4733C126.271 40.9877 126.639 41.539 126.969 42.1269H128.844L129.505 45.177L127.815 45.9854C127.778 46.6469 127.668 47.3451 127.484 47.9698L128.807 49.2927L127.153 51.9018L125.389 51.2771C124.875 51.7548 124.324 52.1223 123.736 52.453V54.3271L120.686 54.9886L119.877 53.2982C119.216 53.2614 118.518 53.1512 117.893 52.9674L116.57 54.2904L113.961 52.6367L114.586 50.8728C114.108 50.3584 113.74 49.8072 113.41 49.2192H111.535L110.874 46.1691L112.564 45.3607C112.601 44.6992 112.711 44.001 112.895 43.3763L111.572 42.0534L113.226 39.4443L114.99 40.069ZM117.452 43.8173C116.46 45.3607 116.937 47.4186 118.481 48.4107C120.024 49.4029 122.082 48.9252 123.074 47.3818C124.066 45.8384 123.589 43.7806 122.045 42.7884C120.502 41.7962 118.444 42.2372 117.452 43.8173Z" fill="#F5F5F5"/>
<path d="M240.152 203.78C240.152 203.816 188.742 203.89 125.353 203.89C61.9263 203.89 10.5532 203.853 10.5532 203.78C10.5532 203.706 61.9263 203.669 125.353 203.669C188.742 203.706 240.152 203.743 240.152 203.78Z" fill="#A4A8B7"/>
<path d="M230.929 167.105H226.151V170.743H230.929V167.105Z" fill="#E0E0E0"/>
<path d="M230.892 170.743C230.892 170.743 230.892 170.633 230.892 170.449C230.892 170.265 230.892 170.008 230.855 169.714C230.855 169.052 230.818 168.171 230.818 167.105L230.892 167.178C229.532 167.178 227.879 167.178 226.115 167.178C226.078 167.215 226.298 166.995 226.225 167.068V167.105V167.178V167.289V167.546C226.225 167.693 226.225 167.877 226.225 168.024C226.225 168.354 226.225 168.648 226.225 168.942C226.225 169.567 226.225 170.118 226.225 170.669L226.151 170.596C227.548 170.596 228.724 170.633 229.569 170.633C229.973 170.633 230.304 170.633 230.561 170.669C230.782 170.743 230.892 170.743 230.892 170.743C230.892 170.743 230.782 170.743 230.561 170.78C230.304 170.78 229.973 170.78 229.606 170.816C228.76 170.816 227.585 170.853 226.151 170.853H226.078V170.78C226.078 170.228 226.078 169.64 226.078 169.052C226.078 168.759 226.078 168.428 226.078 168.134C226.078 167.987 226.078 167.803 226.078 167.656V167.399V167.289V167.178V167.142C226.004 167.215 226.188 167.031 226.188 167.031C227.952 167.031 229.606 167.031 230.965 167.031H231.039V167.105C231.039 168.207 231.002 169.163 231.002 169.787C231.002 170.081 231.002 170.339 230.965 170.522C230.929 170.669 230.892 170.743 230.892 170.743Z" fill="#7F859F"/>
<path d="M236.958 158.69H232.181V170.743H236.958V158.69Z" fill="#E0E0E0"/>
<path d="M236.92 170.743C236.92 170.743 236.92 170.67 236.92 170.486C236.92 170.302 236.92 170.082 236.92 169.825C236.92 169.237 236.92 168.355 236.883 167.289C236.883 165.158 236.847 162.144 236.847 158.69L236.92 158.764C235.45 158.764 233.833 158.764 232.143 158.764C232.327 158.58 232.18 158.727 232.253 158.653V158.69V158.764V158.874V159.094V159.535C232.253 159.829 232.253 160.123 232.253 160.417C232.253 161.005 232.253 161.557 232.253 162.108C232.253 163.21 232.253 164.313 232.253 165.305C232.253 167.326 232.253 169.163 232.216 170.707L232.143 170.633C233.613 170.633 234.789 170.67 235.597 170.67C236.001 170.67 236.332 170.67 236.553 170.67C236.663 170.67 236.736 170.67 236.81 170.67C236.883 170.743 236.92 170.743 236.92 170.743C236.92 170.743 236.81 170.743 236.589 170.743C236.369 170.743 236.038 170.743 235.634 170.743C234.789 170.743 233.613 170.78 232.106 170.78H232.033V170.707C232.033 169.163 232.033 167.363 231.996 165.305C231.996 164.276 231.996 163.21 231.996 162.108C231.996 161.557 231.996 160.969 231.996 160.417C231.996 160.123 231.996 159.829 231.996 159.535V159.094V158.874V158.764V158.69V158.727C232.033 158.69 231.886 158.837 232.106 158.617C233.76 158.617 235.377 158.617 236.883 158.617H236.994V158.69C236.994 162.181 236.957 165.195 236.957 167.363C236.957 168.428 236.92 169.273 236.92 169.861C236.92 170.155 236.92 170.339 236.92 170.523C236.957 170.67 236.92 170.743 236.92 170.743Z" fill="#7F859F"/>
<path d="M243.571 163.871H238.794V170.743H243.571V163.871Z" fill="#E0E0E0"/>
<path d="M243.572 170.743C243.572 170.743 243.572 170.707 243.572 170.596C243.572 170.486 243.572 170.376 243.572 170.229C243.572 169.861 243.572 169.384 243.535 168.796C243.535 167.583 243.499 165.856 243.499 163.871L243.572 163.945C242.139 163.945 240.522 163.945 238.795 163.945C238.758 163.982 238.979 163.761 238.905 163.835V163.871V163.945V164.055V164.312C238.905 164.459 238.905 164.643 238.905 164.79C238.905 165.121 238.905 165.415 238.905 165.709C238.905 166.334 238.905 166.922 238.905 167.509C238.905 168.649 238.905 169.751 238.905 170.707L238.832 170.633C240.265 170.633 241.441 170.67 242.286 170.67C242.69 170.67 243.021 170.67 243.241 170.707C243.425 170.743 243.535 170.743 243.572 170.743C243.609 170.743 243.462 170.743 243.241 170.743C242.984 170.743 242.69 170.743 242.286 170.78C241.441 170.78 240.228 170.817 238.795 170.817H238.721V170.743C238.721 169.788 238.721 168.722 238.721 167.546C238.721 166.958 238.721 166.37 238.721 165.746C238.721 165.452 238.721 165.121 238.721 164.827C238.721 164.68 238.721 164.496 238.721 164.349V164.092V163.982V163.908V163.871C238.648 163.945 238.832 163.761 238.832 163.761C240.522 163.761 242.139 163.761 243.609 163.761H243.682V163.835C243.682 165.856 243.646 167.583 243.646 168.832C243.646 169.42 243.646 169.898 243.609 170.229C243.572 170.596 243.572 170.743 243.572 170.743Z" fill="#7F859F"/>
<path d="M249.89 155.199H245.113V170.743H249.89V155.199Z" fill="#E0E0E0"/>
<path d="M249.89 170.743C249.89 170.743 249.89 170.706 249.89 170.67C249.89 170.596 249.89 170.523 249.89 170.449C249.89 170.229 249.89 169.935 249.89 169.567C249.89 168.796 249.89 167.693 249.854 166.297C249.854 163.504 249.817 159.645 249.817 155.199L249.927 155.309C248.421 155.309 246.804 155.309 245.15 155.309C245.334 155.126 245.187 155.272 245.26 155.199V155.236V155.272V155.346V155.493V155.787C245.26 155.971 245.26 156.191 245.26 156.375C245.26 156.779 245.26 157.147 245.26 157.514C245.26 158.286 245.26 159.021 245.26 159.756C245.26 161.226 245.26 162.622 245.26 163.945C245.26 166.591 245.26 168.906 245.224 170.743L245.15 170.67C246.62 170.67 247.796 170.706 248.641 170.706C249.045 170.706 249.339 170.706 249.596 170.706C249.707 170.706 249.78 170.706 249.854 170.706C249.854 170.743 249.89 170.743 249.89 170.743C249.89 170.743 249.854 170.743 249.817 170.743C249.743 170.743 249.67 170.743 249.596 170.743C249.376 170.743 249.045 170.743 248.678 170.743C247.833 170.743 246.657 170.78 245.15 170.78H245.077V170.706C245.077 168.869 245.077 166.554 245.04 163.908C245.04 162.585 245.04 161.189 245.04 159.719C245.04 158.984 245.04 158.249 245.04 157.477C245.04 157.11 245.04 156.706 245.04 156.338C245.04 156.154 245.04 155.934 245.04 155.75V155.456V155.309V155.236V155.199V155.162C245.077 155.125 244.93 155.236 245.15 155.052C246.804 155.052 248.384 155.052 249.927 155.052H250.037V155.162C250.037 159.645 250.001 163.541 250.001 166.334C250.001 167.693 249.964 168.796 249.964 169.567C249.964 169.935 249.964 170.229 249.964 170.412C249.964 170.486 249.964 170.559 249.964 170.633C249.89 170.743 249.89 170.743 249.89 170.743Z" fill="#7F859F"/>
<path d="M242.798 156.448L242.283 156.154L246.105 150.716L246.619 151.01L242.798 156.448Z" fill="#7F859F"/>
<path d="M236.822 153.335L236.37 153.767L239.291 156.821L239.743 156.389L236.822 153.335Z" fill="#7F859F"/>
<path d="M233.396 153.447L229.092 158.991L229.585 159.374L233.889 153.83L233.396 153.447Z" fill="#7F859F"/>
<path d="M243.496 157.11C243.496 158.396 242.43 159.462 241.144 159.462C239.858 159.462 238.792 158.396 238.792 157.11C238.792 155.824 239.858 154.758 241.144 154.758C242.467 154.758 243.496 155.824 243.496 157.11Z" fill="#E0E0E0"/>
<path d="M243.496 157.11C243.459 157.11 243.496 156.889 243.386 156.559C243.275 156.228 243.055 155.713 242.541 155.309C242.026 154.905 241.218 154.685 240.409 155.015C240.005 155.162 239.637 155.42 239.38 155.787C239.086 156.154 238.939 156.632 238.939 157.11C238.939 157.588 239.086 158.065 239.38 158.433C239.637 158.8 240.042 159.094 240.409 159.205C241.218 159.498 242.063 159.278 242.541 158.911C243.055 158.506 243.312 158.029 243.386 157.661C243.496 157.33 243.496 157.11 243.496 157.11C243.496 157.11 243.496 157.147 243.496 157.257C243.496 157.367 243.496 157.514 243.459 157.698C243.386 158.065 243.165 158.617 242.614 159.021C242.1 159.462 241.218 159.719 240.336 159.388C239.895 159.241 239.49 158.947 239.196 158.543C238.902 158.139 238.719 157.624 238.719 157.11C238.719 156.595 238.902 156.081 239.196 155.677C239.49 155.273 239.895 154.979 240.336 154.832C241.218 154.501 242.1 154.758 242.614 155.199C243.165 155.64 243.386 156.154 243.459 156.522C243.496 156.706 243.496 156.853 243.496 156.963C243.533 157.073 243.533 157.11 243.496 157.11Z" fill="#7F859F"/>
<path d="M237.469 152.296C237.469 153.582 236.404 154.648 235.117 154.648C233.831 154.648 232.766 153.582 232.766 152.296C232.766 151.01 233.831 149.944 235.117 149.944C236.44 149.944 237.469 151.01 237.469 152.296Z" fill="#E0E0E0"/>
<path d="M237.47 152.296C237.433 152.296 237.47 152.076 237.359 151.745C237.249 151.414 237.029 150.9 236.514 150.495C236 150.091 235.191 149.871 234.383 150.201C233.979 150.348 233.611 150.606 233.354 150.973C233.06 151.341 232.913 151.818 232.913 152.296C232.913 152.774 233.06 153.251 233.354 153.619C233.611 153.986 234.015 154.28 234.383 154.391C235.191 154.685 236.036 154.464 236.514 154.097C237.029 153.692 237.286 153.215 237.359 152.847C237.47 152.517 237.47 152.296 237.47 152.296C237.47 152.296 237.47 152.333 237.47 152.443C237.47 152.553 237.47 152.7 237.433 152.884C237.359 153.251 237.139 153.803 236.588 154.207C236.073 154.648 235.191 154.905 234.309 154.574C233.868 154.427 233.464 154.133 233.17 153.729C232.876 153.325 232.692 152.811 232.692 152.296C232.692 151.782 232.876 151.267 233.17 150.863C233.464 150.459 233.868 150.165 234.309 150.018C235.191 149.687 236.073 149.944 236.588 150.385C237.139 150.826 237.359 151.341 237.433 151.708C237.47 151.892 237.47 152.039 237.47 152.149C237.47 152.259 237.47 152.296 237.47 152.296Z" fill="#7F859F"/>
<path d="M228.503 162.806C229.802 162.806 230.855 161.753 230.855 160.454C230.855 159.155 229.802 158.102 228.503 158.102C227.204 158.102 226.151 159.155 226.151 160.454C226.151 161.753 227.204 162.806 228.503 162.806Z" fill="#E0E0E0"/>
<path d="M230.855 160.454C230.819 160.454 230.855 160.234 230.745 159.903C230.635 159.572 230.414 159.058 229.9 158.654C229.385 158.249 228.577 158.029 227.769 158.36C227.364 158.507 226.997 158.764 226.74 159.131C226.446 159.499 226.299 159.976 226.299 160.454C226.299 160.932 226.446 161.41 226.74 161.777C226.997 162.145 227.401 162.439 227.769 162.549C228.577 162.843 229.422 162.622 229.9 162.255C230.414 161.851 230.672 161.373 230.745 161.005C230.855 160.675 230.855 160.454 230.855 160.454C230.855 160.454 230.855 160.491 230.855 160.601C230.855 160.711 230.855 160.858 230.819 161.042C230.745 161.41 230.525 161.961 229.973 162.365C229.459 162.806 228.577 163.063 227.695 162.732C227.254 162.585 226.85 162.292 226.556 161.887C226.262 161.483 226.078 160.969 226.078 160.454C226.078 159.94 226.262 159.425 226.556 159.021C226.85 158.617 227.254 158.323 227.695 158.176C228.577 157.845 229.459 158.102 229.973 158.543C230.525 158.984 230.745 159.499 230.819 159.866C230.855 160.05 230.855 160.197 230.855 160.307C230.855 160.417 230.855 160.454 230.855 160.454Z" fill="#7F859F"/>
<path d="M247.758 151.745C246.435 151.745 245.369 150.679 245.369 149.356C245.369 148.033 246.435 146.968 247.758 146.968C249.081 146.968 250.146 148.033 250.146 149.356C250.146 150.679 249.081 151.745 247.758 151.745Z" fill="#E0E0E0"/>
<path d="M247.757 151.745C247.757 151.708 247.978 151.745 248.345 151.634C248.713 151.524 249.227 151.304 249.595 150.752C249.999 150.238 250.219 149.393 249.925 148.584C249.778 148.18 249.521 147.813 249.117 147.519C248.749 147.225 248.272 147.078 247.757 147.078C247.28 147.078 246.802 147.225 246.398 147.519C246.03 147.776 245.736 148.18 245.589 148.584C245.295 149.393 245.516 150.238 245.92 150.752C246.324 151.267 246.839 151.524 247.169 151.634C247.537 151.745 247.757 151.745 247.757 151.745C247.757 151.745 247.721 151.745 247.61 151.745C247.5 151.745 247.353 151.745 247.169 151.708C246.802 151.634 246.251 151.414 245.81 150.863C245.369 150.348 245.111 149.429 245.442 148.548C245.589 148.107 245.883 147.702 246.287 147.408C246.692 147.114 247.206 146.931 247.757 146.931C248.308 146.931 248.823 147.114 249.227 147.408C249.631 147.702 249.925 148.107 250.072 148.548C250.403 149.429 250.146 150.311 249.705 150.863C249.264 151.414 248.713 151.634 248.345 151.708C248.161 151.745 248.014 151.745 247.904 151.745C247.794 151.781 247.757 151.781 247.757 151.745Z" fill="#7F859F"/>
<path d="M220.308 75.0527C220.932 74.8322 221.263 74.1707 221.043 73.546C220.932 73.252 220.712 72.9948 220.418 72.8478C219.94 72.6273 219.205 72.2231 218.985 71.5249C218.617 70.4592 219.205 69.3936 220.418 68.9526C221.631 68.5116 222.77 68.9893 223.137 70.055C223.394 70.7532 223.064 71.5249 222.843 72.0026C222.696 72.2966 222.659 72.6273 222.77 72.9581C222.99 73.5828 223.652 73.9135 224.276 73.693L230.854 70.643H230.891L230.744 70.3122L229.017 63.2567C228.796 62.632 228.135 62.3013 227.51 62.5218C227.216 62.632 226.959 62.8525 226.812 63.1465C226.591 63.6242 226.187 64.3591 225.489 64.5796C224.423 64.9471 223.358 64.3591 222.917 63.1465C222.476 61.9338 222.953 60.7946 224.019 60.4271C224.717 60.1699 225.489 60.5006 225.967 60.7211C226.261 60.8681 226.591 60.9049 226.922 60.7946C227.547 60.5741 227.878 59.9127 227.657 59.288L224.791 53.1144L224.754 53.1511L217.699 54.8783C217.074 55.0987 216.743 55.7602 216.964 56.3849C217.074 56.6789 217.294 56.9361 217.588 57.0831C218.066 57.3036 218.801 57.7078 219.021 58.406C219.389 59.4717 218.801 60.5374 217.588 60.9784C216.376 61.4193 215.236 60.9416 214.869 59.8759C214.612 59.1777 214.942 58.406 215.163 57.9283C215.31 57.6343 215.347 57.3036 215.236 56.9729C215.016 56.3482 214.355 56.0174 213.73 56.2379L207.152 59.288H207.115L208.732 65.8658C208.953 66.4905 209.614 66.8212 210.239 66.6007C210.533 66.4905 210.79 66.27 210.937 65.976C211.157 65.4983 211.562 64.7634 212.26 64.5429C213.326 64.1754 214.391 64.7634 214.832 65.976C215.273 67.1887 214.795 68.3279 213.73 68.6953C213.032 68.9526 212.26 68.6219 211.782 68.4014C211.488 68.2544 211.157 68.2176 210.827 68.3279C210.202 68.5484 209.871 69.2098 210.092 69.8345L213.142 76.4123L213.215 76.7798H213.252L220.308 75.0527Z" fill="#EBEBEB"/>
<path d="M220.308 75.0527C220.308 75.0527 220.161 75.0894 219.83 75.1629C219.536 75.2364 219.059 75.3467 218.471 75.4937C217.258 75.7877 215.531 76.2286 213.252 76.7798H213.216L213.179 76.8166V76.7798C213.142 76.6696 213.105 76.5594 213.105 76.4124C212.26 74.575 211.231 72.3701 210.055 69.8345C209.835 69.2833 210.129 68.5484 210.717 68.2911C211.011 68.1442 211.342 68.1442 211.636 68.2177C211.783 68.2544 211.93 68.3646 212.077 68.4014C212.224 68.4749 212.371 68.5116 212.518 68.5484C212.811 68.6219 213.142 68.6954 213.436 68.6219C213.73 68.5851 214.024 68.4381 214.281 68.2544C214.796 67.8502 215.016 67.1887 214.943 66.5273C214.869 65.8658 214.575 65.2044 214.024 64.8001C213.767 64.5796 213.436 64.4694 213.069 64.4327C212.738 64.3959 212.371 64.4694 212.077 64.6531C211.783 64.8369 211.525 65.0941 211.342 65.4248C211.231 65.5718 211.158 65.7556 211.084 65.9026C211.011 66.0863 210.901 66.27 210.717 66.3803C210.423 66.6375 209.982 66.7478 209.578 66.6375C209.173 66.5273 208.843 66.2333 208.696 65.8291C208.181 63.7344 207.63 61.5296 207.079 59.2512L207.042 59.1778L207.116 59.141H207.152C209.247 58.1856 211.452 57.1566 213.73 56.091C214.061 55.9807 214.428 56.0175 214.722 56.1645C215.016 56.3114 215.274 56.6054 215.384 56.9361C215.494 57.2669 215.421 57.6711 215.274 57.9651C215.127 58.2591 215.016 58.553 214.943 58.8838C214.796 59.5085 215.053 60.1699 215.568 60.5742C216.082 60.9784 216.78 61.0519 217.405 60.8681C218.03 60.6844 218.654 60.3169 218.948 59.6922C219.242 59.1043 219.169 58.3326 218.728 57.8548C218.507 57.5976 218.213 57.4139 217.919 57.2301C217.772 57.1566 217.625 57.0831 217.442 56.9729C217.295 56.8627 217.148 56.7157 217.037 56.5687C216.854 56.2379 216.78 55.8337 216.927 55.4662C217.037 55.0988 217.368 54.8048 217.699 54.6945C220.087 54.1066 222.439 53.5186 224.754 52.9674H224.791L224.865 52.9307L224.901 53.0042C225.857 55.0988 226.812 57.1566 227.731 59.1778C227.878 59.5452 227.804 59.9862 227.584 60.3169C227.364 60.6477 226.996 60.8681 226.629 60.9049C226.445 60.9416 226.224 60.9049 226.041 60.8314C225.857 60.7579 225.71 60.6844 225.563 60.6109C225.232 60.4639 224.901 60.3904 224.571 60.3904C223.909 60.3904 223.248 60.8314 222.991 61.4561C222.733 62.0808 222.807 62.779 223.101 63.4037C223.248 63.6977 223.432 63.9917 223.689 64.1754C223.946 64.3959 224.24 64.5429 224.534 64.5796C224.865 64.6164 225.159 64.6164 225.489 64.5061C225.783 64.3959 226.041 64.1754 226.224 63.9549C226.445 63.6977 226.592 63.4405 226.702 63.1465C226.849 62.8158 227.106 62.5585 227.437 62.4483C227.768 62.338 228.135 62.338 228.429 62.485C228.723 62.632 228.98 62.8893 229.091 63.22C229.679 65.7188 230.267 68.0339 230.818 70.2755C230.855 70.3858 230.928 70.496 230.965 70.6062L231.002 70.6797L230.928 70.7165H230.891C228.503 71.8189 226.298 72.8111 224.313 73.7298C223.983 73.84 223.652 73.8033 223.358 73.6563C223.064 73.5093 222.844 73.2521 222.733 72.9581C222.623 72.6641 222.623 72.3334 222.77 72.0394C222.917 71.7822 223.027 71.5249 223.101 71.231C223.174 70.9737 223.211 70.6797 223.174 70.4225C223.138 70.1653 223.064 69.908 222.917 69.6876C222.66 69.2466 222.182 68.9526 221.704 68.8791C221.227 68.8056 220.749 68.8791 220.308 69.0628C219.867 69.2466 219.5 69.5038 219.242 69.8345C218.728 70.496 218.801 71.4514 219.242 71.9659C219.463 72.2599 219.72 72.4436 219.977 72.5906C220.234 72.7744 220.528 72.8111 220.749 73.0316C221.153 73.3991 221.227 73.9503 221.08 74.3178C220.969 74.6852 220.749 74.869 220.565 74.9792C220.418 75.0527 220.308 75.0527 220.308 75.0527C220.308 75.0527 220.418 75.016 220.565 74.9057C220.712 74.7955 220.933 74.6117 221.043 74.2443C221.153 73.9135 221.116 73.3991 220.712 73.0316C220.528 72.8478 220.234 72.7744 219.941 72.6274C219.683 72.4804 219.389 72.2599 219.169 71.9659C218.948 71.6719 218.838 71.3044 218.801 70.9002C218.801 70.496 218.912 70.0918 219.169 69.7243C219.426 69.3568 219.794 69.0996 220.234 68.9159C220.675 68.7321 221.19 68.6586 221.668 68.7321C222.182 68.8056 222.66 69.0996 222.954 69.5773C223.101 69.7978 223.211 70.0918 223.248 70.3858C223.285 70.6797 223.248 70.9737 223.174 71.231C223.101 71.5249 222.954 71.7822 222.844 72.0394C222.733 72.2966 222.733 72.5906 222.807 72.8846C222.917 73.1418 223.101 73.3991 223.358 73.5093C223.615 73.6563 223.946 73.6563 224.24 73.546C226.261 72.6274 228.429 71.5984 230.818 70.496H230.855L230.818 70.6062C230.781 70.496 230.708 70.3858 230.671 70.2755C230.12 68.0707 229.532 65.7188 228.944 63.22C228.833 62.926 228.65 62.7055 228.356 62.5953C228.098 62.485 227.768 62.4483 227.474 62.5585C227.18 62.6688 226.959 62.8893 226.849 63.1465C226.702 63.4405 226.555 63.7344 226.335 63.9917C226.114 64.2489 225.857 64.4694 225.526 64.6164C225.195 64.7266 224.828 64.7634 224.497 64.7266C224.166 64.6531 223.836 64.5061 223.542 64.2857C223.285 64.0652 223.064 63.7712 222.917 63.4405C222.623 62.8158 222.513 62.0441 222.807 61.3826C223.101 60.7211 223.799 60.2067 224.534 60.2067C224.901 60.2067 225.269 60.3169 225.6 60.4272C225.783 60.5007 225.93 60.6109 226.077 60.6477C226.224 60.7211 226.408 60.7212 226.555 60.7212C226.886 60.6844 227.217 60.5007 227.364 60.2067C227.547 59.9127 227.584 59.5452 227.474 59.2512C226.555 57.2301 225.6 55.1723 224.607 53.0777L224.718 53.1144H224.681C222.366 53.6656 220.014 54.2536 217.625 54.8415C217.331 54.9518 217.074 55.209 216.964 55.503C216.854 55.797 216.89 56.1645 217.074 56.4584C217.148 56.6054 217.258 56.7157 217.405 56.7892C217.552 56.8627 217.699 56.9362 217.883 57.0096C218.213 57.1934 218.507 57.3771 218.728 57.6711C219.206 58.2223 219.316 59.0675 218.985 59.729C218.654 60.3904 217.993 60.7946 217.331 60.9784C216.67 61.1621 215.862 61.0886 215.31 60.6477C214.759 60.2067 214.465 59.435 214.612 58.7735C214.686 58.4428 214.796 58.1121 214.943 57.8181C215.09 57.5609 215.127 57.2301 215.053 56.9361C214.98 56.6422 214.759 56.3849 214.502 56.2747C214.245 56.1277 213.914 56.1277 213.62 56.2012C211.342 57.2669 209.137 58.2591 207.042 59.2512H207.005L207.079 59.141C207.63 61.4194 208.181 63.6242 208.696 65.7188C208.806 66.0495 209.1 66.3435 209.467 66.417C209.798 66.5273 210.202 66.417 210.46 66.1965C210.607 66.0863 210.717 65.9393 210.754 65.7923C210.827 65.6086 210.901 65.4616 211.011 65.2778C211.231 64.9471 211.489 64.6531 211.819 64.4694C212.15 64.2857 212.554 64.2122 212.922 64.2122C213.289 64.2489 213.657 64.3959 213.951 64.6164C214.539 65.0574 214.833 65.7923 214.943 66.4538C215.016 67.152 214.796 67.8869 214.245 68.3279C213.987 68.5484 213.657 68.6954 213.326 68.7321C212.995 68.7689 212.664 68.7321 212.371 68.6219C212.224 68.5851 212.077 68.5116 211.93 68.4381C211.783 68.3646 211.636 68.2911 211.525 68.2544C211.268 68.1442 210.937 68.1809 210.68 68.2911C210.166 68.5116 209.908 69.1731 210.092 69.6876C211.268 72.2231 212.26 74.428 213.105 76.2654C213.142 76.4124 213.179 76.5226 213.179 76.6328L213.105 76.5961H213.142C215.421 76.0449 217.184 75.6407 218.36 75.3467C218.948 75.1997 219.426 75.0894 219.72 75.016C220.161 75.0894 220.308 75.0527 220.308 75.0527Z" fill="#7F859F"/>
<path d="M19.152 177.248C21.3201 176.292 22.8267 174.014 22.79 171.368C22.7532 167.914 20.0707 165.121 16.8001 165.194C13.5663 165.231 10.9573 168.097 11.0308 171.552C11.0675 174.234 12.6844 176.476 14.8892 177.321C5.84935 178.865 6.47405 188.713 6.47405 188.713L27.8979 188.382C27.8611 188.382 28.1551 178.424 19.152 177.248Z" fill="#EBEBEB"/>
<path d="M19.1521 177.248C19.2256 177.248 19.2991 177.284 19.4461 177.284C19.6298 177.321 19.8871 177.321 20.2546 177.431C20.9528 177.578 21.9817 177.872 23.1576 178.571C24.3335 179.269 25.583 180.445 26.4649 182.135C27.3468 183.826 27.9348 185.994 27.9715 188.382V188.456H27.8981C21.9449 188.566 14.5954 188.676 6.47422 188.786H6.36397V188.713C6.32723 187.721 6.43747 186.692 6.62121 185.663C6.80495 184.634 7.13567 183.605 7.57664 182.65C8.27485 181.18 9.30378 179.857 10.5899 178.938C11.2514 178.46 11.9496 178.13 12.6478 177.836C13.3828 177.542 14.1177 177.358 14.8527 177.248L14.8159 177.431C13.6767 176.99 12.6846 176.182 12.0231 175.19C11.3616 174.198 10.9942 173.059 10.9207 171.919C10.7369 169.641 11.8026 167.436 13.493 166.223C14.3382 165.635 15.2936 165.231 16.2491 165.158C17.2045 165.048 18.1599 165.231 19.0051 165.562C20.6955 166.26 21.8347 167.693 22.3492 169.09C22.6064 169.788 22.7534 170.523 22.7901 171.184C22.8269 171.883 22.7534 172.507 22.6064 173.095C22.3124 174.271 21.7612 175.153 21.21 175.778C20.6588 176.403 20.1076 176.77 19.7401 176.991C19.5564 177.101 19.4094 177.174 19.2991 177.211C19.2256 177.211 19.1889 177.248 19.1521 177.248C19.1889 177.248 19.2256 177.211 19.2991 177.174C19.4094 177.137 19.5564 177.064 19.7401 176.917C20.1076 176.697 20.622 176.329 21.1732 175.704C21.7245 175.08 22.2389 174.198 22.5329 173.059C22.6799 172.471 22.7534 171.846 22.7166 171.184C22.6799 170.523 22.5697 169.825 22.2757 169.127C21.7612 167.73 20.622 166.37 18.9684 165.672C18.1599 165.342 17.2045 165.195 16.2858 165.305C15.3304 165.415 14.4117 165.782 13.6032 166.37C11.9864 167.546 10.9574 169.714 11.1044 171.919C11.1779 173.022 11.5454 174.124 12.2068 175.08C12.8683 176.035 13.787 176.807 14.8894 177.248L15.1834 177.358L14.8527 177.431C14.1177 177.578 13.3828 177.762 12.6846 178.019C11.9864 178.313 11.2881 178.644 10.6634 179.122C9.41402 180.004 8.38509 181.29 7.72363 182.76C7.28266 183.715 6.98868 184.707 6.7682 185.736C6.58446 186.729 6.47422 187.758 6.51096 188.75L6.40072 188.676C14.4852 188.566 21.8714 188.456 27.8246 188.382L27.7511 188.456C27.7511 186.104 27.1631 183.936 26.2812 182.282C25.3992 180.592 24.1865 179.416 23.0474 178.718C21.9082 178.019 20.8793 177.725 20.1811 177.542C19.8503 177.431 19.5564 177.431 19.3726 177.358C19.2624 177.284 19.1889 177.284 19.1521 177.248Z" fill="#7F859F"/>
<path d="M38.2242 56.2748H26.6487C24.2601 56.2748 22.3125 58.2224 22.3125 60.611V66.4906C22.3125 68.8792 24.2601 70.8268 26.6487 70.8268H33.9615L37.526 74.3546L37.5627 70.8268H38.2242C40.6128 70.8268 42.5604 68.8792 42.5604 66.4906V60.6477C42.5604 58.2224 40.6128 56.2748 38.2242 56.2748Z" fill="#EBEBEB"/>
<path d="M38.224 56.2747C38.224 56.2747 38.2607 56.2747 38.3342 56.2747C38.4077 56.2747 38.4812 56.2747 38.6282 56.2747C38.8854 56.3114 39.2529 56.3482 39.6939 56.4952C40.1348 56.6421 40.6861 56.9361 41.2005 57.4138C41.715 57.8916 42.1927 58.553 42.4499 59.435C42.5969 59.8759 42.6337 60.3536 42.6337 60.8314C42.6337 61.3091 42.6337 61.8236 42.6337 62.3748C42.6337 63.4404 42.6337 64.5796 42.6337 65.829C42.6337 66.417 42.6704 67.0785 42.4499 67.7399C42.2662 68.3646 41.9355 68.9893 41.4945 69.5038C41.0168 70.0183 40.4288 70.4592 39.7306 70.6797C39.3999 70.8267 39.0324 70.9002 38.6649 70.9369C38.2975 70.9737 37.93 70.9737 37.5625 70.9737L37.636 70.9002C37.636 72.0026 37.636 73.2153 37.636 74.428V74.6484L37.489 74.5015C36.3498 73.3623 35.1372 72.1864 33.9245 70.9737L33.998 71.0104C32.4546 71.0104 30.8377 71.0104 29.1841 71.0104C28.5961 71.0104 28.0449 71.0104 27.4569 71.0104C26.9057 71.0104 26.3177 71.0472 25.7298 70.9002C24.5906 70.643 23.5984 69.9448 22.9737 69.0261C22.6797 68.5484 22.4593 68.0339 22.349 67.5194C22.2388 66.9682 22.2388 66.417 22.2388 65.9025C22.2388 64.8369 22.2388 63.8079 22.2388 62.8157C22.2388 62.3013 22.2388 61.8235 22.2388 61.3458C22.2388 60.8681 22.2388 60.3536 22.3123 59.8759C22.496 58.9205 23.0105 58.0753 23.6719 57.4506C24.0027 57.1566 24.3701 56.8994 24.7744 56.7156C25.1786 56.5319 25.5828 56.3849 25.987 56.3482C26.428 56.2012 26.8322 56.2012 27.2364 56.2012C27.6407 56.2012 28.0081 56.2012 28.4124 56.2012C31.4257 56.2012 33.8878 56.2379 35.6149 56.2379C36.4601 56.2379 37.1215 56.2379 37.5625 56.2379C37.783 56.2379 37.93 56.2379 38.077 56.2379C38.1505 56.2747 38.224 56.2747 38.224 56.2747C38.224 56.2747 38.1505 56.2747 38.0402 56.2747C37.93 56.2747 37.7462 56.2747 37.5258 56.2747C37.0848 56.2747 36.4233 56.2747 35.5781 56.2747C33.8877 56.2747 31.4257 56.2747 28.3756 56.3114C28.0081 56.3114 27.6039 56.3114 27.1997 56.3114C26.7955 56.3114 26.3912 56.3114 25.987 56.3849C25.5828 56.4584 25.1786 56.5686 24.8111 56.7524C24.4436 56.9361 24.0761 57.1566 23.7454 57.4873C23.084 58.0753 22.643 58.9205 22.4593 59.8024C22.349 60.2434 22.3858 60.7211 22.3858 61.2356C22.3858 61.7133 22.3858 62.2278 22.3858 62.7055C22.3858 63.6977 22.3858 64.7266 22.3858 65.7923C22.3858 66.3068 22.3858 66.858 22.496 67.3724C22.6062 67.8869 22.8267 68.3646 23.1207 68.8423C23.7087 69.7243 24.6641 70.4225 25.7298 70.643C26.281 70.7532 26.8322 70.7532 27.4202 70.7532C28.0081 70.7532 28.5594 70.7532 29.1473 70.7532C30.801 70.7532 32.4178 70.7532 33.9612 70.7532H33.998L34.0347 70.79C35.2842 72.0026 36.4601 73.1785 37.5993 74.3177L37.4523 74.3912C37.4523 73.1785 37.4523 71.9659 37.489 70.8635V70.79H37.5625C37.93 70.79 38.2975 70.79 38.6649 70.7532C39.0324 70.7165 39.3631 70.643 39.6939 70.496C40.3553 70.2755 40.9433 69.8713 41.3843 69.3568C41.8252 68.8791 42.156 68.2911 42.3397 67.6664C42.5234 67.0417 42.5234 66.417 42.5234 65.829C42.5234 64.6164 42.5234 63.4404 42.5234 62.3748C42.5234 61.8603 42.5234 61.3458 42.5234 60.8314C42.5234 60.3536 42.4867 59.8759 42.3764 59.4717C42.1192 58.6265 41.6782 57.9651 41.1638 57.4873C40.6493 57.0096 40.1348 56.7524 39.6939 56.5686C38.7384 56.2379 38.224 56.3114 38.224 56.2747Z" fill="#7F859F"/>
<path d="M17.3518 49.9541H31.5364C34.4762 49.9541 36.8648 52.3427 36.8648 55.2825V62.4483C36.8648 65.3881 34.4762 67.7767 31.5364 67.7767H22.57L18.3808 72.1129L18.1603 67.7767H17.3518C14.412 67.7767 12.0234 65.3881 12.0234 62.4483V55.2825C12.0234 52.3427 14.412 49.9541 17.3518 49.9541Z" fill="#EBEBEB"/>
<path d="M17.351 49.9541C17.351 49.9541 17.3142 49.9541 17.2407 49.9541C17.1672 49.9541 17.057 49.9541 16.91 49.9909C16.763 49.9909 16.5793 50.0276 16.3588 50.0644C16.2486 50.1011 16.1383 50.1379 15.9913 50.1379C15.8811 50.1746 15.7341 50.2113 15.5871 50.2481C15.0359 50.4318 14.3744 50.7993 13.7497 51.3505C13.125 51.9017 12.5738 52.7469 12.2431 53.7759C12.0961 54.2903 12.0593 54.8783 12.0226 55.4663C12.0226 56.0542 12.0226 56.6789 12.0226 57.3404C12.0226 58.6633 12.0226 60.0597 12.0226 61.5663C12.0226 62.3013 11.9858 63.073 12.2431 63.8447C12.4636 64.6164 12.831 65.3146 13.419 65.9393C13.9702 66.564 14.6684 67.0417 15.4769 67.3357C15.8811 67.4827 16.3221 67.5929 16.763 67.6297C17.204 67.6664 17.645 67.6664 18.1227 67.6664H18.1962V67.7399C18.2697 69.0996 18.3432 70.5695 18.4534 72.0762L18.3064 72.0027C19.6293 70.6063 21.0257 69.1731 22.4956 67.6664L22.5324 67.6297H22.5691C24.48 67.6297 26.5011 67.6297 28.559 67.6297C29.2572 67.6297 29.9554 67.6297 30.6904 67.6297C31.3886 67.6297 32.0868 67.6664 32.7482 67.4827C34.0711 67.1887 35.2471 66.3435 35.9453 65.2411C36.3127 64.6899 36.57 64.0652 36.6802 63.4405C36.8272 62.8158 36.7905 62.1543 36.7905 61.5296C36.7905 60.2434 36.7905 58.994 36.7905 57.7446C36.7905 57.1199 36.7905 56.5319 36.7905 55.9072C36.7905 55.3193 36.7904 54.7313 36.6802 54.1433C36.4597 53.0042 35.8718 52.012 35.0633 51.277C34.6591 50.9096 34.2181 50.6156 33.7404 50.3951C33.2627 50.1746 32.785 50.0276 32.2705 49.9541C31.7928 49.8806 31.2783 49.8806 30.8006 49.8806C30.3229 49.8806 29.8452 49.8806 29.3674 49.8806C25.6559 49.8806 22.6426 49.8439 20.548 49.8439C19.5191 49.8439 18.7106 49.8439 18.1594 49.8439C17.9022 49.8439 17.6817 49.8439 17.5347 49.8439C17.4245 49.9541 17.351 49.9541 17.351 49.9541C17.351 49.9541 17.4245 49.9541 17.5715 49.9541C17.7185 49.9541 17.9389 49.9541 18.1962 49.9541C18.7474 49.9541 19.5558 49.9541 20.5848 49.9541C22.6794 49.9541 25.6927 49.9541 29.4042 49.9174C29.8819 49.9174 30.3596 49.9174 30.8373 49.9174C31.3151 49.9174 31.8295 49.8806 32.344 49.9909C32.8585 50.0644 33.3729 50.2113 33.8506 50.4318C34.3284 50.6523 34.8061 50.9463 35.2103 51.3505C36.0555 52.0855 36.6435 53.1144 36.9007 54.2903C37.0109 54.8783 37.0109 55.4662 37.0109 56.0542C37.0109 56.6422 37.0109 57.2669 37.0109 57.8916C37.0109 59.1043 37.0109 60.3904 37.0109 61.6766C37.0109 62.3013 37.0477 62.9628 36.9007 63.6242C36.7537 64.2857 36.4965 64.9104 36.129 65.4983C35.394 66.6375 34.1814 67.5195 32.8217 67.8134C32.1235 67.9972 31.4253 67.9604 30.7271 67.9604C30.0289 67.9604 29.3307 67.9604 28.5957 67.9604C26.5379 67.9604 24.5168 67.9604 22.6059 67.9604L22.6794 67.9237C21.2462 69.4303 19.8498 70.8635 18.4902 72.2599L18.3432 72.4069V72.1864C18.2697 70.6797 18.1962 69.2098 18.1227 67.8502L18.1962 67.9237C17.7552 67.9237 17.2775 67.9237 16.8365 67.8869C16.3955 67.8134 15.9546 67.7399 15.5136 67.5562C14.6684 67.2622 13.9335 66.7478 13.3822 66.0863C12.7943 65.4616 12.3901 64.7266 12.2063 63.9182C11.9858 63.1465 11.9858 62.338 11.9858 61.6031C11.9858 60.0964 11.9858 58.7 11.9858 57.3771C11.9858 56.7157 11.9858 56.091 11.9858 55.503C11.9858 54.915 12.0226 54.3271 12.2063 53.7759C12.5003 52.7102 13.0883 51.865 13.7497 51.3138C14.3744 50.7258 15.0359 50.3951 15.6239 50.2113C15.7708 50.1746 15.8811 50.1379 16.0281 50.1011C16.1383 50.0644 16.2853 50.0276 16.3955 50.0276C16.616 49.9909 16.7998 49.9541 16.9468 49.9541C17.0938 49.9541 17.204 49.9541 17.2775 49.9541C17.3142 49.9541 17.351 49.9541 17.351 49.9541Z" fill="#7F859F"/>
<path d="M20.9526 58.7735C20.9526 59.7657 20.1441 60.5374 19.1887 60.5374C18.1965 60.5374 17.4248 59.729 17.4248 58.7735C17.4248 57.7813 18.2333 57.0096 19.1887 57.0096C20.1441 57.0096 20.9526 57.7813 20.9526 58.7735Z" fill="white"/>
<path d="M26.2075 58.7735C26.2075 59.7657 25.399 60.5374 24.4436 60.5374C23.4514 60.5374 22.6797 59.729 22.6797 58.7735C22.6797 57.7813 23.4881 57.0096 24.4436 57.0096C25.4358 57.0096 26.2075 57.7813 26.2075 58.7735Z" fill="white"/>
<path d="M31.4994 58.7735C31.4994 59.7657 30.691 60.5374 29.7356 60.5374C28.7434 60.5374 27.9717 59.729 27.9717 58.7735C27.9717 57.7813 28.7801 57.0096 29.7356 57.0096C30.691 57.0096 31.4994 57.7813 31.4994 58.7735Z" fill="white"/>
<path d="M57.3695 114.997L41.9355 109.007C49.5423 89.4577 63.8003 73.1418 82.1374 63.0729C84.4157 61.8235 86.8043 60.6476 89.1929 59.5819C90.8466 58.847 92.5002 58.1855 94.1906 57.5608L99.96 73.0683C98.6003 73.5827 97.2406 74.1339 95.881 74.7219C93.9334 75.5671 91.9857 76.5225 90.1116 77.5515C75.1553 85.7829 63.5431 99.0855 57.3695 114.997Z" fill="#FF9548"/>
<path d="M99.3352 80.8588L89.0459 49.8071L116.019 59.0675L99.3352 80.8588Z" fill="#FF9548"/>
<path d="M57.3332 201.023C46.3824 189.08 38.8859 174.418 35.6521 158.543C35.1376 156.008 34.7334 153.398 34.4394 150.789C33.925 146.269 33.7412 141.713 33.925 137.193L50.4614 137.817C50.3144 141.492 50.4614 145.24 50.9023 148.915C51.1596 151.047 51.4903 153.178 51.8945 155.273C54.5036 168.171 60.6037 180.151 69.5334 189.852L57.3332 201.023Z" fill="#FFCAA3"/>
<path d="M58.1045 145.645L23.0474 142.264L43.8832 119.701L58.1045 145.645Z" fill="#FFCAA3"/>
<path d="M180.364 171.184L209.248 186.508L183.378 198.488L180.364 171.184Z" fill="#FF9548"/>
<path d="M197.598 190.624L183.708 181.658C185.288 179.232 186.721 176.697 187.97 174.088C188.926 172.177 189.771 170.192 190.543 168.208C196.679 152.333 197.01 134.694 191.498 118.525L207.152 113.16C213.951 133.004 213.51 154.685 205.977 174.161C205.021 176.586 203.992 179.012 202.816 181.364C201.273 184.561 199.509 187.647 197.598 190.624Z" fill="#FF9548"/>
<path d="M185.839 104.083C177.534 90.8542 165.481 80.8588 151.002 75.1629C149.018 74.3912 146.997 73.693 144.939 73.0683C140.419 71.7454 135.752 70.8267 131.122 70.3858L132.702 53.9229C138.398 54.4741 144.131 55.5765 149.68 57.2301C152.178 57.9651 154.677 58.847 157.103 59.8025C174.888 66.8212 189.661 79.0949 199.877 95.3006L185.839 104.083Z" fill="#FFAF76"/>
<path d="M174.117 99.6368L201.494 81.7407L199.51 110.183L174.117 99.6368Z" fill="#FFAF76"/>
<path d="M94.1911 86.9956L94.8158 87.0323C101.026 87.2896 106.024 92.2505 106.281 98.4608C106.538 104.23 106.722 110.624 106.538 113.711C106.208 120.105 99.7768 120.84 99.7768 120.84L99.74 123.449C99.7033 127.749 99.0418 132.489 94.7424 132.416L91.876 131.129C87.6133 131.056 84.1958 127.602 84.1958 123.339L84.2326 99.5265C83.9018 92.8752 87.5398 87.1426 94.1911 86.9956Z" fill="#FFBF9D"/>
<path d="M99.8131 120.803C99.8131 120.803 95.7341 120.877 91.5449 118.011C91.5449 118.011 93.3455 122.678 99.7396 122.347L99.8131 120.803Z" fill="#FF9A6C"/>
<path d="M103.893 104.194C103.893 104.671 103.488 105.076 102.974 105.076C102.459 105.076 102.055 104.708 102.055 104.23C102.055 103.753 102.459 103.348 102.974 103.348C103.488 103.312 103.893 103.716 103.893 104.194Z" fill="#263238"/>
<path d="M104.775 101.511C104.664 101.621 104.003 101.07 103.011 101.033C102.018 100.997 101.283 101.474 101.173 101.327C101.137 101.254 101.247 101.07 101.577 100.85C101.908 100.629 102.423 100.445 103.047 100.445C103.672 100.482 104.15 100.703 104.444 100.96C104.738 101.254 104.811 101.474 104.775 101.511Z" fill="#263238"/>
<path d="M95.4033 103.973C95.4033 104.451 94.9991 104.855 94.4846 104.855C93.9701 104.855 93.5659 104.487 93.5659 104.01C93.5659 103.532 93.9701 103.128 94.4846 103.128C94.9991 103.091 95.4033 103.495 95.4033 103.973Z" fill="#263238"/>
<path d="M95.109 101.327C94.9988 101.437 94.3005 100.886 93.3451 100.849C92.3529 100.813 91.618 101.29 91.5077 101.143C91.471 101.07 91.5812 100.886 91.912 100.666C92.2427 100.445 92.7571 100.261 93.3819 100.261C94.0066 100.298 94.4843 100.519 94.7783 100.776C95.0722 101.07 95.1457 101.29 95.109 101.327Z" fill="#263238"/>
<path d="M98.3796 108.75C98.3796 108.677 99.0043 108.603 99.9965 108.53C100.254 108.53 100.474 108.456 100.548 108.309C100.621 108.126 100.511 107.868 100.401 107.574C100.18 106.95 99.9597 106.325 99.7392 105.627C98.8205 102.871 98.1591 100.592 98.2693 100.556C98.3796 100.519 99.2248 102.724 100.143 105.48C100.364 106.178 100.584 106.803 100.768 107.427C100.842 107.721 100.989 108.052 100.878 108.419C100.805 108.603 100.621 108.75 100.437 108.787C100.29 108.824 100.143 108.824 99.9965 108.824C99.0043 108.824 98.3796 108.824 98.3796 108.75Z" fill="#263238"/>
<path d="M95.5138 97.5054C95.4036 97.7627 94.4481 97.6157 93.2722 97.6892C92.0963 97.7627 91.1776 98.0566 91.0306 97.7994C90.9571 97.6892 91.1409 97.4319 91.5083 97.1747C91.8758 96.9175 92.5005 96.697 93.1987 96.6602C93.8969 96.6235 94.5216 96.7337 94.9259 96.9175C95.3301 97.138 95.5506 97.3584 95.5138 97.5054Z" fill="#263238"/>
<path d="M104.517 98.6814C104.333 98.9019 103.671 98.6446 102.863 98.6079C102.054 98.5344 101.356 98.6814 101.209 98.4609C101.136 98.3506 101.246 98.1302 101.577 97.9097C101.871 97.7259 102.385 97.5422 102.936 97.5789C103.488 97.6157 103.965 97.8362 104.259 98.0934C104.517 98.3139 104.59 98.5711 104.517 98.6814Z" fill="#263238"/>
<path d="M105.766 95.4844C105.766 95.4844 104.223 91.4054 102.349 90.4132C100.07 89.2005 98.931 91.6994 96.7629 91.0012C94.5581 90.303 92.3532 89.127 90.0381 90.7439C87.4658 92.5446 88.605 93.9042 88.311 96.7338C87.2453 108.199 85.0037 111.396 84.6362 105.957C84.5995 105.369 82.9826 104.818 82.8356 102.319C82.6518 99.0489 82.6886 95.1169 83.497 92.8385C84.1952 90.9277 85.3344 89.6048 87.3923 88.2083C90.6261 86.0035 94.9255 86.1137 97.8653 86.518C100.695 86.8854 106.207 90.4867 105.766 95.4844Z" fill="#263238"/>
<path d="M85.0036 105.811C85.0036 104.818 84.1951 104.01 83.2029 104.083C81.9903 104.157 80.6673 104.782 80.6306 107.244C80.5939 111.617 85.0036 110.735 85.0036 110.624C85.0036 110.514 85.0036 107.611 85.0036 105.811Z" fill="#FFBF9D"/>
<path d="M84.085 108.934C84.0483 108.934 84.0115 108.971 83.8646 109.044C83.7543 109.118 83.5338 109.155 83.2766 109.044C82.7989 108.861 82.4314 108.126 82.4314 107.354C82.4314 106.95 82.5049 106.582 82.6519 106.251C82.7989 105.921 82.9826 105.7 83.2398 105.663C83.4603 105.627 83.6441 105.737 83.6808 105.884C83.7543 105.994 83.7176 106.104 83.7176 106.104C83.7176 106.104 83.8278 106.031 83.7911 105.847C83.7911 105.774 83.7176 105.663 83.6073 105.59C83.4971 105.516 83.3501 105.443 83.2031 105.48C82.8724 105.516 82.5416 105.81 82.3946 106.141C82.2109 106.472 82.1007 106.913 82.1374 107.354C82.1742 108.236 82.6151 109.081 83.2398 109.265C83.5338 109.338 83.7911 109.265 83.938 109.155C84.0483 109.044 84.085 108.934 84.085 108.934Z" fill="#FF9A6C"/>
<path d="M107.126 90.8909C106.501 90.3397 105.582 90.156 104.994 89.6048C103.892 88.5758 104.039 86.4445 102.679 85.783C101.871 85.3788 100.879 85.6728 99.9968 85.489C98.5636 85.195 98.1226 84.0559 95.9178 83.8354C93.0515 83.5414 91.949 85.5993 91.949 85.5993C91.949 85.5993 90.4424 84.6071 88.605 85.5993C87.2086 86.3342 86.9881 88.0981 86.9881 88.0981C86.9881 88.0981 86.5471 87.8409 85.0772 88.7963C84.1218 89.3843 83.2766 90.8174 82.8724 91.8464C82.2477 93.3898 82.7621 95.1536 83.3134 96.7338C83.6073 97.579 83.9748 98.5344 84.7833 98.9019C85.7754 99.3429 87.0249 98.6447 87.5026 97.6892C88.017 96.697 88.752 95.7416 89.34 94.8229C90.3689 93.206 91.3978 91.6994 90.7731 90.5602C91.802 90.3397 92.8677 90.4132 93.8232 90.8542C94.7786 91.2951 95.587 91.9933 96.5425 92.4343C97.4979 92.8753 98.7473 92.9855 99.519 92.2506C99.8865 93.5 101.687 94.088 102.716 93.2795C103.378 94.6392 105.141 95.4109 106.501 94.7494C107.787 93.9777 108.228 91.8831 107.126 90.8909Z" fill="#263238"/>
<path d="M82.9091 95.5947C82.9458 95.5947 83.0928 95.999 83.3133 96.6237C83.4236 96.9544 83.6073 97.3219 83.938 97.5791C84.2688 97.8363 84.7465 97.9098 85.2609 97.8731C85.7754 97.8363 86.2531 97.6526 86.6206 97.4321C86.9881 97.2116 87.3188 96.9176 87.5393 96.6972C88.017 96.2194 88.311 95.8887 88.3477 95.9255C88.3845 95.9622 88.1272 96.2929 87.6863 96.8441C87.4658 97.1014 87.1351 97.3954 86.7676 97.6526C86.3634 97.9098 85.8489 98.0936 85.2977 98.1303C84.7465 98.1671 84.1953 98.0936 83.791 97.7628C83.3868 97.4321 83.2398 97.0279 83.1296 96.6972C82.9458 96.0357 82.8723 95.6315 82.9091 95.5947Z" fill="#455A64"/>
<path d="M82.7256 98.9754C82.7623 98.9387 82.9828 99.3062 83.534 99.5267C83.828 99.6369 84.1587 99.7471 84.563 99.7104C84.9672 99.7104 85.3714 99.5634 85.8124 99.3797C86.6576 98.9387 87.2088 98.2772 87.613 97.7995C88.0172 97.3218 88.2377 97.0278 88.2745 97.0278C88.3112 97.0646 88.1275 97.3953 87.76 97.9098C87.3925 98.4242 86.8413 99.1224 85.9226 99.6002C85.4817 99.8206 85.0039 99.9309 84.563 99.9309C84.122 99.9309 83.7545 99.8206 83.4605 99.6737C82.8726 99.3797 82.7256 98.9754 82.7256 98.9754Z" fill="#455A64"/>
<path d="M82.6519 101.474C82.6886 101.437 82.9091 101.731 83.4603 101.915C84.0115 102.099 84.82 102.099 85.5917 101.658C86.3634 101.217 86.8778 100.592 87.2453 100.151C87.6128 99.7103 87.8333 99.4163 87.87 99.453C87.9068 99.4898 87.723 99.7838 87.3923 100.261C87.0616 100.739 86.5104 101.401 85.7019 101.878C85.2977 102.099 84.8567 102.246 84.4525 102.246C84.0483 102.283 83.6808 102.209 83.3868 102.062C82.8356 101.842 82.6519 101.511 82.6519 101.474Z" fill="#455A64"/>
<path d="M95.44 110.073C95.2195 110.551 95.146 110.992 95.0358 111.506C94.9255 112.021 95.1093 112.388 95.4032 112.829C95.6972 113.27 96.2117 113.564 96.7629 113.601C97.7551 113.711 98.6738 113.05 98.931 112.058L99.225 110.992C98.2328 110.661 95.5135 110.183 95.44 110.073Z" fill="#FF9A6C"/>
<path d="M97.8287 113.417C97.8287 113.38 97.7184 113.417 97.4612 113.417C97.2407 113.417 96.91 113.417 96.5425 113.344C96.175 113.233 95.7708 113.013 95.4768 112.572C95.2196 112.168 95.1093 111.58 95.1828 110.992C95.2196 110.661 95.3298 110.367 95.5135 110.147L95.3666 110.183C96.322 110.441 97.1672 110.624 97.7919 110.771C98.3799 110.918 98.7473 110.955 98.7841 110.955C98.7841 110.918 98.4534 110.808 97.8654 110.624C97.2774 110.441 96.4322 110.22 95.4768 109.963L95.4033 109.926L95.3666 110C95.1828 110.294 95.0726 110.624 94.9991 110.955C94.8888 111.58 95.0358 112.241 95.3666 112.719C95.6973 113.197 96.175 113.454 96.5792 113.527C96.9835 113.601 97.3142 113.564 97.5714 113.527C97.7184 113.491 97.8287 113.454 97.8287 113.417Z" fill="#263238"/>
<path d="M164.011 100.445C165.481 99.5633 165.848 97.4319 165.076 95.9253C164.305 94.3819 162.688 93.4632 160.997 93.1692C158.572 92.7283 155.963 93.5734 154.199 95.3006C153.244 96.256 152.472 97.4687 151.222 97.9097C150.12 98.2771 148.907 97.9097 147.731 98.0566C146.188 98.2404 144.828 99.3061 143.983 100.666C143.175 101.989 142.807 103.569 142.587 105.149C142.403 106.582 142.256 108.162 141.264 109.191C140.272 110.183 138.728 110.404 137.516 111.102C135.237 112.425 134.429 115.806 135.899 118.011C136.376 118.709 137.038 119.37 137.075 120.215C137.111 120.987 136.597 121.649 136.376 122.384C135.752 124.258 137.258 126.536 139.243 126.683C140.235 126.757 141.301 126.389 142.219 126.83C143.101 127.271 143.432 128.373 143.983 129.182C145.086 130.799 147.401 131.423 149.165 130.615C149.9 130.248 150.598 129.696 151.406 129.733C152.215 129.807 152.839 130.505 153.648 130.688C154.677 130.909 155.706 130.137 156.33 129.292C156.955 128.447 157.433 127.418 158.241 126.72C159.307 125.801 160.777 125.581 162.1 125.176C165.04 124.221 167.502 121.943 168.714 119.076C169.927 116.21 169.817 112.866 168.457 110.073" fill="#263238"/>
<path d="M148.504 119.04C148.21 118.709 147.769 118.415 147.364 118.268H147.438C147.364 118.231 147.254 118.231 147.181 118.231C146.85 118.158 146.556 118.158 146.262 118.341C145.747 118.525 145.306 118.893 145.049 119.37C144.608 120.179 144.755 121.245 145.306 122.016C145.784 122.678 146.629 123.119 147.401 122.935C148.136 122.788 148.687 122.126 148.871 121.392C149.165 120.546 149.055 119.628 148.504 119.04Z" fill="#455A64"/>
<path d="M167.245 135.061L169.193 107.023C169.266 105.774 168.384 104.708 167.172 104.524L154.677 100.776C150.635 100.188 147.732 105.039 147.328 109.081C146.85 113.564 146.446 119.076 146.85 122.494C147.622 129.329 153.208 130.431 153.208 130.431C153.208 130.395 153.134 137.377 153.061 139.839L151.407 147.445L167.245 135.061Z" fill="#FFCAA3"/>
<path d="M148.614 114.115C148.577 114.556 148.945 114.997 149.422 115.034C149.9 115.071 150.304 114.74 150.341 114.299C150.378 113.858 150.01 113.417 149.533 113.38C149.055 113.344 148.651 113.674 148.614 114.115Z" fill="#263238"/>
<path d="M148.394 111.58C148.504 111.69 149.166 111.249 150.121 111.286C151.04 111.323 151.738 111.837 151.812 111.727C151.848 111.69 151.775 111.47 151.481 111.249C151.187 111.029 150.709 110.771 150.121 110.771C149.533 110.735 149.055 110.955 148.762 111.139C148.468 111.323 148.357 111.506 148.394 111.58Z" fill="#263238"/>
<path d="M157.029 114.777C156.993 115.218 157.36 115.659 157.838 115.695C158.316 115.732 158.72 115.402 158.757 114.961C158.793 114.52 158.426 114.079 157.948 114.042C157.507 114.005 157.066 114.336 157.029 114.777Z" fill="#263238"/>
<path d="M157.58 112.131C157.69 112.241 158.352 111.8 159.307 111.837C160.226 111.874 160.924 112.388 160.997 112.278C161.034 112.241 160.961 112.021 160.667 111.8C160.373 111.58 159.895 111.323 159.307 111.323C158.719 111.286 158.241 111.506 157.947 111.69C157.617 111.874 157.506 112.094 157.58 112.131Z" fill="#263238"/>
<path d="M153.869 118.929C153.869 118.893 153.281 118.746 152.362 118.599C152.142 118.562 151.884 118.488 151.884 118.341C151.848 118.158 151.958 117.9 152.068 117.643C152.325 117.092 152.583 116.467 152.84 115.842C153.942 113.307 154.714 111.212 154.64 111.176C154.53 111.139 153.575 113.16 152.472 115.695C152.215 116.32 151.958 116.908 151.701 117.496C151.59 117.753 151.443 118.047 151.554 118.415C151.627 118.599 151.774 118.746 151.921 118.782C152.068 118.819 152.215 118.856 152.325 118.856C153.281 118.929 153.869 118.966 153.869 118.929Z" fill="#263238"/>
<path d="M153.097 130.431C153.097 130.431 157.249 130.909 161.879 128.373C161.879 128.373 159.858 133.371 153.097 132.452V130.431Z" fill="#6F4439"/>
<path d="M153.943 121.134C154.42 120.509 155.192 120.142 155.89 120.215C156.368 120.252 156.846 120.509 157.103 120.95C157.36 121.391 157.324 122.016 157.03 122.457C156.662 122.935 156.001 123.082 155.486 122.935C154.972 122.788 154.531 122.42 154.163 122.016C154.053 121.906 153.943 121.796 153.869 121.649C153.796 121.502 153.833 121.318 153.943 121.171" fill="#6F4439"/>
<path d="M156.588 119.664C156.441 119.664 156.404 120.656 155.485 121.355C154.603 122.053 153.501 121.869 153.501 122.016C153.501 122.09 153.721 122.237 154.199 122.273C154.64 122.31 155.302 122.2 155.853 121.759C156.404 121.355 156.661 120.767 156.698 120.363C156.772 119.922 156.661 119.664 156.588 119.664Z" fill="#263238"/>
<path d="M157.323 108.273C157.396 108.53 158.352 108.456 159.417 108.64C160.52 108.787 161.365 109.154 161.549 108.934C161.622 108.824 161.475 108.566 161.145 108.309C160.814 108.052 160.263 107.795 159.601 107.685C158.94 107.574 158.352 107.648 157.948 107.795C157.507 107.942 157.286 108.162 157.323 108.273Z" fill="#263238"/>
<path d="M148.871 108.346C149.018 108.566 149.679 108.383 150.451 108.383C151.223 108.383 151.884 108.603 152.031 108.383C152.105 108.272 151.995 108.052 151.737 107.831C151.48 107.611 151.002 107.427 150.451 107.427C149.937 107.427 149.459 107.611 149.165 107.795C148.908 108.052 148.797 108.272 148.871 108.346Z" fill="#263238"/>
<path d="M142.771 107.133C143.102 106.141 143.69 105.149 144.608 104.598C145.086 104.304 145.674 104.083 146.115 103.752C147.107 102.981 147.364 101.621 147.989 100.519C148.797 99.1223 150.304 98.1301 151.921 97.9831C153.281 97.8729 154.64 98.2771 155.963 97.9831C156.919 97.7626 157.801 97.1379 158.756 96.9542C160.667 96.6234 162.431 98.0198 163.79 99.4163C163.79 100.776 162.688 101.695 161.622 102.54C160.557 103.385 159.123 103.752 157.764 103.495C156.735 103.275 155.596 102.76 154.677 103.275C153.722 103.863 153.648 105.259 152.803 105.994C151.59 107.023 149.679 106.031 148.136 106.435C146.96 106.766 146.188 107.868 145.417 108.824C144.608 109.742 143.432 110.661 142.256 110.294C142.367 109.228 142.44 108.162 142.771 107.133Z" fill="#263238"/>
<path d="M157.176 101.584C158.022 101.364 159.785 100.813 160.263 100.078C161.292 98.4976 163.056 97.3952 164.857 97.5422C166.657 97.6524 168.348 99.1223 168.678 100.996C170.847 101.033 172.941 102.43 173.97 104.524C174.08 104.781 174.191 105.039 174.301 105.333C174.962 106.545 175.072 108.015 174.558 109.301C174.264 110.073 173.75 110.918 174.117 111.653C174.521 112.388 175.55 112.425 176.322 112.719C177.718 113.233 178.563 114.814 178.233 116.247C178.123 116.761 177.865 117.276 177.976 117.79C178.086 118.341 178.527 118.709 178.894 119.15C179.739 120.215 179.997 121.722 179.519 123.008C179.041 124.294 177.865 125.25 176.506 125.47C175.881 125.581 175.219 125.544 174.705 125.838C174.08 126.205 173.823 126.94 173.382 127.491C172.537 128.557 170.994 129.035 169.707 128.594C169.45 128.52 169.193 128.373 168.972 128.226C168.568 128.778 167.907 129.145 166.804 129.145L167.282 114.85C167.135 115.144 166.878 115.402 166.4 115.512C164.085 115.989 163.828 111.286 164.379 110C163.57 109.265 162.725 108.493 162.101 107.538C161.476 106.582 160.961 104.047 161.108 102.871C160.3 102.907 156.809 101.695 157.176 101.584Z" fill="#263238"/>
<path d="M166.657 115.953C166.768 114.52 168.532 114.226 169.781 114.96C170.479 115.365 170.994 116.173 170.883 117.717C170.663 121.832 166.584 120.73 166.584 120.62C166.584 120.583 166.547 117.68 166.657 115.953Z" fill="#FFCAA3"/>
<path d="M167.943 119.15C167.98 119.15 168.017 119.187 168.127 119.26C168.237 119.334 168.458 119.37 168.678 119.297C169.119 119.15 169.524 118.488 169.597 117.753C169.634 117.386 169.56 117.018 169.45 116.724C169.34 116.43 169.156 116.21 168.936 116.137C168.715 116.063 168.568 116.21 168.495 116.32C168.421 116.43 168.458 116.504 168.421 116.504C168.421 116.504 168.348 116.43 168.384 116.247C168.421 116.173 168.458 116.063 168.568 115.99C168.678 115.916 168.825 115.879 168.972 115.916C169.303 115.953 169.56 116.247 169.671 116.577C169.818 116.908 169.891 117.312 169.854 117.753C169.781 118.562 169.303 119.334 168.715 119.481C168.421 119.554 168.201 119.444 168.054 119.334C167.943 119.26 167.907 119.187 167.943 119.15Z" fill="#6F4439"/>
<path d="M162.872 100.556C162.836 100.592 163.276 100.666 163.681 101.254C164.085 101.805 164.232 102.907 163.938 104.083L163.901 104.194L164.011 104.23C165.04 104.488 166.143 105.333 166.621 106.619C166.731 106.95 166.804 107.28 166.804 107.611C166.804 107.942 166.731 108.309 166.657 108.714C166.584 109.081 166.51 109.485 166.474 109.889C166.437 110.294 166.547 110.771 166.768 111.102C167.282 111.874 168.09 112.278 168.789 112.645C169.524 113.013 170.185 113.38 170.663 113.932C171.692 114.961 172.133 116.32 172.133 117.386C172.169 118.488 171.839 119.37 171.545 119.922C171.251 120.473 171.03 120.73 171.067 120.767C171.067 120.767 171.14 120.693 171.251 120.583C171.361 120.436 171.508 120.252 171.655 119.995C171.986 119.444 172.353 118.562 172.353 117.423C172.353 116.284 171.912 114.887 170.846 113.785C170.332 113.233 169.597 112.829 168.899 112.425C168.201 112.058 167.429 111.653 166.988 110.955C166.547 110.33 166.768 109.522 166.878 108.787C166.951 108.42 167.025 108.052 167.025 107.648C167.025 107.244 166.914 106.876 166.804 106.545C166.253 105.186 165.077 104.341 163.975 104.047L164.048 104.194C164.305 102.944 164.122 101.805 163.681 101.217C163.46 100.923 163.203 100.776 163.056 100.666C162.946 100.592 162.872 100.556 162.872 100.556Z" fill="#455A64"/>
<path d="M169.45 120.73C169.156 120.399 168.715 120.105 168.311 119.958H168.384C168.311 119.921 168.2 119.921 168.127 119.921C167.796 119.848 167.502 119.848 167.208 120.032C166.694 120.215 166.253 120.583 165.996 121.061C165.555 121.869 165.702 122.935 166.253 123.706C166.73 124.368 167.576 124.809 168.347 124.625C169.082 124.478 169.634 123.817 169.817 123.082C170.111 122.237 170.001 121.318 169.45 120.73Z" fill="#455A64"/>
<path d="M120.686 157.735C120.686 157.735 121.825 157.147 122.781 157.367C123.773 157.588 127.374 159.94 127.374 159.94L132.372 161.593L130.204 170.927L126.676 169.347L120.686 172.25V157.735Z" fill="#FFCAA3"/>
<path d="M111.573 159.94C111.573 159.94 114.292 159.609 115.284 159.094C116.276 158.617 118.628 156.522 119.143 156.559C119.62 156.596 122.523 157.331 122.523 157.331L120.686 159.094C120.686 159.094 124.251 161.263 125.316 162.071C126.382 162.879 129.726 166.444 129.873 167.326C130.02 168.208 129.763 169.237 129.322 169.567C128.918 169.898 127.374 169.237 127.374 169.237C127.374 169.237 127.595 170.045 127.043 170.78C126.455 171.552 125.133 171.258 125.133 171.258C125.133 171.258 125.022 172.507 124.398 172.728C123.773 172.948 122.413 172.287 122.413 172.287C122.413 172.287 122.009 173.352 121.495 173.463C120.98 173.573 119.584 172.728 119.584 172.728C119.584 172.728 113.484 168.355 112.124 167.693C110.764 167.032 110.323 166.995 110.323 166.995L111.573 159.94Z" fill="#FFBF9D"/>
<path d="M122.487 172.323C122.45 172.323 122.45 172.213 122.376 172.066C122.303 171.919 122.193 171.699 122.082 171.441C121.825 170.964 121.568 170.596 121.605 170.56C121.641 170.523 121.935 170.854 122.229 171.331C122.376 171.588 122.45 171.809 122.487 171.993C122.523 172.213 122.487 172.323 122.487 172.323Z" fill="#FF9A6C"/>
<path d="M125.022 171.588C124.985 171.625 124.691 171.074 124.25 170.449C123.846 169.825 123.405 169.384 123.405 169.347C123.442 169.31 123.956 169.678 124.397 170.339C124.838 170.964 125.058 171.552 125.022 171.588Z" fill="#FF9A6C"/>
<path d="M127.447 169.384C127.41 169.384 127.227 168.722 126.786 168.024C126.381 167.326 125.867 166.848 125.904 166.811C125.94 166.775 126.492 167.216 126.933 167.951C127.41 168.685 127.521 169.384 127.447 169.384Z" fill="#FF9A6C"/>
<path d="M125.684 164.606C125.721 164.606 125.868 165.047 125.904 165.635C125.941 166.223 125.831 166.664 125.794 166.664C125.757 166.664 125.757 166.187 125.721 165.635C125.684 165.084 125.61 164.643 125.684 164.606Z" fill="#FF9A6C"/>
<path d="M116.791 161.189C116.791 161.189 117.746 158.139 118.077 157.772C118.407 157.404 122.486 157.331 122.486 157.331L122.597 159.094L121.898 159.829L120.392 159.719C120.392 159.756 119.436 162.255 116.791 161.189Z" fill="#FFCAA3"/>
<path d="M112.307 167.73C112.307 167.73 111.903 168.024 112.307 168.759C112.711 169.494 113.777 168.98 114.108 168.759C114.108 168.759 113.593 169.972 114.255 170.339C114.916 170.707 115.688 170.633 115.688 170.633C115.688 170.633 115.651 171.368 116.57 171.846C117.489 172.324 117.746 171.846 117.746 171.846C117.746 171.846 117.856 173.022 118.922 173.169C119.73 173.242 120.061 173.059 120.061 173.059L119.657 172.838C119.657 172.838 120.502 170.964 120.024 170.413C119.546 169.861 118.738 169.935 118.738 169.935C118.738 169.935 118.958 168.833 118.334 168.502C117.195 167.914 116.717 169.016 116.717 169.016C116.717 169.016 116.643 167.804 115.761 167.804C114.879 167.84 114.365 168.392 114.365 168.392L112.307 167.73Z" fill="#FFCAA3"/>
<path d="M116.717 168.906C116.754 168.943 116.57 169.347 116.313 169.825C116.019 170.302 115.761 170.67 115.725 170.633C115.688 170.596 115.908 170.229 116.202 169.751C116.46 169.273 116.68 168.906 116.717 168.906Z" fill="#6F4439"/>
<path d="M118.775 169.898C118.812 169.898 118.665 170.376 118.371 170.89C118.077 171.405 117.746 171.772 117.709 171.736C117.672 171.699 117.93 171.331 118.224 170.817C118.518 170.302 118.738 169.861 118.775 169.898Z" fill="#6F4439"/>
<path d="M106.795 183.789H101.026L99.5928 203.926L105.509 203.816C106.501 200.619 107.971 184.45 107.971 184.45L106.795 183.789Z" fill="url(#paint0_linear_180_6492)"/>
<path d="M74.0893 183.789C74.0893 183.789 70.3778 192.461 70.7453 195.952C71.1128 199.443 72.8767 203.926 72.8767 203.926L102.054 203.89C102.054 203.89 102.642 201.869 103.23 197.532C103.855 193.196 105.509 183.789 105.509 183.789H74.0893Z" fill="url(#paint1_linear_180_6492)"/>
<path d="M100.805 130.064C100.805 130.064 104.333 144.506 104.848 147.886C105.766 154.06 109.257 180.004 108.78 182.319C108.302 184.597 108.008 186.986 108.008 186.986C108.008 186.986 78.9405 185.148 75.817 185.442C72.6934 185.7 71.3705 185.626 70.5988 182.062C69.8271 178.497 70.6356 159.94 69.9741 155.456C69.3126 150.973 69.3126 148.805 69.0554 142.154C68.8349 136.384 70.1578 131.754 72.8772 128.41C75.6332 125.066 81.6966 121.685 81.6966 121.685L83.8647 118.525L99.4824 126.316L99.7396 123.89L100.401 127.602L100.805 130.064Z" fill="#455A64"/>
<g opacity="0.3">
<path d="M107.897 170.045C107.64 169.384 106.832 169.237 106.134 169.163C99.666 168.428 92.9412 166.848 88.2007 162.365C86.3634 160.601 84.8935 158.506 83.4971 156.375C80.4103 151.745 77.5439 146.968 74.6776 142.227L72.436 143.072C73.7957 149.797 75.1554 154.648 77.397 160.16C79.6386 165.672 81.3657 171.001 87.0248 172.801C90.6996 173.977 97.6449 173.059 101.467 172.765C103.084 172.654 104.664 172.471 106.207 172.03C106.685 171.883 107.126 171.699 107.493 171.368C107.861 171.037 108.081 170.523 107.897 170.045Z" fill="black"/>
</g>
<path d="M75.8905 126.904C70.8561 127.675 67.1814 134.915 67.7693 139.251C67.8061 139.581 65.3807 169.861 70.7459 172.287C75.0086 174.198 90.5161 172.765 97.7186 172.324C99.7029 172.213 101.651 171.736 103.488 170.927C105.546 170.008 108.008 168.906 108.008 168.906C108.008 168.943 111.83 168.061 111.83 168.061C111.83 168.061 113.116 165.011 111.572 159.425L104.223 159.719H85.9226C85.3714 158.874 84.563 158.653 83.6075 158.837L85.5551 138.626" fill="#455A64"/>
<path d="M85.5181 138.663C85.5181 138.663 85.5181 138.773 85.4814 139.03C85.4447 139.251 85.4447 139.618 85.4079 140.059C85.3344 140.978 85.1874 142.301 85.0404 144.065C84.7097 147.556 84.232 152.59 83.644 158.911L83.5705 158.837C83.9747 158.764 84.4157 158.727 84.8567 158.874C85.2977 159.021 85.6651 159.352 85.9224 159.719L85.8489 159.682C89.4501 159.682 93.4189 159.682 97.7183 159.682C99.8864 159.682 102.091 159.682 104.406 159.682C106.685 159.572 109.073 159.499 111.499 159.388H111.572L111.609 159.462C111.976 160.822 112.27 162.218 112.344 163.688C112.417 165.158 112.381 166.701 111.866 168.171V168.208H111.829C111.168 168.355 110.506 168.502 109.808 168.649C109.478 168.722 109.147 168.796 108.779 168.869L108.265 168.98L108.008 169.016C108.008 169.016 107.934 169.016 107.897 168.943C107.861 168.869 107.897 168.869 107.897 168.869H107.861L107.787 168.906L107.677 168.943C107.052 169.237 106.354 169.531 105.729 169.898C105.435 170.082 105.141 170.229 104.847 170.376C104.517 170.523 104.223 170.67 103.892 170.817C102.606 171.405 101.209 171.883 99.7395 172.14C99.0045 172.287 98.2695 172.36 97.5346 172.397C96.7996 172.434 96.0647 172.507 95.3297 172.544C90.1851 172.875 85.1874 173.242 80.3367 173.316C77.9114 173.316 75.5228 173.316 73.2077 172.985C72.6198 172.912 72.0685 172.801 71.4806 172.618C71.1866 172.544 70.9294 172.434 70.6721 172.324C70.3781 172.213 70.1577 171.993 69.9739 171.772C69.5697 171.331 69.3125 170.817 69.0552 170.302C68.8348 169.788 68.651 169.237 68.504 168.686C67.9161 166.517 67.6588 164.349 67.4751 162.255C67.2914 160.16 67.2179 158.102 67.1811 156.118C67.1076 152.149 67.2179 148.438 67.3648 145.094C67.4383 143.403 67.5486 141.823 67.6221 140.28C67.6221 139.912 67.6956 139.508 67.6588 139.177C67.6221 138.81 67.6221 138.442 67.6221 138.075C67.6588 137.34 67.7691 136.678 67.9161 136.017C68.5408 133.408 69.7534 131.35 70.9661 129.917C72.1788 128.484 73.4649 127.675 74.4204 127.308C74.8981 127.124 75.2656 127.014 75.4861 126.977C75.7433 126.94 75.8535 126.904 75.8535 126.904C75.8535 126.904 75.7433 126.94 75.4861 126.977C75.2288 127.051 74.8613 127.124 74.4204 127.308C73.5017 127.675 72.2523 128.484 71.0396 129.917C69.8269 131.35 68.6143 133.408 68.0263 135.98C67.8793 136.642 67.7691 137.303 67.7691 138.038C67.7691 138.406 67.7691 138.736 67.8058 139.104C67.8058 139.508 67.7691 139.839 67.7691 140.243C67.6956 141.75 67.5853 143.366 67.5118 145.057C67.3648 148.438 67.2546 152.112 67.3281 156.081C67.3648 158.066 67.4383 160.123 67.6221 162.218C67.8058 164.313 68.0631 166.481 68.651 168.612C68.945 169.678 69.3492 170.78 70.0842 171.589C70.2679 171.772 70.4884 171.993 70.7456 172.103C71.0029 172.213 71.2601 172.324 71.5541 172.397C72.1053 172.544 72.6565 172.654 73.2445 172.765C75.5596 173.095 77.9481 173.095 80.3735 173.095C85.2242 173.022 90.2218 172.691 95.3665 172.324C96.8364 172.213 98.343 172.213 99.7395 171.919C101.173 171.662 102.532 171.184 103.855 170.596C104.186 170.449 104.517 170.302 104.847 170.155C105.178 170.008 105.546 169.861 105.913 169.751C106.611 169.567 107.199 169.274 107.861 168.98L107.971 168.943L108.044 168.906H108.081C108.044 168.869 108.155 168.943 108.008 168.869C108.044 168.869 108.081 168.906 108.081 168.833C108.044 168.759 108.008 168.759 108.008 168.759L108.265 168.722L108.779 168.612C109.11 168.539 109.441 168.465 109.808 168.392C110.47 168.245 111.168 168.098 111.829 167.951L111.756 167.987C112.234 166.591 112.307 165.048 112.234 163.614C112.123 162.144 111.866 160.748 111.499 159.425L111.572 159.499C109.147 159.609 106.795 159.682 104.48 159.793C102.165 159.829 99.9599 159.793 97.7918 159.793C93.4924 159.793 89.4869 159.793 85.9224 159.756H85.8856L85.8489 159.719C85.5916 159.352 85.2609 159.058 84.8567 158.911C84.4525 158.764 84.0115 158.8 83.644 158.874H83.5705V158.8C84.1952 152.517 84.7097 147.445 85.0404 143.991C85.2242 142.264 85.3344 140.904 85.4446 139.986C85.4814 139.545 85.5181 139.177 85.5549 138.957C85.4814 138.773 85.5181 138.663 85.5181 138.663Z" fill="#263238"/>
<path d="M99.4826 127.455C99.4826 127.455 99.3724 127.381 99.1519 127.271C98.8946 127.124 98.6007 126.94 98.1964 126.72L98.2699 126.683C98.0862 127.638 97.9025 129.072 97.5717 130.762L97.535 130.872L97.4247 130.799C95.9916 129.917 94.3012 128.888 92.5006 127.785C91.1409 126.977 89.8915 126.169 88.7156 125.47C87.5396 124.772 86.474 124.147 85.592 123.67C84.7101 123.192 83.9751 122.788 83.4607 122.494C83.2402 122.347 83.0197 122.237 82.8727 122.163C82.7257 122.09 82.689 122.053 82.689 122.053C82.689 122.053 82.7625 122.09 82.9095 122.126C83.0564 122.2 83.2769 122.31 83.4974 122.42C84.0119 122.678 84.7468 123.082 85.6655 123.56C86.5842 124.037 87.6499 124.662 88.8258 125.323C90.0017 126.022 91.2879 126.83 92.6108 127.638C94.4114 128.741 96.1386 129.77 97.535 130.689L97.4247 130.725C97.7555 129.035 97.976 127.638 98.1964 126.646V126.573L98.2332 126.61C98.6374 126.867 98.9314 127.051 99.1886 127.198C99.3724 127.381 99.4826 127.455 99.4826 127.455Z" fill="#263238"/>
<g opacity="0.3">
<path d="M84.7832 123.192C87.429 125.176 90.0749 127.161 92.7574 129.108C94.5213 130.431 96.2852 131.754 98.3798 132.416C98.3431 130.578 98.3063 128.741 98.2696 126.867L97.4611 130.762L84.7832 123.192Z" fill="black"/>
</g>
<path d="M107.604 169.163C107.604 169.163 107.567 169.016 107.567 168.796C107.567 168.502 107.53 168.171 107.53 167.767C107.493 166.922 107.457 165.709 107.346 164.423C107.236 163.137 107.053 161.961 106.906 161.115C106.759 160.27 106.612 159.756 106.648 159.756C106.648 159.756 106.722 159.866 106.759 160.123C106.832 160.344 106.906 160.674 107.016 161.115C107.2 161.961 107.383 163.137 107.493 164.459C107.604 165.782 107.604 166.958 107.604 167.803C107.604 168.244 107.604 168.575 107.567 168.832C107.64 169.016 107.64 169.163 107.604 169.163Z" fill="#263238"/>
<path d="M82.1375 134.951C82.1008 134.951 81.9538 134.51 81.6598 133.775C81.3291 133.077 80.8146 132.122 80.0797 131.203C79.3447 130.284 78.4995 129.586 77.8748 129.108C77.2501 128.668 76.8091 128.41 76.8459 128.374C76.8459 128.374 76.9561 128.41 77.1766 128.521C77.3604 128.631 77.6543 128.778 77.9851 128.998C78.6465 129.439 79.4917 130.137 80.2634 131.056C81.0351 132.012 81.5496 132.967 81.8068 133.702C81.9538 134.069 82.064 134.363 82.1008 134.584C82.1008 134.841 82.1375 134.951 82.1375 134.951Z" fill="#263238"/>
<path d="M132.555 160.748C131.049 160.417 151.076 165.709 151.223 165.709L160.741 162.659L152.583 179.563L129.946 172.03L132.555 160.748Z" fill="#FF7A1A"/>
<g opacity="0.3">
<path d="M141.558 163.173L139.868 162.732L137.883 174.675L141.301 175.815L141.558 163.173Z" fill="black"/>
</g>
<path d="M151.738 142.889L152.363 135.135L167.87 129.219L168.421 132.122L157.875 137.009L151.738 142.889Z" fill="#E0E0E0"/>
<path d="M169.229 133.481C169.229 133.481 173.198 139.692 174.41 144.359C175.733 149.393 174.594 158.249 174.594 158.249L170.111 178.277C170.111 178.277 171.066 179.489 171.25 180.922C171.434 182.356 169.854 183.972 169.854 183.972C169.854 183.972 169.155 183.568 171.801 188.309C174.447 193.049 174.594 203.89 174.594 203.89H135.201C137.075 194.703 140.897 180.077 140.897 179.857C140.897 179.6 140.933 169.714 140.933 169.714C140.933 169.714 140.75 160.123 141.632 156.669C142.513 153.215 150.745 140.5 154.714 137.266C158.94 133.849 168.42 130.321 168.42 130.321L169.229 133.481Z" fill="#FF7A1A"/>
<path d="M143.065 189.485C142.955 189.08 146.005 184.12 146.005 184.12L163.497 186.802L164.709 191.285L143.065 189.485Z" fill="#FF7A1A"/>
<path d="M143.065 189.485C143.065 189.485 143.102 189.485 143.176 189.485C143.249 189.485 143.359 189.485 143.506 189.521C143.8 189.558 144.205 189.558 144.756 189.632C145.821 189.705 147.402 189.852 149.349 189.999C153.244 190.33 158.646 190.771 164.746 191.249L164.673 191.322C164.379 190.22 164.085 189.08 163.754 187.941C163.644 187.574 163.571 187.206 163.46 186.839L163.534 186.912C156.552 185.847 150.341 184.854 146.042 184.193L146.115 184.156C145.087 185.81 144.315 187.133 143.8 188.052C143.543 188.529 143.359 188.86 143.249 189.117C143.176 189.227 143.139 189.338 143.139 189.411C143.065 189.485 143.065 189.485 143.065 189.485C143.065 189.485 143.065 189.338 143.176 189.08C143.286 188.823 143.47 188.456 143.69 187.978C144.168 187.059 144.94 185.7 145.968 184.083L146.005 184.046H146.042C150.341 184.707 156.589 185.663 163.571 186.692H163.607V186.729C163.718 187.096 163.791 187.464 163.901 187.831C164.232 189.007 164.526 190.146 164.82 191.212L164.857 191.322H164.746C158.61 190.808 153.171 190.33 149.313 189.999C147.365 189.815 145.821 189.705 144.756 189.595C144.241 189.558 143.837 189.521 143.543 189.485C143.396 189.485 143.323 189.448 143.212 189.448C143.102 189.521 143.065 189.521 143.065 189.485Z" fill="#263238"/>
<path d="M169.229 133.481C169.229 133.481 169.192 133.481 169.119 133.518C169.045 133.555 168.935 133.555 168.788 133.592C168.494 133.665 168.09 133.775 167.539 133.886C166.473 134.18 164.93 134.584 163.092 135.245C162.651 135.429 162.174 135.613 161.659 135.797C161.402 135.907 161.181 136.017 160.924 136.127C160.814 136.201 160.667 136.238 160.557 136.311C160.446 136.385 160.299 136.458 160.189 136.531C159.27 137.156 158.425 138.038 157.58 138.92C155.853 140.721 154.126 142.815 152.325 145.057C150.525 147.299 148.871 149.43 147.401 151.414C146.666 152.406 145.968 153.362 145.306 154.244C144.645 155.126 144.094 155.971 143.653 156.779C142.771 158.396 142.256 159.793 141.926 160.748C141.742 161.226 141.632 161.593 141.558 161.851C141.521 161.961 141.485 162.071 141.448 162.145C141.411 162.218 141.411 162.255 141.411 162.255C141.411 162.255 141.411 162.218 141.448 162.145C141.485 162.071 141.485 161.961 141.521 161.851C141.595 161.593 141.705 161.226 141.852 160.711C142.183 159.756 142.697 158.36 143.542 156.706C143.983 155.897 144.571 155.052 145.196 154.134C145.821 153.252 146.519 152.296 147.254 151.304C148.724 149.32 150.378 147.152 152.178 144.947C153.979 142.705 155.743 140.61 157.433 138.81C158.315 137.928 159.16 137.046 160.079 136.421C160.189 136.348 160.336 136.274 160.446 136.201C160.557 136.127 160.704 136.091 160.814 136.017C161.071 135.907 161.328 135.797 161.549 135.686C162.027 135.466 162.504 135.282 162.982 135.135C164.819 134.474 166.399 134.069 167.465 133.812C168.016 133.665 168.421 133.592 168.715 133.518C168.862 133.481 168.972 133.481 169.045 133.445C169.192 133.481 169.229 133.481 169.229 133.481Z" fill="#263238"/>
<path d="M166.768 182.282C166.768 182.282 166.584 182.209 166.29 182.025C165.996 181.841 165.555 181.584 165.04 181.253C163.975 180.592 162.615 179.563 161.219 178.313C159.822 177.064 158.72 175.778 157.985 174.822C157.617 174.345 157.323 173.94 157.14 173.683C156.956 173.389 156.846 173.242 156.846 173.242C156.846 173.242 156.956 173.389 157.176 173.646C157.36 173.904 157.691 174.308 158.058 174.786C158.83 175.704 159.932 176.954 161.329 178.24C162.725 179.489 164.085 180.518 165.114 181.18C165.628 181.51 166.033 181.804 166.363 181.988C166.621 182.172 166.768 182.282 166.768 182.282Z" fill="#263238"/>
<g opacity="0.3">
<path d="M143.616 189.558L144.167 191.322L163.974 191.248L143.616 189.558Z" fill="black"/>
</g>
<path d="M152.84 148.07L153.207 176.733L148.356 203.926H161.145C161.145 203.926 166.767 183.421 168.127 178.975C169.413 174.639 171.36 152.884 171.544 151.818C171.618 151.414 172.977 143.881 168.972 140.316" fill="#FF7A1A"/>
<path d="M168.935 140.316C168.935 140.316 169.009 140.39 169.193 140.537C169.266 140.61 169.376 140.721 169.487 140.831C169.56 140.904 169.597 140.941 169.67 141.015C169.744 141.088 169.781 141.162 169.854 141.272C170.405 141.933 171.067 143.072 171.434 144.689C171.839 146.306 171.986 148.364 171.728 150.679C171.655 151.267 171.545 151.855 171.508 152.48C171.434 153.105 171.398 153.766 171.324 154.427C171.177 155.75 171.067 157.147 170.92 158.617C170.626 161.557 170.295 164.79 169.891 168.245C169.67 169.972 169.45 171.772 169.193 173.61C169.082 174.528 168.935 175.447 168.752 176.403C168.678 176.88 168.568 177.358 168.494 177.836C168.384 178.313 168.274 178.791 168.127 179.269C166.032 186.839 163.681 195.144 161.255 203.926L161.218 204H161.145C160.594 204 159.969 204 159.381 204C155.633 204 151.958 204 148.357 204H148.247L148.283 203.89C150.084 193.858 151.738 184.597 153.171 176.696C153.061 168.024 152.987 160.858 152.914 155.861C152.877 153.362 152.877 151.414 152.84 150.091C152.84 149.43 152.84 148.915 152.84 148.585C152.84 148.254 152.84 148.07 152.84 148.07C152.84 148.07 152.84 148.254 152.877 148.585C152.877 148.915 152.877 149.43 152.914 150.091C152.95 151.414 152.987 153.399 153.024 155.861C153.097 160.858 153.208 168.024 153.318 176.696C151.921 184.634 150.268 193.894 148.467 203.926L148.357 203.816C151.921 203.816 155.633 203.816 159.381 203.816C159.969 203.816 160.594 203.816 161.145 203.816L161.035 203.89C163.497 195.144 165.812 186.802 167.943 179.232C168.09 178.754 168.201 178.277 168.311 177.836C168.384 177.358 168.494 176.88 168.568 176.403C168.715 175.447 168.862 174.528 169.009 173.61C169.266 171.772 169.487 169.972 169.707 168.245C170.111 164.79 170.479 161.557 170.773 158.617C170.92 157.147 171.067 155.75 171.214 154.427C171.287 153.766 171.361 153.105 171.398 152.48C171.471 151.855 171.581 151.267 171.618 150.679C171.875 148.364 171.728 146.306 171.361 144.726C170.993 143.109 170.369 141.97 169.817 141.309C169.744 141.235 169.707 141.125 169.634 141.051C169.56 140.978 169.523 140.904 169.45 140.868C169.34 140.757 169.229 140.647 169.156 140.574C169.009 140.427 168.935 140.316 168.935 140.316Z" fill="#263238"/>
<path d="M165.518 139.508C165.518 139.545 164.893 139.398 163.938 139.398C162.946 139.398 161.586 139.582 160.226 140.206C158.867 140.831 157.838 141.786 157.25 142.558C156.625 143.33 156.368 143.881 156.331 143.881C156.331 143.881 156.368 143.734 156.515 143.477C156.662 143.22 156.846 142.889 157.14 142.485C157.727 141.676 158.756 140.684 160.153 140.059C161.549 139.398 162.946 139.251 163.938 139.288C164.452 139.324 164.856 139.361 165.114 139.435C165.371 139.435 165.518 139.471 165.518 139.508Z" fill="#263238"/>
<defs>
<linearGradient id="paint0_linear_180_6492" x1="104.888" y1="181.912" x2="87.2053" y2="193.079" gradientUnits="userSpaceOnUse">
<stop/>
<stop offset="1" stop-color="#B9B9B9"/>
</linearGradient>
<linearGradient id="paint1_linear_180_6492" x1="92.7044" y1="181.912" x2="79.6638" y2="216.106" gradientUnits="userSpaceOnUse">
<stop/>
<stop offset="1" stop-color="#B9B9B9"/>
</linearGradient>
</defs>
</svg>
