<svg width="252" height="240" viewBox="0 0 252 240" fill="none" xmlns="http://www.w3.org/2000/svg">
<g clip-path="url(#clip0_180_5445)">
<path d="M240.243 209.733H221.232V209.877H240.243V209.733Z" fill="#EBEBEB"/>
<path d="M172.12 211.295H167.132V211.438H172.12V211.295Z" fill="#EBEBEB"/>
<path d="M220.658 204.406H209.643V204.55H220.658V204.406Z" fill="#EBEBEB"/>
<path d="M36.9029 205.371H12.1118V205.514H36.9029V205.371Z" fill="#EBEBEB"/>
<path d="M45.651 205.371H42.0176V205.514H45.651V205.371Z" fill="#EBEBEB"/>
<path d="M111.236 207.793H57.4639V207.937H111.236V207.793Z" fill="#EBEBEB"/>
<path d="M118.842 174.897H8.00215C7.13289 174.897 6.29924 174.552 5.68458 173.937C5.06992 173.323 4.72461 172.489 4.72461 171.62V15.8188C4.73218 14.9545 5.08083 14.1282 5.69467 13.5197C6.30851 12.9113 7.13784 12.5699 8.00215 12.5699H118.842C119.272 12.5699 119.698 12.6547 120.096 12.8194C120.493 12.9841 120.855 13.2256 121.159 13.5299C121.463 13.8343 121.705 14.1956 121.87 14.5932C122.034 14.9909 122.119 15.4171 122.119 15.8475V171.62C122.119 172.05 122.034 172.476 121.87 172.874C121.705 173.272 121.463 173.633 121.159 173.937C120.855 174.242 120.493 174.483 120.096 174.648C119.698 174.812 119.272 174.897 118.842 174.897ZM8.00215 12.6847C7.17142 12.6863 6.37514 13.0169 5.78772 13.6044C5.20031 14.1918 4.86963 14.9881 4.86811 15.8188V171.62C4.86963 172.45 5.20031 173.247 5.78772 173.834C6.37514 174.421 7.17142 174.752 8.00215 174.754H118.842C119.672 174.752 120.469 174.421 121.056 173.834C121.643 173.247 121.974 172.45 121.976 171.62V15.8188C121.974 14.9881 121.643 14.1918 121.056 13.6044C120.469 13.0169 119.672 12.6863 118.842 12.6847H8.00215Z" fill="#EBEBEB"/>
<path d="M242.998 174.897H132.158C131.289 174.897 130.455 174.552 129.841 173.937C129.226 173.323 128.881 172.489 128.881 171.62V15.8188C128.888 14.9545 129.237 14.1282 129.851 13.5197C130.465 12.9113 131.294 12.5699 132.158 12.5699H242.998C243.867 12.5699 244.701 12.9153 245.315 13.5299C245.93 14.1446 246.275 14.9782 246.275 15.8475V171.62C246.275 172.489 245.93 173.323 245.315 173.937C244.701 174.552 243.867 174.897 242.998 174.897ZM132.158 12.6847C131.328 12.6863 130.531 13.0169 129.944 13.6044C129.357 14.1918 129.026 14.9881 129.024 15.8188V171.62C129.026 172.45 129.357 173.247 129.944 173.834C130.531 174.421 131.328 174.752 132.158 174.754H242.998C243.829 174.752 244.625 174.421 245.212 173.834C245.8 173.247 246.13 172.45 246.132 171.62V15.8188C246.13 14.9881 245.8 14.1918 245.212 13.6044C244.625 13.0169 243.829 12.6863 242.998 12.6847H132.158Z" fill="#EBEBEB"/>
<path d="M269 200.498H-18V200.641H269V200.498Z" fill="#EBEBEB"/>
<path d="M57.0103 48.9845L61.1947 46.2982L63.4792 50.718L68.4501 50.4884L68.2205 55.4593L72.6403 57.7438L69.954 61.9282L72.6403 66.1184L68.2205 68.403L68.4501 73.3738L63.4792 73.1442L61.1947 77.564L57.0103 74.8777L52.8201 77.564L50.5356 73.1442L45.5647 73.3738L45.7943 68.403L41.3745 66.1184L44.0608 61.9282L41.3745 57.7438L45.7943 55.4593L45.5647 50.4884L50.5356 50.718L52.8201 46.2982L57.0103 48.9845Z" fill="#E6E6E6"/>
<path d="M55.4201 68.3226L50.4435 63.346C50.1705 63.0726 50.0171 62.702 50.0171 62.3157C50.0171 61.9293 50.1705 61.5587 50.4435 61.2853C50.7169 61.0123 51.0875 60.8589 51.4738 60.8589C51.8602 60.8589 52.2308 61.0123 52.5042 61.2853L55.4201 64.2013L61.5102 58.1111C61.7836 57.8381 62.1542 57.6847 62.5406 57.6847C62.9269 57.6847 63.2975 57.8381 63.5709 58.1111C63.8439 58.3845 63.9973 58.7551 63.9973 59.1414C63.9973 59.5278 63.8439 59.8984 63.5709 60.1718L55.4201 68.3226Z" fill="#FAFAFA"/>
<path d="M212.668 92.9186L215.951 90.812L217.742 94.279L221.645 94.0953L221.462 97.9928L224.929 99.7836L222.822 103.073L224.929 106.356L221.462 108.147L221.645 112.044L217.742 111.866L215.951 115.333L212.668 113.227L209.385 115.333L207.594 111.866L203.696 112.044L203.874 108.147L200.407 106.356L202.514 103.073L200.407 99.7836L203.874 97.9928L203.696 94.0953L207.594 94.279L209.385 90.812L212.668 92.9186Z" fill="#E6E6E6"/>
<path d="M211.422 108.084L207.519 104.18C207.307 103.966 207.188 103.676 207.188 103.374C207.188 103.072 207.307 102.782 207.519 102.567C207.734 102.354 208.025 102.234 208.328 102.234C208.632 102.234 208.923 102.354 209.138 102.567L211.434 104.863L216.209 100.088C216.424 99.8739 216.715 99.7539 217.019 99.7539C217.322 99.7539 217.613 99.8739 217.828 100.088C218.042 100.303 218.162 100.594 218.162 100.897C218.162 101.2 218.042 101.491 217.828 101.706L211.422 108.084Z" fill="#FAFAFA"/>
<path d="M57.4291 148.034L63.8292 151.3C64.3565 151.567 64.9562 151.655 65.538 151.552C66.1198 151.448 66.6522 151.158 67.0551 150.726L71.9513 145.468C72.2349 145.164 72.4446 144.799 72.5641 144.401C72.6836 144.003 72.7096 143.582 72.6401 143.172L70.0973 128.73C69.8957 127.598 69.2532 126.591 68.3106 125.932C67.368 125.272 66.2023 125.013 65.0691 125.212L56.9642 126.641C56.403 126.74 55.8668 126.949 55.3862 127.255C54.9057 127.561 54.4902 127.959 54.1634 128.426C53.8367 128.893 53.6051 129.42 53.482 129.976C53.3588 130.533 53.3464 131.108 53.4456 131.669L55.9884 146.105C56.0649 146.516 56.2346 146.903 56.4844 147.237C56.7342 147.572 57.0574 147.844 57.4291 148.034ZM64.7189 146.886C64.9852 146.838 65.2598 146.87 65.5079 146.978C65.756 147.086 65.9665 147.265 66.1126 147.493C66.2587 147.72 66.3339 147.986 66.3286 148.257C66.3233 148.527 66.2378 148.79 66.0828 149.012C65.9279 149.234 65.7106 149.405 65.4585 149.503C65.2063 149.601 64.9307 149.622 64.6665 149.564C64.4023 149.505 64.1616 149.369 63.9747 149.174C63.7878 148.978 63.6633 148.731 63.6168 148.465C63.555 148.109 63.6361 147.744 63.8426 147.448C64.0491 147.152 64.3641 146.95 64.7189 146.886Z" fill="#E6E6E6"/>
<path d="M57.7422 143.558L70.1274 141.375L69.8912 140.035L57.5059 142.219L57.7422 143.558Z" fill="#FAFAFA"/>
<path d="M55.6445 131.653L68.0298 129.469L67.7936 128.13L55.4083 130.314L55.6445 131.653Z" fill="#FAFAFA"/>
<path d="M79.3043 54.5523L83.7126 59.282C84.0748 59.6704 84.5535 59.9303 85.0765 60.0224C85.5994 60.1146 86.1382 60.034 86.6113 59.7929L92.3513 56.854C92.689 56.6834 92.9821 56.4363 93.2073 56.1323C93.4326 55.8284 93.5836 55.476 93.6485 55.1033L95.9445 42.1194C96.1231 41.1011 95.8904 40.0535 95.2974 39.2066C94.7045 38.3597 93.7998 37.7826 92.7818 37.602L85.4977 36.3163C84.4779 36.1377 83.4289 36.3711 82.5809 36.9651C81.7329 37.5591 81.1552 38.4653 80.9746 39.4848L78.6786 52.4629C78.6127 52.8358 78.635 53.219 78.7437 53.5818C78.8523 53.9446 79.0443 54.2769 79.3043 54.5523ZM85.8077 55.8495C86.0473 55.8906 86.2693 56.0019 86.4457 56.1693C86.622 56.3367 86.7446 56.5527 86.7981 56.7899C86.8516 57.027 86.8335 57.2747 86.7462 57.5016C86.6588 57.7285 86.506 57.9243 86.3073 58.0644C86.1085 58.2044 85.8727 58.2822 85.6296 58.2881C85.3866 58.294 85.1473 58.2277 84.942 58.0975C84.7366 57.9672 84.5746 57.779 84.4763 57.5566C84.3781 57.3343 84.348 57.0877 84.3899 56.8483C84.446 56.5281 84.6267 56.2431 84.8925 56.0559C85.1582 55.8687 85.4873 55.7945 85.8077 55.8495Z" fill="#F0F0F0"/>
<path d="M80.9504 50.875L92.0864 52.8386L92.2987 51.6346L81.1627 49.671L80.9504 50.875Z" fill="#FAFAFA"/>
<path d="M83.1591 40.86L94.2407 42.7823L94.4486 41.5842L83.3669 39.6619L83.1591 40.86Z" fill="#FAFAFA"/>
<path d="M185.988 40.5525C185.173 39.3885 183.93 38.5957 182.53 38.3481C181.131 38.1006 179.691 38.4186 178.526 39.2323L176.23 40.8223L174.635 38.5263C173.818 37.3648 172.574 36.574 171.176 36.3266C169.778 36.0792 168.338 36.3954 167.173 37.2061C166.011 38.023 165.22 39.2665 164.973 40.6647C164.725 42.063 165.042 43.5023 165.852 44.6681L173.607 55.7406L184.685 47.9858C185.837 47.1677 186.62 45.9285 186.864 44.5369C187.108 43.1453 186.793 41.7136 185.988 40.5525Z" fill="#EBEBEB"/>
<path d="M201.911 41.5856C201.714 41.3019 201.462 41.0599 201.171 40.8736C200.88 40.6873 200.555 40.5604 200.215 40.5002C199.874 40.4399 199.526 40.4474 199.188 40.5224C198.851 40.5974 198.532 40.7383 198.249 40.937L197.135 41.7176L196.355 40.6041C195.954 40.0335 195.344 39.6449 194.658 39.5233C193.971 39.4017 193.265 39.5571 192.692 39.9555C192.122 40.3578 191.735 40.9695 191.614 41.6568C191.494 42.344 191.65 43.0511 192.05 43.6233L195.844 49.0419L201.268 45.2477C201.551 45.05 201.793 44.7983 201.979 44.507C202.164 44.2157 202.291 43.8905 202.35 43.5503C202.41 43.21 202.402 42.8613 202.327 42.5241C202.251 42.187 202.11 41.868 201.911 41.5856Z" fill="#EBEBEB"/>
<path d="M32.1447 94.2846C28.4401 95.3484 25.3095 97.8397 23.441 101.211C21.5725 104.582 21.1189 108.557 22.1801 112.262C23.6208 117.273 32.4088 125.671 38.3899 130.946C39.0033 131.488 39.7434 131.867 40.542 132.048C41.3405 132.228 42.1717 132.205 42.9587 131.98C43.7458 131.754 44.4634 131.334 45.0453 130.758C45.6272 130.182 46.0546 129.469 46.2881 128.684C48.5841 121.045 51.5632 109.26 50.1282 104.249C49.6021 102.414 48.7196 100.7 47.531 99.2059C46.3424 97.7117 44.8711 96.4663 43.201 95.541C41.531 94.6156 39.695 94.0283 37.7979 93.8128C35.9008 93.5972 33.9798 93.7576 32.1447 94.2846ZM37.9995 114.702C36.7251 115.068 35.3707 115.048 34.1075 114.645C32.8444 114.241 31.7293 113.472 30.9032 112.435C30.0772 111.397 29.5773 110.138 29.4668 108.817C29.3562 107.496 29.6401 106.171 30.2823 105.011C30.9246 103.851 31.8965 102.907 33.0751 102.3C34.2536 101.692 35.5859 101.447 36.9035 101.597C38.2211 101.746 39.4648 102.283 40.4772 103.139C41.4897 103.996 42.2255 105.133 42.5915 106.408C43.0824 108.116 42.8743 109.95 42.0132 111.506C41.152 113.061 39.7083 114.211 37.9995 114.702Z" fill="#E0E0E0"/>
<path d="M34.4178 93.636C30.7179 94.7034 27.5928 97.1955 25.7288 100.565C23.8648 103.935 23.4142 107.906 24.4761 111.608C25.9169 116.619 34.7048 125.022 40.6859 130.297C41.3017 130.838 42.0438 131.214 42.8436 131.392C43.6434 131.57 44.4752 131.543 45.2619 131.314C46.0486 131.085 46.7649 130.662 47.3446 130.083C47.9243 129.504 48.3486 128.788 48.5784 128.001C50.8744 120.361 53.8534 108.583 52.4184 103.566C51.8896 101.732 51.0042 100.019 49.8131 98.5271C48.6219 97.0349 47.1483 95.7921 45.4765 94.8699C43.8047 93.9476 41.9675 93.3639 40.07 93.1522C38.1724 92.9405 36.2518 93.1049 34.4178 93.636ZM40.2726 114.053C38.9971 114.421 37.6413 114.401 36.3767 113.998C35.1121 113.595 33.9955 112.826 33.1681 111.788C32.3408 110.75 31.8399 109.49 31.7287 108.167C31.6176 106.844 31.9013 105.518 32.5438 104.357C33.1864 103.196 34.159 102.251 35.3386 101.642C36.5183 101.034 37.8519 100.788 39.1708 100.938C40.4897 101.087 41.7347 101.625 42.7482 102.482C43.7617 103.339 44.4982 104.477 44.8646 105.753C45.1085 106.6 45.1832 107.486 45.0843 108.361C44.9855 109.237 44.7152 110.084 44.2887 110.855C43.8622 111.626 43.288 112.305 42.5989 112.854C41.9098 113.402 41.1193 113.81 40.2726 114.053Z" fill="#F5F5F5"/>
<path d="M201.79 57.3419C200.193 56.8801 198.52 56.7382 196.868 56.9245C195.216 57.1107 193.617 57.6214 192.162 58.4272C190.708 59.2331 189.427 60.3182 188.393 61.6203C187.359 62.9224 186.593 64.4159 186.137 66.015C184.886 70.3832 187.498 80.6406 189.484 87.2932C189.686 87.9786 190.058 88.6019 190.566 89.105C191.073 89.6082 191.699 89.975 192.387 90.1714C193.074 90.3678 193.799 90.3874 194.496 90.2284C195.193 90.0695 195.838 89.737 196.372 89.262C201.584 84.67 209.235 77.3573 210.487 72.9949C210.948 71.3961 211.089 69.7219 210.901 68.0685C210.713 66.4151 210.201 64.8152 209.393 63.3606C208.584 61.9059 207.497 60.6254 206.192 59.5925C204.888 58.5596 203.392 57.7948 201.79 57.3419ZM196.676 75.1359C195.567 74.8176 194.577 74.1777 193.832 73.2972C193.086 72.4167 192.618 71.335 192.487 70.1887C192.356 69.0424 192.567 67.8829 193.095 66.8567C193.622 65.8305 194.442 64.9836 195.45 64.4229C196.458 63.8622 197.61 63.613 198.76 63.7066C199.91 63.8002 201.007 64.2325 201.911 64.9488C202.816 65.6652 203.488 66.6335 203.842 67.7315C204.196 68.8295 204.218 70.0079 203.903 71.1179C203.693 71.8569 203.34 72.5473 202.863 73.1494C202.386 73.7516 201.795 74.2536 201.123 74.6269C200.452 75.0002 199.714 75.2373 198.95 75.3246C198.187 75.412 197.414 75.3478 196.676 75.1359Z" fill="#E0E0E0"/>
<path d="M203.771 57.916C202.174 57.4542 200.501 57.3123 198.849 57.4985C197.196 57.6848 195.597 58.1955 194.143 59.0013C192.689 59.8072 191.408 60.8923 190.374 62.1944C189.34 63.4965 188.573 64.99 188.118 66.5891C186.867 70.9515 189.478 81.2147 191.464 87.8673C191.667 88.5527 192.039 89.176 192.546 89.6791C193.054 90.1823 193.68 90.5491 194.367 90.7455C195.054 90.9419 195.78 90.9615 196.476 90.8025C197.173 90.6436 197.818 90.3111 198.352 89.8361C203.559 85.2441 211.21 77.9314 212.461 73.569C212.923 71.9706 213.064 70.2968 212.877 68.6437C212.689 66.9906 212.177 65.3908 211.369 63.9362C210.562 62.4817 209.475 61.2011 208.171 60.1679C206.867 59.1348 205.372 58.3695 203.771 57.916ZM198.674 75.71C197.564 75.3926 196.574 74.7535 195.827 73.8733C195.081 72.9932 194.612 71.9115 194.48 70.765C194.348 69.6185 194.559 68.4585 195.086 67.4318C195.613 66.4051 196.432 65.5576 197.441 64.9964C198.449 64.4353 199.601 64.1856 200.752 64.2791C201.902 64.3725 202.999 64.8048 203.903 65.5213C204.808 66.2378 205.48 67.2064 205.835 68.3048C206.189 69.4031 206.21 70.5818 205.895 71.692C205.47 73.1824 204.471 74.4429 203.116 75.1965C201.762 75.95 200.164 76.1347 198.674 75.71Z" fill="#F5F5F5"/>
<path d="M125.5 226.104C186.965 226.104 236.793 223.195 236.793 219.606C236.793 216.017 186.965 213.108 125.5 213.108C64.0345 213.108 14.207 216.017 14.207 219.606C14.207 223.195 64.0345 226.104 125.5 226.104Z" fill="#F5F5F5"/>
<path d="M90.1995 88.8374H96.3413C96.6457 88.8318 96.9478 88.8908 97.2277 89.0105C97.5077 89.1303 97.759 89.308 97.9651 89.5321C98.1713 89.7561 98.3275 90.0214 98.4236 90.3103C98.5197 90.5992 98.5534 90.9051 98.5225 91.208L97.3745 104.163C97.3087 104.808 97.0089 105.406 96.532 105.845C96.055 106.284 95.4338 106.533 94.7858 106.545H88.6497C88.3447 106.55 88.0421 106.49 87.762 106.37C87.4819 106.249 87.2307 106.07 87.025 105.845C86.8193 105.619 86.6638 105.353 86.5689 105.063C86.4739 104.773 86.4416 104.467 86.4742 104.163L87.6165 91.208C87.6848 90.5662 87.9848 89.9714 88.4603 89.535C88.9359 89.0986 89.5542 88.8505 90.1995 88.8374Z" fill="#C6C8D2"/>
<path opacity="0.2" d="M158.907 86.0706H168.505C168.981 86.0621 169.454 86.1552 169.892 86.3435C170.329 86.5319 170.722 86.8113 171.044 87.1631C171.365 87.5149 171.608 87.9312 171.756 88.3841C171.904 88.8371 171.954 89.3163 171.903 89.7901L170.72 103.319C170.617 104.322 170.153 105.252 169.413 105.937C168.673 106.622 167.71 107.013 166.702 107.039H157.071C156.595 107.046 156.122 106.953 155.685 106.764C155.248 106.575 154.856 106.296 154.536 105.944C154.215 105.592 153.972 105.176 153.825 104.724C153.677 104.271 153.627 103.793 153.678 103.319L154.861 89.7901C154.964 88.7828 155.433 87.8483 156.179 87.163C156.924 86.4777 157.895 86.0891 158.907 86.0706Z" fill="black"/>
<path opacity="0.2" d="M156.939 108.549H166.542C167.018 108.541 167.49 108.635 167.927 108.823C168.364 109.012 168.756 109.291 169.077 109.643C169.398 109.995 169.64 110.411 169.788 110.863C169.935 111.316 169.985 111.795 169.934 112.268L168.752 125.797C168.649 126.805 168.181 127.74 167.435 128.426C166.689 129.111 165.718 129.499 164.705 129.517H155.108C154.631 129.525 154.158 129.432 153.721 129.244C153.283 129.055 152.89 128.776 152.569 128.424C152.247 128.072 152.004 127.656 151.856 127.203C151.708 126.75 151.658 126.271 151.71 125.797L152.898 112.268C153 111.261 153.468 110.327 154.212 109.641C154.957 108.956 155.927 108.567 156.939 108.549Z" fill="black"/>
<path d="M107.425 60.7057H160.899C162.623 60.6749 164.333 61.0117 165.916 61.6937C167.499 62.3756 168.919 63.3871 170.08 64.6606C171.242 65.9342 172.119 67.4406 172.653 69.0796C173.187 70.7186 173.365 72.4525 173.177 74.166L161.766 204.562C161.394 208.205 159.7 211.587 157.004 214.066C154.308 216.546 150.797 217.951 147.134 218.016H93.6606C91.9377 218.047 90.228 217.71 88.6453 217.028C87.0626 216.347 85.6432 215.336 84.4816 214.063C83.32 212.79 82.4429 211.284 81.9086 209.646C81.3743 208.008 81.195 206.275 81.3828 204.562L92.7824 74.166C93.1528 70.5191 94.8479 67.1347 97.5466 64.6539C100.245 62.1732 103.76 60.7684 107.425 60.7057Z" fill="#C6C8D2"/>
<path opacity="0.2" d="M107.425 60.7057H160.899C162.623 60.6749 164.333 61.0117 165.916 61.6937C167.499 62.3756 168.919 63.3871 170.08 64.6606C171.242 65.9342 172.119 67.4406 172.653 69.0796C173.187 70.7186 173.365 72.4525 173.177 74.166L161.766 204.562C161.394 208.205 159.7 211.587 157.004 214.066C154.308 216.546 150.797 217.951 147.134 218.016H93.6606C91.9377 218.047 90.228 217.71 88.6453 217.028C87.0626 216.347 85.6432 215.336 84.4816 214.063C83.32 212.79 82.4429 211.284 81.9086 209.646C81.3743 208.008 81.195 206.275 81.3828 204.562L92.7824 74.166C93.1528 70.5191 94.8479 67.1347 97.5466 64.6539C100.245 62.1732 103.76 60.7684 107.425 60.7057Z" fill="#7F859F"/>
<path d="M105.697 60.7058H159.177C160.9 60.676 162.61 61.0134 164.193 61.6957C165.775 62.378 167.195 63.3894 168.356 64.6627C169.518 65.9361 170.395 67.4421 170.929 69.0807C171.463 70.7193 171.643 72.4529 171.455 74.1661L160.044 204.562C159.671 208.205 157.977 211.586 155.281 214.065C152.585 216.544 149.074 217.95 145.413 218.016H91.9387C90.2154 218.048 88.5053 217.712 86.9221 217.03C85.339 216.349 83.9192 215.338 82.7575 214.065C81.5957 212.792 80.7186 211.286 80.1846 209.647C79.6507 208.009 79.4721 206.275 79.6608 204.562L91.0605 74.1661C91.7148 66.7328 98.2699 60.7058 105.697 60.7058Z" fill="#2D334D"/>
<path d="M169.952 74.3627L158.546 204.753C158.216 207.961 156.722 210.938 154.347 213.121C151.972 215.304 148.879 216.541 145.654 216.6H92.1804C90.6628 216.628 89.1568 216.332 87.7626 215.732C86.3684 215.132 85.118 214.242 84.0948 213.121C83.0716 212 82.299 210.674 81.8285 209.231C81.358 207.788 81.2004 206.261 81.3662 204.753L92.7773 74.3627C93.1063 71.1538 94.5988 68.1764 96.9729 65.9927C99.347 63.8089 102.438 62.5699 105.664 62.5096H159.137C160.655 62.4826 162.161 62.7792 163.556 63.3797C164.95 63.9803 166.2 64.8709 167.223 65.9923C168.246 67.1137 169.019 68.4402 169.489 69.8835C169.96 71.3268 170.117 72.8538 169.952 74.3627Z" fill="white"/>
<g opacity="0.1">
<path d="M92.0767 216.403H112.35L145.103 62.3129H119.273L86.7959 215.1C88.4217 215.964 90.2359 216.411 92.0767 216.403Z" fill="url(#paint0_linear_180_5445)"/>
<path d="M157.501 62.3129H152.588L119.83 216.403H124.749L157.501 62.3129Z" fill="black"/>
</g>
<path d="M116.62 61.934C116.57 62.4152 116.622 62.9016 116.773 63.3614C116.924 63.8213 117.169 64.2442 117.494 64.6027C117.819 64.9612 118.216 65.2473 118.659 65.4422C119.102 65.637 119.581 65.7364 120.064 65.7338H143.885C144.918 65.7115 145.907 65.3132 146.667 64.6136C147.427 63.914 147.905 62.9612 148.013 61.934H116.62Z" fill="#131620"/>
<path d="M158.064 66.526H163.471C163.575 66.5255 163.679 66.547 163.775 66.589C163.87 66.6311 163.956 66.6929 164.027 66.7703C164.097 66.8476 164.15 66.939 164.183 67.0383C164.216 67.1376 164.227 67.2427 164.217 67.3468L164.01 69.7002C163.988 69.9221 163.885 70.1281 163.721 70.2794C163.557 70.4306 163.344 70.5166 163.121 70.5211H157.713C157.609 70.5225 157.505 70.5016 157.408 70.4598C157.312 70.4181 157.226 70.3564 157.155 70.2787C157.085 70.2011 157.032 70.1094 156.999 70.0097C156.967 69.91 156.956 69.8045 156.967 69.7002L157.174 67.3468C157.196 67.1249 157.299 66.9189 157.463 66.7677C157.627 66.6165 157.841 66.5305 158.064 66.526Z" fill="#C6C8D2"/>
<path d="M100.33 66.5261H107.569C107.687 66.5246 107.804 66.5482 107.912 66.5952C108.021 66.6423 108.118 66.7117 108.198 66.799C108.277 66.8863 108.338 66.9894 108.375 67.1016C108.412 67.2139 108.425 67.3327 108.412 67.4502L108.223 69.597C108.198 69.8473 108.082 70.0796 107.896 70.2499C107.711 70.4203 107.47 70.5168 107.218 70.5211H99.9803C99.8624 70.5226 99.7454 70.4991 99.6373 70.452C99.5291 70.4049 99.4322 70.3354 99.353 70.248C99.2737 70.1606 99.214 70.0574 99.1776 69.9451C99.1413 69.8329 99.1293 69.7142 99.1423 69.597L99.326 67.4502C99.3512 67.1999 99.4675 66.9676 99.6526 66.7972C99.8377 66.6269 100.079 66.5304 100.33 66.5261Z" fill="#C6C8D2"/>
<path opacity="0.4" d="M100.33 66.5261H107.569C107.687 66.5246 107.804 66.5482 107.912 66.5952C108.021 66.6423 108.118 66.7117 108.198 66.799C108.277 66.8863 108.338 66.9894 108.375 67.1016C108.412 67.2139 108.425 67.3327 108.412 67.4502L108.223 69.597C108.198 69.8473 108.082 70.0796 107.896 70.2499C107.711 70.4203 107.47 70.5168 107.218 70.5211H99.9803C99.8624 70.5226 99.7454 70.4991 99.6373 70.452C99.5291 70.4049 99.4322 70.3354 99.353 70.248C99.2737 70.1606 99.214 70.0574 99.1776 69.9451C99.1413 69.8329 99.1293 69.7142 99.1423 69.597L99.326 67.4502C99.3512 67.1999 99.4675 66.9676 99.6526 66.7972C99.8377 66.6269 100.079 66.5304 100.33 66.5261Z" fill="white"/>
<path d="M156.623 67.1919H157.472C157.511 67.1908 157.549 67.198 157.585 67.213C157.62 67.2279 157.652 67.2503 157.678 67.2786C157.704 67.3068 157.724 67.3404 157.736 67.3769C157.748 67.4134 157.752 67.4521 157.748 67.4903L157.57 69.5223C157.562 69.6035 157.524 69.6788 157.463 69.7338C157.403 69.7889 157.324 69.8198 157.243 69.8208H156.393C156.355 69.8218 156.317 69.8146 156.281 69.7997C156.246 69.7847 156.214 69.7624 156.188 69.7341C156.162 69.7058 156.142 69.6723 156.13 69.6358C156.118 69.5992 156.114 69.5606 156.118 69.5223L156.296 67.4903C156.304 67.4091 156.342 67.3338 156.402 67.2788C156.463 67.2238 156.541 67.1928 156.623 67.1919Z" fill="#C6C8D2"/>
<path d="M162.397 67.1919H163.253C163.291 67.1917 163.328 67.1995 163.363 67.2148C163.398 67.2301 163.429 67.2526 163.454 67.2808C163.48 67.3089 163.499 67.3422 163.511 67.3783C163.522 67.4144 163.526 67.4526 163.522 67.4904L163.344 69.5223C163.337 69.6031 163.301 69.6783 163.241 69.7334C163.182 69.7886 163.104 69.8197 163.023 69.8208H162.168C162.13 69.821 162.092 69.8132 162.057 69.7979C162.023 69.7826 161.992 69.7601 161.966 69.7319C161.941 69.7038 161.921 69.6705 161.91 69.6344C161.898 69.5983 161.894 69.5601 161.898 69.5223L162.076 67.4904C162.083 67.4096 162.12 67.3344 162.179 67.2793C162.239 67.2241 162.316 67.193 162.397 67.1919Z" fill="white"/>
<path d="M160.566 67.1919H161.422C161.46 67.1917 161.497 67.1995 161.532 67.2148C161.567 67.2301 161.598 67.2526 161.623 67.2808C161.649 67.3089 161.668 67.3422 161.68 67.3783C161.691 67.4144 161.695 67.4526 161.691 67.4904L161.513 69.5223C161.506 69.6031 161.47 69.6783 161.41 69.7334C161.351 69.7886 161.273 69.8197 161.192 69.8208H160.337C160.299 69.821 160.261 69.8132 160.226 69.7979C160.192 69.7826 160.161 69.7601 160.135 69.7319C160.11 69.7038 160.09 69.6705 160.079 69.6344C160.067 69.5983 160.063 69.5601 160.067 69.5223L160.245 67.4904C160.252 67.4096 160.289 67.3344 160.348 67.2793C160.408 67.2241 160.485 67.193 160.566 67.1919Z" fill="white"/>
<path d="M170.175 103.228L169.027 116.562C169.589 116.454 170.101 116.168 170.488 115.746C170.874 115.324 171.115 114.789 171.174 114.22L171.908 105.558C171.967 105.023 171.82 104.485 171.499 104.053C171.177 103.62 170.704 103.326 170.175 103.228Z" fill="#C6C8D2"/>
<path opacity="0.2" d="M170.175 103.228L169.027 116.562C169.589 116.454 170.101 116.168 170.488 115.746C170.874 115.324 171.115 114.789 171.174 114.22L171.908 105.558C171.967 105.023 171.82 104.485 171.499 104.053C171.177 103.62 170.704 103.326 170.175 103.228Z" fill="black"/>
<path d="M171.42 88.8374L170.272 102.171C170.833 102.064 171.345 101.779 171.73 101.358C172.116 100.937 172.356 100.403 172.413 99.8352L173.142 91.208C173.209 90.6683 173.068 90.1233 172.749 89.6833C172.429 89.2432 171.954 88.9409 171.42 88.8374Z" fill="#C6C8D2"/>
<path opacity="0.2" d="M171.42 88.8374L170.272 102.171C170.833 102.064 171.345 101.779 171.73 101.358C172.116 100.937 172.356 100.403 172.413 99.8352L173.142 91.208C173.209 90.6683 173.068 90.1233 172.749 89.6833C172.429 89.2432 171.954 88.9409 171.42 88.8374Z" fill="black"/>
<path d="M214.636 119.265H203.369C202.455 119.265 201.579 119.628 200.934 120.274C200.288 120.92 199.925 121.796 199.925 122.709V129.379C199.932 130.287 200.299 131.156 200.944 131.796C201.589 132.435 202.46 132.794 203.369 132.794H206.589V135.395C206.591 135.537 206.634 135.677 206.715 135.795C206.795 135.913 206.908 136.005 207.04 136.059C207.172 136.114 207.317 136.128 207.458 136.101C207.598 136.073 207.727 136.006 207.829 135.905L210.934 132.794H214.636C215.54 132.787 216.404 132.425 217.043 131.786C217.682 131.147 218.044 130.282 218.052 129.379V122.68C218.044 121.777 217.682 120.913 217.043 120.274C216.404 119.635 215.54 119.273 214.636 119.265Z" fill="#2D334D"/>
<path d="M211.91 122.456H206.497C206.446 122.003 206.417 121.779 206.365 121.308H203.386C203.449 121.567 203.484 121.693 203.547 121.951H205.694C205.722 122.141 205.74 122.238 205.768 122.434C205.912 123.381 205.986 123.851 206.13 124.798C206.164 125.057 206.187 125.183 206.228 125.441C206.371 126.388 206.44 126.859 206.583 127.806C206.664 128.317 206.704 128.57 206.779 129.075H212.748C212.806 128.816 212.834 128.69 212.897 128.432H207.244C207.215 128.185 207.198 128.059 207.169 127.806H213.316L213.89 125.441C213.954 125.183 213.982 125.057 214.051 124.798C214.281 123.851 214.401 123.381 214.625 122.434L211.91 122.456ZM206.578 123.094H208.495C208.495 123.788 208.524 124.133 208.546 124.816H206.779L206.578 123.094ZM207.066 127.192C206.979 126.497 206.939 126.153 206.859 125.47H208.581C208.581 126.159 208.61 126.503 208.633 127.192H207.066ZM210.745 127.192H209.189C209.189 126.497 209.189 126.153 209.189 125.47H210.911C210.837 126.153 210.808 126.497 210.745 127.192ZM210.963 124.821H209.195C209.195 124.133 209.195 123.788 209.195 123.099H211.112C211.055 123.788 211.026 124.133 210.963 124.821ZM212.869 127.192H211.319C211.405 126.497 211.445 126.153 211.537 125.47H213.259L212.869 127.192ZM213.38 124.821H211.6C211.692 124.133 211.732 123.788 211.818 123.099H213.735C213.598 123.788 213.523 124.133 213.38 124.821Z" fill="white"/>
<path d="M207.146 129.695C206.995 129.695 206.847 129.739 206.722 129.823C206.596 129.907 206.498 130.026 206.44 130.166C206.383 130.305 206.368 130.459 206.397 130.607C206.426 130.755 206.499 130.891 206.606 130.998C206.713 131.105 206.849 131.177 206.997 131.207C207.145 131.236 207.298 131.221 207.438 131.163C207.577 131.106 207.697 131.008 207.781 130.882C207.864 130.757 207.909 130.609 207.909 130.458C207.909 130.256 207.829 130.061 207.686 129.918C207.542 129.775 207.348 129.695 207.146 129.695Z" fill="white"/>
<path d="M212.553 131.216C212.972 131.216 213.311 130.877 213.311 130.458C213.311 130.04 212.972 129.7 212.553 129.7C212.135 129.7 211.795 130.04 211.795 130.458C211.795 130.877 212.135 131.216 212.553 131.216Z" fill="white"/>
<path d="M138.995 71.4737H121.109C119.634 71.4998 118.219 72.0656 117.133 73.064C116.047 74.0625 115.364 75.4245 115.214 76.8923L114.29 87.4826C114.214 88.1723 114.286 88.8703 114.501 89.5301C114.716 90.1898 115.069 90.7962 115.536 91.3089C116.004 91.8216 116.575 92.2287 117.213 92.5033C117.85 92.7778 118.538 92.9135 119.232 92.9012H124.352L123.991 97.0225C123.973 97.2485 124.027 97.4743 124.144 97.6682C124.261 97.8622 124.437 98.0145 124.645 98.1038C124.853 98.1931 125.084 98.2149 125.306 98.1661C125.527 98.1173 125.728 98.0004 125.879 97.8318L131.24 92.9299H137.118C138.593 92.9026 140.007 92.3364 141.093 91.3381C142.179 90.3399 142.862 88.9786 143.013 87.5113L143.937 76.921C144.018 76.229 143.949 75.5279 143.736 74.8646C143.523 74.2014 143.171 73.5913 142.703 73.0754C142.235 72.5595 141.662 72.1497 141.022 71.8734C140.383 71.5972 139.692 71.4609 138.995 71.4737Z" fill="#C6C8D2"/>
<path d="M133.645 76.5364H125.064L125.007 74.757H120.283C120.346 75.1645 120.38 75.3654 120.443 75.7729H123.853C123.853 76.0772 123.882 76.2321 123.899 76.5364C123.996 78.0402 124.048 78.7922 124.146 80.2961C124.146 80.6979 124.186 80.9045 124.209 81.312C124.306 82.8102 124.358 83.5621 124.45 85.066C124.507 85.8696 124.53 86.2714 124.582 87.075H134.007L134.334 86.059H125.363V85.066H135.121C135.626 83.5621 135.878 82.8102 136.378 81.312L136.716 80.2961C137.221 78.7922 137.474 78.0402 137.973 76.5364H133.645ZM125.093 77.5523H128.135C128.072 78.6487 128.043 79.194 127.98 80.2961H125.179L125.093 77.5523ZM125.299 84.05L125.213 81.312H127.923C127.86 82.4084 127.825 82.9537 127.762 84.05H125.299ZM131.137 84.05H128.675C128.772 82.9537 128.824 82.4084 128.921 81.312H131.631C131.436 82.4084 131.338 82.9537 131.137 84.05ZM131.814 80.3018H129.013C129.117 79.1997 129.162 78.6544 129.26 77.5581H132.308C132.107 78.6487 132.01 79.194 131.814 80.3018ZM134.512 84.0558H132.05L132.624 81.3178H135.327C135.012 82.4084 134.845 82.9537 134.512 84.05V84.0558ZM135.66 80.3018H132.848C133.083 79.1997 133.198 78.6544 133.422 77.5581H136.464C136.142 78.6487 135.976 79.194 135.649 80.3018H135.66Z" fill="white"/>
<path d="M125.087 88.0279C124.758 88.0331 124.443 88.1588 124.201 88.3809C123.959 88.603 123.806 88.9063 123.773 89.2332C123.756 89.3868 123.773 89.542 123.821 89.6887C123.869 89.8354 123.948 89.9701 124.052 90.0841C124.156 90.198 124.284 90.2886 124.425 90.3497C124.567 90.4108 124.72 90.4411 124.875 90.4386C125.203 90.4334 125.519 90.3077 125.761 90.0856C126.003 89.8635 126.156 89.5602 126.189 89.2332C126.205 89.0797 126.189 88.9245 126.141 88.7778C126.093 88.6311 126.014 88.4964 125.91 88.3824C125.805 88.2685 125.678 88.1779 125.536 88.1168C125.395 88.0557 125.242 88.0254 125.087 88.0279Z" fill="white"/>
<path d="M133.657 88.0279C133.329 88.0333 133.015 88.1591 132.773 88.3814C132.532 88.6036 132.381 88.9068 132.348 89.2332C132.332 89.3868 132.349 89.542 132.397 89.6887C132.445 89.8354 132.524 89.9701 132.628 90.0841C132.732 90.198 132.859 90.2886 133.001 90.3497C133.143 90.4108 133.296 90.4411 133.45 90.4386C133.778 90.4332 134.093 90.3074 134.334 90.0851C134.576 89.8629 134.727 89.5597 134.759 89.2332C134.775 89.0797 134.759 88.9245 134.711 88.7778C134.663 88.6311 134.584 88.4964 134.48 88.3824C134.375 88.2685 134.248 88.1779 134.106 88.1168C133.965 88.0557 133.811 88.0254 133.657 88.0279Z" fill="white"/>
<path d="M151.847 146.415H131.396V166.867H151.847V146.415Z" fill="#C6C8D2"/>
<path d="M164.4 146.415H151.841V166.867H164.4V146.415Z" fill="#7F859F"/>
<path d="M147.938 141.284H127.486L131.395 146.415H151.841L147.938 141.284Z" fill="#A4A8B7"/>
<path d="M155.544 141.284H168.103L164.406 146.415H151.841L155.544 141.284Z" fill="#C6C8D2"/>
<path d="M209.39 166.362H157.845V217.907H209.39V166.362Z" fill="#C6C8D2"/>
<path opacity="0.4" d="M209.39 166.362H157.845V217.907H209.39V166.362Z" fill="white"/>
<path d="M157.834 166.362H126.172V217.907H157.834V166.362Z" fill="#C6C8D2"/>
<path opacity="0.6" d="M157.834 166.362H126.172V217.907H157.834V166.362Z" fill="white"/>
<path opacity="0.5" d="M135.953 166.362V180.207L137.21 180.867L138.295 179.966L140.011 180.867L141.641 179.966L142.904 180.867L144.351 179.966L145.172 180.706V166.362H135.953Z" fill="white"/>
<path opacity="0.5" d="M145.172 217.907V204.062L143.915 203.396L142.83 204.303L141.113 203.396L139.483 204.303L138.22 203.396L136.774 204.303L135.953 203.563V217.907H145.172Z" fill="white"/>
<path d="M178.882 187.382C179.175 188.558 179.319 189.15 179.611 190.326C179.686 190.642 179.726 190.803 179.806 191.124C180.099 192.301 180.243 192.892 180.535 194.069H188.181C188.141 194.379 188.124 194.534 188.089 194.844H181.046C181.121 195.165 181.155 195.326 181.23 195.642H188.64L188.881 194.069C189.059 192.892 189.151 192.301 189.329 191.124C189.381 190.803 189.404 190.642 189.45 190.326C189.628 189.15 189.719 188.558 189.897 187.382C189.938 187.141 189.955 187.02 189.989 186.779H192.658C192.733 186.463 192.773 186.303 192.853 185.987H189.151C189.082 186.561 189.048 186.819 188.985 187.382H178.882ZM188.64 190.326H186.448C186.448 189.465 186.482 189.035 186.511 188.174H188.893C188.767 189.035 188.721 189.465 188.64 190.326ZM186.344 193.271C186.344 192.41 186.384 191.98 186.407 191.124H188.531L188.273 193.271H186.344ZM183.474 191.124H185.592C185.592 191.98 185.592 192.41 185.592 193.271H183.658C183.606 192.41 183.566 191.98 183.474 191.124ZM183.205 188.174H185.587C185.587 189.035 185.587 189.465 185.587 190.326H183.417C183.337 189.465 183.296 189.035 183.222 188.174H183.205ZM180.564 191.124H182.688C182.791 191.98 182.849 192.41 182.958 193.271H181.023L180.564 191.124ZM179.933 188.174H182.326C182.43 189.035 182.487 189.465 182.59 190.326H180.398L179.933 188.174Z" fill="white"/>
<path d="M188.158 198.282C188.681 198.282 189.105 197.858 189.105 197.335C189.105 196.812 188.681 196.388 188.158 196.388C187.635 196.388 187.211 196.812 187.211 197.335C187.211 197.858 187.635 198.282 188.158 198.282Z" fill="white"/>
<path d="M181.437 198.282C181.96 198.282 182.384 197.858 182.384 197.335C182.384 196.812 181.96 196.388 181.437 196.388C180.914 196.388 180.49 196.812 180.49 197.335C180.49 197.858 180.914 198.282 181.437 198.282Z" fill="white"/>
<g opacity="0.5">
<path d="M135.023 187.382C135.316 188.558 135.459 189.15 135.752 190.326C135.827 190.642 135.867 190.803 135.947 191.124C136.24 192.301 136.383 192.892 136.676 194.069H144.322C144.282 194.379 144.264 194.534 144.23 194.844H137.198C137.273 195.165 137.307 195.326 137.382 195.642H144.769L145.011 194.069C145.188 192.892 145.28 192.301 145.458 191.124C145.504 190.803 145.533 190.642 145.579 190.326C145.757 189.15 145.849 188.558 146.027 187.382L146.118 186.779H148.793C148.868 186.463 148.908 186.303 148.988 185.987H145.286C145.217 186.561 145.183 186.819 145.12 187.382H135.023ZM144.781 190.326H142.588L142.651 188.174H145.016C144.919 189.035 144.867 189.465 144.769 190.326H144.781ZM142.485 193.271C142.514 192.41 142.525 191.98 142.548 191.124H144.672L144.414 193.271H142.485ZM139.644 191.124H141.762C141.762 191.98 141.762 192.41 141.762 193.271H139.85C139.758 192.41 139.718 191.98 139.644 191.124ZM139.368 188.174H141.756C141.756 189.035 141.756 189.465 141.756 190.326H139.563L139.368 188.174ZM136.733 191.124H138.857L139.121 193.271H137.193L136.733 191.124ZM136.102 188.174H138.49C138.593 189.035 138.651 189.465 138.754 190.326H136.561L136.102 188.174Z" fill="white"/>
<path d="M144.31 198.282C144.833 198.282 145.257 197.858 145.257 197.335C145.257 196.812 144.833 196.388 144.31 196.388C143.787 196.388 143.363 196.812 143.363 197.335C143.363 197.858 143.787 198.282 144.31 198.282Z" fill="white"/>
<path d="M137.589 198.282C138.112 198.282 138.536 197.858 138.536 197.335C138.536 196.812 138.112 196.388 137.589 196.388C137.066 196.388 136.642 196.812 136.642 197.335C136.642 197.858 137.066 198.282 137.589 198.282Z" fill="white"/>
</g>
<path d="M190.569 125.344C190.569 125.344 192.36 138.196 193.967 140.411C195.574 142.627 202.795 148.757 202.795 148.757L207.358 148.091L210.418 150.961L208.202 152.494L205.763 151.403C204.387 151.556 203 151.589 201.618 151.501C199.288 151.357 190.184 145.187 188.508 141.967C186.832 138.747 184.938 126.825 184.938 126.825L190.569 125.344Z" fill="#FFBE9D"/>
<path d="M192.085 129.058L191.625 129.138C191.31 126.119 190.047 116.946 186.586 119.3C183.262 121.567 184.198 128.001 184.68 130.406L184.106 130.504L184.611 132.088L192.262 130.625L192.085 129.058Z" fill="#C6C8D2"/>
<path opacity="0.2" d="M189.214 122.99L188.371 121.177L185.725 123.84L184.203 126.136C184.246 127.573 184.411 129.003 184.697 130.412L184.123 130.51L184.628 132.094L188.945 131.267C189.426 128.535 189.516 125.748 189.214 122.99Z" fill="black"/>
<path d="M189.479 99.927C189.479 99.927 198.605 101.902 193.755 106.241L189.737 102.734L189.479 99.927Z" fill="#263238"/>
<path d="M202.146 196.296L196.338 210.525L192.308 208.958L195.557 194.815L202.146 196.296Z" fill="#FFBE9D"/>
<path opacity="0.2" d="M195.844 193.811L193.554 203.781L198.519 204.889L202.433 195.286L195.844 193.811Z" fill="black"/>
<path d="M197.25 210.192C197.991 211.874 198.49 213.258 201.521 215.054C202.181 215.433 201.062 217.178 199.414 216.438C196.694 215.209 197.405 215.186 195.075 214.176C193.118 213.309 191.66 212.787 190.064 212.121C190.023 212.104 189.984 212.08 189.949 212.052C189.813 211.95 189.723 211.799 189.699 211.632C189.674 211.464 189.717 211.293 189.817 211.157L192.17 207.937C192.222 207.864 192.297 207.812 192.383 207.789C192.469 207.766 192.56 207.774 192.641 207.81L196.452 209.452C196.8 209.594 197.083 209.857 197.25 210.192Z" fill="#263238"/>
<path d="M215.148 162.855C214.407 172.039 201.217 202.398 201.217 202.398L193.388 200.216C193.388 200.216 199.369 171.051 203.272 166.224C203.272 166.224 201.998 166.224 199.948 166.264C192.814 166.327 176.277 166.316 171.507 165.047C168.103 164.14 160.991 162.321 162.897 150.933L171.713 150.628L181.982 150.273C181.982 150.273 216.193 150.33 215.148 162.855Z" fill="#263238"/>
<path d="M215.148 162.855C214.407 172.039 201.217 202.398 201.217 202.398L193.388 200.216C193.388 200.216 199.369 171.051 203.272 166.224C203.272 166.224 201.998 166.224 199.948 166.264C192.814 166.327 176.277 166.316 171.507 165.047C168.103 164.14 160.991 162.321 162.897 150.933L171.713 150.628L181.982 150.273C181.982 150.273 216.193 150.33 215.148 162.855Z" fill="url(#paint1_linear_180_5445)"/>
<path opacity="0.2" d="M199.948 166.264C192.814 166.327 176.277 166.316 171.507 165.047C168.103 164.14 160.991 162.321 162.897 150.933L171.713 150.628C178.653 151.449 187.722 152.821 193.904 155.479C196.912 156.77 199.001 159.101 199.615 161.844C199.827 163.308 199.938 164.785 199.948 166.264Z" fill="black"/>
<path d="M188.531 195.791L185.627 210.296L181.259 210.095L181.775 195.59L188.531 195.791Z" fill="#FFBE9D"/>
<path opacity="0.2" d="M188.532 195.791L181.776 195.59L181.477 204.263L186.798 204.452L188.532 195.791Z" fill="black"/>
<path d="M186.293 210.64C187.005 212.362 187.441 213.809 190.5 215.726C191.155 216.15 189.961 217.901 188.313 217.086C185.581 215.749 186.31 215.754 183.962 214.647C181.982 213.711 180.518 213.131 178.917 212.402L178.796 212.345C178.728 212.292 178.671 212.226 178.629 212.151C178.587 212.077 178.56 211.994 178.549 211.908C178.539 211.823 178.546 211.736 178.57 211.654C178.594 211.571 178.634 211.494 178.687 211.426L181.184 208.206C181.238 208.135 181.315 208.084 181.402 208.063C181.489 208.042 181.58 208.052 181.661 208.092L185.484 209.877C185.839 210.022 186.127 210.294 186.293 210.64Z" fill="#263238"/>
<path d="M157.742 150.904C157.742 150.904 155.245 159.876 159.372 163.417C165.141 168.371 185.983 166.861 185.983 166.861C182.384 178.381 180.777 201.267 180.777 201.267H188.589C188.589 201.267 199.231 169.961 197.658 161.867C196.085 153.774 168.166 150.91 168.166 150.91L157.742 150.904Z" fill="#263238"/>
<path d="M157.742 150.904C157.742 150.904 155.245 159.876 159.372 163.417C165.141 168.371 185.983 166.861 185.983 166.861C182.384 178.381 180.777 201.267 180.777 201.267H188.589C188.589 201.267 199.231 169.961 197.658 161.867C196.085 153.774 168.166 150.91 168.166 150.91L157.742 150.904Z" fill="url(#paint2_linear_180_5445)"/>
<path d="M192.693 201.123L201.555 203.356L203.364 199.562L193.628 196.801L192.693 201.123Z" fill="#C6C8D2"/>
<path d="M180.001 202.38L189.042 202.845L189.978 198.867L180.001 198.402V202.38Z" fill="#C6C8D2"/>
<path d="M184.146 138.5C186.442 131.732 189.312 126.584 189.645 120.815C181.787 109.473 166.421 116.177 166.421 116.177C157.122 133.627 157.742 150.904 157.742 150.904C178.871 150.904 180.082 150.542 180.082 150.542C180.082 150.542 180.157 147.575 184.146 138.5Z" fill="#C6C8D2"/>
<path opacity="0.2" d="M177.051 115.844C177.39 117.842 178.096 121.446 178.934 121.969C180.082 122.669 181.804 121.687 181.804 121.687C181.804 121.687 183.199 123.576 184.674 122.319C185.502 121.526 186.149 120.562 186.568 119.495C186.134 120.234 185.586 120.901 184.944 121.469C183.451 122.721 182.074 120.838 182.074 120.838C182.074 120.838 180.352 121.814 179.204 121.119C178.446 120.666 177.562 117.813 177.051 115.844Z" fill="black"/>
<path d="M178.945 113.089L181.04 113.806L179.399 115.247L178.945 113.089Z" fill="#C6C8D2"/>
<path opacity="0.2" d="M178.945 113.089L181.04 113.806L179.399 115.247L178.945 113.089Z" fill="black"/>
<path d="M185.604 115.247L186.178 116.969C186.178 116.969 183.182 120.103 182.321 120.138C181.46 120.172 178.934 114.243 178.934 114.243C182.269 112.733 181.959 111.074 181.959 111.074L185.604 115.247Z" fill="#FFBE9D"/>
<path opacity="0.2" d="M184.514 118.57C185.397 117.761 186.19 116.94 186.19 116.94L185.616 115.218L182.373 111.47C181.948 113.129 181.534 116.539 184.514 118.57Z" fill="black"/>
<path d="M187.314 118.186C186.775 119.449 185.977 120.585 184.973 121.521C183.474 122.772 182.103 120.895 182.103 120.895C182.103 120.895 180.381 121.865 179.233 121.171C178.085 120.476 176.586 114.105 176.586 114.105L178.946 113.089L182.194 119.977L186.574 116.355L187.314 118.186Z" fill="#C6C8D2"/>
<path d="M181.844 105.254C181.839 104.235 182.103 103.232 182.608 102.347C183.113 101.462 183.842 100.725 184.722 100.211C185.602 99.697 186.602 99.4235 187.621 99.4179C188.64 99.4124 189.643 99.6751 190.529 100.18C194.696 102.424 194.811 108.979 193.571 112.808C193.271 113.813 192.702 114.718 191.924 115.422C191.147 116.127 190.191 116.605 189.161 116.804C188.13 117.004 187.065 116.917 186.081 116.553C185.097 116.19 184.231 115.563 183.578 114.742C181.534 112.228 181.798 109.651 181.856 105.225L181.844 105.254Z" fill="#FFBE9D"/>
<path d="M189.605 107.997C189.846 107.997 189.995 108.348 189.932 108.698C189.869 109.048 189.656 109.272 189.421 109.272C189.186 109.272 189.036 108.922 189.094 108.571C189.151 108.221 189.364 107.98 189.605 107.997Z" fill="#263238"/>
<path d="M193.583 108.744C193.83 108.744 193.979 109.082 193.921 109.438C193.864 109.794 193.64 110.012 193.399 110.012C193.158 110.012 193.02 109.668 193.072 109.312C193.123 108.956 193.342 108.715 193.583 108.744Z" fill="#263238"/>
<path d="M188.537 107.159C188.743 107.001 188.983 106.893 189.239 106.846C189.495 106.799 189.758 106.814 190.006 106.89C190.057 106.906 190.113 106.902 190.161 106.879C190.209 106.855 190.247 106.814 190.265 106.763C190.28 106.711 190.276 106.654 190.253 106.604C190.23 106.555 190.189 106.515 190.138 106.494C189.818 106.398 189.48 106.381 189.152 106.445C188.824 106.509 188.516 106.652 188.256 106.861C188.226 106.881 188.202 106.909 188.188 106.943C188.174 106.976 188.17 107.013 188.177 107.048C188.183 107.084 188.2 107.117 188.226 107.143C188.251 107.169 188.283 107.186 188.319 107.194C188.354 107.213 188.394 107.219 188.434 107.213C188.473 107.207 188.509 107.188 188.537 107.159Z" fill="#263238"/>
<path d="M194.587 108.279C194.633 108.249 194.666 108.203 194.679 108.149C194.692 108.096 194.684 108.039 194.656 107.992C194.493 107.698 194.263 107.447 193.984 107.258C193.706 107.07 193.388 106.949 193.054 106.907C193.01 106.908 192.967 106.924 192.933 106.952C192.899 106.98 192.875 107.019 192.865 107.062C192.858 107.089 192.857 107.116 192.861 107.144C192.865 107.171 192.874 107.197 192.889 107.221C192.903 107.244 192.922 107.265 192.945 107.281C192.967 107.297 192.993 107.308 193.02 107.314C193.289 107.355 193.545 107.458 193.768 107.614C193.991 107.771 194.175 107.976 194.306 108.216C194.321 108.246 194.344 108.272 194.372 108.291C194.4 108.31 194.432 108.322 194.466 108.325C194.51 108.321 194.552 108.305 194.587 108.279Z" fill="#263238"/>
<path d="M191.223 112.658C191.493 112.781 191.787 112.845 192.084 112.845C192.381 112.845 192.675 112.781 192.945 112.658C192.418 111.588 192.032 110.453 191.797 109.283L191.223 112.658Z" fill="#BA4D3C"/>
<path d="M181.568 108.118C179.846 101.861 182.63 100.231 185.638 99.1062C188.646 97.9812 190.316 99.0603 191.275 100.116C191.573 100.449 192.17 101.448 190.242 101.58C189.074 101.625 187.905 101.535 186.757 101.31C186.528 101.27 186.292 101.294 186.076 101.379C185.859 101.464 185.67 101.607 185.529 101.793C184.863 102.665 183.807 104.295 183.807 105.719C183.847 106.26 183.768 106.804 183.576 107.312C183.384 107.819 183.082 108.279 182.694 108.658L181.568 108.118Z" fill="#263238"/>
<path d="M179.399 139.562C179.549 139.563 179.695 139.608 179.819 139.693C179.943 139.777 180.039 139.896 180.096 140.035C180.152 140.174 180.166 140.326 180.135 140.473C180.105 140.62 180.032 140.754 179.925 140.859C179.818 140.964 179.683 141.035 179.536 141.064C179.388 141.092 179.236 141.076 179.098 141.017C178.96 140.959 178.843 140.861 178.76 140.736C178.678 140.61 178.635 140.464 178.636 140.314C178.636 140.213 178.656 140.114 178.695 140.022C178.733 139.93 178.79 139.846 178.862 139.776C178.934 139.706 179.019 139.651 179.112 139.614C179.205 139.577 179.305 139.559 179.405 139.562H179.399Z" fill="#C6C8D2"/>
<path d="M177.734 147.575C177.834 147.575 177.932 147.594 178.024 147.633C178.116 147.671 178.2 147.726 178.27 147.797C178.34 147.867 178.396 147.951 178.434 148.043C178.472 148.135 178.492 148.233 178.492 148.333C178.492 148.432 178.472 148.531 178.434 148.622C178.396 148.714 178.34 148.798 178.27 148.868C178.2 148.939 178.116 148.994 178.024 149.033C177.932 149.071 177.834 149.09 177.734 149.09C177.533 149.089 177.34 149.008 177.198 148.865C177.056 148.722 176.977 148.528 176.977 148.327C176.977 148.228 176.996 148.129 177.034 148.038C177.072 147.946 177.128 147.863 177.199 147.793C177.269 147.723 177.353 147.668 177.445 147.63C177.537 147.593 177.635 147.574 177.734 147.575Z" fill="#C6C8D2"/>
<path d="M181.615 106.706C182.831 106.924 183.417 108.64 183.428 109.765C183.44 110.89 182.567 111.883 181.494 111.166C180.679 110.603 180.106 109.755 179.887 108.79C179.651 107.578 180.403 106.465 181.615 106.706Z" fill="#FFBE9D"/>
<path d="M187.171 112.595C188.49 112.968 189.77 113.466 190.994 114.082C190.616 114.486 190.111 114.748 189.563 114.823C189.015 114.898 188.458 114.783 187.986 114.495C187.803 114.431 187.635 114.329 187.493 114.196C187.352 114.063 187.239 113.902 187.162 113.724C187.086 113.545 187.047 113.353 187.048 113.159C187.05 112.964 187.092 112.773 187.171 112.595Z" fill="#263238"/>
<path d="M188.933 114.168C188.406 113.887 187.803 113.78 187.211 113.864C187.392 114.155 187.659 114.383 187.974 114.518C188.501 114.801 189.105 114.907 189.696 114.822C189.519 114.527 189.251 114.298 188.933 114.168Z" fill="#A02724"/>
<path d="M187.309 112.63C187.289 112.743 187.301 112.859 187.343 112.965C187.386 113.072 187.457 113.164 187.55 113.232C188.362 113.608 189.205 113.914 190.07 114.145C190.203 114.195 190.346 114.211 190.486 114.191C190.627 114.171 190.76 114.115 190.873 114.03C189.723 113.472 188.532 113.003 187.309 112.63Z" fill="white"/>
<path d="M191.704 154.738L202.094 154.794L202.103 153.124L191.714 153.068L191.704 154.738Z" fill="#263238"/>
<path d="M192.559 154.745L179.357 154.674C179.255 154.673 179.153 154.652 179.059 154.613C178.964 154.573 178.879 154.515 178.807 154.442C178.734 154.369 178.677 154.283 178.639 154.188C178.6 154.093 178.58 153.991 178.581 153.889L178.586 153.005L192.568 153.08L192.559 154.751L192.559 154.745Z" fill="#263238"/>
<path opacity="0.3" d="M192.559 154.745L179.357 154.674C179.255 154.673 179.153 154.652 179.059 154.613C178.964 154.573 178.879 154.515 178.807 154.442C178.734 154.369 178.677 154.283 178.639 154.188C178.6 154.093 178.58 153.991 178.581 153.889L178.586 153.005L192.568 153.08L192.559 154.751L192.559 154.745Z" fill="white"/>
<path d="M188.796 154.187L190.467 154.196L190.47 153.605L188.8 153.596L188.796 154.187Z" fill="#263238"/>
<path d="M186.191 154.184L187.861 154.193L187.864 153.602L186.194 153.593L186.191 154.184Z" fill="#263238"/>
<path d="M194.541 153.097L193.433 153.091L197.853 138.041L198.961 138.046L194.541 153.097Z" fill="#263238"/>
<path opacity="0.3" d="M194.541 153.097L193.433 153.091L197.853 138.041L198.961 138.046L194.541 153.097Z" fill="white"/>
<path d="M194.134 153.097L213.633 153.2L218.052 138.144L198.554 138.041L194.134 153.097Z" fill="#263238"/>
<path opacity="0.6" d="M194.134 153.097L213.633 153.2L218.052 138.144L198.554 138.041L194.134 153.097Z" fill="white"/>
<path d="M193.181 153.091L213.477 153.2C213.816 153.2 214.092 153.579 214.092 154.038C214.092 154.497 213.81 154.87 213.466 154.87L193.169 154.761C192.831 154.761 192.555 154.382 192.555 153.923C192.555 153.464 192.836 153.091 193.181 153.091Z" fill="#263238"/>
<path opacity="0.5" d="M193.181 153.091L213.477 153.2C213.816 153.2 214.092 153.579 214.092 154.038C214.092 154.497 213.81 154.87 213.466 154.87L193.169 154.761C192.831 154.761 192.555 154.382 192.555 153.923C192.555 153.464 192.836 153.091 193.181 153.091Z" fill="white"/>
<path d="M192.555 153.923C192.555 154.382 192.831 154.756 193.169 154.761C193.508 154.767 193.789 154.388 193.795 153.929C193.801 153.47 193.519 153.091 193.181 153.091C192.842 153.091 192.561 153.464 192.555 153.923Z" fill="#263238"/>
<path opacity="0.3" d="M192.555 153.923C192.555 154.382 192.831 154.756 193.169 154.761C193.508 154.767 193.789 154.388 193.795 153.929C193.801 153.47 193.519 153.091 193.181 153.091C192.842 153.091 192.561 153.464 192.555 153.923Z" fill="white"/>
<path opacity="0.2" d="M173.389 139.154C172.453 137.868 171.46 133.104 170.766 129.167L171.667 128.994L171.455 127.364L170.984 127.45C170.657 124.374 169.383 115.121 165.933 117.118C164.928 119.07 164.044 121.033 163.275 122.973C163.207 124.913 163.373 126.853 163.769 128.753L163.195 128.857L163.723 130.504L164.946 130.274C165.674 134.074 166.736 138.884 167.724 140.79C169.021 143.293 174.612 147.471 178.354 149.503C182.562 148.757 183.52 148.229 183.52 148.229C183.4 148.071 183.301 147.897 183.227 147.712L182.55 147.81C182.55 147.81 175.059 141.456 173.389 139.154Z" fill="black"/>
<path d="M172.362 123.57C172.362 123.57 173.59 136.985 175.151 139.361C176.713 141.737 183.905 148.453 183.905 148.453L188.669 147.982L191.7 151.134L189.329 152.626L186.85 151.369C185.414 151.464 183.974 151.431 182.545 151.271C180.139 151.007 170.996 144.188 169.411 140.744C167.827 137.3 166.444 124.862 166.444 124.862L172.362 123.57Z" fill="#FFBE9D"/>
<path d="M173.429 126.463L172.953 126.549C172.626 123.415 171.311 113.887 167.724 116.332C164.28 118.685 165.238 125.367 165.743 127.864L165.169 127.967L165.698 129.614L173.642 128.093L173.429 126.463Z" fill="#C6C8D2"/>
<path d="M57.3206 172.463L55.9487 172.389L56.2702 166.167C56.4017 164.104 57.3075 162.167 58.8061 160.744C60.3047 159.321 62.2856 158.517 64.3521 158.492C65.3541 158.482 66.3474 158.679 67.27 159.07C68.1925 159.462 69.0245 160.039 69.714 160.766C70.4034 161.493 70.9356 162.355 71.2772 163.297C71.6188 164.239 71.7625 165.241 71.6993 166.241L71.3721 172.463L70.0002 172.389L70.3274 166.167C70.3821 165.352 70.2677 164.535 69.9912 163.766C69.7148 162.998 69.2823 162.295 68.7211 161.702C68.1599 161.109 67.482 160.639 66.7301 160.32C65.9782 160.002 65.1685 159.843 64.3521 159.853C62.6362 159.874 60.9919 160.543 59.7485 161.726C58.5052 162.908 57.7548 164.517 57.6478 166.23L57.3206 172.463Z" fill="#263238"/>
<path d="M86.7498 169.697H46.1852L44.8076 217.826L50.8231 216.449L56.8387 217.826H88.1274L86.7498 169.697Z" fill="#C6C8D2"/>
<path opacity="0.6" d="M86.7498 169.697H46.1852L44.8076 217.826L50.8231 216.449L56.8387 217.826H88.1274L86.7498 169.697Z" fill="white"/>
<path d="M56.8387 217.826L50.8231 216.449L44.8076 217.826L46.1852 169.697H55.4668L56.8387 217.826Z" fill="#C6C8D2"/>
<path opacity="0.3" d="M56.8387 217.826L50.8231 216.449L44.8076 217.826L46.1852 169.697H55.4668L56.8387 217.826Z" fill="white"/>
<path d="M78.1626 172.463L77.8584 166.241C77.7513 164.528 77.0001 162.918 75.7555 161.735C74.511 160.552 72.8652 159.884 71.1483 159.864C70.3324 159.855 69.5234 160.015 68.7721 160.334C68.0209 160.652 67.3437 161.123 66.7831 161.716C66.2225 162.309 65.7906 163.011 65.5145 163.779C65.2384 164.547 65.1241 165.364 65.1787 166.178L65.5059 172.4L64.134 172.475L63.8069 166.253C63.7429 165.253 63.8858 164.251 64.2267 163.309C64.5677 162.367 65.0992 161.505 65.7883 160.778C66.4773 160.05 67.3089 159.473 68.2312 159.082C69.1535 158.691 70.1465 158.494 71.1483 158.504C73.2152 158.527 75.1968 159.331 76.6957 160.754C78.1947 162.178 79.1 164.115 79.2302 166.178L79.5574 172.4L78.1626 172.463Z" fill="#263238"/>
<g opacity="0.2">
<path d="M78.1626 172.463L77.8584 166.241C77.7513 164.528 77.0001 162.918 75.7555 161.735C74.511 160.552 72.8652 159.884 71.1483 159.864C70.3324 159.855 69.5234 160.015 68.7721 160.334C68.0209 160.652 67.3437 161.123 66.7831 161.716C66.2225 162.309 65.7906 163.011 65.5145 163.779C65.2384 164.547 65.1241 165.364 65.1787 166.178L65.5059 172.4L64.134 172.475L63.8069 166.253C63.7429 165.253 63.8858 164.251 64.2267 163.309C64.5677 162.367 65.0992 161.505 65.7883 160.778C66.4773 160.05 67.3089 159.473 68.2312 159.082C69.1535 158.691 70.1465 158.494 71.1483 158.504C73.2152 158.527 75.1968 159.331 76.6957 160.754C78.1947 162.178 79.1 164.115 79.2302 166.178L79.5574 172.4L78.1626 172.463Z" fill="white"/>
</g>
<path d="M81.268 187.272H62.4064C61.9816 187.272 61.6372 187.617 61.6372 188.042V191.09C61.6372 191.514 61.9816 191.859 62.4064 191.859H81.268C81.6928 191.859 82.0372 191.514 82.0372 191.09V188.042C82.0372 187.617 81.6928 187.272 81.268 187.272Z" fill="white"/>
<path d="M38.6771 187.416L37.7529 187.364L37.9711 183.197C38.0537 181.81 38.6586 180.507 39.664 179.548C40.6694 178.59 42.0006 178.048 43.3896 178.031C44.0588 178.025 44.7223 178.155 45.3388 178.416C45.9553 178.676 46.5117 179.061 46.9735 179.545C47.4352 180.029 47.7926 180.604 48.0233 181.232C48.254 181.86 48.3531 182.529 48.3145 183.197L48.0964 187.37L47.178 187.318L47.3961 183.151C47.431 182.605 47.3525 182.057 47.1657 181.543C46.9788 181.028 46.6876 180.558 46.3103 180.161C45.933 179.764 45.4778 179.45 44.9732 179.237C44.4686 179.025 43.9256 178.919 43.3781 178.927C42.2284 178.94 41.1264 179.388 40.2929 180.18C39.4594 180.972 38.956 182.05 38.8837 183.197L38.6771 187.416Z" fill="#263238"/>
<path d="M58.4055 185.562H31.2094L30.291 217.827L34.3205 216.902L38.3557 217.827H59.3297L58.4055 185.562Z" fill="#2D334D"/>
<path d="M38.3557 217.827L34.3205 216.902L30.291 217.827L31.2094 185.562H37.4316L38.3557 217.827Z" fill="#A4A8B7"/>
<path d="M52.6482 187.416L52.4301 183.243C52.3498 182.097 51.8433 181.023 51.0102 180.233C50.1772 179.442 49.0782 178.993 47.9299 178.972C47.382 178.963 46.8381 179.068 46.3328 179.28C45.8274 179.492 45.3714 179.806 44.9938 180.203C44.6161 180.6 44.325 181.071 44.1388 181.587C43.9525 182.102 43.8753 182.65 43.9119 183.197L44.13 187.364L43.2116 187.416L42.9878 183.243C42.95 182.575 43.0498 181.906 43.2808 181.279C43.5118 180.651 43.8691 180.077 44.3308 179.593C44.7924 179.109 45.3484 178.724 45.9646 178.463C46.5807 178.203 47.2437 178.071 47.9127 178.077C49.3017 178.093 50.6329 178.635 51.6383 179.594C52.6437 180.552 53.2486 181.856 53.3312 183.243L53.5494 187.41L52.6482 187.416Z" fill="#263238"/>
<g opacity="0.2">
<path d="M52.6482 187.416L52.4301 183.243C52.3498 182.097 51.8433 181.023 51.0102 180.233C50.1772 179.442 49.0782 178.993 47.9299 178.972C47.382 178.963 46.8381 179.068 46.3328 179.28C45.8274 179.492 45.3714 179.806 44.9938 180.203C44.6161 180.6 44.325 181.071 44.1388 181.587C43.9525 182.102 43.8753 182.65 43.9119 183.197L44.13 187.364L43.2116 187.416L42.9878 183.243C42.95 182.575 43.0498 181.906 43.2808 181.279C43.5118 180.651 43.8691 180.077 44.3308 179.593C44.7924 179.109 45.3484 178.724 45.9646 178.463C46.5807 178.203 47.2437 178.071 47.9127 178.077C49.3017 178.093 50.6329 178.635 51.6383 179.594C52.6437 180.552 53.2486 181.856 53.3312 183.243L53.5494 187.41L52.6482 187.416Z" fill="white"/>
</g>
<path d="M54.4738 197.346H42.3395C41.9147 197.346 41.5703 197.691 41.5703 198.115V199.648C41.5703 200.073 41.9147 200.417 42.3395 200.417H54.4738C54.8986 200.417 55.243 200.073 55.243 199.648V198.115C55.243 197.691 54.8986 197.346 54.4738 197.346Z" fill="white"/>
<path d="M80.5439 214.675L76.1758 214.222L76.3939 204.016L80.762 204.47L80.5439 214.675Z" fill="#FFBE9D"/>
<path d="M117.498 200.038L113.589 202.03L107.711 193.604L111.626 191.612L117.498 200.038Z" fill="#FFBE9D"/>
<path d="M112.774 201.485L116.792 198.615C116.861 198.565 116.945 198.541 117.029 198.549C117.114 198.556 117.193 198.594 117.251 198.655L119.972 201.525C120.038 201.599 120.088 201.686 120.118 201.78C120.149 201.875 120.159 201.974 120.148 202.073C120.137 202.172 120.106 202.267 120.056 202.352C120.005 202.438 119.938 202.512 119.857 202.57C118.44 203.545 117.705 203.942 115.937 205.204C114.852 205.979 113.343 207.225 111.844 208.292C110.346 209.36 109.204 207.937 109.732 207.357C112.103 204.757 111.953 203.609 112.332 202.145C112.396 201.879 112.553 201.645 112.774 201.485Z" fill="#263238"/>
<path d="M75.8029 213.671L80.7106 214.182C80.7949 214.189 80.8737 214.227 80.932 214.288C80.9902 214.349 81.0238 214.43 81.0263 214.515L81.1813 218.458C81.1818 218.557 81.1614 218.656 81.1214 218.747C81.0813 218.838 81.0225 218.919 80.9489 218.986C80.8752 219.052 80.7883 219.103 80.6938 219.133C80.5993 219.164 80.4994 219.175 80.4006 219.164C78.6786 218.952 77.8808 218.768 75.7225 218.544C74.3909 218.401 70.5566 218.142 68.7312 217.97C66.9059 217.798 67.0092 215.955 67.7726 215.869C71.2683 215.491 73.7939 214.721 75.0452 213.878C75.2656 213.722 75.5339 213.649 75.8029 213.671Z" fill="#263238"/>
<g opacity="0.2">
<path d="M76.3941 204.016L76.2793 209.28L80.6532 209.733L80.7622 204.475L76.3941 204.016Z" fill="black"/>
<path d="M111.626 191.618L107.711 193.61L110.742 197.949L114.657 195.957L111.626 191.618Z" fill="black"/>
</g>
<path d="M78.4833 115.85C78.4833 115.85 73.9545 149.561 73.8397 162.958C73.7019 176.895 75.4698 208.178 75.4698 208.178L81.3763 208.792C81.3763 208.792 83.7756 178.025 84.7285 164.37C85.7731 149.475 91.5591 116.269 91.5591 116.269L78.4833 115.85Z" fill="url(#paint3_linear_180_5445)"/>
<path d="M81.8471 209.05L74.9132 208.327L74.6377 206.065L82.4269 206.605L81.8471 209.05Z" fill="#C6C8D2"/>
<path opacity="0.6" d="M85.8938 124.5C81.2329 133.173 84.2292 149.354 85.5896 155.381C86.663 146.427 88.3505 135.492 89.6478 127.468C89.1427 122.887 88.0578 120.511 85.8938 124.5Z" fill="black"/>
<path d="M83.1899 115.999C83.1899 115.999 86.1231 151.283 88.8151 162.665C92.0123 176.183 109.336 197.524 109.336 197.524L114.674 194.809C114.674 194.809 102.936 171.092 100.393 163.939C94.9569 148.688 100.726 126.394 96.3116 116.412L83.1899 115.999Z" fill="url(#paint4_linear_180_5445)"/>
<path d="M115.432 194.775L108.808 198.144L107.045 196.422L114.657 192.106L115.432 194.775Z" fill="#C6C8D2"/>
<path d="M111.23 203.287H111.178C111.078 203.275 110.982 203.236 110.901 203.174C110.821 203.113 110.758 203.031 110.719 202.937C110.687 202.883 110.67 202.822 110.67 202.759C110.67 202.697 110.687 202.635 110.719 202.581C111 202.093 112.584 202.007 112.762 202.007C112.783 202.007 112.804 202.013 112.821 202.024C112.838 202.035 112.852 202.051 112.86 202.07C112.873 202.086 112.879 202.105 112.879 202.125C112.879 202.145 112.873 202.164 112.86 202.179C112.475 202.61 111.781 203.304 111.23 203.287ZM112.521 202.231C111.89 202.277 111.046 202.426 110.897 202.679C110.883 202.703 110.875 202.731 110.875 202.759C110.875 202.787 110.883 202.815 110.897 202.84C110.923 202.902 110.964 202.957 111.018 202.998C111.071 203.039 111.134 203.066 111.201 203.075C111.5 203.138 111.988 202.799 112.521 202.231Z" fill="#C6C8D2"/>
<path d="M112.619 202.22C112.074 202.22 111.081 201.915 110.897 201.496C110.863 201.421 110.857 201.336 110.879 201.257C110.901 201.177 110.95 201.108 111.018 201.06C111.075 201.005 111.144 200.963 111.219 200.938C111.295 200.914 111.375 200.906 111.454 200.917C112.091 200.985 112.826 202.007 112.86 202.065C112.869 202.08 112.873 202.098 112.873 202.116C112.873 202.134 112.869 202.152 112.86 202.168C112.852 202.184 112.84 202.198 112.825 202.208C112.81 202.218 112.792 202.224 112.774 202.225C112.722 202.229 112.67 202.227 112.619 202.22ZM111.396 201.123C111.352 201.119 111.306 201.125 111.264 201.14C111.221 201.155 111.182 201.178 111.15 201.209C111.052 201.301 111.064 201.364 111.081 201.41C111.207 201.691 112.028 201.984 112.562 202.013C112.298 201.686 111.804 201.163 111.414 201.123H111.396Z" fill="#C6C8D2"/>
<path d="M74.0862 214.262C73.7087 214.258 73.3441 214.124 73.0531 213.883C72.989 213.814 72.9429 213.73 72.9189 213.639C72.8949 213.548 72.8936 213.453 72.9153 213.361C72.9253 213.304 72.9495 213.25 72.9856 213.205C73.0217 213.16 73.0686 213.125 73.1219 213.103C73.6959 212.867 75.3376 213.935 75.5212 214.061C75.5398 214.072 75.5543 214.088 75.5626 214.108C75.5709 214.128 75.5725 214.15 75.5672 214.17C75.5624 214.192 75.5509 214.211 75.5344 214.225C75.5179 214.24 75.4972 214.249 75.4753 214.251C75.0137 214.298 74.5486 214.302 74.0862 214.262ZM73.3974 213.275C73.333 213.262 73.2667 213.262 73.2023 213.275C73.1806 213.285 73.1619 213.3 73.1478 213.319C73.1337 213.338 73.1248 213.36 73.1219 213.384C73.1059 213.443 73.1055 213.505 73.1206 213.565C73.1356 213.624 73.1658 213.678 73.208 213.723C73.4491 213.992 74.1609 214.107 75.1481 214.05C74.6115 213.696 74.0199 213.435 73.3974 213.275Z" fill="#C6C8D2"/>
<path d="M75.4526 214.251C75.4526 214.251 75.4239 214.251 75.4124 214.251C74.9188 213.964 73.9831 212.913 74.1152 212.425C74.1496 212.31 74.2472 212.173 74.5342 212.173C74.6414 212.17 74.748 212.191 74.8469 212.232C74.9458 212.274 75.0348 212.336 75.1082 212.414C75.6076 212.93 75.5903 214.136 75.5846 214.164C75.5853 214.182 75.5808 214.2 75.5716 214.215C75.5624 214.23 75.549 214.243 75.5329 214.251C75.507 214.26 75.4785 214.26 75.4526 214.251ZM74.5973 212.368H74.5342C74.3448 212.368 74.3275 212.437 74.3161 212.465C74.2414 212.758 74.8614 213.567 75.3607 213.946C75.3676 213.446 75.2214 212.955 74.9417 212.54C74.8502 212.445 74.7285 212.384 74.5973 212.368Z" fill="#C6C8D2"/>
<path d="M76.6004 97.9296C74.9748 100.101 73.1533 102.118 71.1588 103.957C70.1038 104.947 68.9497 105.826 67.7148 106.58C66.9873 107.026 66.2036 107.373 65.3844 107.613C64.8659 107.763 64.3284 107.836 63.7887 107.831C63.4663 107.828 63.1451 107.791 62.8301 107.722C62.6694 107.682 62.4972 107.63 62.3365 107.573C62.1477 107.507 61.9652 107.424 61.7911 107.326C61.3853 107.107 61.0311 106.804 60.7522 106.436C60.5384 106.165 60.3627 105.866 60.2299 105.547C60.0333 105.084 59.9001 104.598 59.8338 104.1C59.733 103.33 59.7041 102.551 59.7477 101.775C59.8433 100.403 60.0351 99.0395 60.3217 97.6943C60.8475 95.0999 61.565 92.5482 62.4685 90.0601L64.8448 90.6742C64.5062 93.1711 64.1905 95.7197 64.0011 98.1879C63.897 99.3846 63.8664 100.586 63.9092 101.787C63.9204 102.299 63.9839 102.809 64.0986 103.308C64.1266 103.446 64.1749 103.58 64.2421 103.704C64.2766 103.761 64.2421 103.583 63.9092 103.371C63.7887 103.314 63.8288 103.319 63.8001 103.314C63.9 103.291 63.9979 103.26 64.0929 103.222C64.4977 103.057 64.8827 102.847 65.2409 102.596C66.1607 101.939 67.0264 101.21 67.8296 100.415C68.6849 99.5827 69.5057 98.693 70.3151 97.7574C71.1244 96.8218 71.9337 95.8689 72.6742 94.9563L76.6004 97.9296Z" fill="#FFBE9D"/>
<path d="M75.6418 91.6098C73.8452 91.1162 68.5127 97.9238 68.5127 97.9238L73.6098 103.612C73.6098 103.612 79.5852 98.2166 79.3498 95.8C79.126 93.2744 78.2707 92.356 75.6418 91.6098Z" fill="#C6C8D2"/>
<path d="M64.9081 90.0599L64.7072 86.4839L61.2632 89.3194C61.2632 89.3194 61.7855 92.0919 63.5247 92.6429L64.5981 91.1333C64.8179 90.8199 64.9269 90.4422 64.9081 90.0599Z" fill="#FFBE9D"/>
<path d="M62.4632 83.5336L59.708 86.0706L61.2578 89.308L64.7075 86.4724L62.4632 83.5336Z" fill="#FFBE9D"/>
<path d="M61.0624 90.4503L60.2645 90.1633C60.049 90.0823 59.8689 89.9281 59.7555 89.7277C59.6422 89.5273 59.603 89.2934 59.6446 89.067L60.8558 82.6267L63.0312 83.4188L62.3596 89.641C62.3452 89.7881 62.2972 89.9298 62.2193 90.0554C62.1414 90.181 62.0357 90.2869 61.9104 90.3651C61.785 90.4434 61.6433 90.4917 61.4963 90.5065C61.3493 90.5213 61.2008 90.502 61.0624 90.4503Z" fill="#263238"/>
<path d="M66.7968 82.2709C66.9345 81.8978 67.0665 81.5304 67.1871 81.163C66.697 80.3731 66.0408 79.6993 65.2642 79.1885C64.9772 79.8945 64.6902 80.635 64.4089 81.3984C64.1277 82.1618 63.8751 82.9137 63.6455 83.6427C64.5692 83.7497 65.5052 83.6557 66.3892 83.3672C66.527 83.0056 66.6647 82.644 66.7968 82.2709Z" fill="#263238"/>
<path d="M65.3557 81.7485C65.695 80.8544 65.9393 79.927 66.0847 78.9818L58.9499 76.3816L57.0098 81.7141L64.1503 84.32C64.64 83.5069 65.044 82.6451 65.3557 81.7485Z" fill="#C6C8D2"/>
<path opacity="0.6" d="M65.3557 81.7485C65.695 80.8544 65.9393 79.927 66.0847 78.9818L58.9499 76.3816L57.0098 81.7141L64.1503 84.32C64.64 83.5069 65.044 82.6451 65.3557 81.7485Z" fill="white"/>
<path d="M60.8041 76.5594C60.4826 76.4389 52.7681 68.5234 51.9071 68.1848C51.0461 67.8461 48.9625 70.9916 47.4241 75.2163C45.8858 79.4409 45.4036 83.1375 46.3393 83.4819C47.2749 83.8263 58.2096 82.6725 58.5368 82.7873C58.8639 82.9021 59.7364 81.6393 60.3621 79.9173C60.9878 78.1953 61.2116 76.6972 60.8041 76.5594Z" fill="#C6C8D2"/>
<path opacity="0.4" d="M60.8041 76.5594C60.4826 76.4389 52.7681 68.5234 51.9071 68.1848C51.0461 67.8461 48.9625 70.9916 47.4241 75.2163C45.8858 79.4409 45.4036 83.1375 46.3393 83.4819C47.2749 83.8263 58.2096 82.6725 58.5368 82.7873C58.8639 82.9021 59.7364 81.6393 60.3621 79.9173C60.9878 78.1953 61.2116 76.6972 60.8041 76.5594Z" fill="white"/>
<path d="M50.8222 76.4504C49.2839 80.675 47.2749 83.8206 46.3393 83.4819C45.4036 83.1432 45.8858 79.4639 47.4241 75.2163C48.9625 70.9687 50.9714 67.8461 51.9071 68.1848C52.8427 68.5235 52.3605 72.2315 50.8222 76.4504Z" fill="#C6C8D2"/>
<path d="M48.5838 75.6238C48.4804 75.9051 48.3829 76.1978 48.291 76.4561C48.8208 77.1203 49.4688 77.6808 50.2024 78.1092C50.4206 77.5812 50.6387 77.0244 50.8511 76.4504C51.0634 75.8764 51.2471 75.3024 51.4251 74.7628C50.5879 74.6204 49.7317 74.634 48.8995 74.803C48.756 75.0728 48.6526 75.3483 48.5838 75.6238Z" fill="#263238"/>
<path opacity="0.2" d="M74.1379 95.6106C74.402 99.4277 73.5123 101.701 72.8809 102.797L73.6098 103.606C73.6098 103.606 76.9792 100.564 78.5635 98.0271C76.7841 95.3867 73.8394 91.5983 74.1379 95.6106Z" fill="black"/>
<path d="M94.2053 73.9019C96.5987 73.9019 98.539 71.9616 98.539 69.5682C98.539 67.1748 96.5987 65.2345 94.2053 65.2345C91.8118 65.2345 89.8716 67.1748 89.8716 69.5682C89.8716 71.9616 91.8118 73.9019 94.2053 73.9019Z" fill="#263238"/>
<path d="M93.7401 71.5427C93.7412 72.0822 93.5823 72.6099 93.2834 73.059C92.9845 73.5081 92.5591 73.8585 92.061 74.0657C91.5629 74.2729 91.0145 74.3278 90.4852 74.2232C89.956 74.1187 89.4696 73.8594 89.0877 73.4784C88.7058 73.0973 88.4456 72.6115 88.3399 72.0824C88.2343 71.5534 88.2879 71.0049 88.4941 70.5063C88.7003 70.0078 89.0498 69.5816 89.4982 69.2818C89.9467 68.982 90.4741 68.8219 91.0136 68.8219C91.7357 68.8219 92.4284 69.1084 92.9395 69.6184C93.4507 70.1285 93.7386 70.8205 93.7401 71.5427Z" fill="#C6C8D2"/>
<path d="M82.3577 68.1619C82.3577 68.1619 76.6177 67.6912 76.6177 77.564C76.6177 84.3258 79.901 87.4541 83.9247 85.181C83.9247 85.181 92.7987 84.452 93.8205 76.3299C94.8422 68.2078 88.5626 65.1829 82.3577 68.1619Z" fill="#263238"/>
<path d="M74.4709 91.8738C74.4709 91.8738 72.4332 92.7578 78.4889 118.157L96.2829 116.866C95.4563 109.645 95.1348 105.185 97.5055 90.0715C94.9768 89.7384 92.4273 89.5888 89.877 89.6237C87.1729 89.6238 84.4721 89.8156 81.7951 90.1977C78.3453 90.7832 74.4709 91.8738 74.4709 91.8738Z" fill="#C6C8D2"/>
<path d="M88.4077 80.5833C88.0862 83.2237 87.9255 88.0453 89.8713 89.6238C89.8713 89.6238 89.3548 92.3101 84.5217 92.6659C79.2122 93.0505 81.7894 90.2092 81.7894 90.2092C84.6594 89.308 84.4069 87.1613 83.7583 85.181L88.4077 80.5833Z" fill="#FFBE9D"/>
<path opacity="0.2" d="M86.5135 82.4602L83.7583 85.181C83.9172 85.6406 84.0362 86.113 84.1142 86.593C85.2105 86.3519 86.6398 85.026 86.6742 83.8608C86.7066 83.388 86.6521 82.9133 86.5135 82.4602Z" fill="black"/>
<path d="M91.3809 76.1979C90.3879 80.4398 90.0549 82.2594 87.5121 84.0904C83.6893 86.8456 78.6955 84.6931 78.4027 80.2389C78.1387 76.2209 79.809 69.9643 84.3035 68.9713C85.2921 68.7491 86.3212 68.7832 87.2929 69.0704C88.2647 69.3576 89.147 69.8884 89.856 70.6124C90.565 71.3363 91.0773 72.2295 91.3441 73.207C91.611 74.1846 91.6237 75.2141 91.3809 76.1979Z" fill="#FFBE9D"/>
<path d="M84.0624 76.1693C84.005 76.5194 83.7696 76.7433 83.5458 76.7433C83.3219 76.7433 83.1784 76.3874 83.2358 76.0373C83.2932 75.6871 83.5343 75.4633 83.7582 75.4633C83.982 75.4633 84.1255 75.8191 84.0624 76.1693Z" fill="#263238"/>
<path d="M80.1192 75.4976C80.0561 75.842 79.8265 76.0716 79.5969 76.0716C79.3673 76.0716 79.2295 75.7215 79.2927 75.3714C79.3558 75.0212 79.5854 74.7974 79.815 74.7974C80.0446 74.7974 80.1537 75.136 80.1192 75.4976Z" fill="#263238"/>
<path d="M79.9126 74.8319L79.1147 74.4415C79.1147 74.4415 79.4304 75.1705 79.9126 74.8319Z" fill="#263238"/>
<path d="M81.5082 76.33C81.0619 77.0747 80.5153 77.7545 79.8838 78.3504C80.0408 78.5069 80.2299 78.6274 80.438 78.7037C80.6461 78.78 80.8683 78.8103 81.0892 78.7924L81.5082 76.33Z" fill="#A02724"/>
<path d="M91.8748 80.3307C91.4464 81.0577 90.7497 81.5874 89.9347 81.8059C88.8556 82.0814 88.339 81.1056 88.6604 80.0839C88.9474 79.177 89.8601 77.9429 90.9564 78.1093C91.191 78.1535 91.4108 78.2554 91.596 78.4059C91.7813 78.5564 91.926 78.7508 92.0172 78.9713C92.1084 79.1919 92.1431 79.4317 92.1183 79.6691C92.0934 79.9064 92.0097 80.1338 91.8748 80.3307Z" fill="#FFBE9D"/>
<path d="M85.7844 75.6354C85.7402 75.6346 85.6974 75.6198 85.6622 75.5929C85.6271 75.566 85.6015 75.5286 85.5892 75.4861C85.308 74.5677 84.1313 74.1774 84.1198 74.1717C84.0938 74.163 84.0697 74.1493 84.049 74.1313C84.0283 74.1134 84.0114 74.0915 83.9991 74.067C83.9868 74.0425 83.9795 74.0158 83.9776 73.9884C83.9756 73.9611 83.9791 73.9336 83.9878 73.9076C83.9964 73.8816 84.0101 73.8576 84.0281 73.8369C84.0461 73.8162 84.0679 73.7992 84.0924 73.7869C84.117 73.7747 84.1437 73.7674 84.171 73.7654C84.1983 73.7635 84.2258 73.7669 84.2518 73.7756C84.6346 73.9045 84.9858 74.1128 85.2825 74.3868C85.5792 74.6608 85.8148 74.9943 85.9738 75.3656C85.9818 75.3916 85.9845 75.4189 85.9819 75.446C85.9793 75.4731 85.9714 75.4993 85.9586 75.5233C85.9458 75.5473 85.9283 75.5686 85.9073 75.5858C85.8863 75.6031 85.8621 75.616 85.836 75.6239C85.8197 75.6309 85.8022 75.6348 85.7844 75.6354Z" fill="#263238"/>
<path d="M79.241 73.4715C79.1967 73.4679 79.1547 73.4505 79.1209 73.4218C79.087 73.393 79.063 73.3544 79.0522 73.3113C79.0415 73.2683 79.0445 73.2229 79.0608 73.1816C79.0772 73.1403 79.1061 73.1052 79.1434 73.0812C79.4259 72.9098 79.7455 72.8089 80.0751 72.7869C80.4048 72.7649 80.7349 72.8225 81.0376 72.9549C81.0621 72.9673 81.0839 72.9845 81.1018 73.0053C81.1197 73.0262 81.1333 73.0504 81.1418 73.0765C81.1503 73.1026 81.1536 73.1302 81.1515 73.1576C81.1494 73.185 81.1419 73.2117 81.1295 73.2362C81.117 73.2607 81.0999 73.2825 81.079 73.3003C81.0582 73.3182 81.034 73.3318 81.0079 73.3403C80.9817 73.3488 80.9542 73.3522 80.9268 73.35C80.8994 73.3479 80.8727 73.3404 80.8482 73.328C80.6077 73.2251 80.3459 73.1818 80.0851 73.2018C79.8242 73.2218 79.5721 73.3044 79.3501 73.4428C79.3166 73.4611 79.2791 73.4709 79.241 73.4715Z" fill="#263238"/>
<path d="M83.856 75.5034L83.0581 75.1188C83.0581 75.1188 83.3795 75.8478 83.856 75.5034Z" fill="#263238"/>
<path d="M81.4336 79.8773C82.8936 79.5738 84.3795 79.4123 85.8706 79.3951C85.532 80.3996 84.8546 81.2377 83.1728 81.3008C82.9638 81.3297 82.7511 81.3151 82.548 81.2579C82.3449 81.2007 82.1558 81.1022 81.9925 80.9686C81.8293 80.835 81.6954 80.6691 81.5992 80.4813C81.503 80.2935 81.4466 80.0879 81.4336 79.8773Z" fill="#263238"/>
<path d="M83.9132 80.4914C83.2667 80.4864 82.6354 80.6875 82.1108 81.0654C82.4304 81.2564 82.8017 81.3427 83.1727 81.3123C83.8193 81.3173 84.4506 81.1163 84.9751 80.7383C84.6572 80.5432 84.2846 80.4565 83.9132 80.4914Z" fill="#A02724"/>
<path d="M81.583 79.8427C81.622 79.962 81.6929 80.0684 81.788 80.1504C81.8831 80.2323 81.9988 80.2867 82.1226 80.3077C83.0883 80.2564 84.0482 80.1258 84.9926 79.9174C85.146 79.8986 85.2921 79.8414 85.4176 79.7511C85.543 79.6608 85.6436 79.5403 85.7101 79.4008C84.325 79.4406 82.9451 79.5884 81.583 79.8427Z" fill="white"/>
<path d="M79.1436 73.081C80.4501 72.5278 81.5868 71.6386 82.4383 70.5038C82.4383 70.5038 82.4383 73.5574 83.6839 73.3221C84.9295 73.0868 83.0582 70.498 83.0582 70.498C83.0582 70.498 85.9282 71.7723 86.9098 74.2635C87.8913 76.7546 89.0106 79.4754 91.2205 78.7981C93.4304 78.1207 92.9425 71.0605 89.6879 69.2984L85.0959 68.4718L83.7413 68.6727C83.0379 68.7728 82.3633 69.0192 81.761 69.3959C80.8529 69.9528 80.1392 70.7768 79.7176 71.7551L79.1436 73.081Z" fill="#263238"/>
<path d="M89.8599 73.4484C89.6476 73.0007 88.6316 73.0409 87.5639 73.5345C86.4963 74.0281 86.4791 74.4931 86.6915 74.9408C86.9038 75.3885 87.2655 75.6468 88.3331 75.1532C89.4007 74.6595 90.0723 73.8961 89.8599 73.4484ZM87.3975 74.5964C87.2482 74.2749 87.2769 73.9478 88.0231 73.5919C88.7693 73.236 89.4983 73.2131 89.6476 73.5345C89.7968 73.8559 89.3204 74.4012 88.5742 74.7514C87.828 75.1015 87.5525 74.935 87.3975 74.6136V74.5964Z" fill="#C6C8D2"/>
<path opacity="0.2" d="M95.5367 95.9607L94.1878 94.8127L93.189 95.2662C92.8422 98.7994 93.7417 102.343 95.7318 105.283C95.8179 103.371 95.9959 101.219 96.3058 98.6471C95.8811 97.0973 95.5367 95.9607 95.5367 95.9607Z" fill="black"/>
<path d="M113.721 109.949L112.992 110.024L112.648 106.735C112.544 105.641 112.858 104.548 113.527 103.676C114.195 102.804 115.169 102.217 116.253 102.034C116.776 101.945 117.313 101.966 117.828 102.094C118.344 102.222 118.828 102.455 119.249 102.778C119.671 103.101 120.021 103.507 120.279 103.972C120.537 104.436 120.696 104.949 120.747 105.478L121.097 108.767L120.368 108.847L120.024 105.552C119.982 105.121 119.852 104.704 119.643 104.325C119.434 103.946 119.149 103.613 118.807 103.348C118.464 103.084 118.07 102.894 117.651 102.79C117.231 102.685 116.794 102.668 116.367 102.74C115.468 102.892 114.66 103.379 114.105 104.103C113.55 104.828 113.29 105.735 113.377 106.643L113.721 109.949Z" fill="#263238"/>
<path d="M100.192 95.2261C100.295 95.7197 100.433 96.3282 100.565 96.8849C100.697 97.4417 100.852 98.0329 101.013 98.6069C101.334 99.7549 101.673 100.863 102.08 101.948C102.814 104.06 103.857 106.053 105.174 107.86L105.295 108.015L105.352 108.095L105.283 108.026C105.191 107.946 105.084 107.885 104.968 107.848C104.795 107.802 104.801 107.848 104.916 107.848C105.323 107.827 105.724 107.742 106.104 107.596C107.167 107.208 108.196 106.734 109.181 106.178C111.264 105.03 113.371 103.721 115.409 102.395L116.999 104.267C115.211 106.125 113.268 107.826 111.19 109.352C110.088 110.165 108.912 110.873 107.677 111.465C106.916 111.83 106.102 112.074 105.266 112.188C104.625 112.267 103.975 112.196 103.366 111.981C102.96 111.83 102.586 111.605 102.264 111.315C102.184 111.241 102.098 111.16 102.029 111.086L101.937 110.988L101.753 110.787C100.808 109.742 99.9804 108.597 99.2849 107.372C98.6066 106.201 98.0138 104.983 97.5113 103.727C97.0176 102.485 96.5884 101.219 96.2255 99.9329C96.0476 99.3015 95.8811 98.6643 95.7319 98.0215C95.5826 97.3786 95.4449 96.7529 95.3301 96.0182L100.192 95.2261Z" fill="#FFBE9D"/>
<path d="M97.5001 90.0601C99.3197 90.4733 102.505 97.0514 102.505 97.0514L95.3533 101.902C95.3533 101.902 92.4833 96.9595 93.0573 94.6004C93.6428 92.1552 95.4222 89.6009 97.5001 90.0601Z" fill="#C6C8D2"/>
<path d="M115.11 102.367L119.266 100.071L118.393 104.45C118.393 104.45 115.707 105.305 114.375 104.031L115.11 102.367Z" fill="#FFBE9D"/>
<path d="M122.911 100.662L121.981 104.295L118.394 104.456L119.266 100.076L122.911 100.662Z" fill="#FFBE9D"/>
<path d="M124.656 108.216L123.967 104.978C123.769 104.088 123.242 103.306 122.491 102.789C121.741 102.271 120.822 102.057 119.92 102.189C119.491 102.252 119.08 102.402 118.712 102.632C118.345 102.861 118.028 103.164 117.783 103.521C117.538 103.878 117.369 104.282 117.287 104.708C117.206 105.134 117.213 105.572 117.308 105.994L117.997 109.232L117.285 109.387L116.597 106.149C116.48 105.63 116.471 105.092 116.571 104.569C116.672 104.046 116.879 103.549 117.18 103.11C117.481 102.671 117.87 102.299 118.322 102.017C118.773 101.735 119.279 101.549 119.805 101.471C120.892 101.311 121.999 101.569 122.904 102.192C123.809 102.815 124.445 103.757 124.684 104.829L125.373 108.066L124.656 108.216Z" fill="#263238"/>
<g opacity="0.3">
<path d="M124.656 108.216L123.967 104.978C123.769 104.088 123.242 103.306 122.491 102.789C121.741 102.271 120.822 102.057 119.92 102.189C119.491 102.252 119.08 102.402 118.712 102.632C118.345 102.861 118.028 103.164 117.783 103.521C117.538 103.878 117.369 104.282 117.287 104.708C117.206 105.134 117.213 105.572 117.308 105.994L117.997 109.232L117.285 109.387L116.597 106.149C116.48 105.63 116.471 105.092 116.571 104.569C116.672 104.046 116.879 103.549 117.18 103.11C117.481 102.671 117.87 102.299 118.322 102.017C118.773 101.735 119.279 101.549 119.805 101.471C120.892 101.311 121.999 101.569 122.904 102.192C123.809 102.815 124.445 103.757 124.684 104.829L125.373 108.066L124.656 108.216Z" fill="white"/>
</g>
<path d="M128.938 106.052L107.648 109.421L110.925 134.792L113.968 133.569L117.239 133.793L133.656 131.193L128.938 106.052Z" fill="#C6C8D2"/>
<path opacity="0.6" d="M128.938 106.052L107.648 109.421L110.925 134.792L113.968 133.569L117.239 133.793L133.656 131.193L128.938 106.052Z" fill="white"/>
<path d="M117.239 133.793L113.968 133.569L110.925 134.792L107.648 109.421L112.515 108.652L117.239 133.793Z" fill="#C6C8D2"/>
<path opacity="0.3" d="M117.239 133.793L113.968 133.569L110.925 134.792L107.648 109.421L112.515 108.652L117.239 133.793Z" fill="white"/>
<path d="M126.846 116.98L118.042 118.375C117.569 118.449 117.246 118.893 117.321 119.366L117.334 119.446C117.409 119.918 117.853 120.241 118.325 120.166L127.13 118.772C127.603 118.697 127.925 118.253 127.85 117.78L127.838 117.701C127.763 117.228 127.319 116.905 126.846 116.98Z" fill="white"/>
</g>
<defs>
<linearGradient id="paint0_linear_180_5445" x1="122.501" y1="96.5" x2="115.949" y2="216.403" gradientUnits="userSpaceOnUse">
<stop/>
<stop offset="1" stop-opacity="0"/>
</linearGradient>
<linearGradient id="paint1_linear_180_5445" x1="188.874" y1="150.273" x2="188.874" y2="202.398" gradientUnits="userSpaceOnUse">
<stop stop-color="#263238"/>
<stop offset="1" stop-color="#B6B6B6"/>
</linearGradient>
<linearGradient id="paint2_linear_180_5445" x1="177.405" y1="150.904" x2="177.405" y2="201.267" gradientUnits="userSpaceOnUse">
<stop stop-color="#263238"/>
<stop offset="1" stop-color="#B6B6B6"/>
</linearGradient>
<linearGradient id="paint3_linear_180_5445" x1="82.6955" y1="115.85" x2="82.6955" y2="208.792" gradientUnits="userSpaceOnUse">
<stop stop-color="#263238"/>
<stop offset="1" stop-color="#B6B6B6"/>
</linearGradient>
<linearGradient id="paint4_linear_180_5445" x1="98.9319" y1="115.999" x2="98.9319" y2="197.524" gradientUnits="userSpaceOnUse">
<stop stop-color="#263238"/>
<stop offset="1" stop-color="#B6B6B6"/>
</linearGradient>
<clipPath id="clip0_180_5445">
<rect width="252" height="240" fill="white"/>
</clipPath>
</defs>
</svg>
