<svg width="252" height="240" viewBox="0 0 252 240" fill="none" xmlns="http://www.w3.org/2000/svg">
<g clip-path="url(#clip0_180_6278)">
<path d="M38.7052 105.794L52.3551 110.654L48.8898 112.64L39.3391 118.091L36.2964 119.866L38.7052 105.794Z" fill="#EBEBEB"/>
<path d="M98.1647 180.805L106.701 176.959L88.1492 145.391L79.824 152.829L65.1175 127.051L57.0459 132.544L43.9031 108.837L39.0854 110.865L55.1442 142.813L64.2301 134.911L78.0913 163.69L86.332 154.688L98.1647 180.805Z" fill="#EBEBEB"/>
<path d="M220.846 144.673C219.874 151.096 213.873 155.534 207.407 154.562C200.941 153.59 196.504 147.589 197.476 141.123C198.448 134.699 204.449 130.262 210.914 131.234C217.38 132.206 221.818 138.207 220.846 144.673Z" fill="#F5F5F5"/>
<path d="M218.098 144.25C217.38 149.152 212.774 152.533 207.872 151.815C202.969 151.096 199.546 146.49 200.307 141.588C201.025 136.686 205.632 133.305 210.534 134.023C215.436 134.742 218.817 139.348 218.098 144.25Z" fill="#EBEBEB"/>
<path d="M218.141 143.955C218.098 143.955 218.098 143.532 218.056 142.856C218.014 142.137 217.887 141.123 217.422 139.982C217.211 139.39 216.873 138.799 216.493 138.165C216.07 137.573 215.563 136.982 214.971 136.432C214.675 136.179 214.337 135.925 213.957 135.672C213.619 135.46 213.239 135.207 212.816 135.038C212.393 134.869 211.971 134.7 211.548 134.573C211.126 134.446 210.661 134.362 210.196 134.319C209.731 134.277 209.266 134.235 208.801 134.277C208.336 134.277 207.914 134.362 207.449 134.446C207.026 134.531 206.604 134.657 206.181 134.784C205.759 134.911 205.378 135.08 205.04 135.291C204.322 135.672 203.688 136.136 203.138 136.601C202.589 137.108 202.166 137.616 201.828 138.123C201.11 139.137 200.772 140.109 200.561 140.785C200.349 141.461 200.265 141.842 200.223 141.842C200.18 141.842 200.18 141.419 200.307 140.701C200.434 139.982 200.73 138.968 201.448 137.827C201.786 137.277 202.251 136.686 202.8 136.136C203.35 135.587 204.026 135.08 204.787 134.657C205.167 134.446 205.59 134.235 206.012 134.108C206.435 133.939 206.9 133.812 207.364 133.728C207.829 133.643 208.336 133.559 208.801 133.559C209.308 133.559 209.816 133.559 210.28 133.601C210.788 133.643 211.295 133.77 211.759 133.897C212.224 134.023 212.689 134.192 213.112 134.404C213.534 134.615 213.957 134.826 214.337 135.08C214.718 135.334 215.056 135.629 215.394 135.925C216.028 136.517 216.577 137.151 217 137.827C217.422 138.503 217.718 139.137 217.929 139.771C218.352 141.039 218.394 142.095 218.352 142.814C218.267 143.574 218.141 143.955 218.141 143.955Z" fill="#E0E0E0"/>
<path d="M209.392 148.392L209.181 149.955L207.787 149.786L207.998 148.265C206.646 148.011 205.378 147.377 204.702 146.701L205.674 145.095C206.308 145.687 207.237 146.194 208.251 146.448L208.547 144.123C207.068 143.532 205.42 142.813 205.674 140.827C205.885 139.348 207.11 138.249 209.35 138.292L209.562 136.77L210.956 136.939L210.745 138.461C211.759 138.672 212.731 139.095 213.449 139.686L212.52 141.292C211.886 140.785 211.167 140.447 210.491 140.278L210.153 142.644C211.632 143.194 213.28 143.954 212.985 145.898C212.816 147.293 211.59 148.392 209.392 148.392ZM208.843 142.053L209.097 140.067C208.336 140.151 207.998 140.489 207.913 140.954C207.871 141.461 208.251 141.757 208.843 142.053ZM210.745 145.729C210.829 145.222 210.449 144.926 209.857 144.631L209.604 146.532C210.322 146.49 210.703 146.152 210.745 145.729Z" fill="#E0E0E0"/>
<path d="M212.267 51.7857C211.422 57.4062 206.181 61.2519 200.561 60.4067C194.94 59.5615 191.052 54.3213 191.898 48.7007C192.743 43.0802 197.983 39.2345 203.604 40.0797C209.266 40.9672 213.112 46.1651 212.267 51.7857Z" fill="#F5F5F5"/>
<path d="M209.858 51.4476C209.224 55.7158 205.209 58.674 200.941 58.0401C196.673 57.4062 193.714 53.3915 194.348 49.1233C194.982 44.855 198.997 41.8968 203.265 42.5307C207.533 43.1646 210.491 47.1371 209.858 51.4476Z" fill="#EBEBEB"/>
<path d="M209.9 51.194C209.858 51.194 209.858 50.856 209.815 50.2221C209.773 49.6304 209.689 48.743 209.266 47.7287C209.055 47.2216 208.801 46.6722 208.463 46.1651C208.125 45.658 207.66 45.1086 207.111 44.6438C206.857 44.3902 206.561 44.1789 206.223 43.9676C205.928 43.7563 205.59 43.5873 205.209 43.4182C204.871 43.2492 204.491 43.1224 204.11 42.9956C203.73 42.8689 203.35 42.8266 202.927 42.7421C202.505 42.6998 202.124 42.6998 201.702 42.6998C201.321 42.6998 200.899 42.7843 200.518 42.8266C200.138 42.9111 199.758 42.9956 199.42 43.1224C199.081 43.2492 198.743 43.376 198.405 43.545C197.771 43.8831 197.222 44.2634 196.757 44.686C196.292 45.1086 195.912 45.5735 195.616 46.0383C194.982 46.9258 194.686 47.771 194.517 48.3626C194.348 48.9543 194.264 49.2924 194.222 49.2924C194.179 49.2924 194.179 48.9543 194.264 48.3204C194.391 47.6865 194.644 46.799 195.236 45.827C195.532 45.3622 195.912 44.8551 196.419 44.348C196.884 43.8831 197.476 43.4182 198.152 43.0802C198.49 42.9111 198.828 42.7421 199.208 42.573C199.589 42.4463 199.969 42.3195 200.392 42.235C200.814 42.1504 201.237 42.1082 201.659 42.0659C202.082 42.0659 202.547 42.0659 202.969 42.1082C203.392 42.1504 203.857 42.235 204.237 42.3617C204.66 42.4885 205.04 42.6153 205.42 42.8266C205.801 42.9956 206.139 43.2069 206.477 43.4182C206.815 43.6295 207.111 43.8831 207.407 44.1367C207.956 44.6438 208.421 45.2354 208.801 45.7848C209.139 46.3764 209.435 46.9258 209.604 47.4752C209.985 48.5739 210.027 49.5037 209.985 50.1376C210.027 50.856 209.942 51.194 209.9 51.194Z" fill="#E0E0E0"/>
<path d="M202.293 55.0397L202.124 56.392L200.898 56.223L201.068 54.9129C199.884 54.6594 198.785 54.1523 198.194 53.5184L199.039 52.1238C199.588 52.6732 200.391 53.0958 201.279 53.3071L201.532 51.2786C200.222 50.7715 198.785 50.1376 199.039 48.4049C199.208 47.1371 200.307 46.1652 202.251 46.2074L202.42 44.8551L203.645 45.0241L203.476 46.3342C204.364 46.5455 205.209 46.8836 205.843 47.3907L205.04 48.7853C204.491 48.3627 203.857 48.0669 203.265 47.8978L202.969 49.9685C204.279 50.4757 205.674 51.1096 205.463 52.8C205.294 54.11 204.195 55.0397 202.293 55.0397ZM201.786 49.5037L201.997 47.771C201.321 47.8133 201.025 48.1514 200.983 48.5317C200.941 48.9966 201.279 49.2924 201.786 49.5037ZM203.476 52.7154C203.519 52.2928 203.223 51.997 202.716 51.7435L202.504 53.4339C203.138 53.3916 203.434 53.0958 203.476 52.7154Z" fill="#E0E0E0"/>
<path d="M91.4029 38.7274C93.8963 47.8555 88.487 57.2795 79.3166 59.7728C70.1462 62.2662 60.7223 56.8569 58.2289 47.7288C55.7356 38.6006 61.1449 29.1767 70.3153 26.6834C79.4857 24.19 88.9519 29.5993 91.4029 38.7274Z" fill="#F5F5F5"/>
<path d="M87.4724 39.8261C89.3741 46.799 85.2326 53.9831 78.2597 55.8848C71.2868 57.7865 64.1027 53.6873 62.201 46.7144C60.2993 39.7416 64.4407 32.5574 71.4136 30.6557C78.3865 28.754 85.5707 32.8532 87.4724 39.8261Z" fill="#EBEBEB"/>
<path d="M87.346 39.4035C87.2615 39.4457 87.0502 38.8964 86.5854 37.9666C86.1205 37.0792 85.3598 35.7691 84.092 34.5013C83.4581 33.8674 82.6975 33.2335 81.81 32.6419C80.9225 32.0925 79.9083 31.5854 78.7673 31.2473C78.2179 31.0783 77.6263 30.9093 76.9924 30.8247C76.4007 30.7402 75.7668 30.6557 75.0907 30.6557C74.4568 30.6557 73.7806 30.698 73.1467 30.7825C72.4706 30.867 71.8367 31.036 71.1605 31.2051C70.5266 31.4164 69.8927 31.6699 69.2588 31.9657C68.6672 32.2616 68.0755 32.5996 67.5684 32.98C67.019 33.3603 66.5542 33.7407 66.0893 34.1633C65.6245 34.5859 65.2441 35.0507 64.8638 35.5156C64.1031 36.4453 63.5537 37.4173 63.1311 38.3892C62.7085 39.3612 62.4127 40.3332 62.2437 41.2207C61.9056 42.9956 61.9901 44.4747 62.1169 45.4889C62.2437 46.5031 62.3705 47.0525 62.2859 47.0948C62.2437 47.0948 61.9901 46.5877 61.7366 45.5734C61.483 44.5592 61.2717 42.9956 61.5675 41.0939C61.6943 40.1642 61.9479 39.1077 62.3705 38.0934C62.7931 37.0369 63.3847 35.9804 64.1454 34.9662C64.5257 34.4591 64.9483 33.952 65.4554 33.4871C65.9203 33.0222 66.4697 32.5574 67.019 32.177C67.5684 31.7967 68.2023 31.4164 68.8362 31.0783C69.4701 30.7825 70.1463 30.4867 70.8647 30.2754C71.5831 30.0641 72.3015 29.895 72.9777 29.8105C73.6961 29.726 74.4145 29.6837 75.0907 29.6837C75.7668 29.6837 76.4853 29.7682 77.1192 29.895C77.7953 30.0218 78.4292 30.1908 79.0208 30.3599C80.2464 30.7825 81.3029 31.3319 82.2326 31.9657C83.1623 32.5996 83.9653 33.3181 84.5991 34.0365C85.8669 35.4733 86.5854 36.8679 86.9657 37.8399C87.346 38.8118 87.4306 39.4035 87.346 39.4035Z" fill="#E0E0E0"/>
<path d="M78.3024 50.3912L78.9363 52.5888L76.9924 53.1381L76.3585 50.9829C74.3723 51.4055 72.3438 51.3632 71.0337 50.8138L71.4141 48.1092C72.5973 48.5318 74.161 48.6586 75.5978 48.405L74.6681 45.151C72.3438 45.2355 69.7237 45.2355 68.9207 42.4041C68.3291 40.3334 69.3011 38.0936 72.3015 36.8681L71.6676 34.7128L73.6116 34.1635L74.2455 36.3187C75.7668 36.0229 77.2882 35.9806 78.556 36.361L78.2602 39.0656C77.0769 38.7698 75.9781 38.7275 74.9639 38.8966L75.9359 42.2351C78.2602 42.1083 80.838 42.1506 81.641 44.8975C82.2748 46.9682 81.2606 49.1657 78.3024 50.3912ZM73.8651 42.3196L73.0622 39.5305C72.0902 40.0798 71.8367 40.756 72.048 41.3899C72.217 42.066 72.9354 42.2773 73.8651 42.3196ZM78.5982 46.0807C78.3869 45.4046 77.7108 45.1933 76.7811 45.151L77.5417 47.8556C78.4715 47.3063 78.7673 46.6724 78.5982 46.0807Z" fill="#E0E0E0"/>
<path d="M53.1577 67.7177C52.0589 73.5495 46.4383 77.3529 40.6065 76.2542C34.7746 75.1554 30.929 69.5349 32.0277 63.703C33.1265 57.8711 38.7471 54.0677 44.5789 55.1665C50.453 56.3075 54.2564 61.8858 53.1577 67.7177Z" fill="#F5F5F5"/>
<path d="M50.6643 67.2528C49.8191 71.6901 45.5508 74.606 41.0713 73.7608C36.634 72.9156 33.7181 68.6474 34.5633 64.2101C35.4085 59.7728 39.6767 56.8569 44.1563 57.7021C48.5936 58.5473 51.5095 62.8155 50.6643 67.2528Z" fill="#EBEBEB"/>
<path d="M50.7069 66.9992C50.6647 66.9992 50.7069 66.6189 50.6647 65.985C50.6647 65.3511 50.5802 64.4214 50.1998 63.3226C50.0308 62.7732 49.7772 62.2239 49.3969 61.6745C49.0588 61.1251 48.594 60.5335 48.0446 60.0264C47.791 59.7728 47.4952 59.5192 47.1571 59.3079C46.819 59.0966 46.5232 58.8853 46.1429 58.7163C45.7625 58.5473 45.4245 58.3782 45.0019 58.2514C44.6215 58.1247 44.1989 58.0401 43.7763 57.9556C43.3537 57.8711 42.9311 57.8711 42.5085 57.8711C42.0859 57.8711 41.6633 57.9134 41.283 57.9556C40.9027 57.9979 40.4801 58.1247 40.142 58.2092C39.7616 58.336 39.4236 58.4627 39.0855 58.6318C38.4093 58.9276 37.8177 59.3502 37.3106 59.7728C36.8034 60.1954 36.3808 60.6603 36.0428 61.1251C35.3666 62.0126 34.9863 62.9 34.775 63.4917C34.5637 64.0833 34.4792 64.4636 34.4369 64.4214C34.3946 64.4214 34.3946 64.041 34.5214 63.4071C34.6482 62.7733 34.9863 61.8435 35.6624 60.8293C36.0005 60.3222 36.4231 59.8151 36.9302 59.3502C37.4373 58.8853 38.0712 58.4205 38.7897 58.0824C39.1277 57.9134 39.5081 57.7443 39.9307 57.6175C40.311 57.4908 40.7336 57.364 41.1562 57.3217C41.5788 57.2372 42.0437 57.1949 42.4663 57.1949C42.9311 57.1949 43.3537 57.2372 43.8186 57.2795C44.2834 57.364 44.706 57.4485 45.1286 57.6175C45.5512 57.7443 45.9738 57.9134 46.3542 58.1247C46.7345 58.336 47.1149 58.5473 47.4529 58.8008C47.791 59.0544 48.0868 59.3079 48.3827 59.6038C48.932 60.1531 49.3969 60.787 49.7772 61.3787C50.1153 61.9703 50.3689 62.6042 50.5379 63.1958C50.876 64.3369 50.876 65.3088 50.8337 65.985C50.8337 66.6612 50.7492 66.9992 50.7069 66.9992Z" fill="#E0E0E0"/>
<path d="M42.5927 70.7181L42.3391 72.1127L41.0713 71.9014L41.3249 70.549C40.0994 70.2532 38.9583 69.6616 38.3667 68.9854L39.3387 67.5909C39.8881 68.1825 40.7333 68.6474 41.6207 68.9009L42.001 66.7879C40.6487 66.1963 39.2119 65.4779 39.5077 63.6607C39.719 62.3506 40.9023 61.3364 42.9308 61.4632L43.1843 60.0686L44.4521 60.2799L44.1986 61.6322C45.1283 61.8858 46.0157 62.2661 46.6074 62.8578L45.7199 64.3368C45.1283 63.872 44.5366 63.5339 43.9027 63.3649L43.5224 65.5201C44.8747 66.0695 46.3116 66.8302 46.0157 68.6051C45.7622 69.8306 44.6212 70.8026 42.5927 70.7181ZM42.3391 64.9285L42.6349 63.1536C41.9588 63.1958 41.6207 63.4917 41.5362 63.9142C41.4517 64.3368 41.7897 64.6749 42.3391 64.9285ZM43.945 68.3515C44.0295 67.9289 43.6914 67.5909 43.1843 67.3373L42.8885 69.07C43.5647 69.0277 43.8605 68.7319 43.945 68.3515Z" fill="#E0E0E0"/>
<path d="M221.099 162.464L210.83 162.126L212.562 164.324L217.422 170.409L218.986 172.353L221.099 162.464Z" fill="#F5F5F5"/>
<path d="M162.315 196.399L157.708 191.624L178.162 175.649L181.712 182.749L198.109 169.606L202.039 175.311L216.872 163.098L219.492 165.718L200.602 182.58L196.672 175.015L180.022 190.356L176.937 182.284L162.315 196.399Z" fill="#F5F5F5"/>
<path d="M201.574 71.0985L187.84 78.4095L191.812 79.9731L202.8 84.2413L206.35 85.5936L201.574 71.0985Z" fill="#E0E0E0"/>
<path d="M150.44 160.055L140.805 157.309L155.427 120.923L165.442 127.431L176.937 97.8067L186.361 102.329L196.503 75.1132L201.955 76.5077L190.037 112.936L179.134 106.005L169.034 138.672L158.85 130.516L150.44 160.055Z" fill="#E0E0E0"/>
<path d="M221.606 211.782C221.606 211.824 178.162 211.908 124.577 211.908C70.9915 211.908 27.5483 211.866 27.5483 211.782C27.5483 211.739 70.9915 211.655 124.577 211.655C178.162 211.697 221.606 211.739 221.606 211.782Z" fill="#263238"/>
<path d="M140.415 211.714H150.854V194.641H140.415V211.714Z" fill="#FF9548"/>
<path d="M182.484 211.707H192.922V182.759H182.484V211.707Z" fill="#FF9548"/>
<path d="M203.475 211.709H213.914V201.187H203.475V211.709Z" fill="#FF9548"/>
<path d="M161.45 211.679H171.888V186.492H161.45V211.679Z" fill="#FF9548"/>
<path d="M119.424 211.702H129.862V180.345H119.424V211.702Z" fill="#FF9548"/>
<path d="M98.3899 211.682H108.828V171.366H98.3899V211.682Z" fill="#FF9548"/>
<path d="M77.3987 211.698H87.8369V161.366H77.3987V211.698Z" fill="#FF9548"/>
<path d="M56.366 211.701H66.8042L66.8042 147.804H56.366L56.366 211.701Z" fill="#C6C8D2"/>
<path d="M35.3318 211.679H45.77L45.77 127.666H35.3318L35.3318 211.679Z" fill="#C6C8D2"/>
<path d="M195.7 200.414C192.362 193.948 185.347 189.511 178.078 189.341C182.515 184.439 183.36 176.875 180.825 170.789C178.289 164.704 172.669 160.182 166.372 158.238C160.075 156.294 153.187 156.759 146.932 158.745C147.651 154.012 142.918 149.237 138.142 149.998C140.002 148.73 140.636 145.941 139.537 143.997C138.438 142.01 135.734 141.165 133.663 142.095L133.959 107.273H127.113H120.14H113.294L113.589 142.095C111.519 141.165 108.814 142.053 107.715 143.997C106.617 145.983 107.25 148.73 109.11 149.998C104.377 149.279 99.6014 154.012 100.32 158.745C94.0653 156.717 87.177 156.252 80.8803 158.238C74.5835 160.224 68.8785 164.704 66.3006 170.789C63.7228 176.875 64.6102 184.439 69.0475 189.341C61.7788 189.511 54.7214 193.948 51.4251 200.414C49.4812 204.175 49.3121 209.753 53.0733 211.739H120.097H127.07H194.052C197.813 209.711 197.644 204.175 195.7 200.414Z" fill="#EBEBEB"/>
<path d="M53.0736 211.697C53.0736 211.697 52.9046 211.613 52.5665 211.401C52.2284 211.19 51.8058 210.81 51.2987 210.218C50.8339 209.584 50.4113 208.739 50.2 207.598C49.9887 206.499 49.9887 205.147 50.2422 203.71C50.4958 202.273 51.0874 200.71 52.0594 199.146C52.9891 197.582 54.2569 196.061 55.8205 194.624C57.4264 193.23 59.2858 191.877 61.5256 190.948C61.8214 190.821 62.075 190.694 62.3708 190.61C62.6666 190.525 62.9624 190.398 63.2583 190.314C63.5541 190.187 63.8499 190.102 64.1457 190.018C64.4415 189.933 64.7796 189.849 65.0754 189.764C66.3432 189.468 67.6533 189.299 69.0056 189.257L68.9633 189.384C67.6955 187.947 66.639 186.215 65.8784 184.228C65.16 182.284 64.7796 180.129 64.7796 177.889C64.7796 175.65 65.16 173.367 66.0474 171.17C66.47 170.071 67.0194 168.972 67.6533 167.958C68.2872 166.944 69.0479 165.93 69.8931 165C73.2316 161.281 78.007 158.492 83.374 157.478C86.0363 156.928 88.8677 156.802 91.6992 156.971C94.5306 157.182 97.4042 157.774 100.193 158.661L100.067 158.788C99.8976 157.647 100.024 156.464 100.447 155.365C100.827 154.266 101.503 153.252 102.306 152.364C103.152 151.519 104.166 150.801 105.307 150.336C106.448 149.871 107.716 149.702 108.941 149.871L108.857 150.04C107.082 148.815 106.321 146.11 107.378 144.039C108.434 141.968 111.265 140.954 113.463 141.926L113.294 142.011C113.209 130.896 113.125 119.233 112.998 107.189V107.062H113.125C116.421 107.062 119.929 107.062 123.479 107.062C126.944 107.062 130.409 107.062 133.832 107.062H133.959V107.189C133.874 119.19 133.748 130.854 133.663 142.011L133.494 141.926C135.649 140.954 138.396 141.926 139.537 143.955C140.636 145.983 139.96 148.73 138.1 150.04L138.016 149.871C139.241 149.66 140.509 149.871 141.608 150.294C142.749 150.716 143.763 151.435 144.608 152.28C145.454 153.125 146.088 154.139 146.51 155.28C146.933 156.379 147.06 157.605 146.891 158.746L146.764 158.619C149.553 157.731 152.427 157.14 155.258 156.928C158.089 156.717 160.921 156.886 163.583 157.436C168.95 158.492 173.726 161.239 177.064 164.958C177.909 165.888 178.628 166.859 179.304 167.916C179.98 168.93 180.487 170.029 180.91 171.128C181.375 172.226 181.628 173.368 181.882 174.466C182.093 175.607 182.178 176.748 182.178 177.847C182.178 180.087 181.797 182.242 181.079 184.186C180.36 186.13 179.304 187.905 177.994 189.342L177.952 189.215C179.304 189.257 180.656 189.426 181.882 189.722C182.178 189.807 182.516 189.891 182.811 189.976C183.107 190.06 183.403 190.145 183.699 190.271C183.995 190.356 184.291 190.483 184.586 190.567C184.882 190.694 185.136 190.821 185.432 190.905C187.671 191.877 189.573 193.187 191.179 194.582C192.742 196.019 194.01 197.54 194.94 199.104C195.87 200.625 196.461 202.189 196.715 203.668C196.968 205.105 196.968 206.457 196.757 207.556C196.546 208.654 196.123 209.542 195.658 210.134C195.194 210.725 194.729 211.106 194.391 211.317C194.053 211.528 193.883 211.613 193.883 211.613C193.883 211.613 194.053 211.486 194.391 211.275C194.729 211.063 195.151 210.683 195.616 210.091C196.081 209.5 196.461 208.612 196.673 207.513C196.884 206.415 196.884 205.105 196.63 203.668C196.377 202.231 195.785 200.667 194.813 199.146C193.883 197.625 192.616 196.061 191.052 194.666C189.488 193.272 187.587 191.962 185.347 190.99C185.051 190.863 184.798 190.736 184.502 190.652C184.206 190.567 183.91 190.44 183.614 190.356C183.319 190.229 183.023 190.145 182.727 190.06C182.431 189.976 182.135 189.891 181.797 189.807C180.529 189.511 179.219 189.342 177.867 189.299H177.74L177.825 189.173C179.093 187.736 180.149 186.003 180.867 184.059C181.586 182.115 181.966 179.96 181.966 177.763C181.966 176.664 181.839 175.523 181.67 174.424C181.459 173.325 181.163 172.184 180.698 171.085C180.276 169.987 179.726 168.93 179.093 167.916C178.459 166.902 177.74 165.93 176.895 165C173.556 161.323 168.866 158.577 163.499 157.562C160.836 157.013 158.047 156.886 155.216 157.097C152.384 157.309 149.553 157.9 146.764 158.788L146.595 158.83L146.637 158.661C146.806 157.52 146.679 156.379 146.257 155.28C145.876 154.182 145.2 153.21 144.397 152.364C143.594 151.519 142.58 150.843 141.481 150.42C140.383 149.998 139.157 149.829 137.974 149.998L137.509 150.082L137.889 149.829C139.664 148.603 140.298 145.941 139.284 143.997C138.227 142.053 135.565 141.165 133.536 142.053L133.367 142.137V141.968C133.452 130.812 133.536 119.148 133.621 107.146L133.748 107.273C130.325 107.273 126.859 107.273 123.394 107.273C119.844 107.273 116.337 107.273 113.04 107.273L113.167 107.146C113.252 119.19 113.336 130.896 113.421 141.968V142.137L113.252 142.053C111.139 141.123 108.434 142.095 107.462 144.039C106.448 146.025 107.166 148.603 108.857 149.786L109.237 150.04L108.772 149.956C107.589 149.786 106.321 149.956 105.222 150.378C104.124 150.801 103.109 151.519 102.306 152.364C100.658 154.055 99.7708 156.379 100.109 158.577L100.151 158.746L99.9821 158.703C97.1929 157.816 94.3615 157.224 91.5301 157.013C88.6987 156.802 85.9095 156.928 83.2472 157.478C77.9224 158.534 73.1893 161.281 69.8508 164.958C69.0056 165.888 68.2872 166.859 67.6533 167.874C67.0194 168.888 66.47 169.944 66.0474 171.043C65.2022 173.241 64.8219 175.523 64.7796 177.72C64.7796 179.918 65.16 182.073 65.8784 184.017C66.5968 185.961 67.6533 187.694 68.9211 189.13L69.0056 189.257H68.8788C67.5265 189.299 66.2165 189.468 64.9487 189.764C64.6528 189.849 64.3148 189.933 64.0189 190.018C63.7231 190.102 63.4273 190.187 63.1315 190.314C62.8357 190.398 62.5398 190.525 62.244 190.61C61.9482 190.736 61.6946 190.863 61.3988 190.948C59.1591 191.877 57.2574 193.187 55.6937 194.624C54.1301 196.019 52.8623 197.582 51.9326 199.104C51.0029 200.625 50.369 202.189 50.1154 203.626C49.8619 205.062 49.8196 206.372 50.0732 207.471C50.2845 208.57 50.7071 209.457 51.1297 210.049C51.5945 210.641 52.0594 211.021 52.3552 211.232C52.9046 211.57 53.0736 211.697 53.0736 211.697Z" fill="#263238"/>
<path d="M96.6855 59.4769L122.76 29.1343L147.82 59.4769H138.058V109.005H107.715V59.5191L96.6855 59.4769Z" fill="#FF9548"/>
<path d="M220.549 108.794L202.082 114.499L206.603 117.331L218.985 125.022L223 127.558L220.549 108.794Z" fill="#FF9548"/>
<path d="M137.255 204.893L126.099 199.315L152.511 158.534L163.203 168.803L184.206 135.502L194.644 143.194L213.45 112.513L219.789 115.471L196.673 156.928L184.924 145.983L164.935 183.298L154.413 170.958L137.255 204.893Z" fill="#FF9548"/>
<g opacity="0.3">
<path d="M148.116 194.37C145.58 192.68 142.326 192.511 139.326 193.103C138.354 193.314 137.255 193.568 136.41 193.018C135.565 192.511 135.269 191.455 134.931 190.483C133.198 185.707 128.423 182.411 123.394 181.566C118.365 180.721 114.35 181.143 109.786 183.425C107.082 184.777 104.25 186.679 101.884 190.229C101.208 191.243 99.982 193.314 99.982 193.314C99.0523 193.99 97.869 194.032 96.7702 194.201C92.1639 194.962 88.1915 198.681 87.1772 203.245L151.032 202.189C152.131 199.484 150.652 196.061 148.116 194.37Z" fill="black"/>
</g>
<path d="M83.6274 207.471C85.6137 200.414 93.474 195.554 100.7 196.948C102.222 189.257 109.575 183.172 117.435 183.087C125.296 183.045 132.733 189.003 134.382 196.695C138.734 195.68 143.383 194.962 147.524 196.568C151.666 198.216 154.835 203.034 153.103 207.133" fill="#EBEBEB"/>
<path d="M153.103 207.175C153.103 207.175 153.103 207.133 153.145 207.049C153.188 206.964 153.23 206.837 153.272 206.71C153.314 206.541 153.399 206.372 153.441 206.119C153.483 205.865 153.568 205.612 153.568 205.316C153.695 204.09 153.399 202.146 152.047 200.245C151.37 199.315 150.483 198.385 149.3 197.582C148.159 196.779 146.722 196.272 145.116 195.976C143.552 195.681 141.82 195.638 140.045 195.807C138.27 195.976 136.41 196.314 134.466 196.779L134.382 196.822L134.34 196.737C133.664 193.694 132.015 190.609 129.438 188.201C126.902 185.792 123.521 183.932 119.76 183.383C117.436 183.045 115.069 183.256 112.914 183.932C110.759 184.609 108.773 185.707 107.082 187.017C105.392 188.37 103.997 189.933 102.941 191.624C101.884 193.314 101.166 195.173 100.828 196.948V197.033H100.743C99.1373 196.737 97.5314 196.737 96.0523 196.991C95.2916 197.075 94.6155 197.286 93.9393 197.456C93.6012 197.582 93.2631 197.667 92.9673 197.794C92.6292 197.878 92.3334 198.047 92.0376 198.174C91.4037 198.427 90.8966 198.766 90.3472 199.061C90.0936 199.23 89.8401 199.399 89.5865 199.569C89.4597 199.653 89.333 199.738 89.2062 199.822C89.0794 199.907 88.9949 199.991 88.8681 200.076C88.6568 200.245 88.4455 200.414 88.192 200.625C87.9807 200.794 87.8116 201.005 87.6003 201.174C87.4313 201.343 87.22 201.512 87.0509 201.724C86.8819 201.893 86.7129 202.104 86.5861 202.273C85.3605 203.71 84.6421 205.062 84.2618 205.992C84.0505 206.457 83.966 206.837 83.8392 207.091C83.7547 207.344 83.7124 207.471 83.7124 207.471C83.7124 207.471 83.8392 206.964 84.2195 205.992C84.5999 205.062 85.276 203.668 86.5438 202.231C86.7129 202.062 86.8819 201.851 87.0087 201.681C87.1777 201.512 87.389 201.301 87.5581 201.132C87.7694 200.963 87.9384 200.752 88.1497 200.583C88.361 200.414 88.5723 200.245 88.8258 200.033C88.9526 199.949 89.0371 199.864 89.1639 199.738C89.2907 199.653 89.4175 199.569 89.5443 199.484C89.7978 199.315 90.0514 199.146 90.3049 198.977C90.8543 198.681 91.4037 198.343 92.0376 198.047C92.3334 197.92 92.6292 197.751 92.9673 197.625C93.3054 197.498 93.6435 197.371 93.9815 197.286C94.6577 197.117 95.3761 196.906 96.1368 196.779C97.6159 196.526 99.2218 196.526 100.87 196.822L100.743 196.906C101.123 195.089 101.8 193.23 102.898 191.497C103.955 189.764 105.392 188.158 107.082 186.806C108.773 185.454 110.759 184.355 112.956 183.679C115.154 182.96 117.563 182.791 119.929 183.129C123.732 183.679 127.156 185.538 129.691 187.989C132.269 190.44 133.917 193.568 134.636 196.653L134.509 196.568C136.453 196.145 138.312 195.765 140.087 195.596C141.904 195.427 143.637 195.469 145.243 195.765C146.849 196.061 148.285 196.61 149.469 197.413C150.652 198.216 151.539 199.146 152.216 200.118C153.568 202.062 153.864 204.006 153.737 205.231C153.737 205.527 153.652 205.823 153.61 206.034C153.568 206.288 153.483 206.457 153.441 206.626C153.399 206.753 153.357 206.879 153.314 206.964C153.103 207.133 153.103 207.175 153.103 207.175Z" fill="#263238"/>
<path d="M113.335 98.6943C113.589 115.683 100.066 129.713 83.2042 129.967C66.3003 130.22 52.3545 116.655 52.0587 99.6663C51.8051 82.6778 65.3283 68.6475 82.19 68.394C99.0939 68.1404 113.082 81.7481 113.335 98.6943ZM68.0329 99.455C68.1597 107.569 74.8368 114.077 82.9084 113.95C90.98 113.823 97.4458 107.104 97.319 98.9901C97.1922 90.8762 90.5152 84.3682 82.4435 84.495C74.3719 84.6218 67.9061 91.2988 68.0329 99.455Z" fill="#E0E0E0"/>
<path d="M113.336 98.6943C113.589 115.683 100.066 129.713 83.2044 129.967L82.9508 113.908C91.0225 113.781 97.4882 107.062 97.3615 98.9479C97.2347 90.834 90.5576 84.326 82.486 84.4527L82.2324 68.394C99.0941 68.1404 113.082 81.7481 113.336 98.6943Z" fill="url(#paint0_linear_180_6278)"/>
<path d="M82.9935 130.178L82.7399 113.697H82.9512C90.8961 113.57 97.2773 106.935 97.1505 98.9479C97.1083 95.06 95.5446 91.4679 92.7555 88.7633C89.9663 86.0586 86.332 84.6218 82.4863 84.6641H82.275L82.0215 68.1827H82.2328C90.4735 68.0559 98.2493 71.1409 104.166 76.9305C110.082 82.6778 113.421 90.4114 113.547 98.6943C113.801 115.767 100.193 129.924 83.2048 130.178H82.9935ZM83.1625 114.119L83.4161 129.755C100.109 129.375 113.421 115.471 113.167 98.6943C113.04 90.5382 109.744 82.9314 103.912 77.2263C98.1225 71.6058 90.5157 68.5208 82.4863 68.6053L82.7399 84.2415C86.6278 84.2415 90.3044 85.7206 93.0936 88.4674C95.9672 91.2566 97.5731 94.9755 97.6154 98.9479C97.6999 107.104 91.2341 113.866 83.1625 114.119Z" fill="#455A64"/>
<path d="M85.9511 132.46C66.1735 132.798 50.4106 117.458 50.1147 97.5954L68.8359 97.2996C69.0049 106.808 76.2313 112.767 85.6553 112.64L85.9511 132.46Z" fill="#FF9548"/>
<path d="M60.8497 97.8912C60.9764 97.9758 59.2015 100.765 56.9195 104.103C54.6375 107.442 52.6512 110.062 52.5245 110.02C52.3977 109.935 54.1726 107.146 56.4546 103.808C58.7367 100.469 60.7229 97.8067 60.8497 97.8912Z" fill="#263238"/>
<path d="M68.9633 99.455C69.0901 99.5395 66.47 103.554 63.1314 108.414C59.7929 113.274 56.9615 117.12 56.877 117.077C56.7502 116.993 59.3703 112.978 62.7088 108.118C66.0474 103.258 68.8365 99.3704 68.9633 99.455Z" fill="#263238"/>
<path d="M72.935 107.78C73.0618 107.865 70.6953 111.499 67.6948 115.894C64.6521 120.289 62.1165 123.754 61.9897 123.712C61.8629 123.628 64.2295 119.993 67.23 115.598C70.2727 111.203 72.8083 107.696 72.935 107.78Z" fill="#263238"/>
<path d="M79.8242 112.386C79.951 112.471 77.5844 116.105 74.584 120.5C71.5413 124.895 69.0057 128.36 68.8789 128.318C68.7521 128.234 71.1187 124.599 74.1191 120.204C77.1618 115.809 79.6974 112.302 79.8242 112.386Z" fill="#263238"/>
<path d="M85.6984 118.218C85.8252 118.303 83.8812 121.303 81.3879 124.895C78.8946 128.53 76.7816 131.361 76.6548 131.276C76.528 131.192 78.472 128.191 80.9653 124.599C83.4586 121.007 85.6139 118.134 85.6984 118.218Z" fill="#263238"/>
<path d="M183.276 40.0797C183.276 40.0797 185.135 35.8115 185.22 35.1776C185.304 34.5014 185.135 33.0223 184.628 32.642C184.163 32.2194 183.529 32.1349 183.107 32.4307C183.107 32.4307 183.022 31.501 182.092 31.3319C181.163 31.1629 181.163 32.0503 181.163 32.0503C181.163 32.0503 181.205 31.4164 180.529 31.2474C180.191 31.1629 179.81 31.3742 179.81 31.3742C179.81 31.3742 178.923 30.5712 178.289 31.0784C177.697 31.5855 178.374 39.319 178.374 39.319L183.276 40.0797Z" fill="#FFBF9D"/>
<path d="M178.29 38.3472C178.29 38.3472 176.642 35.5158 176.642 34.7551C176.642 33.9944 177.571 32.2195 178.078 32.0082C178.586 31.7969 180.614 31.332 180.614 31.332C180.614 31.332 181.459 32.0927 180.234 32.8956L178.797 33.6986C178.797 33.6986 181.079 34.4593 180.994 36.7836" fill="#FFBF9D"/>
<path d="M181.036 36.7411C180.994 36.7411 181.036 36.3185 180.825 35.6846C180.698 35.3466 180.487 35.0085 180.149 34.6282C179.811 34.2901 179.346 33.952 178.797 33.7407L178.628 33.6562L178.797 33.5717C179.261 33.3181 179.726 33.0223 180.233 32.7265C180.487 32.5574 180.698 32.3884 180.783 32.1348C180.867 31.8813 180.783 31.5854 180.572 31.3741L180.656 31.4164C180.318 31.5009 179.938 31.5854 179.557 31.67C179.261 31.7545 178.966 31.7967 178.712 31.8813C178.585 31.9235 178.416 31.9658 178.289 32.008C178.205 32.0503 178.163 32.0503 178.12 32.0926C178.078 32.1348 178.036 32.1348 177.994 32.1771C177.613 32.5574 177.36 33.0223 177.148 33.4871C177.022 33.6984 176.937 33.952 176.895 34.1633C176.81 34.3746 176.768 34.6282 176.81 34.8395C176.895 35.262 177.064 35.6846 177.233 36.0227C177.571 36.7411 177.867 37.2905 178.036 37.6709C178.247 38.0512 178.332 38.2625 178.332 38.3048C178.332 38.3048 178.163 38.0935 177.951 37.7131C177.74 37.3328 177.402 36.7834 177.064 36.065C176.895 35.6846 176.726 35.3043 176.599 34.8395C176.557 34.5859 176.599 34.3323 176.684 34.0788C176.768 33.8252 176.853 33.6139 176.937 33.3604C177.148 32.8955 177.402 32.3884 177.825 31.9658C177.867 31.9235 177.951 31.8813 178.036 31.839C178.12 31.7967 178.163 31.7967 178.247 31.7545C178.374 31.7122 178.543 31.67 178.67 31.6277C178.966 31.5432 179.261 31.4587 179.515 31.4164C179.895 31.3319 180.276 31.2474 180.614 31.1628H180.656L180.698 31.2051C180.952 31.4587 181.079 31.839 180.952 32.1771C180.825 32.5152 180.572 32.7265 180.318 32.8955C179.811 33.1913 179.304 33.4449 178.881 33.6984V33.5294C179.473 33.7407 179.938 34.121 180.276 34.4591C180.614 34.8394 180.825 35.2198 180.952 35.5579C180.994 35.7269 181.036 35.8959 181.036 36.0227C181.036 36.1495 181.079 36.2763 181.079 36.3608C181.036 36.6144 181.036 36.7411 181.036 36.7411Z" fill="#FF9A6C"/>
<path d="M181.036 32.0504C180.825 32.8534 180.74 33.7408 180.783 34.586C180.825 34.8818 180.867 35.1776 181.036 35.3889C181.247 35.6002 181.543 35.6425 181.797 35.6002C182.05 35.558 182.304 35.3889 182.515 35.1776" fill="#FFBF9D"/>
<path d="M182.515 35.2199C182.515 35.2199 182.388 35.5157 181.923 35.6848C181.712 35.7693 181.374 35.7693 181.078 35.558C180.782 35.3467 180.698 34.9241 180.698 34.586C180.571 33.1492 180.994 32.0504 181.036 32.0504C181.121 32.0504 180.782 33.1914 180.909 34.5437C180.909 34.8818 180.994 35.2199 181.205 35.3467C181.416 35.5157 181.67 35.5157 181.881 35.4735C182.304 35.3889 182.515 35.1776 182.515 35.2199Z" fill="#FF9A6C"/>
<path d="M179.219 33.5717C179.092 33.952 179.135 34.121 179.135 34.5014C179.177 34.8817 179.388 35.3043 179.769 35.3888C180.107 35.4733 180.487 35.0508 180.698 34.5859" fill="#FFBF9D"/>
<path d="M180.698 34.5859C180.74 34.5859 180.698 34.7972 180.487 35.0508C180.402 35.1776 180.275 35.3466 180.064 35.4311C179.98 35.4734 179.81 35.5156 179.684 35.4311C179.557 35.3889 179.43 35.3043 179.346 35.2198C179.177 35.0085 179.05 34.7972 179.05 34.5859C179.05 34.3746 179.05 34.2056 179.05 34.0365C179.092 33.6985 179.219 33.5294 179.219 33.5294C179.261 33.5294 179.177 33.7407 179.219 34.0365C179.261 34.2056 179.261 34.3746 179.261 34.5437C179.303 34.7127 179.388 34.924 179.515 35.093C179.599 35.1776 179.684 35.2198 179.768 35.2621C179.853 35.3043 179.937 35.3043 180.022 35.2621C180.191 35.1776 180.318 35.0508 180.402 34.9663C180.613 34.755 180.698 34.5859 180.698 34.5859Z" fill="#FF9A6C"/>
<path d="M183.276 32.4729C182.811 32.98 182.473 33.5717 182.304 34.2478C182.219 34.5859 182.177 35.0085 182.43 35.2621C182.726 35.5156 183.149 35.4311 183.487 35.2198C183.952 34.924 184.332 34.4169 184.417 33.8675" fill="#FFBF9D"/>
<path d="M184.417 33.8252C184.459 33.8252 184.459 34.2055 184.163 34.6704C183.994 34.9239 183.783 35.1775 183.445 35.3465C183.276 35.4311 183.064 35.5156 182.853 35.5156C182.642 35.5156 182.388 35.4311 182.262 35.2198C182.135 35.0085 182.135 34.7549 182.135 34.5859C182.177 34.3746 182.219 34.2055 182.262 34.0365C182.388 33.6984 182.557 33.4026 182.684 33.1913C182.98 32.7264 183.276 32.5151 183.276 32.5151C183.318 32.5574 183.064 32.7687 182.811 33.2336C182.684 33.4449 182.557 33.7407 182.431 34.0788C182.388 34.2478 182.346 34.4168 182.304 34.5859C182.304 34.7549 182.304 34.9662 182.388 35.093C182.557 35.3888 183.022 35.3465 183.276 35.1775C183.572 35.0085 183.783 34.7972 183.952 34.5859C184.332 34.1633 184.375 33.8252 184.417 33.8252Z" fill="#FF9A6C"/>
<path d="M160.329 67.3373C160.329 67.3373 162.611 64.8862 163.54 64.2946C164.428 63.7452 170.386 56.6455 171.02 54.7861C171.654 52.9267 177.486 37.9244 177.359 38.0935C177.275 38.2625 184.797 39.6993 184.797 39.6993C184.797 39.6993 179.177 56.9836 178.5 58.9698C177.275 62.5619 171.147 69.8306 167.682 74.1834C166.203 76.0428 164.132 81.9592 164.132 81.9592L160.329 67.3373Z" fill="#263238"/>
<path d="M165.78 76.6346C165.738 76.6346 165.654 76.1275 165.569 75.2823C165.484 74.4371 165.4 73.2538 165.358 71.986C165.315 70.6759 165.4 69.5349 165.442 68.6897C165.527 67.8445 165.569 67.3374 165.611 67.3374C165.654 67.3374 165.611 67.8445 165.611 68.6897C165.569 69.5349 165.569 70.7182 165.569 71.986C165.611 73.2538 165.654 74.4371 165.696 75.2823C165.78 76.1275 165.823 76.6346 165.78 76.6346Z" fill="#455A64"/>
<path d="M128.042 164.831L124.83 171.381L124.408 172.987C124.408 172.987 126.563 182.749 125.211 183.721L115.618 168.254L118.069 166.69L121.154 160.14L128.042 164.831Z" fill="#455A64"/>
<path d="M115.618 168.254L116.843 167.578L125.591 182.664C125.591 182.664 125.718 183.51 125.211 183.721L115.618 168.254Z" fill="url(#paint1_linear_180_6278)"/>
<path d="M124.619 173.198C124.535 173.241 124.281 172.902 123.816 172.649C123.351 172.395 122.929 172.395 122.929 172.311C122.886 172.226 123.394 172.099 123.943 172.353C124.535 172.691 124.704 173.198 124.619 173.198Z" fill="url(#paint2_linear_180_6278)"/>
<path d="M125 175.227C124.958 175.269 124.62 175.016 124.155 174.973C123.69 174.889 123.31 175.016 123.267 174.973C123.225 174.889 123.605 174.593 124.155 174.678C124.789 174.762 125.085 175.185 125 175.227Z" fill="url(#paint3_linear_180_6278)"/>
<path d="M123.731 177.297C123.689 177.255 123.985 176.917 124.492 176.875C124.999 176.833 125.379 177.086 125.337 177.171C125.295 177.255 124.957 177.171 124.534 177.213C124.111 177.213 123.773 177.382 123.731 177.297Z" fill="url(#paint4_linear_180_6278)"/>
<path d="M160.879 116.57C160.583 117.331 144.397 142.053 141.059 144.8C137.763 147.546 126.437 170.113 126.437 170.113C126.437 170.113 117.182 165.634 116.971 166.099C116.759 166.606 123.479 150.167 127.451 143.405C131.424 136.643 133.325 134.066 133.325 134.066L141.27 112.893C141.27 112.893 141.439 105.92 142.453 103.216C143.468 100.511 146.468 98.1447 146.468 98.1447L160.879 116.57Z" fill="url(#paint5_linear_180_6278)"/>
<path d="M146.298 146.448L137.72 147.082C137.72 147.082 135.522 156.506 133.916 156.801L132.015 139.264L145.369 137.742L146.298 146.448Z" fill="#455A64"/>
<path d="M137.847 141.588C137.72 141.25 137.339 141.081 137.001 141.165C136.706 141.292 136.494 141.672 136.621 142.011C136.748 142.349 137.213 142.602 137.508 142.433C137.804 142.264 138.016 141.799 137.804 141.503" fill="#E0E0E0"/>
<path d="M132.015 139.264L133.367 139.179L134.677 156.041C134.677 156.041 134.423 156.844 133.916 156.844L132.015 139.264Z" fill="url(#paint6_linear_180_6278)"/>
<path d="M137.805 147.378C137.72 147.378 137.636 146.955 137.34 146.575C137.044 146.194 136.664 145.983 136.706 145.898C136.706 145.814 137.213 145.898 137.593 146.363C137.931 146.828 137.889 147.378 137.805 147.378Z" fill="url(#paint7_linear_180_6278)"/>
<path d="M137.297 149.279C137.213 149.321 137.044 148.941 136.664 148.688C136.283 148.434 135.903 148.392 135.903 148.307C135.861 148.223 136.368 148.096 136.79 148.434C137.297 148.772 137.382 149.279 137.297 149.279Z" fill="url(#paint8_linear_180_6278)"/>
<path d="M135.311 150.547C135.269 150.462 135.691 150.293 136.156 150.462C136.621 150.632 136.832 151.012 136.79 151.054C136.748 151.096 136.452 150.885 136.072 150.758C135.691 150.632 135.353 150.632 135.311 150.547Z" fill="url(#paint9_linear_180_6278)"/>
<path d="M139.748 146.997C139.664 146.955 139.748 146.574 139.664 146.067C139.579 145.602 139.41 145.222 139.452 145.18C139.495 145.138 139.833 145.476 139.917 146.025C140.044 146.574 139.833 147.039 139.748 146.997Z" fill="url(#paint10_linear_180_6278)"/>
<path d="M138.777 110.062C138.777 110.062 138.734 118.303 142.495 121.092C146.257 123.881 159.23 134.361 159.23 134.361L138.523 137.911L140.087 147.504C140.087 147.504 168.063 144.673 171.486 143.532C174.909 142.391 177.36 136.601 174.697 132.587C173.345 130.558 159.442 110.78 159.442 110.78L159.019 105.456L141.439 106.554L138.777 110.062Z" fill="url(#paint11_linear_180_6278)"/>
<path d="M140.044 147.504C140.044 147.504 140.044 147.462 140.002 147.335C139.96 147.209 139.96 147.039 139.917 146.828C139.833 146.363 139.748 145.729 139.579 144.927C139.283 143.236 138.903 140.87 138.396 137.911V137.827H138.481C143.467 136.982 150.102 135.841 157.413 134.573C158.047 134.488 158.638 134.362 159.23 134.277L159.188 134.488C156.272 132.079 153.483 129.797 150.947 127.769C149.679 126.755 148.454 125.783 147.355 124.895C146.214 124.008 145.158 123.205 144.228 122.36C142.411 120.712 141.227 119.106 140.551 117.922C140.213 117.331 139.96 116.866 139.791 116.528C139.706 116.359 139.664 116.232 139.622 116.148C139.579 116.063 139.579 116.021 139.579 116.021C139.579 116.021 139.622 116.063 139.664 116.148C139.706 116.232 139.748 116.359 139.833 116.528C140.002 116.824 140.255 117.289 140.594 117.88C141.312 119.021 142.537 120.585 144.312 122.233C145.2 123.078 146.299 123.839 147.44 124.726C148.581 125.614 149.806 126.586 151.074 127.6C153.61 129.628 156.399 131.91 159.315 134.319L159.484 134.488L159.23 134.531C158.638 134.615 158.047 134.742 157.413 134.826C150.102 136.052 143.467 137.193 138.481 138.038L138.565 137.954C139.03 140.912 139.41 143.321 139.664 144.969C139.791 145.772 139.875 146.448 139.96 146.87C140.002 147.082 140.002 147.251 140.044 147.378C140.044 147.462 140.044 147.504 140.044 147.504Z" fill="#455A64"/>
<path d="M164.809 134.953C164.809 135.037 163.583 134.657 162.02 134.488C160.498 134.319 159.23 134.404 159.23 134.361C159.23 134.319 159.526 134.277 160.033 134.235C160.541 134.192 161.259 134.192 162.02 134.277C162.78 134.361 163.499 134.53 164.006 134.657C164.513 134.826 164.809 134.953 164.809 134.953Z" fill="#455A64"/>
<path d="M152.003 40.8827C152.257 40.122 153.018 39.5726 153.778 39.5726C154.539 38.6851 155.976 38.4738 156.99 39.0655C157.582 38.5161 158.469 38.3471 159.272 38.6006C160.033 38.8542 160.667 39.5303 160.836 40.3333C161.596 40.0797 162.526 40.3333 163.033 41.0094C163.54 41.6433 163.582 42.6153 163.118 43.3337C164.047 43.4605 164.766 44.348 164.766 45.2777C164.723 46.2074 163.921 47.0526 163.033 47.0949L152.764 42.9956C152.088 42.5308 151.792 41.6433 152.003 40.8827Z" fill="#263238"/>
<path d="M163.329 47.2216C162.272 43.1647 158.258 40.6291 154.159 41.3898L153.736 41.4743C149.383 42.5308 148.749 46.8413 149.933 51.1941L153.313 67.5064L161.385 72.2817L162.357 68.7319V62.9423C162.357 62.9423 166.456 61.5055 165.738 57.2795C165.357 55.1665 164.301 50.9828 163.329 47.2216Z" fill="#FFBF9D"/>
<path d="M162.357 62.9C162.357 62.9 159.695 63.5339 156.525 62.2661C156.525 62.2661 158.174 65.3088 162.315 64.1678L162.357 62.9Z" fill="#FF9A6C"/>
<path d="M162.78 51.2364C162.865 51.5745 162.653 51.8703 162.315 51.9548C161.977 52.0393 161.681 51.828 161.597 51.5322C161.512 51.1941 161.724 50.8983 162.062 50.8138C162.4 50.7293 162.738 50.8983 162.78 51.2364Z" fill="#263238"/>
<path d="M162.865 49.6727C162.822 49.7572 162.273 49.5036 161.639 49.6304C161.005 49.7572 160.583 50.1798 160.498 50.0953C160.456 50.053 160.498 49.9262 160.667 49.7149C160.836 49.5459 161.174 49.3346 161.555 49.2501C161.977 49.1656 162.315 49.2501 162.569 49.3769C162.822 49.5036 162.907 49.6304 162.865 49.6727Z" fill="#263238"/>
<path d="M157.117 52.5041C157.202 52.8422 156.991 53.138 156.653 53.2225C156.315 53.3071 156.019 53.0958 155.934 52.7999C155.85 52.4619 156.061 52.166 156.399 52.0815C156.737 51.997 157.075 52.2083 157.117 52.5041Z" fill="#263238"/>
<path d="M156.652 50.7292C156.61 50.8137 156.06 50.5602 155.426 50.6869C154.792 50.8137 154.37 51.2363 154.285 51.1518C154.243 51.1095 154.285 50.9828 154.454 50.7715C154.623 50.6024 154.961 50.3911 155.342 50.3066C155.764 50.2221 156.102 50.3066 156.356 50.4334C156.567 50.5602 156.694 50.6869 156.652 50.7292Z" fill="#263238"/>
<path d="M159.653 55.1666C159.653 55.1243 160.033 54.9975 160.667 54.7862C160.836 54.744 160.963 54.6594 161.005 54.5749C161.005 54.4481 160.92 54.2791 160.794 54.1101C160.582 53.7297 160.329 53.3494 160.075 52.9268C159.061 51.2364 158.3 49.8418 158.385 49.7995C158.469 49.7573 159.315 51.1096 160.329 52.7577C160.582 53.1803 160.794 53.5607 161.047 53.941C161.132 54.1101 161.301 54.3214 161.258 54.5749C161.216 54.7017 161.132 54.8285 161.047 54.8707C160.963 54.913 160.836 54.9553 160.794 54.9553C160.075 55.1243 159.653 55.2088 159.653 55.1666Z" fill="#263238"/>
<path d="M157.835 55.9694C157.92 55.9272 158.089 56.6456 158.765 57.0259C159.441 57.4063 160.202 57.195 160.202 57.3218C160.202 57.364 160.075 57.4908 159.737 57.5753C159.441 57.6598 158.976 57.6176 158.554 57.364C158.131 57.1105 157.878 56.7301 157.835 56.4343C157.751 56.1385 157.793 55.9694 157.835 55.9694Z" fill="#263238"/>
<path d="M156.314 48.8698C156.272 49.0388 155.68 48.9965 155.004 49.1233C154.328 49.2501 153.778 49.5037 153.694 49.3346C153.651 49.2501 153.736 49.0811 153.947 48.912C154.159 48.743 154.497 48.5317 154.919 48.4472C155.342 48.3627 155.722 48.4049 155.976 48.5317C156.187 48.6162 156.356 48.7852 156.314 48.8698Z" fill="#263238"/>
<path d="M162.4 47.8978C162.315 48.0669 161.851 48.0246 161.301 48.1936C160.752 48.3204 160.371 48.5317 160.202 48.4472C160.118 48.4049 160.16 48.2359 160.329 48.0246C160.498 47.8556 160.794 47.6443 161.132 47.5597C161.512 47.4752 161.851 47.5175 162.062 47.602C162.315 47.6865 162.442 47.8133 162.4 47.8978Z" fill="#263238"/>
<path d="M162.569 45.3621C162.569 45.3621 160.963 42.911 159.568 42.5307C157.878 42.0658 157.54 43.883 155.976 43.7562C154.413 43.6294 152.849 43.1646 151.539 44.5592C150.102 46.1228 151.032 46.8412 151.285 48.7429C152.257 56.4342 151.285 58.843 150.229 55.3354C150.102 54.9551 148.961 54.8283 148.496 53.1802C147.905 51.0672 147.355 48.4471 147.524 46.8412C147.693 45.4889 148.243 44.4324 149.384 43.2491C151.159 41.3051 153.99 40.7558 155.976 40.629C158.005 40.46 162.104 41.9813 162.569 45.3621Z" fill="#263238"/>
<path d="M151.032 55.0397C150.905 54.4058 150.229 53.9832 149.595 54.1523C148.834 54.3636 148.031 54.9975 148.37 56.6034C149.003 59.477 151.75 58.2937 151.708 58.2092C151.708 58.167 151.285 56.2653 151.032 55.0397Z" fill="#FFBF9D"/>
<path d="M150.862 57.2796C150.862 57.2796 150.82 57.3219 150.736 57.3641C150.651 57.4064 150.524 57.4909 150.355 57.4486C150.017 57.4064 149.679 56.9838 149.552 56.4767C149.468 56.2231 149.51 55.9695 149.552 55.716C149.595 55.5047 149.679 55.2934 149.848 55.2511C149.975 55.1666 150.102 55.2511 150.186 55.3356C150.228 55.4202 150.228 55.4624 150.271 55.4624C150.271 55.4624 150.313 55.4202 150.271 55.2934C150.228 55.2511 150.186 55.1666 150.102 55.1243C150.017 55.0821 149.933 55.0821 149.806 55.1243C149.595 55.1666 149.425 55.4202 149.383 55.6737C149.299 55.9273 149.299 56.2231 149.383 56.5189C149.51 57.1106 149.933 57.5754 150.397 57.6177C150.609 57.6177 150.778 57.5332 150.82 57.4486C150.862 57.3219 150.862 57.2796 150.862 57.2796Z" fill="#FF9A6C"/>
<path d="M149.51 49.5458C149.933 49.7148 150.356 49.9261 150.82 49.8839C151.285 49.8416 151.75 49.5035 151.75 49.0387C151.75 48.8274 151.666 48.6161 151.75 48.4048C151.877 48.1935 152.173 48.1935 152.426 48.1935C153.272 48.1512 154.032 47.3905 154.074 46.5031C154.328 46.7989 154.835 46.6721 155.131 46.4186C155.427 46.165 155.554 45.7847 155.765 45.4466C155.976 45.1085 156.272 44.7704 156.652 44.7704C156.864 44.7704 157.075 44.8549 157.286 44.8127C157.667 44.7282 157.751 44.2211 157.751 43.8407C157.751 43.4604 157.709 42.9955 158.005 42.742C158.258 42.4884 158.681 42.5307 159.019 42.5307C159.357 42.5307 159.822 42.3616 159.822 41.9813C159.822 41.8122 159.737 41.6009 159.61 41.4742C159.019 40.8403 158.005 40.7135 157.286 41.1783C156.821 40.2909 155.807 39.6992 154.793 39.7415C153.779 39.826 152.849 40.5444 152.553 41.5164C151.835 41.0516 150.905 41.0093 150.144 41.3474C149.384 41.6855 148.792 42.4039 148.623 43.2068C147.905 43.1646 147.144 43.5872 146.806 44.2211C146.468 44.8972 146.552 45.7424 147.017 46.2918C146.552 46.6721 146.214 47.2638 146.299 47.8977C146.383 48.4893 147.102 48.9964 147.651 48.7429C147.524 49.25 147.82 49.8416 148.285 50.0529C148.792 50.222 149.384 49.9684 149.595 49.4613" fill="#263238"/>
<path d="M147.481 48.743C147.481 48.743 147.481 48.9965 147.777 49.2501C147.904 49.3769 148.158 49.5036 148.411 49.5036C148.665 49.5036 149.003 49.3769 149.172 49.1233H149.045C149.214 49.3346 149.468 49.5882 149.763 49.7572C149.933 49.884 150.144 49.9685 150.355 50.0108C150.566 50.053 150.778 50.0108 150.947 49.9685C151.285 49.8417 151.581 49.5882 151.707 49.3346C151.834 49.081 151.834 48.8275 151.834 48.7007C151.834 48.5317 151.834 48.4471 151.834 48.4471C151.834 48.4471 151.792 48.5317 151.792 48.7007C151.75 48.8275 151.75 49.081 151.623 49.2923C151.412 49.7572 150.566 50.1375 149.89 49.6304C149.637 49.4614 149.383 49.2501 149.214 49.0388L149.13 48.9543L149.087 49.0388C148.918 49.2501 148.665 49.3769 148.453 49.3769C148.2 49.3769 148.031 49.2923 147.862 49.2078C147.524 48.9543 147.481 48.743 147.481 48.743Z" fill="#455A64"/>
<path d="M151.708 41.1362C151.708 41.1362 151.793 41.1362 151.919 41.1785C152.046 41.2208 152.257 41.3053 152.426 41.4743L152.469 41.5166L152.511 41.4743C152.722 41.0517 153.06 40.5023 153.694 40.0797C153.99 39.8684 154.37 39.6994 154.793 39.6149C155.216 39.5304 155.638 39.5726 156.061 39.7417C156.399 39.8684 156.695 40.0797 156.906 40.291C157.117 40.5446 157.286 40.7982 157.371 41.094L157.413 41.1785L157.498 41.1362C157.92 40.9249 158.385 40.9249 158.723 41.0517C159.103 41.1785 159.357 41.4321 159.526 41.6434C159.864 42.1082 159.822 42.4886 159.864 42.4886C159.864 42.4886 159.864 42.404 159.864 42.235C159.822 42.066 159.78 41.8547 159.611 41.6011C159.442 41.3475 159.188 41.094 158.808 40.9249C158.427 40.7982 157.92 40.7559 157.455 40.9672L157.582 41.0095C157.498 40.6714 157.329 40.3756 157.075 40.122C156.821 39.8684 156.526 39.6571 156.145 39.5304C155.68 39.3613 155.216 39.3191 154.751 39.4036C154.328 39.4881 153.906 39.6571 153.61 39.9107C152.976 40.3756 152.595 40.9672 152.426 41.3898H152.511C152.3 41.1785 152.088 41.1362 151.919 41.094C151.793 41.094 151.708 41.1362 151.708 41.1362Z" fill="#455A64"/>
<path d="M156.525 111.583C156.948 111.626 158.3 112.091 160.075 108.794C161.85 105.498 163.583 93.2849 163.583 93.2849L156.525 111.583Z" fill="#E0E0E0"/>
<path d="M164.217 88.5518L164.428 76.719L162.061 67.6754C162.061 67.6754 160.413 65.0553 158.596 63.7452C156.441 62.1816 154.666 61.8013 154.666 61.8013L151.961 61.1251L151.666 63.3649L159.568 72.4085L164.217 88.5518Z" fill="#E0E0E0"/>
<path d="M151.665 61.9705C151.665 61.9705 158.173 62.5198 161.301 70.3802C162.991 74.6062 164.005 85.9318 164.217 87.6645C164.428 89.4394 163.752 93.4963 162.568 98.9478C162.315 100.004 161.47 102.793 159.188 109.555C156.694 116.781 154.75 122.148 154.75 122.148L133.958 114.119L144.312 95.9896C144.312 95.9896 143.763 90.4113 143.805 89.862C144.016 85.7205 143.213 83.3539 144.566 75.4091C144.988 73.0425 145.791 70.7182 147.059 68.6475C148.369 66.45 149.341 65.7738 151.539 64.1257L151.665 61.9705Z" fill="#263238"/>
<path d="M153.905 111.499L154.455 107.146L144.566 103.132L142.749 107.315L153.905 111.499Z" fill="#263238"/>
<path d="M153.905 111.499C153.905 111.499 153.821 111.457 153.694 111.414C153.525 111.33 153.314 111.245 153.06 111.161C152.511 110.95 151.708 110.611 150.736 110.231C148.75 109.47 145.961 108.414 142.791 107.188L142.833 107.315C143.34 106.174 143.848 104.991 144.355 103.765C144.439 103.554 144.524 103.343 144.651 103.131L144.524 103.174C148.412 104.737 151.919 106.132 154.455 107.146L154.413 107.062C154.244 108.414 154.159 109.47 154.074 110.273C154.032 110.654 153.99 110.95 153.99 111.161C153.905 111.414 153.905 111.499 153.905 111.499C153.905 111.499 153.905 111.414 153.948 111.203C153.99 110.992 154.032 110.696 154.074 110.358C154.201 109.555 154.328 108.456 154.539 107.104V107.062L154.497 107.019C151.962 106.005 148.496 104.568 144.608 102.962L144.524 102.92L144.482 103.005C144.397 103.216 144.312 103.427 144.186 103.639C143.636 104.864 143.129 106.047 142.664 107.188L142.622 107.315L142.749 107.357C145.961 108.541 148.792 109.597 150.82 110.358C151.792 110.696 152.595 110.992 153.145 111.203C153.398 111.288 153.61 111.372 153.779 111.414C153.863 111.499 153.905 111.541 153.905 111.499Z" fill="#455A64"/>
<path d="M162.146 100.427C162.146 100.427 162.146 100.469 162.103 100.554C162.061 100.638 162.061 100.765 162.019 100.892C161.934 101.187 161.765 101.61 161.596 102.159C161.216 103.258 160.709 104.822 160.075 106.766C158.765 110.654 156.948 116.021 154.919 121.895C154.877 122.022 154.835 122.106 154.792 122.233L154.75 122.36L154.623 122.317C148.876 120.078 143.678 118.049 139.917 116.612C138.057 115.894 136.536 115.26 135.48 114.88C134.973 114.668 134.55 114.499 134.296 114.373C134.17 114.33 134.085 114.288 134.001 114.246C133.916 114.203 133.916 114.203 133.916 114.203C133.916 114.203 133.958 114.203 134.043 114.246C134.127 114.288 134.212 114.33 134.381 114.373C134.677 114.499 135.099 114.626 135.606 114.837C136.663 115.26 138.184 115.809 140.044 116.528C143.805 117.965 149.003 119.993 154.75 122.191L154.623 122.275C154.666 122.191 154.708 122.064 154.75 121.937C156.779 116.021 158.596 110.696 159.948 106.808C160.624 104.906 161.174 103.343 161.554 102.244C161.723 101.737 161.892 101.314 162.019 101.018C162.061 100.892 162.103 100.765 162.146 100.68C162.103 100.469 162.103 100.427 162.146 100.427Z" fill="#455A64"/>
<path d="M131.592 123.585C131.592 123.585 134.043 115.598 136.156 115.049C138.227 114.499 141.016 114.415 141.481 115.767C141.988 117.119 142.368 119.106 142.284 121.134C142.199 123.163 141.438 126.121 141.438 126.121L139.283 125.445C139.283 125.445 140.931 117.331 140.509 115.978C140.086 114.626 136.536 114.964 135.902 116.359C135.268 117.753 133.198 124.092 133.198 124.092L131.592 123.585Z" fill="#455A64"/>
<path d="M121.788 133.643C122.549 130.305 124.282 122.909 125.042 119.697C125.254 118.81 126.141 118.26 127.029 118.43L147.06 122.402C147.947 122.571 148.539 123.416 148.412 124.346L146.13 138.249C145.961 139.179 145.074 139.813 144.144 139.644L123.098 135.714C122.169 135.503 121.577 134.615 121.788 133.643Z" fill="#455A64"/>
<path d="M146.298 127.515C146.298 127.515 146.298 127.558 146.256 127.684C146.256 127.811 146.214 127.938 146.171 128.149C146.087 128.53 145.96 129.121 145.833 129.882C145.538 131.403 145.115 133.559 144.566 136.263C144.523 136.432 144.481 136.601 144.481 136.77C144.439 136.939 144.397 137.151 144.27 137.277C144.143 137.404 143.974 137.531 143.805 137.573C143.594 137.616 143.425 137.573 143.213 137.531C142.495 137.404 141.734 137.235 140.931 137.108C139.368 136.813 137.635 136.475 135.86 136.136C134.085 135.798 132.226 135.418 130.282 135.038C129.31 134.869 128.338 134.657 127.324 134.446C126.816 134.362 126.309 134.235 125.802 134.15L125.422 134.066C125.295 134.023 125.168 134.023 125.042 133.981C124.788 133.854 124.577 133.643 124.492 133.347C124.45 133.221 124.45 133.094 124.492 132.967C124.492 132.84 124.534 132.756 124.577 132.629C124.619 132.418 124.661 132.206 124.703 131.995C124.788 131.572 124.872 131.108 124.999 130.685C125.168 129.84 125.38 128.995 125.549 128.149C125.887 126.501 126.267 124.853 126.563 123.332V123.247H126.647C132.352 124.684 137.255 125.741 140.762 126.417C142.495 126.755 143.889 127.008 144.861 127.177C145.326 127.262 145.707 127.346 145.96 127.389C146.087 127.431 146.171 127.431 146.256 127.431C146.298 127.515 146.298 127.515 146.298 127.515C146.298 127.515 146.256 127.515 146.214 127.515C146.129 127.515 146.045 127.473 145.918 127.473C145.664 127.431 145.284 127.389 144.819 127.304C143.847 127.135 142.453 126.882 140.72 126.586C137.212 125.91 132.31 124.895 126.605 123.458L126.69 123.416C126.352 124.938 126.014 126.586 125.675 128.234C125.506 129.079 125.337 129.924 125.126 130.769C125.042 131.192 124.957 131.615 124.83 132.08C124.788 132.291 124.746 132.502 124.703 132.713C124.661 132.925 124.577 133.136 124.661 133.347C124.703 133.601 124.872 133.77 125.084 133.854C125.168 133.897 125.295 133.939 125.464 133.939L125.844 134.023C126.352 134.108 126.859 134.235 127.366 134.319C128.38 134.531 129.352 134.7 130.324 134.911C132.268 135.291 134.127 135.672 135.902 136.01C137.677 136.348 139.368 136.686 140.973 136.982C141.776 137.151 142.537 137.277 143.256 137.447C143.425 137.489 143.594 137.531 143.763 137.489C143.932 137.447 144.101 137.362 144.185 137.235C144.312 137.108 144.354 136.939 144.397 136.77C144.439 136.601 144.481 136.432 144.481 136.263C145.03 133.601 145.495 131.403 145.791 129.924C145.96 129.164 146.087 128.572 146.171 128.192C146.214 127.98 146.256 127.854 146.256 127.727C146.298 127.6 146.298 127.515 146.298 127.515Z" fill="#263238"/>
<path d="M138.86 135.334C138.86 135.334 138.987 135.376 139.241 135.334C139.452 135.334 139.832 135.291 140.213 135.038C140.593 134.784 140.931 134.319 140.973 133.685C141.1 133.052 141.227 132.333 141.396 131.53C141.48 131.15 141.565 130.727 141.649 130.305C141.776 129.882 141.734 129.417 141.523 128.995C141.311 128.572 140.931 128.276 140.466 128.149C140.001 128.023 139.452 127.938 138.945 127.854C136.874 127.431 134.55 126.966 132.141 126.501C131.549 126.374 130.958 126.586 130.577 127.008C130.366 127.22 130.239 127.473 130.197 127.769C130.155 128.065 130.07 128.361 130.028 128.614C129.901 129.164 129.817 129.755 129.69 130.305C129.648 130.558 129.563 130.854 129.521 131.108C129.479 131.361 129.394 131.657 129.394 131.91C129.352 132.418 129.563 132.925 129.943 133.263C130.113 133.432 130.324 133.559 130.577 133.601C130.789 133.685 131.042 133.685 131.296 133.77C132.226 133.939 133.071 134.15 133.874 134.319C135.437 134.657 136.705 134.911 137.593 135.08C138.015 135.164 138.353 135.249 138.607 135.291C138.734 135.334 138.818 135.334 138.86 135.334C138.86 135.291 138.818 135.291 138.86 135.334C138.86 135.334 138.818 135.334 138.776 135.334C138.691 135.334 138.607 135.291 138.522 135.291C138.269 135.249 137.931 135.164 137.508 135.08C136.621 134.911 135.353 134.657 133.747 134.362C132.944 134.193 132.099 134.023 131.169 133.854C130.915 133.812 130.704 133.77 130.451 133.685C130.197 133.601 129.986 133.474 129.774 133.305C129.394 132.967 129.141 132.418 129.183 131.868C129.183 131.572 129.267 131.319 129.31 131.065C129.352 130.812 129.436 130.516 129.479 130.262C129.605 129.713 129.69 129.164 129.817 128.572C129.859 128.276 129.943 127.98 129.986 127.727C130.07 127.431 130.197 127.135 130.408 126.924C130.831 126.459 131.507 126.205 132.141 126.374C134.55 126.882 136.832 127.346 138.945 127.769C139.452 127.896 139.959 127.98 140.466 128.107C140.973 128.234 141.396 128.614 141.607 129.037C141.819 129.459 141.861 129.967 141.734 130.431C141.649 130.854 141.565 131.277 141.48 131.657C141.311 132.46 141.185 133.178 141.058 133.77C141.016 133.939 141.016 134.066 140.973 134.235C140.931 134.362 140.847 134.531 140.804 134.615C140.635 134.869 140.466 135.038 140.297 135.164C139.917 135.418 139.536 135.46 139.283 135.46C138.987 135.376 138.86 135.334 138.86 135.334Z" fill="#263238"/>
<g opacity="0.3">
<path d="M124.957 133.897C130.535 136.855 137.001 138.08 143.298 137.446L124.957 133.897Z" fill="black"/>
</g>
<path d="M137.551 129.713L135.184 129.248C134.804 129.164 134.592 128.825 134.635 128.445C134.719 128.065 135.057 127.853 135.438 127.896L137.804 128.361C138.185 128.445 138.396 128.783 138.354 129.164C138.269 129.544 137.931 129.797 137.551 129.713Z" fill="#E0E0E0"/>
<path d="M141.312 113.274C141.312 113.274 141.903 114.204 142.072 114.795C142.199 115.387 142.115 117.669 142.115 117.669C142.115 117.669 141.607 117.922 141.227 116.57C140.847 115.26 140.762 114.626 140.762 114.626L141.312 113.274Z" fill="#FFBF9D"/>
<path d="M141.227 117.5L141.312 113.316L139.706 110.231L134.592 110.147L134.423 115.218C134.423 115.218 135.184 117.415 135.522 117.796C135.86 118.218 136.579 117.922 136.579 117.922C136.959 118.514 138.015 118.303 138.015 118.303C138.523 118.937 139.368 118.345 139.368 118.345C139.368 118.345 140.086 118.979 140.424 118.937C140.551 118.937 140.678 118.852 140.762 118.725C141.058 118.387 141.227 117.922 141.227 117.5Z" fill="#FFBF9D"/>
<path d="M136.199 116.781C136.241 116.781 136.368 116.993 136.452 117.288C136.537 117.584 136.579 117.838 136.537 117.838C136.495 117.838 136.368 117.627 136.283 117.331C136.199 117.077 136.156 116.824 136.199 116.781Z" fill="#FF9A6C"/>
<path d="M137.551 116.739C137.593 116.739 137.677 117.077 137.804 117.5C137.931 117.922 138.058 118.26 138.016 118.303C137.973 118.345 137.762 118.007 137.635 117.542C137.508 117.119 137.508 116.739 137.551 116.739Z" fill="#FF9A6C"/>
<path d="M139.072 116.866C139.114 116.866 139.156 117.204 139.241 117.584C139.325 117.965 139.368 118.303 139.325 118.303C139.283 118.303 139.114 118.007 139.029 117.627C138.945 117.204 138.987 116.866 139.072 116.866Z" fill="#FF9A6C"/>
<path d="M141.269 114.626C141.312 114.626 141.354 115.345 141.354 116.232C141.354 117.12 141.312 117.838 141.227 117.838C141.185 117.838 141.143 117.12 141.143 116.232C141.185 115.345 141.227 114.626 141.269 114.626Z" fill="#FF9A6C"/>
<path d="M136.156 115.978C136.156 115.978 136.156 116.063 136.029 116.105C135.945 116.147 135.776 116.19 135.607 116.147C135.438 116.105 135.311 116.021 135.269 115.936C135.226 115.852 135.184 115.767 135.226 115.767C135.269 115.725 135.396 115.936 135.649 115.978C135.903 116.021 136.114 115.936 136.156 115.978Z" fill="#FF9A6C"/>
<path d="M137.677 116.19C137.677 116.19 137.635 116.274 137.55 116.317C137.466 116.359 137.296 116.401 137.127 116.359C136.958 116.317 136.832 116.232 136.747 116.148C136.663 116.063 136.663 115.978 136.663 115.978C136.705 115.936 136.874 116.105 137.17 116.19C137.423 116.274 137.677 116.148 137.677 116.19Z" fill="#FF9A6C"/>
<path d="M140.636 115.894C140.636 115.852 140.763 116.021 140.636 116.19C140.509 116.359 140.298 116.443 140.002 116.486C139.706 116.528 139.495 116.443 139.326 116.316C139.157 116.232 139.115 116.105 139.115 116.105C139.157 116.063 139.495 116.316 139.96 116.274C140.171 116.274 140.383 116.147 140.509 116.063C140.636 116.021 140.636 115.894 140.636 115.894Z" fill="#FF9A6C"/>
<path d="M156.61 76.5076C154.582 78.6206 142.115 90.876 142.115 90.876C142.115 90.876 141.397 110.696 141.016 110.78C140.636 110.865 133.452 110.273 133.452 110.273C133.452 110.273 132.437 89.2701 133.283 86.8613C134.128 84.4525 144.82 70.4644 145.031 70.1686C145.242 69.8728 146.468 67.7176 150.567 66.7033C155.342 65.4778 157.371 67.7598 158.174 70.1264C158.85 72.1548 157.54 75.3243 156.906 76.1695C156.821 76.254 156.695 76.3808 156.61 76.5076Z" fill="#263238"/>
<path d="M156.61 76.5076C156.61 76.5076 156.652 76.4231 156.779 76.254C156.906 76.1273 157.075 75.8737 157.244 75.5356C157.582 74.8595 158.047 73.803 158.258 72.3661C158.343 71.6477 158.385 70.8448 158.089 69.9996C157.793 69.1966 157.328 68.3092 156.568 67.633C156.187 67.2949 155.723 66.9991 155.258 66.7878C154.751 66.5765 154.201 66.4497 153.61 66.4075C152.469 66.323 151.243 66.5343 149.975 66.9146C148.75 67.2949 147.482 67.8443 146.383 68.7318C145.834 69.1966 145.369 69.7038 144.946 70.3377C144.481 70.9293 144.059 71.5209 143.594 72.1126C141.777 74.5636 139.833 77.1838 137.804 79.9729C136.79 81.3675 135.776 82.8043 134.804 84.2834C134.339 85.0441 133.832 85.8048 133.409 86.6077C133.367 86.6922 133.325 86.819 133.283 86.9035L133.198 87.2416C133.156 87.4529 133.114 87.6642 133.114 87.9178L133.071 88.5939L133.029 89.2701C132.902 92.9889 132.987 96.8768 133.114 100.807C133.198 104.019 133.325 107.188 133.452 110.231L133.367 110.146C134.677 110.231 135.945 110.358 137.213 110.442C137.847 110.485 138.481 110.527 139.114 110.569C139.41 110.569 139.748 110.611 140.044 110.611H140.509H140.72H140.805C140.805 110.611 140.889 110.611 140.805 110.611C140.805 110.654 140.805 110.611 140.805 110.611C140.932 110.02 140.932 109.386 141.016 108.794C141.058 108.202 141.101 107.569 141.143 106.977C141.227 105.794 141.27 104.61 141.354 103.469C141.566 98.8631 141.777 94.5948 141.904 90.7914V90.7492L141.946 90.7069C146.425 86.3119 150.06 82.7198 152.553 80.2265C153.821 79.0009 154.793 78.0289 155.469 77.3951C155.807 77.057 156.061 76.8457 156.23 76.6766C156.483 76.5921 156.61 76.5076 156.61 76.5076C156.61 76.5076 156.526 76.5921 156.357 76.7612C156.187 76.9302 155.934 77.1837 155.596 77.5218C154.92 78.198 153.948 79.17 152.722 80.3955C150.229 82.8888 146.594 86.4809 142.157 90.9182L142.199 90.8759C142.073 94.6793 141.904 98.9476 141.692 103.554C141.65 104.695 141.566 105.878 141.523 107.061C141.481 107.653 141.439 108.245 141.397 108.879C141.354 109.47 141.312 110.104 141.185 110.738C141.185 110.78 141.185 110.78 141.143 110.823C141.101 110.865 141.058 110.865 141.058 110.865H141.016H140.889H140.636H140.171C139.875 110.865 139.537 110.823 139.241 110.823C138.607 110.78 137.973 110.738 137.34 110.696C136.072 110.611 134.762 110.485 133.494 110.4H133.409V110.315C133.283 107.273 133.156 104.103 133.029 100.892C132.902 96.9191 132.818 93.0735 132.945 89.3123L132.987 88.5939L133.029 87.9178C133.029 87.7065 133.071 87.4529 133.114 87.2416L133.198 86.9035C133.24 86.7767 133.283 86.6922 133.325 86.5654C133.747 85.7202 134.255 84.9596 134.719 84.1989C135.691 82.6775 136.706 81.283 137.72 79.8884C139.706 77.0992 141.692 74.4791 143.51 72.0703C143.974 71.4787 144.439 70.887 144.862 70.2954C145.073 69.9996 145.284 69.7038 145.538 69.4502C145.792 69.1966 146.045 68.9431 146.341 68.6895C147.44 67.8021 148.75 67.2104 149.975 66.8301C151.243 66.4497 152.469 66.2384 153.652 66.3652C154.244 66.4497 154.793 66.5343 155.3 66.7878C155.807 66.9991 156.272 67.2949 156.652 67.6753C157.413 68.3937 157.878 69.2812 158.174 70.1264C158.47 70.9715 158.427 71.8167 158.3 72.5352C158.047 73.972 157.582 75.0285 157.244 75.7047C157.075 76.0427 156.906 76.2963 156.737 76.4231C156.652 76.4231 156.61 76.5076 156.61 76.5076Z" fill="#455A64"/>
<path d="M163.667 85.5936C163.667 85.5936 163.625 85.5091 163.583 85.34C163.54 85.171 163.456 84.9174 163.371 84.6639C163.202 84.03 162.949 83.1848 162.653 82.086C162.061 79.8885 161.216 76.8458 160.286 73.465V73.4228L160.329 73.3805C160.582 73.0002 160.794 72.6198 161.047 72.2395L161.258 71.9437L161.343 72.1127C160.878 72.0704 160.413 72.0282 159.948 71.9859H159.864L159.822 71.9014C159.568 71.0985 159.272 70.2955 158.934 69.5771C158.596 68.8587 158.258 68.1403 157.835 67.5909C157.413 66.9993 156.779 66.6612 156.272 66.3231C155.722 66.0273 155.173 65.7315 154.666 65.5202C153.694 65.0553 152.891 64.7172 152.299 64.5059C152.046 64.3791 151.834 64.2946 151.665 64.2524C151.539 64.2101 151.454 64.1678 151.454 64.1678C151.454 64.1678 151.539 64.1678 151.708 64.2524C151.877 64.2946 152.088 64.3791 152.384 64.4637C152.933 64.675 153.778 64.9708 154.75 65.4356C155.257 65.6469 155.807 65.9005 156.356 66.2386C156.906 66.5767 157.54 66.9147 158.004 67.5064C158.469 68.098 158.807 68.8164 159.145 69.5349C159.483 70.2533 159.779 71.0562 160.033 71.8591L159.948 71.7746C160.413 71.8169 160.878 71.8591 161.343 71.9014H161.512L161.427 72.0704L161.216 72.3663C160.963 72.7466 160.709 73.1269 160.498 73.5073V73.4228C161.385 76.8035 162.23 79.8463 162.822 82.0438C163.118 83.1003 163.329 83.9877 163.498 84.6216C163.583 84.9174 163.625 85.1287 163.667 85.34C163.667 85.5091 163.667 85.5936 163.667 85.5936Z" fill="#455A64"/>
<path d="M162.23 72.958C159.779 74.3948 157.793 74.3948 153.694 74.0567C150.862 73.8032 148.369 73.0002 145.538 72.9157C141.438 72.7889 138.353 74.0567 134.635 75.7471L131.888 79.0011L137.043 80.5647C137.043 80.5647 141.988 77.7333 148.369 78.0714C154.75 78.4095 160.667 76.6768 162.78 75.071L163.498 73.0847L163.245 72.0282L162.357 71.9437L162.23 72.958Z" fill="#FF9548"/>
<path d="M162.231 72.958C162.231 72.958 162.231 72.8735 162.231 72.7044C162.231 72.5354 162.273 72.2818 162.273 71.9437V71.9015H162.315C162.569 71.9015 162.865 71.9437 163.203 71.986H163.245V72.0283C163.329 72.3241 163.414 72.7044 163.541 73.0848C163.329 73.6764 163.076 74.3526 162.822 75.1132C162.273 75.5358 161.597 75.8739 160.836 76.212C160.075 76.5501 159.23 76.8459 158.343 77.0995C156.526 77.6066 154.455 77.9869 152.173 78.1559C151.032 78.2405 149.848 78.2405 148.623 78.1982C147.397 78.1559 146.13 78.1559 144.862 78.325C143.594 78.494 142.284 78.7476 140.974 79.1279C139.664 79.5083 138.354 80.0154 137.128 80.6493L137.086 80.6915H137.044C136.072 80.3957 135.058 80.0999 134.001 79.7618C133.283 79.5505 132.564 79.3392 131.846 79.1279L131.677 79.0857L131.804 78.9589C132.733 77.8601 133.663 76.7614 134.55 75.7049H134.593C136.452 74.8597 138.227 74.099 140.086 73.5919C141.904 73.0848 143.721 72.8735 145.453 72.9157C147.186 72.958 148.792 73.2538 150.271 73.5496C151.75 73.8454 153.145 74.0567 154.37 74.1413C155.638 74.2258 156.779 74.3103 157.751 74.268C158.765 74.2258 159.611 74.099 160.244 73.8877C160.921 73.6764 161.385 73.4651 161.724 73.2961C161.893 73.2115 161.977 73.1693 162.104 73.0848C162.188 72.958 162.231 72.958 162.231 72.958C162.231 72.958 162.188 73.0002 162.104 73.0425C162.019 73.0848 161.893 73.1693 161.724 73.2538C161.385 73.4228 160.921 73.6764 160.244 73.8877C159.568 74.099 158.723 74.268 157.709 74.3103C156.695 74.3526 155.554 74.3103 154.286 74.1835C153.018 74.099 151.623 73.8877 150.144 73.6341C148.665 73.3806 147.059 73.0425 145.369 73.0425C143.679 73.0002 141.861 73.2115 140.086 73.7187C138.269 74.2258 136.494 75.0287 134.635 75.8317L134.677 75.7894C133.79 76.8459 132.86 77.9447 131.93 79.0434L131.888 78.8744C132.606 79.0857 133.325 79.297 134.043 79.5083C135.1 79.8041 136.114 80.1422 137.086 80.438H137.002C138.269 79.7618 139.579 79.297 140.889 78.8744C142.199 78.494 143.51 78.1982 144.82 78.0714C146.13 77.9024 147.397 77.9024 148.623 77.9446C149.848 78.0292 151.032 77.9869 152.131 77.9024C154.413 77.7756 156.441 77.3953 158.258 76.8882C159.146 76.6346 159.991 76.3388 160.752 76.043C161.512 75.7471 162.188 75.3668 162.738 74.9865V75.0287C162.991 74.268 163.245 73.5919 163.456 73.0425V73.0848C163.372 72.7044 163.287 72.3241 163.203 72.0283L163.245 72.0705C162.907 72.0283 162.611 71.986 162.357 71.986L162.4 71.9437C162.357 72.2818 162.315 72.5354 162.315 72.7044C162.231 72.8735 162.231 72.958 162.231 72.958Z" fill="#263238"/>
<path d="M152.552 99.3281C152.552 99.3704 150.651 98.7787 148.369 97.9335C146.087 97.1306 144.27 96.4122 144.27 96.3699C144.27 96.3277 146.171 96.9193 148.453 97.7645C150.735 98.5674 152.552 99.2859 152.552 99.3281Z" fill="#455A64"/>
</g>
<defs>
<linearGradient id="paint0_linear_180_6278" x1="101.89" y1="62.6528" x2="51.4202" y2="98.359" gradientUnits="userSpaceOnUse">
<stop/>
<stop offset="1" stop-color="#B9B9B9"/>
</linearGradient>
<linearGradient id="paint1_linear_180_6278" x1="121.929" y1="166.073" x2="115.109" y2="174.147" gradientUnits="userSpaceOnUse">
<stop/>
<stop offset="1" stop-color="#B9B9B9"/>
</linearGradient>
<linearGradient id="paint2_linear_180_6278" x1="124.009" y1="172.11" x2="123.77" y2="172.893" gradientUnits="userSpaceOnUse">
<stop/>
<stop offset="1" stop-color="#B9B9B9"/>
</linearGradient>
<linearGradient id="paint3_linear_180_6278" x1="124.37" y1="174.609" x2="124.29" y2="175.083" gradientUnits="userSpaceOnUse">
<stop/>
<stop offset="1" stop-color="#B9B9B9"/>
</linearGradient>
<linearGradient id="paint4_linear_180_6278" x1="124.746" y1="176.828" x2="124.691" y2="177.207" gradientUnits="userSpaceOnUse">
<stop/>
<stop offset="1" stop-color="#B9B9B9"/>
</linearGradient>
<linearGradient id="paint5_linear_180_6278" x1="144.716" y1="91.4386" x2="114.245" y2="127.018" gradientUnits="userSpaceOnUse">
<stop/>
<stop offset="1" stop-color="#B9B9B9"/>
</linearGradient>
<linearGradient id="paint6_linear_180_6278" x1="133.697" y1="137.533" x2="129.666" y2="138.696" gradientUnits="userSpaceOnUse">
<stop/>
<stop offset="1" stop-color="#B9B9B9"/>
</linearGradient>
<linearGradient id="paint7_linear_180_6278" x1="137.437" y1="145.729" x2="136.836" y2="146.614" gradientUnits="userSpaceOnUse">
<stop/>
<stop offset="1" stop-color="#B9B9B9"/>
</linearGradient>
<linearGradient id="paint8_linear_180_6278" x1="136.801" y1="148.112" x2="136.489" y2="148.907" gradientUnits="userSpaceOnUse">
<stop/>
<stop offset="1" stop-color="#B9B9B9"/>
</linearGradient>
<linearGradient id="paint9_linear_180_6278" x1="136.248" y1="150.328" x2="136.12" y2="150.871" gradientUnits="userSpaceOnUse">
<stop/>
<stop offset="1" stop-color="#B9B9B9"/>
</linearGradient>
<linearGradient id="paint10_linear_180_6278" x1="139.769" y1="145.006" x2="139.118" y2="145.355" gradientUnits="userSpaceOnUse">
<stop/>
<stop offset="1" stop-color="#B9B9B9"/>
</linearGradient>
<linearGradient id="paint11_linear_180_6278" x1="162.096" y1="101.538" x2="146.337" y2="128.29" gradientUnits="userSpaceOnUse">
<stop/>
<stop offset="1" stop-color="#B9B9B9"/>
</linearGradient>
<clipPath id="clip0_180_6278">
<rect width="195.452" height="185.817" fill="white" transform="translate(27.5483 26.0917)"/>
</clipPath>
</defs>
</svg>
