<svg width="252" height="240" viewBox="0 0 252 240" fill="none" xmlns="http://www.w3.org/2000/svg">
<g clip-path="url(#clip0_180_5195)">
<path d="M50.2812 195.011L54.1015 220H76.1689L81.2925 195.371L50.2812 195.011Z" fill="#EBEBEB"/>
<path d="M78.191 211.011C78.191 211.101 72.5281 211.146 65.5618 211.146C58.5955 211.146 52.9326 211.101 52.9326 211.011C52.9326 210.921 58.5955 210.876 65.5618 210.876C72.5281 210.921 78.191 210.966 78.191 211.011Z" fill="#FAFAFA"/>
<path d="M78.281 209.798C78.281 209.888 72.5731 209.933 65.5619 209.933C58.5506 209.933 52.8428 209.888 52.8428 209.798C52.8428 209.708 58.5506 209.663 65.5619 209.663C72.6181 209.663 78.281 209.753 78.281 209.798Z" fill="#FAFAFA"/>
<path d="M78.2361 208.404C78.2361 208.494 72.5282 208.539 65.517 208.539C58.5057 208.539 52.7979 208.494 52.7979 208.404C52.7979 208.315 58.5057 208.27 65.517 208.27C72.5731 208.27 78.2361 208.36 78.2361 208.404Z" fill="#FAFAFA"/>
<path d="M56.6179 218.562C56.528 218.562 56.2584 217.169 55.9437 215.416C55.6291 213.663 55.4494 212.225 55.5393 212.225C55.6291 212.225 55.8988 213.618 56.2134 215.371C56.4831 217.124 56.7078 218.562 56.6179 218.562Z" fill="#FAFAFA"/>
<path d="M58.1013 218.292C58.0114 218.292 57.9215 216.899 57.8317 215.236C57.6968 213.528 57.6069 212.18 57.6968 212.18C57.7867 212.18 57.9665 213.528 58.1013 215.236C58.2362 216.944 58.1912 218.292 58.1013 218.292Z" fill="#FAFAFA"/>
<path d="M60.8432 218.292C60.7533 218.292 60.4836 216.899 60.2589 215.146C60.0342 213.393 60.0342 211.955 60.0791 211.955C60.169 211.955 60.3039 213.393 60.4836 215.101C60.7533 216.899 60.9331 218.292 60.8432 218.292Z" fill="#FAFAFA"/>
<path d="M62.7756 218.427C62.6857 218.427 62.5059 216.989 62.461 215.236C62.416 213.483 62.5059 212.045 62.5509 212.045C62.6408 212.045 62.6408 213.483 62.7306 215.236C62.7756 216.989 62.8655 218.427 62.7756 218.427Z" fill="#FAFAFA"/>
<path d="M66.1913 218.292C66.1014 218.292 66.0115 216.944 65.9665 215.236C65.9216 213.573 65.9216 212.18 66.0115 212.18C66.1014 212.18 66.1913 213.528 66.2362 215.236C66.2811 216.944 66.2811 218.292 66.1913 218.292Z" fill="#FAFAFA"/>
<path d="M68.6632 218.427C68.5733 218.427 68.5284 217.034 68.5733 215.281C68.5733 213.528 68.6632 212.135 68.7081 212.135C68.798 212.135 68.843 213.528 68.798 215.281C68.798 217.034 68.7531 218.427 68.6632 218.427Z" fill="#FAFAFA"/>
<path d="M71.0001 218.112C70.9102 218.112 71.0001 216.629 71.1799 214.831C71.3597 213.034 71.5394 211.551 71.6293 211.595C71.7192 211.595 71.6293 213.079 71.4495 214.876C71.2698 216.674 71.09 218.112 71.0001 218.112Z" fill="#FAFAFA"/>
<path d="M74.0112 217.798C73.9213 217.798 74.0562 216.539 74.3708 215.011C74.6854 213.483 75.1348 212.315 75.1798 212.315C75.2696 212.315 74.955 213.573 74.5955 215.056C74.3258 216.539 74.1011 217.798 74.0112 217.798Z" fill="#FAFAFA"/>
<path d="M71.8993 145.708C71.8993 145.708 71.8993 145.753 71.8544 145.843C71.8094 145.933 71.8094 146.067 71.7645 146.202C71.6746 146.517 71.5397 146.966 71.36 147.551C71.1802 148.135 70.9555 148.854 70.7308 149.708C70.506 150.562 70.1914 151.506 69.9218 152.539C69.6521 153.618 69.3375 154.742 69.0678 156C68.7532 157.258 68.4836 158.607 68.2139 160.045C67.6746 162.876 67.1802 166.022 66.8656 169.348C66.551 172.674 66.3712 175.865 66.3712 178.742C66.3712 180.18 66.3712 181.573 66.4161 182.876C66.4161 184.18 66.506 185.348 66.551 186.472C66.5959 187.551 66.6858 188.539 66.7757 189.438C66.8206 190.292 66.9105 191.056 67.0004 191.64C67.0454 192.225 67.0903 192.719 67.1353 193.034C67.1353 193.169 67.1802 193.303 67.1802 193.393C67.1802 193.483 67.1802 193.528 67.1802 193.528C67.1802 193.528 67.1802 193.483 67.1353 193.393C67.1353 193.303 67.0903 193.169 67.0903 193.034C67.0454 192.674 67.0004 192.225 66.9105 191.64C66.8206 191.011 66.7308 190.292 66.6409 189.438C66.551 188.584 66.4611 187.596 66.3712 186.472C66.2813 185.393 66.2364 184.18 66.1914 182.876C66.1465 181.573 66.1465 180.225 66.1465 178.742C66.1914 175.82 66.3263 172.629 66.6409 169.303C67.0004 165.978 67.4948 162.831 68.0341 159.955C68.3487 158.517 68.5735 157.169 68.933 155.91C69.2027 154.652 69.5173 153.483 69.8319 152.449C70.1015 151.371 70.4161 150.427 70.6858 149.618C70.9555 148.764 71.1802 148.09 71.36 147.506C71.5397 146.921 71.7195 146.517 71.8094 146.157C71.8543 146.022 71.8993 145.888 71.9442 145.798C71.8544 145.753 71.8993 145.708 71.8993 145.708Z" fill="#EBEBEB"/>
<path d="M67.8991 161.168C68.4834 159.371 69.7418 157.843 71.3149 156.809C71.8542 156.449 72.5733 156.18 73.1126 156.494C73.8767 156.854 73.9666 157.933 73.6969 158.786C73.2924 160.18 72.3935 161.393 71.18 162.202C69.9666 162.966 68.843 163.371 67.4497 163.146" fill="#EBEBEB"/>
<path d="M66.5509 171.64C67.1351 169.483 68.843 166.427 70.6408 165.079C70.9104 164.854 71.225 164.674 71.5846 164.584C71.9441 164.494 72.3037 164.539 72.5733 164.809C72.9329 165.168 72.8879 165.753 72.7981 166.247C72.1239 169.393 69.4722 172.045 66.3711 172.719" fill="#EBEBEB"/>
<path d="M66.1909 180.809C67.0898 178.742 68.528 176.944 70.3258 175.64C70.7302 175.326 71.2246 175.056 71.764 175.146C72.528 175.281 72.8875 176.225 72.8426 177.034C72.7078 178.652 71.4493 179.955 70.1909 180.989C68.7977 182.067 66.3707 182.966 66.3707 182.966" fill="#EBEBEB"/>
<path d="M66.3711 187.461C67.27 185.933 68.3936 184.494 69.8767 183.461C70.1913 183.236 70.5509 183.056 70.9104 183.011C71.3149 182.966 71.7194 183.101 71.9441 183.416C72.3037 183.91 71.9441 184.629 71.5846 185.124C70.2812 186.831 68.6632 188.135 66.5958 188.809" fill="#EBEBEB"/>
<path d="M66.236 184.764C64.708 182.921 63.045 181.213 61.2473 179.685C60.9776 179.461 60.6181 179.191 60.2585 179.326C59.9889 179.416 59.8091 179.73 59.8091 180C59.8091 180.27 59.899 180.584 59.9889 180.854C61.0675 183.506 63.6742 185.573 66.4158 186.292" fill="#EBEBEB"/>
<path d="M66.3709 176.135C65.0675 174.517 63.7641 172.944 62.4608 171.326C62.1012 170.876 61.6967 170.382 61.2023 170.112C60.708 169.843 59.9889 169.753 59.5394 170.112C59.045 170.472 58.9102 171.101 59.0001 171.685C59.09 172.27 59.4495 172.764 59.7641 173.258C60.5731 174.427 61.472 175.506 62.6405 176.315C63.8091 177.124 64.8428 177.618 66.2361 177.438" fill="#EBEBEB"/>
<path d="M66.9103 166.472C66.1462 164.18 64.753 162.112 62.9552 160.539C62.6406 160.27 62.326 160 61.9215 159.955C61.1125 159.82 60.3934 160.449 60.1238 161.214C59.8541 162.067 60.0339 163.056 60.4833 163.82C60.9328 164.584 61.6069 165.213 62.326 165.753C63.6294 166.742 65.1125 167.551 66.6856 168.135" fill="#EBEBEB"/>
<path d="M68.4836 157.843C68.124 155.056 66.6409 152.764 64.978 150.517C64.6184 150.022 64.124 149.528 63.5398 149.618C63.1802 149.663 62.8656 149.978 62.7308 150.337C62.596 150.697 62.551 151.056 62.596 151.461C62.6858 154.831 65.0229 158.022 68.169 159.146" fill="#EBEBEB"/>
<path d="M69.6067 153.438C69.4719 152 69.337 150.562 69.4719 149.124C69.6067 147.685 70.0112 146.247 70.9101 145.124C71.2696 144.629 71.764 144.18 72.3483 144C72.9325 143.775 73.6067 143.82 74.1011 144.225C74.5505 144.584 74.7303 145.214 74.6853 145.753C74.6853 146.337 74.4606 146.876 74.2359 147.416C73.1573 149.933 71.4045 152.719 69.6067 153.438Z" fill="#EBEBEB"/>
<path d="M52.4835 156.719C52.4835 156.719 52.4835 156.854 52.4835 157.079C52.4835 157.348 52.4835 157.663 52.4835 158.067C52.4835 158.517 52.4835 159.056 52.5284 159.64C52.5284 160.27 52.5734 160.989 52.6183 161.753C52.7082 163.326 52.843 165.169 53.0677 167.236C53.3374 169.303 53.652 171.551 54.1464 173.888C54.6408 176.225 55.225 178.427 55.8093 180.405C56.4385 182.382 57.0228 184.135 57.6071 185.618C57.8767 186.337 58.1464 187.011 58.3711 187.596C58.5958 188.18 58.8205 188.674 59.0003 189.079C59.1801 189.483 59.3149 189.753 59.4048 190.022C59.4947 190.247 59.5396 190.337 59.5396 190.337C59.5396 190.337 59.4947 190.247 59.3599 190.022C59.27 189.798 59.0902 189.483 58.9104 189.124C58.7307 188.719 58.5059 188.225 58.2363 187.685C58.0116 187.101 57.6969 186.472 57.4273 185.753C56.843 184.315 56.2138 182.517 55.5846 180.539C55.0003 178.562 54.3711 176.36 53.8767 174.022C53.3823 171.685 53.0677 169.438 52.7981 167.371C52.5734 165.303 52.4385 163.461 52.3936 161.888C52.3486 161.124 52.3486 160.405 52.3486 159.775C52.3486 159.146 52.3486 158.607 52.3486 158.157C52.3486 157.753 52.3936 157.393 52.3936 157.169C52.4385 156.854 52.4385 156.719 52.4835 156.719Z" fill="#E0E0E0"/>
<path d="M53.0674 168.135C53.0674 166.787 53.6067 165.483 54.4606 164.449C54.7752 164.09 55.1797 163.775 55.6292 163.82C56.2135 163.91 56.5281 164.629 56.5281 165.258C56.573 166.292 56.2135 167.326 55.5393 168.135C54.8651 168.944 54.191 169.438 53.2022 169.573" fill="#E0E0E0"/>
<path d="M54.416 175.506C54.3261 173.933 54.8654 171.461 55.7643 170.157C55.8991 169.933 56.0789 169.753 56.3036 169.618C56.5283 169.483 56.798 169.438 57.0227 169.528C57.3373 169.708 57.4272 170.112 57.4722 170.472C57.6969 172.764 56.4834 175.101 54.4609 176.27" fill="#E0E0E0"/>
<path d="M56.1235 181.888C56.3033 180.315 56.8876 178.787 57.8314 177.483C58.0561 177.169 58.3258 176.854 58.6853 176.809C59.2247 176.719 59.6741 177.303 59.8089 177.843C60.0786 178.966 59.4943 180.135 58.8202 181.079C58.1011 182.112 56.6629 183.236 56.6629 183.236" fill="#E0E0E0"/>
<path d="M57.6968 186.337C57.9664 185.079 58.4159 183.865 59.2249 182.876C59.4046 182.652 59.5844 182.427 59.8541 182.337C60.1237 182.202 60.4384 182.202 60.6181 182.382C60.9777 182.652 60.8878 183.191 60.753 183.64C60.2586 185.079 59.4046 186.337 58.1462 187.191" fill="#E0E0E0"/>
<path d="M57.0228 184.539C55.5846 183.595 54.1014 182.786 52.5284 182.157C52.3037 182.067 51.9891 181.978 51.7643 182.112C51.5846 182.247 51.5396 182.472 51.5846 182.652C51.6295 182.831 51.7643 183.011 51.8992 183.191C53.2025 184.764 55.4048 185.618 57.4722 185.483" fill="#E0E0E0"/>
<path d="M55.2696 178.652C54.0112 177.843 52.7977 177.034 51.5393 176.225C51.1797 176 50.8202 175.775 50.4157 175.685C50.0112 175.595 49.5168 175.685 49.2472 176.045C48.9775 176.36 49.0224 176.854 49.2022 177.258C49.382 177.618 49.7415 177.888 50.0562 178.157C50.8651 178.786 51.7191 179.326 52.6629 179.595C53.6067 179.91 54.4606 180 55.3595 179.595" fill="#E0E0E0"/>
<path d="M53.5619 171.91C52.5731 170.517 51.1798 169.393 49.6068 168.719C49.3371 168.584 49.0675 168.494 48.7978 168.539C48.2136 168.584 47.854 169.213 47.854 169.798C47.854 170.427 48.1686 171.056 48.663 171.506C49.1574 171.955 49.7416 172.225 50.3259 172.449C51.4495 172.854 52.618 173.079 53.8315 173.124" fill="#E0E0E0"/>
<path d="M52.7529 165.708C51.899 163.91 50.4159 162.652 48.7979 161.483C48.4383 161.258 48.0338 160.989 47.6293 161.169C47.4046 161.303 47.2698 161.573 47.2248 161.843C47.1799 162.112 47.2698 162.382 47.3597 162.652C48.1237 164.899 50.4159 166.607 52.7979 166.652" fill="#E0E0E0"/>
<path d="M52.5733 162.472C52.1688 161.528 51.7643 160.584 51.5396 159.596C51.3149 158.607 51.3149 157.528 51.6295 156.584C51.7643 156.18 51.989 155.775 52.3486 155.506C52.7081 155.236 53.2025 155.101 53.607 155.281C53.9665 155.416 54.2362 155.82 54.3261 156.18C54.416 156.584 54.416 156.989 54.371 157.393C54.2362 159.326 53.6519 161.618 52.5733 162.472Z" fill="#E0E0E0"/>
<path d="M80.3936 156.494C80.3936 156.494 80.3936 156.629 80.4385 156.854C80.4385 157.124 80.4385 157.438 80.4835 157.843C80.4835 158.292 80.5284 158.831 80.4835 159.461C80.4835 160.09 80.4835 160.809 80.4385 161.573C80.3936 163.146 80.2588 164.989 80.0341 167.056C79.8093 169.124 79.4498 171.371 78.9554 173.708C78.461 176.045 77.8768 178.247 77.2475 180.225C76.6183 182.202 75.9891 183.955 75.4048 185.438C75.1352 186.157 74.8206 186.831 74.5959 187.371C74.3711 187.955 74.1464 188.449 73.9217 188.809C73.7419 189.169 73.6071 189.483 73.4723 189.708C73.3824 189.933 73.2925 190.022 73.2925 190.022C73.2925 190.022 73.3374 189.888 73.4273 189.708C73.5172 189.483 73.652 189.169 73.8318 188.764C74.0116 188.36 74.2363 187.865 74.461 187.281C74.6857 186.697 74.9554 186.067 75.2251 185.303C75.8093 183.865 76.3936 182.067 77.0228 180.09C77.6071 178.112 78.1914 175.91 78.6857 173.573C79.1801 171.236 79.5397 168.989 79.7644 166.921C79.9891 164.854 80.1689 163.011 80.2138 161.438C80.2588 160.674 80.2588 159.955 80.3037 159.326C80.3487 158.697 80.3487 158.157 80.3487 157.753C80.3487 157.348 80.3487 156.989 80.3487 156.764C80.3936 156.629 80.3936 156.494 80.3936 156.494Z" fill="#EBEBEB"/>
<path d="M79.7642 167.865C79.7642 166.517 79.2249 165.169 78.371 164.18C78.0564 163.82 77.6519 163.506 77.2024 163.551C76.6182 163.64 76.3036 164.36 76.3036 164.989C76.2586 166.022 76.6182 167.056 77.2923 167.865C77.9665 168.674 78.6406 169.169 79.6294 169.303" fill="#EBEBEB"/>
<path d="M78.4608 175.281C78.5506 173.708 78.0113 171.236 77.1124 169.933C76.9776 169.708 76.7978 169.528 76.5731 169.393C76.3484 169.258 76.0787 169.213 75.854 169.303C75.5394 169.483 75.4495 169.888 75.4046 170.247C75.1799 172.539 76.3933 174.876 78.4158 176.045" fill="#EBEBEB"/>
<path d="M76.7082 181.618C76.5284 180.045 75.9442 178.517 75.0003 177.214C74.7756 176.899 74.506 176.584 74.1464 176.539C73.6071 176.449 73.1576 177.034 73.0228 177.573C72.7532 178.697 73.3374 179.865 74.0116 180.809C74.7307 181.843 76.1689 182.966 76.1689 182.966" fill="#EBEBEB"/>
<path d="M75.135 186.067C74.8653 184.809 74.4159 183.596 73.6069 182.607C73.4271 182.382 73.2474 182.157 72.9777 182.067C72.708 181.933 72.3934 181.933 72.2136 182.112C71.8541 182.382 71.944 182.921 72.0788 183.371C72.5732 184.809 73.4271 186.067 74.6856 186.921" fill="#EBEBEB"/>
<path d="M75.8542 184.27C77.2924 183.326 78.7756 182.517 80.3486 181.888C80.5733 181.798 80.8879 181.708 81.1127 181.843C81.2924 181.978 81.3374 182.202 81.2924 182.382C81.2475 182.562 81.1127 182.742 80.9778 182.921C79.6744 184.494 77.4722 185.348 75.4048 185.213" fill="#EBEBEB"/>
<path d="M77.607 178.382C78.8654 177.573 80.0789 176.764 81.3373 175.955C81.6969 175.73 82.0564 175.506 82.4609 175.416C82.8654 175.326 83.3598 175.416 83.6294 175.775C83.8991 176.09 83.8542 176.584 83.6744 176.989C83.4946 177.348 83.1351 177.618 82.8205 177.888C82.0115 178.517 81.1575 179.056 80.2137 179.326C79.2699 179.64 78.416 179.73 77.5171 179.326" fill="#EBEBEB"/>
<path d="M79.3146 171.685C80.3483 170.292 81.6966 169.169 83.2696 168.494C83.5393 168.36 83.809 168.27 84.0786 168.315C84.6629 168.36 85.0225 168.989 85.0225 169.573C85.0225 170.202 84.7078 170.832 84.2135 171.281C83.7191 171.73 83.1348 172 82.5505 172.225C81.4269 172.629 80.2584 172.854 79.0449 172.899" fill="#EBEBEB"/>
<path d="M80.0786 165.483C80.9326 163.685 82.4157 162.427 84.0337 161.258C84.3932 161.034 84.8427 160.764 85.2022 160.944C85.4269 161.079 85.5618 161.348 85.6067 161.618C85.6517 161.888 85.5618 162.157 85.4719 162.427C84.7079 164.674 82.4157 166.382 80.0337 166.427" fill="#EBEBEB"/>
<path d="M80.3033 162.247C80.7078 161.303 81.1123 160.36 81.3371 159.371C81.5618 158.382 81.5618 157.303 81.2472 156.36C81.1123 155.955 80.8876 155.551 80.5281 155.281C80.1685 155.011 79.6741 154.876 79.2696 155.056C78.9101 155.191 78.6404 155.596 78.5505 155.955C78.4607 156.36 78.4607 156.764 78.5056 157.169C78.5955 159.101 79.2247 161.348 80.3033 162.247Z" fill="#EBEBEB"/>
<path d="M47.7642 190.067V194.742C47.7642 195.775 48.5731 196.584 49.6069 196.584H81.6069C82.6406 196.584 83.4496 195.775 83.4496 194.742V190.067H47.7642Z" fill="#EBEBEB"/>
<path d="M50.5059 196.584L50.7755 198.067L80.3036 200.18L81.0677 196.584H50.5059Z" fill="#E0E0E0"/>
<path d="M55.8091 82.9663L49.0676 80.1798C49.0676 80.1798 46.7305 85.8427 40.8428 83.5056C37.7867 82.2921 37.0226 79.6404 36.9777 77.8427C36.9777 75.7753 38.0114 73.8427 39.7192 72.5843C41.6518 71.191 44.9327 70.2921 49.1125 72.9438L55.3148 58.0225L48.6631 55.2809L44.9777 64.1798C44.9777 64.1798 34.6406 62.7416 30.4159 73.0337C26.3709 82.8764 34.5956 88.9438 39.2249 90.8314C42.1013 92.0449 51.0451 94.9213 55.8091 82.9663Z" fill="#F5F5F5"/>
<path d="M52.4291 45.822L49.8311 52.1404L56.6067 54.9264L59.2047 48.608L52.4291 45.822Z" fill="#F5F5F5"/>
<path d="M53.5619 82.0225L46.8204 79.2359C46.8204 79.2359 44.4833 84.8989 38.5956 82.5618C35.5395 81.3483 34.7754 78.6966 34.7305 76.8989C34.7305 74.8314 35.7642 72.8989 37.4721 71.6404C39.4046 70.2472 42.5956 69.5281 46.8204 72.2247L53.0676 57.0337L46.4159 54.2921L42.7754 63.191C42.7754 63.191 32.4383 61.7528 28.2136 72.0449C24.1687 81.8876 32.0788 87.8202 35.8541 89.3932C38.6406 90.6067 48.7979 93.9775 53.5619 82.0225Z" fill="#E0E0E0"/>
<path d="M50.1654 44.843L47.5674 51.1614L54.3431 53.9474L56.9411 47.629L50.1654 44.843Z" fill="#E0E0E0"/>
<path d="M215.27 198.292L211.09 198.652C211.09 198.652 211.36 202.157 207.719 202.517C205.832 202.697 204.753 201.528 204.259 200.629C203.719 199.551 203.719 198.292 204.259 197.213C204.888 196 206.326 194.697 209.203 194.921L208.438 185.618L204.304 185.977L204.753 191.506C204.753 191.506 199.09 193.483 199.629 199.865C200.124 205.977 205.967 206.921 208.798 206.697C210.596 206.517 215.944 205.663 215.27 198.292Z" fill="#F5F5F5"/>
<path d="M208.005 179.79L203.794 180.14L204.118 184.037L208.328 183.687L208.005 179.79Z" fill="#F5F5F5"/>
<path d="M213.831 198.382L209.652 198.742C209.652 198.742 209.921 202.247 206.281 202.607C204.393 202.787 203.315 201.618 202.82 200.719C202.281 199.64 202.281 198.382 202.82 197.303C203.449 196.09 204.888 194.876 207.764 195.146L207 185.708L202.865 186.067L203.315 191.596C203.315 191.596 197.652 193.573 198.191 199.955C198.685 206.067 204.303 207.011 206.64 206.831C208.438 206.697 214.551 205.753 213.831 198.382Z" fill="#E0E0E0"/>
<path d="M206.565 179.882L202.354 180.232L202.678 184.129L206.889 183.779L206.565 179.882Z" fill="#E0E0E0"/>
<path d="M191 46.7865L199.27 43.5056C199.27 43.5056 196.528 36.5393 203.719 33.573C207.45 32.045 210.371 33.7079 211.899 35.2809C213.697 37.1236 214.371 39.6854 213.966 42.2023C213.472 45.0787 211.315 48.6292 205.337 49.8427L212.618 68.2697L220.798 65.0337L216.483 54.1124C216.483 54.1124 226.775 46.6068 221.787 33.9775C217.023 21.8877 204.618 23.5056 198.955 25.7528C195.405 27.1461 185.068 32.2247 191 46.7865Z" fill="#F5F5F5"/>
<path d="M222.408 68.8474L214.089 72.1324L217.16 79.9077L225.478 76.6226L222.408 68.8474Z" fill="#F5F5F5"/>
<path d="M187.674 48.0899L195.944 44.809C195.944 44.809 193.202 37.8428 200.393 34.8765C204.124 33.3484 207.045 35.0113 208.573 36.5843C210.371 38.427 211.045 40.9888 210.64 43.5057C210.146 46.3821 207.899 49.7079 201.921 50.9214L209.292 69.5731L217.472 66.3371L213.157 55.4158C213.157 55.4158 223.449 47.9102 218.461 35.281C213.697 23.1911 201.742 24.6742 197.067 26.472C193.517 27.9102 181.786 33.5281 187.674 48.0899Z" fill="#E0E0E0"/>
<path d="M219.084 70.159L210.765 73.4441L213.836 81.2193L222.154 77.9342L219.084 70.159Z" fill="#E0E0E0"/>
<path d="M123.872 37.0986C124.634 28.5191 118.276 20.9446 109.672 20.1807C101.068 19.4168 93.475 25.7526 92.7133 34.3321C91.9515 42.9117 98.3091 50.4861 106.913 51.2501C115.518 52.014 123.11 45.6782 123.872 37.0986Z" fill="white"/>
<path d="M118.326 47.6854C118.326 47.6854 118.371 47.6404 118.506 47.5056C118.641 47.3708 118.82 47.236 119.045 47.0112C119.18 46.9213 119.315 46.7865 119.45 46.6517C119.584 46.5169 119.719 46.3371 119.899 46.1573C120.079 45.9775 120.214 45.7978 120.393 45.573C120.573 45.3933 120.753 45.1236 120.933 44.8539C121.697 43.8652 122.416 42.5169 123.045 40.8539C123.629 39.191 124.034 37.1685 123.899 34.9663C123.899 34.6966 123.854 34.427 123.854 34.1124C123.809 33.8427 123.764 33.5281 123.719 33.2584C123.674 32.9888 123.629 32.6742 123.584 32.4045C123.495 32.1348 123.45 31.8202 123.36 31.5506C123.27 31.3258 123.18 30.9663 123.09 30.6966V30.6517C123 30.382 122.865 30.0674 122.775 29.7528C122.641 29.4382 122.506 29.1685 122.371 28.8989C122.236 28.6292 122.101 28.3146 121.922 28.0449C121.562 27.5056 121.247 26.8764 120.843 26.382C120.618 26.1124 120.438 25.8427 120.214 25.573C119.899 25.2135 119.584 24.8989 119.225 24.5393C119.18 24.4944 119.18 24.4494 119.135 24.4494C119 24.3146 118.865 24.2247 118.731 24.0899C118.461 23.8652 118.191 23.5955 117.922 23.3708C117.337 22.9663 116.753 22.5169 116.124 22.1573C115.495 21.7528 114.82 21.4831 114.101 21.1685C113.742 21.0337 113.382 20.8989 113.023 20.809C112.843 20.764 112.663 20.6742 112.483 20.6292L111.989 20.4494C111.405 20.2697 110.775 20.1798 110.146 20.1348C109.832 20.0899 109.517 20.0899 109.202 20.0449L108.214 20H107.899L107.315 20.0449L106.73 20.0899L106.101 20.1798L105.517 20.2697L105.202 20.3146L104.888 20.4045C104.259 20.5843 103.27 20.8989 102.686 21.0787C102.641 21.0787 102.596 21.1236 102.551 21.1236C101.023 21.7528 99.5395 22.6067 98.2361 23.6854C96.9327 24.809 95.8541 26.0674 94.9552 27.5056C94.9103 27.5506 94.9103 27.5955 94.8653 27.6404C94.5957 28.2247 94.1013 29.1236 93.8316 29.7079L93.6968 29.9775L93.6069 30.2472L93.4271 30.8315L93.2473 31.4157L93.1125 32L92.9777 32.5843L92.9327 32.8539L92.7979 33.8427C92.753 34.1573 92.753 34.4719 92.708 34.7865C92.6631 35.4157 92.6631 36.0449 92.708 36.6742L92.753 37.2584C92.753 37.4382 92.7979 37.618 92.8429 37.8427C92.8878 38.2022 92.9327 38.6067 93.0226 38.9663C93.2024 39.6854 93.3822 40.4494 93.6518 41.1236C93.8766 41.8427 94.2361 42.4719 94.5507 43.1011C94.7305 43.4157 94.9103 43.7303 95.09 44C95.1799 44.1348 95.2698 44.3146 95.3597 44.4494C95.4047 44.4944 95.4047 44.5393 95.4496 44.5843C95.7193 44.9888 96.0339 45.3483 96.3035 45.7079C96.5282 45.9775 96.753 46.2022 96.9777 46.4719C97.4271 47.0112 97.9215 47.4157 98.4159 47.8202C98.6406 48.0449 98.9552 48.2247 99.1799 48.4045C99.4496 48.5843 99.6743 48.764 99.944 48.9438C100.214 49.1236 100.483 49.2584 100.753 49.3933C100.978 49.5281 101.337 49.7079 101.562 49.7978C101.832 49.9326 102.101 50.0674 102.371 50.1573C102.641 50.2921 102.91 50.3371 103.225 50.4719C103.495 50.5618 103.764 50.6517 104.034 50.7416C104.304 50.7865 104.573 50.8764 104.843 50.9213C107 51.4157 109.068 51.3708 110.82 51.1011C112.573 50.7865 114.011 50.2921 115.135 49.7079C115.405 49.573 115.674 49.4831 115.899 49.3034C116.124 49.1685 116.348 49.0337 116.573 48.8989C116.798 48.764 116.978 48.6742 117.113 48.5393C117.292 48.4045 117.427 48.3146 117.562 48.2247C117.832 48.0449 118.011 47.8652 118.146 47.7753C118.281 47.7303 118.326 47.6854 118.326 47.6854C118.326 47.6854 118.236 47.7303 118.101 47.8202C117.966 47.9101 117.742 48.0899 117.517 48.2697C117.382 48.3596 117.247 48.4944 117.068 48.5843C116.888 48.7191 116.708 48.809 116.483 48.9438C116.259 49.0787 116.079 49.2135 115.809 49.3483C115.584 49.4831 115.315 49.618 115.045 49.7528C113.966 50.3371 112.483 50.7865 110.775 51.1011C109.068 51.3708 107 51.4157 104.843 50.9213C104.573 50.8764 104.304 50.7865 104.034 50.7416C103.764 50.6517 103.495 50.5618 103.225 50.4719C102.955 50.382 102.686 50.2921 102.416 50.1573C102.146 50.0225 101.877 49.9326 101.607 49.7978C101.382 49.7079 101.068 49.5281 100.843 49.3933H100.798C100.528 49.2584 100.259 49.0787 99.9889 48.9438C99.7193 48.764 99.4945 48.5843 99.2249 48.4045C98.9552 48.2247 98.6856 48.0449 98.4608 47.8202C97.9665 47.3708 97.4721 46.9663 97.0226 46.4719C96.7979 46.2022 96.5732 45.9775 96.3485 45.7079C96.0788 45.3483 95.7642 44.9438 95.4945 44.5843C95.4496 44.5393 95.4496 44.4944 95.4047 44.4494C95.3148 44.3146 95.2249 44.1348 95.135 44C94.9552 43.6854 94.7754 43.4157 94.5957 43.1011C94.2811 42.4719 93.9665 41.8427 93.7417 41.1236C93.4721 40.4494 93.2923 39.7303 93.1125 39.0112C93.0226 38.6517 92.9777 38.2921 92.9327 37.8876C92.8878 37.7079 92.8878 37.5281 92.8429 37.3034L92.7979 36.7191C92.708 35.9551 92.7979 35.191 92.7979 34.427C92.8429 34.0225 92.8878 33.6629 92.9777 33.2584L93.0226 32.9438L93.0676 32.6742L93.2024 32.0899L93.3372 31.5056L93.517 30.9213L93.6968 30.3371L93.7867 30.0674L93.9215 29.7978C94.1912 29.2135 94.6856 28.3146 94.9552 27.7303C94.9552 27.6854 95.0002 27.6404 95.0002 27.5955C95.8541 26.2022 96.9777 24.9438 98.2361 23.8202C99.5395 22.7416 100.978 21.8876 102.506 21.3034C102.551 21.3034 102.596 21.2584 102.641 21.2584C103.225 21.0787 104.214 20.764 104.843 20.5843L105.157 20.4944L105.472 20.4494L106.056 20.3596L106.641 20.2697L107.225 20.2247L107.809 20.1798H108.124H108.438C108.843 20.1798 109.202 20.2247 109.607 20.2247C110.371 20.3146 111.135 20.4045 111.899 20.6292L112.438 20.764C112.618 20.809 112.798 20.8989 112.978 20.9438C113.337 21.0787 113.697 21.1685 114.056 21.3034C114.73 21.618 115.405 21.8876 116.034 22.2921C116.663 22.6067 117.247 23.1011 117.832 23.5056C118.101 23.7303 118.371 23.9551 118.641 24.1798C118.775 24.3146 118.91 24.4045 119.045 24.5393C119.09 24.5843 119.09 24.5843 119.135 24.6292C119.45 24.9888 119.764 25.3034 120.079 25.6629C120.304 25.9326 120.483 26.2022 120.708 26.4719C121.157 27.0112 121.472 27.5506 121.787 28.1348C121.966 28.4045 122.101 28.7191 122.236 28.9888C122.371 29.2584 122.506 29.573 122.641 29.8427C122.73 30.1573 122.865 30.427 122.955 30.6966C123 30.8315 123.045 30.9663 123.09 31.1461V31.191C123.18 31.6404 123.315 32.0449 123.405 32.4494C123.495 32.7191 123.495 33.0337 123.539 33.3034C123.584 33.573 123.629 33.8876 123.674 34.1573C123.674 34.427 123.719 34.6966 123.719 35.0112C123.809 37.2135 123.45 39.236 122.865 40.8989C122.281 42.5618 121.562 43.9101 120.798 44.8989C120.618 45.1236 120.483 45.3933 120.259 45.618C120.079 45.8427 119.899 46.0225 119.764 46.2022C119.584 46.382 119.45 46.5618 119.315 46.6966C119.18 46.8315 119.045 46.9663 118.91 47.0562C118.686 47.2809 118.506 47.4607 118.371 47.5506C118.416 47.5955 118.326 47.6854 118.326 47.6854Z" fill="#E0E0E0"/>
<path d="M121.652 56.2696C120.483 57.7528 118.236 57.573 117.337 55.9101C116.888 55.0562 116.977 54.0225 117.562 53.2584C118.73 51.7753 120.977 51.955 121.876 53.618C122.326 54.4719 122.191 55.5505 121.652 56.2696Z" fill="white"/>
<path d="M121.247 56.719C121.247 56.719 121.292 56.6741 121.382 56.6291C121.472 56.5842 121.562 56.4493 121.697 56.2696C121.967 55.955 122.236 55.3707 122.191 54.6516C122.191 54.292 122.101 53.8875 121.877 53.4831C121.652 53.1235 121.337 52.719 120.933 52.4943C120.528 52.2246 119.989 52.0898 119.45 52.1347C118.91 52.1797 118.371 52.3595 117.922 52.719C117.472 53.0786 117.202 53.5729 117.068 54.1123C116.933 54.6516 116.978 55.1909 117.158 55.6404C117.337 56.0898 117.607 56.4943 117.967 56.764C118.326 57.0336 118.686 57.2134 119.045 57.3033C119.764 57.4381 120.394 57.2583 120.753 57.0786C120.933 56.9887 121.068 56.8988 121.158 56.8089C121.202 56.764 121.247 56.719 121.247 56.719C121.247 56.719 121.068 56.8538 120.708 57.0336C120.349 57.2134 119.764 57.3482 119.09 57.2134C118.731 57.1235 118.371 56.9887 118.056 56.719C117.742 56.4493 117.472 56.0898 117.337 55.6404C117.158 55.1909 117.158 54.6965 117.247 54.2022C117.382 53.7078 117.652 53.2583 118.056 52.8988C118.461 52.5842 118.955 52.3595 119.45 52.3145C119.944 52.2696 120.438 52.4044 120.843 52.6291C121.247 52.8538 121.562 53.2134 121.742 53.528C121.967 53.8875 122.056 54.2471 122.056 54.6066C122.101 55.3257 121.832 55.8651 121.607 56.1797C121.382 56.5392 121.202 56.6741 121.247 56.719Z" fill="#E0E0E0"/>
<path d="M103.539 33.1235H105.921C105.921 33.1235 105.921 31.146 107.988 31.1011C109.067 31.1011 109.606 31.7752 109.831 32.3145C110.101 32.9438 110.011 33.6629 109.651 34.2471C109.247 34.9213 108.393 35.5056 106.775 35.2359V40.5842H109.112V37.4831C109.112 37.4831 112.393 36.6291 112.393 33.0336C112.393 29.573 109.292 28.764 107.988 28.764C106.91 28.719 103.494 28.9887 103.539 33.1235Z" fill="#E0E0E0"/>
<path d="M109.112 41.6628H106.73V43.8651H109.112V41.6628Z" fill="#E0E0E0"/>
<path d="M76.4384 99.8652H78.8204C78.8204 99.8652 78.8204 97.8876 80.8879 97.8427C81.9665 97.8427 82.5058 98.5168 82.7306 99.0562C83.0002 99.6854 82.9103 100.404 82.5508 100.989C82.1463 101.663 81.2924 102.247 79.6744 101.978V107.326H82.0115V104.225C82.0115 104.225 85.2924 103.371 85.2924 99.7753C85.2924 96.3146 82.1912 95.5056 80.8879 95.5056C79.8542 95.4607 76.3935 95.6854 76.4384 99.8652Z" fill="#E0E0E0"/>
<path d="M82.0563 108.404H79.6743V110.607H82.0563V108.404Z" fill="#E0E0E0"/>
<path d="M182.416 117.169L179.764 115.506C179.764 115.506 178.371 117.753 176.034 116.315C174.82 115.551 174.686 114.382 174.82 113.618C174.955 112.719 175.584 112 176.393 111.596C177.292 111.146 178.731 111.101 180.304 112.539L184.079 106.562L181.472 104.899L179.27 108.405C179.27 108.405 175 107.011 172.438 111.056C169.966 114.921 172.888 118.023 174.371 118.966C175.45 119.685 179.495 121.843 182.416 117.169Z" fill="#E0E0E0"/>
<path d="M183.776 101.109L182.21 103.575L184.866 105.262L186.432 102.796L183.776 101.109Z" fill="#E0E0E0"/>
<path d="M77.4267 34.1124L75.2245 34.9663C75.2245 34.9663 75.9436 36.809 74.0559 37.618C73.0672 38.0225 72.3031 37.5731 71.8986 37.1686C71.4042 36.6742 71.2245 36 71.3593 35.3259C71.4941 34.5618 72.0784 33.663 73.6514 33.3484L71.6739 28.4045L69.5166 29.2585L70.6402 32.1798C70.6402 32.1798 67.8986 34.1573 69.2469 37.5281C70.5054 40.7191 73.6964 40.3596 74.9099 39.8652C75.8986 39.5057 78.9997 37.9776 77.4267 34.1124Z" fill="#E0E0E0"/>
<path d="M70.5134 25.3407L68.2979 26.2156L69.1067 28.2639L71.3223 27.389L70.5134 25.3407Z" fill="#E0E0E0"/>
<path d="M196.214 139.64L192.753 138.112L213.337 112.18L216.708 113.124C217.202 113.258 217.652 113.528 218.011 113.933L221.337 117.888C221.832 118.472 221.742 119.326 221.202 119.775L198.101 139.371C197.517 139.82 196.798 139.91 196.214 139.64Z" fill="#455A64"/>
<path d="M219.539 137.843L215.809 141.034C215.404 141.393 214.82 141.483 214.281 141.303L211.494 140.27C211.135 140.135 210.865 139.865 210.685 139.551L195.359 110.697L198.82 111.685C199.269 111.82 199.674 112.09 199.944 112.405L219.719 135.685C220.258 136.315 220.168 137.303 219.539 137.843Z" fill="#455A64"/>
<g opacity="0.3">
<path d="M196.214 139.64L192.753 138.112L213.337 112.18L216.708 113.124C217.202 113.258 217.652 113.528 218.011 113.933L221.337 117.888C221.832 118.472 221.742 119.326 221.202 119.775L198.101 139.371C197.517 139.82 196.798 139.91 196.214 139.64Z" fill="black"/>
<path d="M219.539 137.843L215.809 141.034C215.404 141.393 214.82 141.483 214.281 141.303L211.494 140.27C211.135 140.135 210.865 139.865 210.685 139.551L195.359 110.697L198.82 111.685C199.269 111.82 199.674 112.09 199.944 112.405L219.719 135.685C220.258 136.315 220.168 137.303 219.539 137.843Z" fill="black"/>
</g>
<path fill-rule="evenodd" clip-rule="evenodd" d="M211.764 139.371L215.764 135.955C216.168 135.596 216.213 134.966 215.944 134.472L208.375 125.556L217.202 118.067C217.652 117.708 217.697 117.079 217.337 116.629L213.921 112.629C213.562 112.18 212.933 112.135 212.483 112.494L203.649 119.989L195.989 110.966C195.674 110.607 195.09 110.562 194.73 110.876L190.595 114.382C190.146 114.742 190.101 115.371 190.461 115.82L198.037 124.75L189.067 132.36C188.618 132.719 188.573 133.348 188.933 133.798L192.348 137.798C192.708 138.202 193.382 138.292 193.786 137.933L202.761 130.319L210.326 139.236C210.685 139.685 211.315 139.73 211.764 139.371Z" fill="url(#paint0_linear_180_5195)"/>
<path d="M197.112 126.652C197.157 126.697 195.629 128.09 193.697 129.708C191.764 131.371 190.191 132.629 190.146 132.584C190.101 132.539 191.629 131.146 193.562 129.528C195.494 127.91 197.067 126.607 197.112 126.652Z" fill="white"/>
<path d="M212.618 113.393C212.663 113.438 210.955 114.966 208.798 116.764C206.641 118.607 204.843 120.045 204.843 119.955C204.843 119.865 206.506 118.382 208.663 116.584C210.775 114.786 212.573 113.348 212.618 113.393Z" fill="white"/>
<path d="M197.877 122.966C197.832 123.011 196.483 121.393 194.91 119.371C193.337 117.348 192.079 115.685 192.124 115.64C192.169 115.595 193.517 117.213 195.09 119.236C196.708 121.258 197.921 122.921 197.877 122.966Z" fill="white"/>
<path d="M209.741 136.45C209.696 136.494 208.303 135.101 206.685 133.303C205.022 131.506 203.764 130.023 203.809 129.978C203.854 129.933 205.247 131.326 206.865 133.124C208.483 134.921 209.786 136.405 209.741 136.45Z" fill="white"/>
<path d="M33.0223 134.787L32.3032 132.135L51.5841 135.955L68.6178 112L70.6852 115.865C70.9999 116.449 70.9999 117.169 70.6852 117.798L55.8987 144.854C54.7751 146.876 52.2133 147.596 50.2358 146.427L35.3145 137.753C34.1909 137.124 33.3819 136.045 33.0223 134.787Z" fill="#C6C8D2"/>
<g opacity="0.3">
<path d="M33.0223 134.787L32.3032 132.135L51.5841 135.955L68.6178 112L70.6852 115.865C70.9999 116.449 70.9999 117.169 70.6852 117.798L55.8987 144.854C54.7751 146.876 52.2133 147.596 50.2358 146.427L35.3145 137.753C34.1909 137.124 33.3819 136.045 33.0223 134.787Z" fill="black"/>
</g>
<path d="M32.3934 130.831L35.1799 125.933C35.5844 125.213 36.4383 124.944 37.2024 125.303L48.3484 130.742C49.0675 131.101 49.9664 130.831 50.3709 130.067L61.4271 109.303C61.8316 108.539 62.8204 108.27 63.5844 108.719L68.0788 111.461C68.7529 111.865 69.0226 112.764 68.6181 113.483L54.1012 140C53.1125 141.798 50.9102 142.427 49.1125 141.483L32.9777 132.899C32.2136 132.539 31.9439 131.595 32.3934 130.831Z" fill="#C6C8D2"/>
<path d="M47.5392 132C47.5392 132 47.3145 131.91 46.955 131.775C46.5505 131.595 46.0111 131.326 45.3819 131.056C44.0336 130.427 42.1909 129.573 40.1684 128.584C39.6741 128.36 39.1797 128.09 38.6853 127.865C38.4606 127.73 38.2359 127.64 37.9662 127.506C37.7415 127.371 37.5168 127.326 37.292 127.281C36.8426 127.236 36.3932 127.416 36.0786 127.685C35.764 127.955 35.6291 128.315 35.4044 128.629C35.0449 129.258 34.7752 129.753 34.5505 130.157C34.3257 130.517 34.2359 130.697 34.1909 130.697C34.1909 130.697 34.2808 130.472 34.4606 130.112C34.6853 129.708 34.955 129.168 35.2696 128.584C35.3595 128.404 35.4493 128.27 35.5392 128.09C35.6291 127.91 35.764 127.73 35.9437 127.551C36.2583 127.236 36.7527 127.056 37.292 127.101C37.5617 127.101 37.8314 127.191 38.0561 127.326C38.2808 127.416 38.5055 127.551 38.7752 127.64C39.2696 127.865 39.764 128.09 40.2583 128.36C42.2808 129.348 44.1235 130.202 45.4269 130.876C46.0561 131.191 46.5954 131.461 46.9999 131.685C47.3595 131.91 47.5392 132 47.5392 132Z" fill="white"/>
<path d="M51.6291 131.146C51.5841 131.101 53.9212 126.472 56.8425 120.809C59.8088 115.146 62.2358 110.562 62.2807 110.562C62.3257 110.607 59.9886 115.236 57.0673 120.899C54.101 126.562 51.674 131.146 51.6291 131.146Z" fill="white"/>
<path d="M98.0519 69.272C99.0794 60.9953 93.2028 53.4527 84.926 52.4252C76.6493 51.3977 69.1067 57.2744 68.0792 65.5511C67.0517 73.8279 72.9284 81.3704 81.2051 82.3979C89.4818 83.4254 97.0244 77.5488 98.0519 69.272Z" fill="white"/>
<path d="M98.1461 67.4157C98.1461 67.4157 98.1461 67.3258 98.1461 67.191C98.1461 67.0112 98.1461 66.7865 98.1012 66.4719C98.1012 66.2921 98.1012 66.1573 98.1012 65.9326C98.1012 65.7528 98.0562 65.5281 98.0113 65.3034C97.9663 65.0786 97.9214 64.809 97.9214 64.5843C97.8764 64.3146 97.7865 64.0449 97.7416 63.7753C97.4719 62.6067 96.9326 61.2135 96.0787 59.7303C95.2247 58.2472 93.9663 56.7191 92.2585 55.4157C92.0337 55.2359 91.809 55.1011 91.5843 54.9213C91.3596 54.7865 91.1349 54.6517 90.8652 54.4719C90.6405 54.3371 90.3708 54.1573 90.1461 54.0225C89.8764 53.8876 89.6068 53.7528 89.3821 53.6629C89.2472 53.618 89.1124 53.5281 88.9776 53.4831C88.8427 53.4382 88.7079 53.3932 88.5731 53.3483C88.3034 53.2584 87.9888 53.1236 87.7191 53.0337C87.4495 52.9438 87.1349 52.8539 86.8203 52.809C86.5056 52.7191 86.236 52.6292 85.9214 52.5843C85.2922 52.4944 84.663 52.3595 83.9888 52.3595C83.6742 52.3595 83.3146 52.3146 83 52.3146C82.6854 52.3146 82.3259 52.3595 82.0113 52.3595C81.8315 52.3595 81.6517 52.3595 81.5169 52.4045C81.3371 52.4494 81.2023 52.4494 81.0225 52.4944C80.6629 52.5393 80.3483 52.5843 79.9888 52.6741C79.3146 52.8539 78.6405 52.9888 77.9663 53.2584C77.2922 53.4831 76.6629 53.7977 75.9888 54.1123C75.6742 54.2921 75.3596 54.4719 75.045 54.6966C74.9101 54.7865 74.7304 54.8764 74.5955 55.0112L74.1461 55.3258C73.5169 55.7303 72.9776 56.2697 72.4382 56.809C72.1686 57.0786 71.9438 57.3932 71.6742 57.6629L71.3596 57.7528L71.1798 57.9775L70.8203 58.427L70.4607 58.8764L70.1461 59.3708L69.8315 59.8652L69.6967 60.1348L69.6068 60.4494C69.427 60.809 69.2472 61.1685 69.1124 61.5281C68.9776 61.8876 68.8427 62.2921 68.7079 62.6517C68.2135 64.1798 67.9438 65.7977 67.9438 67.4607C67.9438 69.1236 68.2135 70.7416 68.7079 72.2697C68.8427 72.6292 68.9776 73.0337 69.1124 73.3932C69.2922 73.7528 69.4719 74.1123 69.6068 74.4719L69.7416 74.7416L69.8764 75.0112L70.191 75.5056L70.5056 76L70.8652 76.4494L71.2247 76.8989L71.4045 77.1236L71.5843 77.3483C71.854 77.618 72.0787 77.9326 72.3483 78.2022C72.9326 78.6966 73.4719 79.2359 74.0562 79.6854L74.5056 80C74.6405 80.0899 74.8203 80.1798 74.9551 80.3146C75.2697 80.4944 75.5843 80.7191 75.8989 80.8989C76.5731 81.2135 77.2023 81.5281 77.8764 81.7528C78.5506 82.0225 79.2247 82.1573 79.8989 82.3371C80.2585 82.427 80.5731 82.427 80.9326 82.5168C81.1124 82.5618 81.2922 82.5618 81.427 82.6067C81.6068 82.6067 81.7865 82.6067 81.9214 82.6517C82.2809 82.6517 82.5955 82.6966 82.9101 82.6966C83.2247 82.6966 83.5843 82.6517 83.8989 82.6517C84.5731 82.6517 85.2023 82.5168 85.8315 82.427C86.1461 82.382 86.4607 82.2921 86.7304 82.2022C87.045 82.1123 87.3146 82.0674 87.6292 81.9775C87.8989 81.8876 88.2135 81.7528 88.4832 81.6629C88.618 81.618 88.7528 81.573 88.8877 81.5281C89.0225 81.4831 89.1573 81.3932 89.2922 81.3483C89.5618 81.2135 89.8315 81.0786 90.0562 80.9888C90.3259 80.8539 90.5506 80.7191 90.7753 80.5393C91 80.4045 91.2697 80.2697 91.4944 80.0899C91.7191 79.9101 91.9438 79.7753 92.1686 79.5955C93.8764 78.2921 95.1349 76.764 95.9888 75.2809C96.8427 73.7977 97.382 72.4045 97.6517 71.2359C97.6967 70.9213 97.8315 70.6517 97.8315 70.427C97.8764 70.1573 97.9214 69.9326 97.9214 69.7079C97.9663 69.4831 98.0113 69.2584 98.0113 69.0786C98.0113 68.8989 98.0113 68.7191 98.0113 68.5393C98.0113 68.2247 98.0113 68 98.0562 67.8202C98.191 67.5056 98.1461 67.4157 98.1461 67.4157C98.1461 67.4157 98.1461 67.5056 98.1461 67.6404C98.1461 67.8202 98.1012 68.0449 98.1012 68.3595C98.1012 68.5393 98.1012 68.6741 98.0562 68.8989C98.0562 69.0786 98.0113 69.3034 97.9663 69.5281C97.9214 69.7528 97.8764 70.0225 97.8315 70.2472C97.7865 70.5168 97.6967 70.7865 97.6517 71.0562C97.382 72.2247 96.8427 73.618 95.9888 75.0562C95.1349 76.4944 93.8764 78.0225 92.1686 79.3258C91.9438 79.5056 91.7191 79.6404 91.5394 79.8202C91.3146 79.955 91.0899 80.0899 90.8203 80.2697C90.5955 80.4045 90.3259 80.5843 90.1011 80.6741C89.8315 80.809 89.5618 80.9438 89.3371 81.0337C89.2023 81.0786 89.0674 81.1685 88.9326 81.2135C88.7978 81.2584 88.6629 81.3034 88.5281 81.3483C88.2585 81.4382 87.9888 81.573 87.6742 81.6629C87.4045 81.7528 87.0899 81.7977 86.7753 81.8876C86.4607 81.9775 86.191 82.0674 85.8764 82.1123C85.2472 82.2022 84.618 82.3371 83.9888 82.3371C83.6742 82.3371 83.3596 82.382 83 82.382C82.6854 82.382 82.3259 82.3371 82.0113 82.3371C81.8315 82.3371 81.6967 82.3371 81.5169 82.2921C81.3371 82.2472 81.2023 82.2472 81.0225 82.2022C80.7079 82.1573 80.3483 82.1123 80.0337 82.0225C79.3596 81.8427 78.6854 81.7079 78.0113 81.4382C77.3371 81.2135 76.7079 80.8989 76.0337 80.5843C75.7191 80.4045 75.4045 80.2247 75.0899 80.0449C74.9551 79.955 74.7753 79.8652 74.6405 79.7303L74.191 79.4157C73.5618 79.0112 73.0674 78.4719 72.4832 77.9775C72.2135 77.7079 71.9888 77.4382 71.7191 77.1236L71.5394 76.8989L71.3596 76.6741L71 76.2247L70.6405 75.7753L70.3259 75.2809L70.0113 74.7865L69.8764 74.5168L69.7416 74.2472C69.5618 73.8876 69.3821 73.5281 69.2472 73.1685C69.1124 72.809 68.9776 72.4494 68.8427 72.0449C68.3483 70.5168 68.0787 68.9438 68.0787 67.3258C68.0787 65.7079 68.3483 64.0899 68.8427 62.6067C68.9776 62.2472 69.1124 61.8427 69.2472 61.4831C69.427 61.1236 69.6068 60.764 69.7416 60.4045L69.8764 60.1348L70.0113 59.8652L70.3259 59.3708L70.6405 58.8764L71 58.427L71.3596 57.9775L71.5394 57.7528L71.7191 57.5281C71.9888 57.2584 72.2135 56.9888 72.4832 56.6741C73.0225 56.1798 73.5618 55.6404 74.191 55.2359L74.6405 54.9213C74.7753 54.8314 74.9551 54.7416 75.0899 54.6067C75.4045 54.427 75.7191 54.2022 76.0337 54.0674C76.6629 53.7528 77.3371 53.4382 78.0113 53.2135C78.6854 52.9438 79.3596 52.809 80.0337 52.6292C80.3483 52.5393 80.7079 52.5393 81.0225 52.4494C81.2023 52.4045 81.3371 52.4045 81.5169 52.3595C81.6967 52.3595 81.8315 52.3595 82.0113 52.3146C82.3259 52.3146 82.6854 52.2697 83 52.2697C83.3146 52.2697 83.6742 52.3146 83.9888 52.3146C84.618 52.3146 85.2472 52.4494 85.8764 52.5393C86.191 52.5843 86.5056 52.6741 86.7753 52.764C87.0899 52.8539 87.3596 52.8989 87.6742 52.9888C87.9438 53.0786 88.2585 53.2135 88.5281 53.3034C88.6629 53.3483 88.7978 53.3932 88.9326 53.4382C89.0674 53.4831 89.2023 53.573 89.3371 53.618C89.6068 53.7528 89.8764 53.8876 90.1011 53.9775C90.3708 54.1123 90.5955 54.2472 90.8203 54.382C91.045 54.5168 91.3146 54.6517 91.5394 54.8314C91.7641 55.0112 91.9888 55.1461 92.1686 55.3258C93.8764 56.6292 95.1349 58.1573 95.9888 59.5955C96.8427 61.0786 97.382 62.427 97.6517 63.5955C97.7416 63.8652 97.8315 64.1348 97.8315 64.4045C97.8764 64.6741 97.9214 64.8989 97.9663 65.1236C98.0113 65.3483 98.0562 65.573 98.0562 65.7528C98.0562 65.9326 98.0562 66.1123 98.1012 66.2921C98.1012 66.6067 98.1461 66.8314 98.1461 67.0112C98.1461 67.3258 98.1461 67.4157 98.1461 67.4157Z" fill="#263238"/>
<path d="M103.899 76.8989C103.899 78.2472 102.82 79.3708 101.427 79.3708C100.034 79.3708 98.9551 78.2922 98.9551 76.8989C98.9551 75.5506 100.034 74.427 101.427 74.427C102.82 74.427 103.899 75.5506 103.899 76.8989Z" fill="white"/>
<path d="M103.899 76.8988C103.899 76.8988 103.899 76.8539 103.899 76.719C103.899 76.6292 103.899 76.4494 103.854 76.2696C103.764 75.9101 103.539 75.3258 102.955 74.8764C102.685 74.6516 102.326 74.4719 101.876 74.382C101.472 74.2921 100.978 74.337 100.528 74.4719C100.079 74.6067 99.6293 74.9213 99.3596 75.3707C99.045 75.7752 98.8652 76.3146 98.8652 76.8539C98.8652 77.3932 99.045 77.9325 99.3596 78.337C99.6742 78.7415 100.079 79.0561 100.528 79.2359C100.978 79.4157 101.427 79.4157 101.876 79.3258C102.281 79.2359 102.641 79.0561 102.955 78.8314C103.539 78.382 103.764 77.7977 103.854 77.4382C103.899 77.2584 103.899 77.0786 103.899 76.9887C103.899 76.9887 103.899 76.8988 103.899 76.8988C103.899 76.8988 103.899 77.1235 103.809 77.4831C103.719 77.8426 103.45 78.382 102.91 78.7865C102.641 78.9662 102.281 79.146 101.921 79.2359C101.517 79.2808 101.112 79.2808 100.663 79.146C100.258 79.0112 99.854 78.6966 99.5843 78.337C99.3147 77.9325 99.1349 77.4381 99.1349 76.9438C99.1349 76.4494 99.3147 75.955 99.5843 75.5505C99.854 75.146 100.258 74.8764 100.663 74.7415C101.067 74.5617 101.517 74.5617 101.921 74.6516C102.326 74.6966 102.641 74.8764 102.91 75.1011C103.45 75.5056 103.719 76.0449 103.809 76.4044C103.899 76.6741 103.899 76.8988 103.899 76.8988Z" fill="#263238"/>
<path d="M78.101 68.6292V70.6966H76.483V68.6292L74.2808 64.9888H75.9886L77.3369 67.2809L78.6853 64.9888H80.2583L78.101 68.6292Z" fill="#263238"/>
<path d="M85.2918 69.4381V70.6965H80.7075V64.9437H85.2019V66.2022H82.2806V67.146H84.8423V68.3595H82.2806V69.3932H85.2918V69.4381Z" fill="#263238"/>
<path d="M85.7866 70.1573L86.3259 68.9438C86.8203 69.2584 87.5394 69.528 88.2136 69.528C88.8877 69.528 89.1574 69.3483 89.1574 69.0786C89.1574 68.1797 85.9215 68.8539 85.9215 66.6966C85.9215 65.6629 86.7754 64.8539 88.4383 64.8539C89.2023 64.8539 89.9664 65.0337 90.5057 65.3483L90.0113 66.5617C89.472 66.2471 88.9327 66.1123 88.4383 66.1123C87.7641 66.1123 87.4945 66.337 87.4945 66.6067C87.4945 67.4606 90.7304 66.8314 90.7304 68.9438C90.7304 69.9325 89.8765 70.7865 88.2136 70.7865C87.2248 70.7865 86.3259 70.5168 85.7866 70.1573Z" fill="#263238"/>
<path d="M181.809 93.0428C190.698 91.9129 196.988 83.791 195.858 74.902C194.728 66.013 186.606 59.723 177.717 60.853C168.828 61.9829 162.538 70.1049 163.668 78.9938C164.798 87.8828 172.92 94.1728 181.809 93.0428Z" fill="white"/>
<path d="M163.539 76.9439C163.539 76.9439 163.539 76.854 163.539 76.6742C163.539 76.4945 163.539 76.2248 163.584 75.9102C163.584 75.7304 163.584 75.5506 163.629 75.3259C163.629 75.1012 163.674 74.8765 163.719 74.6518C163.764 74.427 163.809 74.1574 163.854 73.8428C163.899 73.5731 163.989 73.2585 164.078 72.9439C164.348 71.6855 164.932 70.2023 165.831 68.5843C166.775 67.0113 168.123 65.3484 169.966 63.9551C170.191 63.7754 170.415 63.5956 170.685 63.4158C170.91 63.236 171.18 63.1012 171.449 62.9214C171.719 62.7866 171.944 62.6068 172.258 62.472C172.528 62.3372 172.797 62.2023 173.112 62.0675C173.247 61.9776 173.382 61.9327 173.562 61.8428C173.696 61.7978 173.876 61.7529 174.011 61.663C174.326 61.5731 174.64 61.4383 174.91 61.3484C175.224 61.2585 175.539 61.1686 175.854 61.0787C176.168 60.9888 176.483 60.899 176.842 60.854C177.517 60.7641 178.191 60.6293 178.91 60.6293C179.269 60.6293 179.629 60.5844 179.989 60.5844C180.348 60.5844 180.708 60.6293 181.067 60.6293C181.247 60.6293 181.427 60.6293 181.606 60.6742C181.786 60.7192 181.966 60.7192 182.146 60.7641C182.505 60.8091 182.865 60.854 183.224 60.9439C183.944 61.1237 184.708 61.3035 185.382 61.5731C186.101 61.7978 186.82 62.1574 187.494 62.5169C187.854 62.6967 188.168 62.9214 188.528 63.1012C188.708 63.1911 188.887 63.281 189.022 63.4158L189.517 63.7754C190.191 64.2248 190.775 64.8091 191.359 65.3484C191.629 65.663 191.899 65.9327 192.168 66.2473L192.393 66.472L192.573 66.7417L192.932 67.236L193.292 67.7304L193.606 68.2697L193.921 68.8091L194.101 69.0787L194.236 69.3484C194.415 69.7079 194.595 70.1124 194.775 70.5169C194.91 70.9214 195.09 71.3259 195.224 71.7304C195.764 73.3484 196.033 75.1012 196.078 76.854C196.033 78.6068 195.764 80.3596 195.224 81.9776C195.09 82.3821 194.91 82.7866 194.775 83.1911C194.595 83.5956 194.415 83.9551 194.236 84.3596L194.101 84.6293L193.921 84.899L193.606 85.4383L193.292 85.9776L192.932 86.472L192.573 86.9664L192.393 87.236L192.168 87.4608C191.899 87.7754 191.629 88.09 191.359 88.3596C190.73 88.899 190.191 89.4832 189.517 89.9327L189.022 90.2922C188.842 90.427 188.663 90.5169 188.528 90.6068C188.168 90.7866 187.854 91.0113 187.494 91.1911C186.775 91.5506 186.101 91.9102 185.382 92.1349C184.663 92.4495 183.944 92.5843 183.224 92.7641C182.865 92.854 182.505 92.899 182.146 92.9439C181.966 92.9888 181.786 92.9888 181.606 93.0338C181.427 93.0787 181.247 93.0338 181.067 93.0787C180.708 93.0787 180.348 93.1237 179.989 93.1237C179.629 93.1237 179.269 93.0787 178.91 93.0787C178.191 93.0787 177.517 92.9439 176.842 92.854C176.483 92.8091 176.168 92.7192 175.854 92.6293C175.539 92.5394 175.224 92.4945 174.91 92.3596C174.595 92.2248 174.281 92.1349 174.011 92.045C173.876 92.0001 173.696 91.9551 173.562 91.8652C173.427 91.7754 173.292 91.7304 173.112 91.6405C172.842 91.5057 172.528 91.3709 172.258 91.236C171.989 91.1012 171.719 90.9214 171.449 90.7866C171.18 90.6068 170.91 90.472 170.685 90.2922C170.46 90.1124 170.236 89.9327 169.966 89.7529C168.123 88.3596 166.775 86.6967 165.831 85.1237C164.932 83.5506 164.348 82.0675 164.078 80.7641C163.989 80.4495 163.899 80.1799 163.854 79.8652C163.809 79.5956 163.764 79.3259 163.719 79.0563C163.674 78.8315 163.629 78.6068 163.629 78.3821C163.629 78.1574 163.629 77.9776 163.584 77.7978C163.584 77.4832 163.539 77.2136 163.539 77.0338C163.539 77.0338 163.539 76.9439 163.539 76.9439C163.539 76.9439 163.539 77.0338 163.584 77.2136C163.584 77.3933 163.629 77.663 163.629 77.9776C163.629 78.1574 163.629 78.3372 163.674 78.5619C163.674 78.7866 163.719 79.0113 163.764 79.236C163.809 79.4608 163.854 79.7304 163.899 80.045C163.944 80.3147 164.033 80.6293 164.123 80.9439C164.393 82.2023 164.977 83.6855 165.921 85.2585C166.865 86.8315 168.213 88.4495 170.011 89.8428C170.236 90.0225 170.46 90.2023 170.73 90.3821C170.955 90.5619 171.224 90.6967 171.494 90.8315C171.764 90.9664 171.989 91.1461 172.303 91.281C172.573 91.4158 172.842 91.5506 173.157 91.6855C173.292 91.7304 173.427 91.8203 173.562 91.8652C173.696 91.9102 173.876 91.9551 174.011 92.045C174.326 92.1349 174.595 92.2697 174.91 92.3596C175.224 92.4495 175.539 92.5394 175.854 92.6293C176.168 92.7192 176.483 92.8091 176.842 92.854C177.517 92.9439 178.191 93.0787 178.865 93.0787C179.224 93.0787 179.584 93.1237 179.899 93.1237C180.258 93.1237 180.618 93.0787 180.977 93.0787C181.157 93.0787 181.337 93.0787 181.517 93.0338C181.696 92.9888 181.876 92.9888 182.056 92.9439C182.415 92.899 182.775 92.854 183.135 92.7641C183.854 92.5843 184.573 92.4046 185.292 92.1349C186.011 91.9102 186.685 91.5506 187.404 91.1911C187.764 91.0113 188.078 90.7866 188.393 90.6068C188.573 90.5169 188.753 90.427 188.887 90.2922L189.382 89.9327C190.056 89.4832 190.595 88.899 191.224 88.3596C191.494 88.045 191.764 87.7754 192.033 87.4608L192.258 87.236L192.438 87.0113L192.797 86.5169L193.157 86.0225L193.472 85.4832L193.786 84.9439L193.966 84.6742L194.101 84.4046C194.281 84.045 194.46 83.6405 194.64 83.281C194.775 82.8765 194.91 82.472 195.09 82.0675C195.629 80.4495 195.899 78.7417 195.899 76.9888C195.854 75.236 195.584 73.5282 195.045 71.9102C194.91 71.5057 194.775 71.1012 194.595 70.6967C194.415 70.3372 194.236 69.9327 194.056 69.5731L193.921 69.3034L193.741 69.0338L193.427 68.4945L193.112 67.9551L192.753 67.4608L192.393 66.9664L192.213 66.7417L191.989 66.5169C191.719 66.2023 191.449 65.9327 191.18 65.6181C190.595 65.0787 190.011 64.4945 189.337 64.045L188.842 63.6855C188.708 63.5506 188.528 63.4608 188.348 63.3709C188.033 63.1911 187.674 62.9664 187.359 62.7866C186.64 62.472 185.966 62.1124 185.247 61.8428C184.528 61.5282 183.809 61.3933 183.09 61.2136C182.73 61.1237 182.371 61.0787 182.011 61.0338C181.831 60.9888 181.651 60.9888 181.472 60.9439C181.292 60.899 181.112 60.899 180.932 60.899C180.573 60.899 180.213 60.854 179.854 60.854C179.494 60.854 179.135 60.899 178.82 60.899C178.101 60.899 177.427 61.0338 176.797 61.1237C176.483 61.1686 176.123 61.2585 175.809 61.3484C175.494 61.4383 175.18 61.4832 174.865 61.6181C174.55 61.7079 174.236 61.8428 173.966 61.9327C173.831 61.9776 173.651 62.0226 173.517 62.1124C173.382 62.2023 173.247 62.2473 173.112 62.2922C172.842 62.427 172.573 62.5619 172.258 62.6967C171.989 62.8315 171.719 63.0113 171.449 63.1461C171.18 63.281 170.955 63.4608 170.685 63.5956C170.46 63.7754 170.236 63.9551 169.966 64.1349C168.123 65.5282 166.775 67.1461 165.876 68.7192C164.932 70.2922 164.348 71.7754 164.078 73.0338C163.989 73.3484 163.899 73.6181 163.854 73.9327C163.809 74.2023 163.764 74.472 163.719 74.7417C163.674 74.9664 163.629 75.1911 163.629 75.4158C163.629 75.6405 163.584 75.8203 163.584 76.0001C163.584 76.3147 163.539 76.5843 163.539 76.7641C163.584 76.854 163.539 76.9439 163.539 76.9439Z" fill="#263238"/>
<path d="M157.382 87.1012C157.382 88.5394 158.55 89.7528 160.034 89.7528C161.517 89.7528 162.685 88.5843 162.685 87.1012C162.685 85.618 161.517 84.4495 160.034 84.4495C158.55 84.4495 157.382 85.663 157.382 87.1012Z" fill="white"/>
<path d="M157.382 87.1011C157.382 87.1011 157.382 87.0562 157.382 86.9214C157.382 86.8315 157.382 86.6517 157.427 86.427C157.517 86.0225 157.786 85.3933 158.371 84.9438C158.685 84.7191 159.045 84.4944 159.494 84.4045C159.944 84.3146 160.438 84.3146 160.932 84.4944C161.427 84.6742 161.876 84.9888 162.191 85.4382C162.55 85.8877 162.73 86.4719 162.73 87.0562C162.73 87.6405 162.55 88.2247 162.191 88.6742C161.876 89.1236 161.382 89.4382 160.932 89.618C160.438 89.7978 159.944 89.7978 159.494 89.7079C159.045 89.618 158.64 89.4382 158.371 89.1685C157.741 88.6742 157.517 88.0899 157.427 87.6854C157.382 87.4607 157.382 87.3258 157.382 87.191C157.382 87.1461 157.382 87.1011 157.382 87.1011C157.382 87.1011 157.382 87.3258 157.517 87.7303C157.607 88.1348 157.876 88.6742 158.46 89.1236C158.775 89.3483 159.135 89.5281 159.539 89.573C159.944 89.6629 160.438 89.618 160.887 89.4382C161.337 89.2584 161.741 88.9888 162.056 88.5393C162.371 88.1348 162.55 87.5955 162.55 87.0562C162.55 86.5169 162.371 85.9775 162.056 85.573C161.741 85.1685 161.337 84.8539 160.887 84.6742C160.438 84.4944 159.989 84.4944 159.539 84.5393C159.135 84.6292 158.73 84.809 158.46 84.9888C157.876 85.4382 157.607 86.0225 157.517 86.382C157.427 86.8764 157.427 87.1011 157.382 87.1011Z" fill="#263238"/>
<path d="M179 73.2584V80.0899H177.427L174.416 76.4494V80.0899H172.528V73.2584H174.101L177.113 76.8989V73.2584H179V73.2584Z" fill="#263238"/>
<path d="M180.034 76.6742C180.034 74.6068 181.652 73.1237 183.854 73.1237C186.056 73.1237 187.674 74.6517 187.674 76.6742C187.674 78.7416 186.056 80.2248 183.854 80.2248C181.652 80.2697 180.034 78.7416 180.034 76.6742ZM185.697 76.6742C185.697 75.5057 184.888 74.6967 183.854 74.6967C182.82 74.6967 182.011 75.4607 182.011 76.6742C182.011 77.8428 182.82 78.6517 183.854 78.6517C184.888 78.6517 185.697 77.8877 185.697 76.6742Z" fill="#263238"/>
<path d="M155.989 54.0437C163.172 51.2167 166.696 43.0833 163.86 35.8772C161.024 28.671 152.902 25.1209 145.719 27.9478C138.536 30.7747 135.012 38.9082 137.848 46.1143C140.684 53.3205 148.806 56.8706 155.989 54.0437Z" fill="white"/>
<path d="M145.292 53.8427C145.292 53.8427 145.382 53.8877 145.517 53.9326C145.652 53.9775 145.876 54.0674 146.146 54.1573C146.281 54.2023 146.416 54.2472 146.596 54.3371C146.775 54.382 146.955 54.427 147.18 54.5169C147.405 54.5618 147.629 54.6517 147.854 54.6966C148.079 54.7865 148.348 54.7865 148.618 54.8315C149.697 55.0562 151.09 55.1011 152.663 54.9214C154.236 54.7416 155.989 54.2472 157.742 53.2584C157.966 53.1236 158.191 52.9888 158.416 52.8989C158.641 52.7641 158.82 52.5843 159.045 52.4495C159.27 52.3146 159.494 52.1798 159.674 52C159.899 51.8202 160.079 51.6405 160.303 51.4607C160.438 51.3259 160.708 51.0562 160.888 50.9214C160.888 50.9214 160.888 50.9214 160.933 50.8764C161.112 50.6966 161.337 50.4719 161.517 50.2472C161.697 50.0225 161.876 49.7978 162.056 49.5731C162.236 49.3483 162.416 49.1236 162.596 48.8539C162.91 48.3596 163.27 47.8652 163.494 47.3259C163.629 47.0562 163.764 46.7865 163.899 46.5169C164.034 46.1124 164.214 45.7079 164.348 45.3034C164.348 45.2584 164.393 45.2135 164.393 45.1686C164.438 45.0337 164.483 44.8539 164.528 44.7191C164.618 44.4045 164.708 44.0899 164.753 43.7753C164.843 43.1461 164.978 42.5169 164.978 41.8427C165.023 41.1686 164.978 40.4944 164.978 39.8202C164.933 39.5056 164.888 39.1461 164.843 38.7865C164.798 38.6068 164.798 38.427 164.753 38.2922L164.618 37.7978C164.528 37.2584 164.348 36.7191 164.169 36.1798C164.079 35.9101 163.944 35.6405 163.854 35.3708L163.494 34.5618L163.36 34.3371L163.09 33.8877L162.82 33.4382L162.506 32.9888L162.191 32.5393L162.011 32.3146L161.832 32.0899C161.427 31.6854 160.798 31.0113 160.393 30.6068C160.348 30.5618 160.303 30.5618 160.303 30.5169C159.18 29.5281 157.921 28.7191 156.528 28.0899C155.135 27.5056 153.652 27.1461 152.169 26.9663C152.124 26.9663 152.079 26.9663 152.034 26.9663C151.449 26.9663 150.506 26.9663 149.966 26.9663H149.697L149.427 27.0113L148.888 27.1011L148.348 27.191L147.809 27.3259L147.27 27.4607L147 27.5056L146.146 27.8202C145.876 27.9101 145.607 28.045 145.337 28.1348C144.843 28.3596 144.303 28.5843 143.854 28.8989L143.405 29.1686C143.27 29.2584 143.135 29.3483 143 29.4382C142.73 29.618 142.416 29.8427 142.191 30.0225C141.697 30.4719 141.157 30.8764 140.708 31.3708C140.214 31.8202 139.854 32.3596 139.449 32.8539C139.27 33.1236 139.09 33.3933 138.955 33.6629C138.865 33.7978 138.775 33.9326 138.685 34.0674C138.685 34.1124 138.641 34.1573 138.641 34.1573C138.461 34.5618 138.281 34.9214 138.056 35.2809C137.921 35.5506 137.832 35.8652 137.742 36.1348C137.517 36.6742 137.382 37.3034 137.247 37.8427C137.157 38.1124 137.157 38.427 137.067 38.6966C137.023 38.9663 136.978 39.2809 136.933 39.5506C136.933 39.8202 136.888 40.1348 136.888 40.4045C136.888 40.6292 136.888 40.9888 136.888 41.2135C136.888 41.4832 136.888 41.7528 136.933 42.0225C136.933 42.2922 136.978 42.5618 137.023 42.8315C137.067 43.1011 137.067 43.3259 137.112 43.5955C137.157 43.8652 137.247 44.0899 137.292 44.3146C137.787 46.2472 138.596 47.9101 139.539 49.1686C140.483 50.427 141.472 51.4157 142.371 52.045C142.596 52.2247 142.775 52.4045 143 52.4944C143.225 52.6292 143.405 52.7641 143.584 52.8539C143.764 52.9438 143.944 53.0787 144.079 53.1686C144.258 53.2584 144.393 53.3034 144.528 53.3933C144.798 53.5281 144.978 53.618 145.112 53.6629C145.202 53.8427 145.292 53.8427 145.292 53.8427C145.292 53.8427 145.247 53.7978 145.112 53.7528C144.978 53.6629 144.798 53.5731 144.528 53.4382C144.393 53.3933 144.258 53.3034 144.079 53.2135C143.944 53.1236 143.764 53.0337 143.584 52.8989C143.405 52.7641 143.225 52.6742 143 52.5393C142.775 52.4045 142.596 52.2247 142.371 52.0899C141.472 51.4157 140.528 50.4719 139.584 49.1686C138.685 47.9101 137.832 46.2472 137.382 44.3596C137.337 44.1348 137.247 43.8652 137.202 43.6405C137.157 43.3708 137.112 43.1461 137.112 42.8764C137.067 42.6068 137.023 42.382 137.023 42.1124C137.023 41.8427 137.023 41.5731 136.978 41.3034C136.978 41.0787 136.978 40.7191 136.978 40.5393V40.4944C136.978 40.2247 137.023 39.9551 137.023 39.6405C137.067 39.3708 137.112 39.1011 137.157 38.7865C137.202 38.5169 137.247 38.2023 137.337 37.9326C137.472 37.3933 137.607 36.809 137.832 36.2247C137.921 35.9551 138.056 35.6405 138.146 35.3708C138.326 35.0113 138.506 34.6068 138.73 34.2472C138.73 34.2023 138.775 34.1573 138.775 34.1573C138.865 34.0225 138.955 33.8877 139.045 33.7528C139.225 33.4832 139.36 33.2135 139.539 32.9438C139.944 32.4495 140.303 31.9101 140.798 31.4607C141.247 30.9663 141.742 30.5618 142.236 30.1124C142.506 29.8877 142.775 29.7079 143.045 29.5281C143.18 29.4382 143.315 29.3034 143.449 29.2584L143.899 28.9888C144.483 28.6292 145.112 28.3596 145.742 28.0899C146.056 27.9551 146.416 27.8652 146.73 27.7304L147 27.6405L147.27 27.5955L147.809 27.4607L148.348 27.3259L148.888 27.236L149.427 27.1461L149.697 27.1011H149.966C150.551 27.1011 151.449 27.1011 152.034 27.1011C152.079 27.1011 152.124 27.1011 152.169 27.1011C153.652 27.236 155.09 27.5955 156.483 28.1798C157.876 28.809 159.135 29.618 160.214 30.6068C160.258 30.6517 160.258 30.6517 160.303 30.6966C160.708 31.1011 161.337 31.7753 161.697 32.1798L161.876 32.4045L162.011 32.6292L162.326 33.0787L162.64 33.5281L162.91 33.9775L163.18 34.427L163.315 34.6517L163.405 34.8764C163.539 35.191 163.674 35.5056 163.854 35.8202C164.079 36.4944 164.303 37.1236 164.438 37.7978L164.573 38.2922C164.618 38.4719 164.618 38.6068 164.663 38.7865C164.708 39.1011 164.753 39.4607 164.798 39.7753C164.843 40.4495 164.888 41.1236 164.798 41.7528C164.798 42.427 164.663 43.0562 164.573 43.6854C164.528 44 164.438 44.3146 164.348 44.5843C164.303 44.7191 164.258 44.8989 164.214 45.0337C164.214 45.0787 164.169 45.1236 164.169 45.1686C164.034 45.5731 163.854 45.9775 163.719 46.3371C163.584 46.6068 163.449 46.8764 163.315 47.1461C163.09 47.6854 162.73 48.1798 162.416 48.6742C162.281 48.9438 162.056 49.1236 161.921 49.3933C161.742 49.618 161.562 49.8427 161.382 50.0674C161.202 50.2922 160.978 50.4719 160.798 50.6517C160.708 50.7416 160.618 50.8315 160.528 50.9663C160.528 50.9663 160.528 50.9663 160.483 51.0113C160.169 51.2809 159.899 51.5056 159.584 51.7753C159.405 51.9551 159.18 52.0899 158.955 52.2247C158.73 52.3596 158.551 52.5393 158.326 52.6742C158.101 52.809 157.876 52.9438 157.652 53.0337C155.944 54.0225 154.191 54.5169 152.618 54.6966C151.045 54.8764 149.697 54.8315 148.573 54.6517C148.303 54.6068 148.034 54.6068 147.809 54.5169C147.584 54.4719 147.36 54.382 147.135 54.3371C146.91 54.2922 146.73 54.2472 146.551 54.2023C146.371 54.1573 146.236 54.0674 146.101 54.0225C145.832 53.9326 145.607 53.8427 145.472 53.7978C145.382 53.8877 145.292 53.8427 145.292 53.8427Z" fill="#263238"/>
<path d="M139.719 59.9551C138.056 59.6404 137.292 57.7079 138.281 56.3595C138.775 55.6854 139.674 55.3258 140.528 55.4607C142.191 55.7753 142.955 57.7079 141.966 59.0562C141.427 59.7303 140.528 60.0899 139.719 59.9551Z" fill="white"/>
<path d="M139.225 59.7752C139.225 59.7752 139.27 59.8202 139.36 59.8202C139.45 59.8651 139.584 59.9101 139.764 59.955C140.124 60.0449 140.708 60.0449 141.292 59.7303C141.562 59.5505 141.877 59.3258 142.101 59.0112C142.326 58.6966 142.506 58.2921 142.506 57.8427C142.551 57.3932 142.461 56.9438 142.191 56.4943C141.966 56.0899 141.562 55.7303 141.113 55.5056C140.663 55.3258 140.124 55.2809 139.629 55.3707C139.18 55.4606 138.731 55.7303 138.461 56.0449C138.146 56.3595 137.966 56.764 137.877 57.1236C137.787 57.5281 137.832 57.8876 137.877 58.2022C138.056 58.8314 138.461 59.2809 138.731 59.4606C138.865 59.5505 139 59.6404 139.09 59.6854C139.135 59.7752 139.18 59.7752 139.225 59.7752C139.225 59.7752 139.045 59.6854 138.775 59.4606C138.506 59.2359 138.146 58.8314 138.011 58.2022C137.922 57.8876 137.922 57.5281 138.011 57.1685C138.101 56.809 138.281 56.4494 138.551 56.1348C138.82 55.8202 139.225 55.5955 139.674 55.5056C140.124 55.4157 140.573 55.4606 141.023 55.6404C141.472 55.8202 141.832 56.1348 142.056 56.5393C142.281 56.9438 142.371 57.3483 142.371 57.7977C142.371 58.2022 142.191 58.6067 142.011 58.9213C141.832 59.2359 141.517 59.4606 141.247 59.5955C140.708 59.9101 140.169 59.9101 139.809 59.8651C139.405 59.8651 139.225 59.7752 139.225 59.7752Z" fill="#263238"/>
<path d="M146.91 38.6517H149.023C149.023 38.6517 149.023 36.854 150.865 36.854C151.809 36.854 152.303 37.4832 152.528 37.9326C152.753 38.4719 152.708 39.1461 152.393 39.6405C152.034 40.2247 151.225 40.7641 149.831 40.5394V45.3034H151.944V42.5169C151.944 42.5169 154.865 41.7528 154.865 38.5169C154.865 35.4158 152.079 34.6967 150.91 34.6967C149.966 34.6967 146.865 34.9214 146.91 38.6517Z" fill="#263238"/>
<path d="M151.899 46.2921H149.787V48.2696H151.899V46.2921Z" fill="#263238"/>
<path d="M73.5617 164.854C73.5617 164.854 69.7414 161.258 68.2583 160.315C66.7751 159.371 63.4942 158.022 62.2358 157.933C60.9774 157.798 55.2246 159.506 55.2246 159.506C55.2246 159.506 46.6852 158.741 45.247 159.73C43.8088 160.719 43.9437 161.753 44.5279 162.517C45.1122 163.281 47.4493 163.056 50.0111 163.056C52.5729 163.101 53.247 163.326 53.247 163.326L49.5167 167.281L59.1347 169.933L64.9774 169.708L67.0897 172.359L73.5617 164.854Z" fill="#FFBF9D"/>
<path d="M44.3032 155.955L44.5279 164.449L44.9324 165.528L49.1122 170.652L59.3594 169.978L51.2246 166.787L48.3032 164.584L47.1796 160.944C47.1796 160.899 47.5392 155.326 44.3032 155.955Z" fill="#FFBF9D"/>
<path d="M45.0226 165.708H42.5507C42.5507 165.708 39.3147 160.359 36.3035 162.157L36.9776 163.236C36.9776 163.236 35.6293 162.607 34.7754 163.775L43.0001 170.966H43.3597L52.1237 170.382L45.0226 165.708Z" fill="#FFBF9D"/>
<path d="M46.5053 167.326C46.5053 167.371 46.2357 167.326 45.7862 167.371C45.3368 167.416 44.7076 167.416 44.0784 167.73L43.9885 167.775L43.9435 167.685C43.6739 167.326 43.3593 166.966 43.0447 166.562C42.3705 165.753 41.7862 164.989 41.2919 164.36C40.8424 163.775 40.5728 163.461 40.5728 163.416C40.6177 163.371 40.9323 163.685 41.3817 164.225C41.8761 164.764 42.5053 165.528 43.2244 166.382C43.539 166.787 43.8537 167.191 44.1233 167.551L43.9885 167.506C44.7076 167.191 45.3817 167.191 45.8312 167.236C46.2357 167.236 46.5053 167.281 46.5053 167.326Z" fill="#FF9A6C"/>
<path d="M64.2136 162.382C64.2136 162.472 62.8203 162.742 61.3372 163.595C59.8091 164.449 58.8653 165.528 58.8203 165.438C58.8203 165.438 59.0001 165.124 59.4046 164.719C59.8091 164.315 60.4383 163.82 61.2023 163.371C61.9664 162.921 62.7304 162.652 63.2697 162.517C63.854 162.382 64.2136 162.337 64.2136 162.382Z" fill="#FF9A6C"/>
<path d="M56.0339 160.18C56.0788 160.225 55.4945 160.854 54.8653 161.618C54.1912 162.382 53.6968 163.056 53.6518 163.011C53.6069 162.966 54.0114 162.247 54.6855 161.438C55.3597 160.674 56.0339 160.135 56.0339 160.18Z" fill="#FF9A6C"/>
<path d="M47.4943 168.494C47.4943 168.494 47.4044 168.449 47.3145 168.315C47.1797 168.18 46.9999 167.955 46.7752 167.73C46.5505 167.461 46.2808 167.146 45.9662 166.786C45.7864 166.607 45.6516 166.382 45.4718 166.202C45.292 165.977 45.0673 165.798 44.9325 165.528C44.5729 164.989 44.3482 164.315 44.3482 163.595C44.3482 162.876 44.3033 162.112 44.3033 161.303C44.2583 159.685 44.2583 157.888 44.2134 156V155.91H44.3033C44.3932 155.91 44.483 155.865 44.5729 155.865C45.1572 155.775 45.8314 156 46.2359 156.449C46.6403 156.899 46.8651 157.438 47.0448 157.933C47.3594 159.011 47.4044 160.045 47.3594 160.989V160.944C47.7639 162.337 48.1235 163.551 48.4381 164.584L48.3932 164.539C49.292 165.213 49.9662 165.798 50.5055 166.202C50.7302 166.382 50.91 166.517 51.0448 166.652C51.1797 166.742 51.2246 166.831 51.2246 166.831C51.2246 166.831 51.1347 166.786 50.9999 166.697C50.8651 166.607 50.6403 166.427 50.4156 166.292C49.8763 165.888 49.1572 165.348 48.2583 164.719V164.674C47.9437 163.64 47.5392 162.427 47.1347 161.034C47.1797 160.09 47.0898 159.056 46.8201 158.067C46.6853 157.573 46.4606 157.079 46.101 156.674C45.7415 156.27 45.2021 156.09 44.6179 156.18C44.528 156.18 44.4381 156.225 44.3482 156.225L44.4381 156.09C44.483 157.977 44.483 159.775 44.528 161.393C44.6179 163.011 44.3482 164.539 45.0673 165.573C45.2471 165.843 45.4269 166.022 45.6066 166.247C45.7864 166.472 45.9662 166.652 46.101 166.831C46.4156 167.191 46.6853 167.506 46.91 167.82C47.1347 168.09 47.2696 168.27 47.4044 168.449C47.4493 168.404 47.4943 168.494 47.4943 168.494Z" fill="#FF9A6C"/>
<path d="M43.3594 170.921C43.3594 170.921 43.1796 170.921 42.91 170.786C42.6403 170.652 42.3257 170.382 41.9661 170.022C41.247 169.303 40.3032 168.18 39.4043 166.921C38.4605 165.663 37.6965 164.449 37.1572 163.595C36.8875 163.146 36.6628 162.786 36.5279 162.562C36.3931 162.292 36.3032 162.157 36.3032 162.157C36.3032 162.157 36.3931 162.292 36.5729 162.517C36.7527 162.786 37.0223 163.146 37.292 163.506C37.8763 164.359 38.6852 165.528 39.6291 166.786C40.5729 168.045 41.4268 169.168 42.1459 169.933C42.5055 170.292 42.8201 170.562 43.0448 170.741C43.2246 170.876 43.3594 170.921 43.3594 170.921Z" fill="#FF9A6C"/>
<path d="M58.281 165.438L53.7417 165.124L52.3934 161.438L52.1237 158.966C51.9889 157.753 51.0001 156.809 49.7417 156.809H49.6968L49.9664 162.921L50.9103 166.697L54.5957 168.854H59.09L58.281 165.438Z" fill="#FFBF9D"/>
<path d="M58.281 165.438L53.7417 165.124L52.3934 161.438L52.1237 158.966C51.9889 157.753 51.0001 156.809 49.7417 156.809H49.6968L49.9664 162.921L50.9103 166.697L54.5957 168.854" fill="#FFBF9D"/>
<path d="M54.6406 168.854C54.6406 168.854 54.5507 168.809 54.3709 168.719C54.1912 168.629 53.9215 168.494 53.6518 168.315C52.9777 167.955 52.0788 167.416 50.9552 166.742H50.9103V166.697C50.6406 165.618 50.326 164.315 49.9664 162.921C49.8766 161.079 49.7867 159.011 49.6968 156.809V156.674H49.8316C49.8766 156.674 49.9215 156.674 49.9664 156.674C51.09 156.674 52.0788 157.573 52.3035 158.562C52.3485 158.831 52.3934 159.056 52.3934 159.326C52.4384 159.551 52.4384 159.82 52.4833 160.045C52.5282 160.539 52.5732 160.989 52.6181 161.438V161.393C53.1125 162.787 53.5619 164 53.9664 165.124L53.8766 165.079C55.2698 165.169 56.3485 165.258 57.1575 165.348C57.517 165.393 57.8316 165.393 58.0563 165.438C58.281 165.438 58.3709 165.483 58.3709 165.483C58.3709 165.483 58.281 165.483 58.0563 165.483C57.8316 165.483 57.517 165.483 57.1575 165.438C56.3485 165.393 55.2249 165.348 53.8316 165.258H53.7867V165.214C53.3822 164.135 52.9327 162.876 52.4383 161.528C52.3934 161.079 52.3485 160.629 52.3035 160.135C52.2586 159.91 52.2586 159.64 52.2136 159.416C52.1687 159.191 52.1687 158.921 52.1237 158.697C51.899 157.753 51.0451 156.989 50.0114 156.989C49.9664 156.989 49.9215 156.989 49.8766 156.989L50.0114 156.854C50.1013 159.056 50.1912 161.124 50.2361 162.966C50.5957 164.405 50.8653 165.663 51.135 166.742L51.09 166.697C52.2136 167.371 53.1125 167.91 53.7417 168.315C54.0563 168.494 54.281 168.629 54.4608 168.764C54.5507 168.764 54.6406 168.854 54.6406 168.854Z" fill="#FF9A6C"/>
<path d="M155.045 93.4832C151.18 78.7416 147.584 61.5731 126.011 63.1011C126.011 63.1011 112.708 65.6629 106.416 75.4607C102.685 81.2135 99.4944 106.112 98.8652 125.753C98.8203 126.562 99.1798 132.135 99.1349 132.899L156.258 137.663H166.551C166.551 137.663 165.921 127.236 162.82 117.124C159.764 107.326 156.438 98.6966 155.045 93.4832Z" fill="#263238"/>
<path d="M123.18 68.7191L124.528 67.4158L139.135 73.3034C141.247 73.4382 142.91 75.1461 143 77.2585L142.865 124.764C142.865 128 142.236 130.787 140.303 133.348L138.236 136.045C133.562 142.202 123.944 141.708 120.258 134.921C119.989 134.427 119.809 134.023 119.764 133.708C119.674 133.303 119.584 132.989 119.539 132.629C119.09 128.809 119.09 125.483 119.09 125.483C118.82 121.303 118.73 119.551 118.73 119.596C118.73 119.596 109.786 118.562 107.404 107.101C106.191 101.393 106.416 93.5731 106.775 85.8427C107.18 75.1461 114.595 68.7191 123.18 68.7191Z" fill="#FFBF9D"/>
<path d="M126.91 93.4832C126.91 94.2472 127.584 94.9214 128.393 94.9214C129.202 94.9214 129.876 94.2922 129.876 93.5281C129.876 92.7641 129.202 92.0899 128.393 92.0899C127.584 92.045 126.91 92.6742 126.91 93.4832Z" fill="#263238"/>
<path d="M111.674 93.8876C111.674 94.6516 112.348 95.3258 113.157 95.3258C113.966 95.3258 114.641 94.6966 114.641 93.9325C114.641 93.1685 113.966 92.4943 113.157 92.4943C112.348 92.4494 111.674 93.0786 111.674 93.8876Z" fill="#263238"/>
<path d="M108.213 88.8989C108.393 89.0787 109.472 88.1798 111.09 88.1349C112.663 88.045 113.876 88.809 114.056 88.5843C114.146 88.4944 113.921 88.1349 113.382 87.8203C112.843 87.4607 111.989 87.1461 111 87.1911C110.011 87.236 109.202 87.6405 108.708 88.045C108.258 88.4495 108.123 88.809 108.213 88.8989Z" fill="#263238"/>
<path d="M124.034 88.3595C124.258 88.5393 125.247 87.5505 126.82 87.2809C128.393 87.0112 129.697 87.6404 129.832 87.4157C129.921 87.3258 129.652 87.0112 129.112 86.6966C128.573 86.4269 127.674 86.2022 126.685 86.3371C125.697 86.4719 124.933 86.9663 124.528 87.4157C124.034 87.9101 123.944 88.2696 124.034 88.3595Z" fill="#263238"/>
<path d="M118.82 100.674C118.82 100.584 117.831 100.449 116.213 100.315C115.809 100.315 115.404 100.225 115.315 99.9551C115.225 99.6854 115.359 99.236 115.539 98.7416C115.854 97.7528 116.213 96.6742 116.573 95.5955C118.011 91.1011 119.045 87.4157 118.865 87.3259C118.685 87.2809 117.337 90.8764 115.899 95.3708C115.539 96.4944 115.225 97.5281 114.91 98.5618C114.775 99.0112 114.55 99.5506 114.775 100.18C114.91 100.494 115.225 100.674 115.494 100.764C115.764 100.809 115.989 100.809 116.168 100.809C117.831 100.809 118.82 100.764 118.82 100.674Z" fill="#263238"/>
<path d="M118.686 119.596C118.686 119.596 126.506 119.685 133.966 114.697C133.966 114.697 130.461 122.876 118.865 122.382L118.686 119.596Z" fill="#FF9A6C"/>
<path d="M123.809 103.91C123.36 103.371 122.64 103.056 121.966 103.011C120.978 102.966 120.258 103.101 119.719 103.865C119.449 104.315 119.494 104.989 119.584 105.169C119.719 105.348 119.629 105.348 119.809 105.483C120.438 105.933 121.202 106.247 121.966 106.427C122.73 106.607 123.629 106.427 124.034 105.798C124.393 105.258 124.258 104.449 123.809 103.91Z" fill="#FF9A6C"/>
<path d="M123.674 81.0336C123.899 81.4381 125.247 81.0336 126.955 80.9887C128.618 80.8988 130.056 81.2584 130.236 80.8539C130.326 80.6741 130.011 80.2696 129.427 79.955C128.843 79.6404 127.899 79.3707 126.91 79.3707C125.921 79.4157 125.023 79.7303 124.438 80.0898C123.809 80.4494 123.584 80.8539 123.674 81.0336Z" fill="#263238"/>
<path d="M108.438 86.0225C108.753 86.382 109.831 85.9326 111.135 85.8427C112.438 85.7079 113.607 85.9775 113.831 85.573C113.921 85.3933 113.741 85.0337 113.247 84.7191C112.753 84.4045 111.944 84.1798 111 84.2247C110.101 84.3146 109.337 84.6742 108.888 85.0787C108.438 85.4832 108.303 85.8427 108.438 86.0225Z" fill="#263238"/>
<path d="M142.64 97.5281C142.64 97.5281 136.483 99.0113 127.809 80.2697C124.843 73.8877 119.09 67.4607 119.09 67.4607L124.483 66.6967C124.483 66.6967 140.573 71.236 140.888 71.4607C141.157 71.6854 144.933 79.7753 144.933 79.7753L142.64 97.5281Z" fill="#263238"/>
<path d="M140.618 96.7641C140.573 95.9101 141.472 93.8427 142.326 93.6629C144.573 93.2135 148.663 93.1686 149.022 98.9214C149.472 106.787 141.472 105.618 141.427 105.393C141.427 105.258 140.798 99.7304 140.618 96.7641Z" fill="#FFBF9D"/>
<path d="M143.674 102.292C143.719 102.247 143.809 102.382 144.033 102.472C144.258 102.562 144.663 102.607 145.067 102.427C145.876 102.067 146.505 100.719 146.46 99.2809C146.46 98.5618 146.236 97.8876 145.966 97.3483C145.696 96.764 145.292 96.4045 144.887 96.3595C144.483 96.2696 144.168 96.5393 144.078 96.764C143.988 96.9887 144.033 97.1236 143.988 97.1685C143.988 97.1685 143.809 97.0337 143.854 96.7191C143.899 96.5393 143.944 96.3595 144.123 96.2247C144.303 96.0449 144.573 95.955 144.887 96C145.517 96 146.056 96.5393 146.37 97.1236C146.73 97.7078 146.955 98.4719 146.955 99.2809C147 100.854 146.281 102.382 145.157 102.786C144.618 102.966 144.123 102.831 143.899 102.652C143.674 102.472 143.629 102.292 143.674 102.292Z" fill="#FF9A6C"/>
<path d="M124.843 104.225C124.798 104.405 123.494 104.405 121.876 104.719C120.258 105.034 119.045 105.528 118.955 105.348C118.865 105.213 120.034 104.36 121.786 104.045C123.449 103.685 124.888 104.045 124.843 104.225Z" fill="#263238"/>
<path d="M186.416 165.303C186.416 165.303 193.022 159.64 194.91 159.506C196.842 159.371 201.831 160.27 201.831 160.27C201.831 160.27 205.022 160.315 206.595 160.09C208.977 159.775 210.595 160.045 211.539 160.315C212.034 160.449 212.618 161.663 211.225 162.472C210.64 162.831 204.842 163.191 204.842 163.191L219.269 167.326L217.382 168.854C217.112 169.079 216.842 169.169 216.483 169.169L195.719 169.888L194.775 172.225L186.416 165.303Z" fill="#FFBF9D"/>
<path d="M202.146 165.303H208.888C208.888 165.303 211.27 162.157 212.124 160.854C212.888 159.73 213.786 159.371 214.55 159.64C214.775 159.73 214.91 159.865 215.045 160.045C215.225 160.315 215.225 160.674 215.045 160.944L212.079 166.472L213.652 165.933C213.652 165.933 216.753 162.876 217.382 162.202C217.966 161.483 220.213 158.517 222.146 160.674L219.449 163.685L222.146 161.753C222.146 161.753 224.303 159.91 225.472 162.112L217.382 168.944" fill="#FFBF9D"/>
<path d="M195.135 162.517C195.135 162.517 195.225 162.472 195.404 162.427C195.584 162.382 195.854 162.292 196.213 162.247C196.933 162.112 198.011 162.157 199.225 162.562C199.854 162.786 200.483 163.056 201.157 163.461C201.472 163.64 201.831 163.865 202.146 164.09C202.326 164.225 202.506 164.315 202.64 164.449C202.82 164.584 203 164.719 203.135 164.809C204.843 164.944 206.775 165.079 208.843 165.213L208.753 165.258C209.382 164.494 210.011 163.685 210.595 162.831C210.82 162.517 211.045 162.157 211.27 161.843C211.494 161.528 211.674 161.168 211.944 160.854C212.168 160.539 212.438 160.225 212.753 159.955C212.888 159.82 213.067 159.73 213.247 159.595C213.427 159.506 213.607 159.416 213.876 159.461H213.831C214.191 159.416 214.595 159.461 214.91 159.73C215.225 160 215.315 160.404 215.27 160.719C213.966 163.011 212.888 165.034 211.989 166.562C211.809 167.236 211.27 167.595 210.82 167.82C210.326 168.045 209.921 168.09 209.562 168.09C209.202 168.09 208.933 168.09 208.753 168.09C208.573 168.09 208.483 168.09 208.483 168.045C208.483 168.045 208.573 168.045 208.753 168.045C208.933 168.045 209.202 168.045 209.562 168C209.921 167.955 210.326 167.91 210.775 167.685C211.225 167.461 211.719 167.101 211.854 166.517C212.708 164.944 213.786 162.921 215.045 160.629V160.674C215.09 160.404 215 160.045 214.775 159.865C214.55 159.685 214.191 159.64 213.876 159.685H213.831C213.697 159.685 213.517 159.73 213.382 159.82C213.247 159.91 213.067 160 212.933 160.135C212.663 160.359 212.393 160.674 212.168 160.989C211.719 161.618 211.315 162.337 210.82 162.966C210.191 163.82 209.607 164.629 208.933 165.393L208.888 165.438H208.843C206.775 165.303 204.888 165.168 203.09 165.034C202.82 164.899 202.685 164.764 202.506 164.674C202.326 164.539 202.146 164.449 202.011 164.315C201.697 164.09 201.337 163.865 201.022 163.685C200.348 163.281 199.719 163.011 199.135 162.786C197.921 162.382 196.888 162.337 196.168 162.427C195.809 162.427 195.539 162.517 195.359 162.562C195.225 162.517 195.135 162.517 195.135 162.517Z" fill="#FF9A6C"/>
<path d="M222.146 160.719C222.146 160.719 222.056 160.854 221.876 161.079C221.696 161.303 221.427 161.618 221.112 162.022C220.438 162.831 219.494 163.91 218.461 165.124C217.382 166.292 216.528 167.461 215.719 168.18C215.314 168.539 215 168.809 214.73 168.944C214.461 169.079 214.326 169.168 214.326 169.124C214.326 169.124 214.461 169.034 214.685 168.854C214.91 168.674 215.225 168.404 215.584 168.045C216.303 167.326 217.157 166.157 218.236 164.989C219.27 163.775 220.258 162.697 220.932 161.933C221.292 161.528 221.562 161.258 221.786 161.034C222.011 160.809 222.146 160.674 222.146 160.719Z" fill="#FF9A6C"/>
<path d="M218.461 161.034C218.506 161.079 218.191 161.438 217.652 161.977C217.112 162.562 216.393 163.326 215.539 164.18C214.865 164.899 214.236 165.528 213.742 166.022C212.753 166.337 212.079 166.517 212.079 166.472C212.079 166.472 212.213 166.382 212.528 166.292C212.888 166.157 213.247 166.022 213.697 165.843L213.652 165.888C214.146 165.348 214.775 164.719 215.449 164C216.258 163.146 217.022 162.382 217.607 161.843C218.056 161.303 218.416 160.989 218.461 161.034Z" fill="#FF9A6C"/>
<path d="M164.034 131.775C164.034 131.775 173.741 134.292 174.685 147.461C175.225 154.966 171.225 179.056 171.225 179.056L185.517 164.36L198.281 173.213C198.281 173.213 180.932 194.427 176.932 197.618C172.932 200.809 166.55 205.933 164.483 205.528C162.416 205.124 162.416 195.551 162.416 195.551V142.697L164.034 131.775Z" fill="#C6C8D2"/>
<path d="M94.3705 133.393C94.3705 133.393 85.7413 136.225 86.1009 153.079C86.4604 169.933 86.1907 175.595 86.1907 175.595L73.2919 161.933L62.5503 173.708C62.5503 173.708 74.5503 191.55 82.9548 200.225C90.8649 208.404 97.9211 201.303 100.213 195.55C102.056 190.876 103.539 173.213 103.539 173.213L94.3705 133.393Z" fill="#C6C8D2"/>
<g opacity="0.3">
<path d="M164.798 162.112C165.562 157.169 165.786 151.82 163.539 147.281C158.011 160.944 158.281 176.629 160.258 191.101L164.618 203.595C167.359 195.191 164.753 186.292 164.798 177.528C164.843 172.539 164.034 167.011 164.798 162.112Z" fill="black"/>
</g>
<path d="M92.5728 144.09C92.5728 144.09 98.3256 182.831 99.4492 186.247C100.573 189.663 100.573 199.64 100.573 199.64C100.573 199.64 94.5053 210.921 94.1458 218.741L167 218.876L162.281 186.741C162.101 185.528 162.101 181.843 162.191 180.629C162.505 174.966 162.955 162.831 164.573 155.326C166.46 146.652 163.899 131.775 163.899 131.775L142.146 126.427C136.977 133.843 124.168 133.932 119.09 126.427L94.5503 133.348L92.5728 144.09Z" fill="#C6C8D2"/>
<path d="M163.674 185.168C163.674 185.168 163.719 185.034 163.899 184.809C164.033 184.584 164.258 184.315 164.573 183.91C165.157 183.191 165.966 182.157 167.09 181.213C168.168 180.27 169.337 179.64 170.191 179.236C170.64 179.056 170.955 178.921 171.224 178.831C171.494 178.742 171.629 178.697 171.629 178.742C171.674 178.831 169.427 179.55 167.269 181.438C166.191 182.382 165.337 183.326 164.752 184.045C164.078 184.764 163.719 185.213 163.674 185.168Z" fill="#263238"/>
<path d="M96.2585 184.36C96.2135 184.36 96.0337 183.551 95.4944 182.382C94.9551 181.213 93.9663 179.64 92.4382 178.382C90.9102 177.079 89.2472 176.36 87.9888 176.045C86.7304 175.685 85.9214 175.64 85.9214 175.595C85.9214 175.595 86.1461 175.595 86.5057 175.595C86.8652 175.64 87.4045 175.685 88.0337 175.865C89.2922 176.18 91.045 176.899 92.618 178.202C94.1461 179.506 95.1349 181.124 95.6742 182.337C95.9439 182.966 96.0787 183.461 96.1686 183.82C96.2135 184.18 96.2585 184.36 96.2585 184.36Z" fill="#263238"/>
<path d="M96.7077 163.371C96.7077 163.371 96.5728 163.326 96.3931 163.191C96.1684 163.056 95.8987 162.876 95.5391 162.607C94.865 162.112 93.9212 161.303 93.0223 160.359C92.1234 159.416 91.3594 158.472 90.865 157.798C90.3706 157.124 90.056 156.674 90.1009 156.629C90.1459 156.629 90.4605 157.034 90.9998 157.663C91.5391 158.337 92.3032 159.236 93.2021 160.18C94.1009 161.124 94.9998 161.933 95.629 162.472C96.3032 163.011 96.7077 163.326 96.7077 163.371Z" fill="#263238"/>
<path d="M147.539 184.359C147.539 184.359 147.539 184.404 147.494 184.449C147.449 184.494 147.359 184.584 147.314 184.719C147.135 184.944 146.91 185.258 146.55 185.663C145.876 186.472 144.798 187.551 143.404 188.764C142.011 189.977 140.168 191.326 138.101 192.629C135.989 193.933 133.607 195.236 131 196.449C128.438 197.663 125.921 198.786 123.674 199.775C121.427 200.764 119.404 201.708 117.741 202.562C116.078 203.416 114.73 204.135 113.831 204.629C113.382 204.899 113.022 205.079 112.798 205.213C112.708 205.258 112.618 205.303 112.528 205.348C112.483 205.393 112.438 205.393 112.438 205.393C112.438 205.393 112.483 205.348 112.528 205.348C112.618 205.303 112.663 205.258 112.798 205.168C113.022 205.034 113.382 204.809 113.831 204.539C114.73 204 116.033 203.236 117.696 202.382C119.359 201.528 121.382 200.584 123.629 199.551C125.876 198.517 128.348 197.438 130.955 196.18C133.517 194.966 135.944 193.663 138.011 192.359C140.123 191.056 141.921 189.753 143.314 188.539C144.753 187.326 145.786 186.247 146.505 185.483C146.865 185.124 147.135 184.764 147.314 184.584C147.404 184.494 147.449 184.404 147.539 184.359C147.539 184.359 147.539 184.359 147.539 184.359Z" fill="#263238"/>
<path d="M94.3257 218.112C94.3257 218.112 94.3257 218.067 94.3257 218.022C94.3257 217.933 94.3257 217.843 94.3257 217.753C94.3257 217.483 94.3706 217.124 94.4156 216.674C94.5504 215.73 94.7302 214.337 95.2246 212.629C96.1684 209.213 98.0111 204.494 100.843 199.281V199.326C100.573 195.101 100.123 190.382 99.6291 185.438C98.6852 176.09 97.6515 167.64 96.9324 161.528C96.5729 158.472 96.2583 156 96.0336 154.292C95.9437 153.438 95.8538 152.764 95.8088 152.315C95.7639 152.09 95.7639 151.91 95.7639 151.82C95.7639 151.685 95.7639 151.64 95.7639 151.64C95.7639 151.64 95.7639 151.685 95.8088 151.82C95.8088 151.955 95.8538 152.135 95.8987 152.315C95.9437 152.764 96.0785 153.438 96.1684 154.292C96.3931 156 96.7077 158.472 97.1122 161.528C97.8762 167.64 98.91 176.09 99.8987 185.438C100.393 190.382 100.843 195.101 101.112 199.326V199.371V199.416C98.2807 204.629 96.3931 209.303 95.4493 212.719C94.9549 214.427 94.7302 215.82 94.5504 216.764C94.5055 217.213 94.4605 217.573 94.4605 217.843C94.4605 217.977 94.4605 218.067 94.4156 218.112C94.3257 218.112 94.3257 218.112 94.3257 218.112Z" fill="#263238"/>
<path d="M165.427 144.989C165.427 144.989 165.427 145.034 165.427 145.169C165.427 145.303 165.427 145.483 165.427 145.753C165.427 146.247 165.427 146.966 165.382 147.91C165.337 149.798 165.157 152.494 164.797 155.865C164.483 159.236 163.989 163.191 163.494 167.64C163 172.045 162.505 176.944 162.371 182.067C162.191 187.191 162.685 192.09 163.359 196.494C163.989 200.899 164.753 204.809 165.382 208.135C165.966 211.461 166.415 214.157 166.685 216C166.82 216.944 166.91 217.663 166.955 218.157C167 218.382 167 218.562 167 218.697C167 218.831 167 218.876 167 218.876C167 218.876 167 218.831 166.955 218.697C166.955 218.562 166.91 218.382 166.865 218.157C166.775 217.663 166.685 216.944 166.55 216C166.281 214.157 165.786 211.461 165.202 208.135C164.573 204.809 163.809 200.899 163.135 196.494C162.46 192.09 161.966 187.191 162.101 182.067C162.236 176.944 162.775 172.045 163.269 167.64C163.764 163.236 164.258 159.236 164.618 155.91C164.977 152.584 165.202 149.843 165.292 147.955C165.337 147.011 165.337 146.292 165.382 145.798C165.382 145.573 165.382 145.393 165.382 145.213C165.427 145.079 165.427 144.989 165.427 144.989Z" fill="#263238"/>
<g opacity="0.3">
<path d="M95.8986 153.303C94.5952 165.483 96.1682 178.472 100.123 190.067L95.8986 153.303Z" fill="black"/>
</g>
<g opacity="0.3">
<path d="M140.977 196.27C135.449 201.348 129.921 205.663 123.135 208.09C128.258 208.539 133.427 206.562 137.382 203.281C141.337 200 144.168 196.539 145.966 191.73L140.977 196.27Z" fill="black"/>
</g>
<path d="M134.685 201.843C134.64 201.798 138.056 198.652 142.37 194.787C146.64 190.966 150.146 187.865 150.191 187.91C150.236 187.955 146.82 191.101 142.505 194.966C138.236 198.831 134.73 201.888 134.685 201.843Z" fill="#263238"/>
<path d="M146.91 106.697C146.91 108.27 145.652 109.528 144.079 109.528C142.505 109.528 141.247 108.27 141.247 106.697C141.247 105.124 142.505 103.865 144.079 103.865C145.652 103.91 146.91 105.168 146.91 106.697Z" fill="#455A64"/>
<path d="M163.674 143.73C162.865 136.854 162.011 129.978 161.202 123.056L143.404 117.663C143.045 129.978 140.887 143.775 137.831 155.685C144.393 157.798 151.404 158.562 158.28 157.798C158.595 154.472 158.91 151.146 159.179 147.82C159.629 150.337 160.078 152.854 160.528 155.326C162.415 154.292 163.494 152.18 163.854 150.067C164.168 148 163.898 145.843 163.674 143.73Z" fill="#263238"/>
<path d="M149.696 157.888C149.696 157.888 149.696 157.798 149.741 157.618C149.786 157.438 149.831 157.169 149.921 156.854C150.101 156.18 150.326 155.191 150.595 153.933C151.18 151.416 152.034 147.73 152.887 143.191C153.741 138.652 154.55 133.169 154.82 127.011C155.09 120.899 154.73 114.112 153.022 107.236C151.359 100.36 148.438 94.1573 144.753 89.2585C144.303 88.6292 143.854 88.045 143.359 87.4607C142.865 86.8764 142.416 86.3371 141.921 85.7978C141.652 85.5281 141.427 85.2585 141.202 85.0337C140.932 84.7641 140.708 84.5394 140.438 84.2697C139.944 83.7753 139.449 83.3259 138.955 82.8315C136.932 80.9888 135 79.3708 133.247 77.8427C131.494 76.3146 129.921 74.9214 128.663 73.5731C128.348 73.2585 128.034 72.8989 127.719 72.6292C127.404 72.3146 127.135 72 126.91 71.7304C126.64 71.4158 126.416 71.1461 126.191 70.8764C125.966 70.6068 125.741 70.3371 125.562 70.0674C125.157 69.5731 124.843 69.0787 124.528 68.6742C124.213 68.2697 124.034 67.9101 123.854 67.5955C123.674 67.3259 123.539 67.1011 123.449 66.9214C123.359 66.7865 123.314 66.6967 123.314 66.6967C123.314 66.6967 123.359 66.7865 123.449 66.9214C123.539 67.0562 123.674 67.2809 123.854 67.5955C124.034 67.8652 124.258 68.2247 124.573 68.6292C124.887 69.0337 125.202 69.5281 125.607 70.0225C125.831 70.2922 126.011 70.5618 126.236 70.8315C126.461 71.1011 126.73 71.3708 127 71.6854C127.27 72 127.539 72.2697 127.854 72.5843C128.168 72.8989 128.438 73.2135 128.798 73.5281C130.101 74.8315 131.674 76.2247 133.427 77.7528C135.18 79.2809 137.157 80.8989 139.135 82.7416C139.629 83.191 140.168 83.6854 140.663 84.1798C140.932 84.4495 141.157 84.6742 141.427 84.9438C141.652 85.2135 141.921 85.4832 142.191 85.7528C142.685 86.2922 143.18 86.8315 143.674 87.4158C144.168 87.9551 144.618 88.5843 145.112 89.2135C148.798 94.1124 151.764 100.36 153.427 107.281C155.135 114.157 155.494 120.989 155.225 127.146C154.955 133.303 154.101 138.787 153.247 143.326C152.393 147.91 151.494 151.551 150.865 154.067C150.55 155.326 150.326 156.315 150.146 156.944C150.056 157.258 150.011 157.528 149.966 157.708C149.741 157.798 149.696 157.888 149.696 157.888Z" fill="#455A64"/>
</g>
<defs>
<linearGradient id="paint0_linear_180_5195" x1="206.946" y1="107.969" x2="196.752" y2="127.436" gradientUnits="userSpaceOnUse">
<stop/>
<stop offset="1" stop-color="#B9B9B9"/>
</linearGradient>
<clipPath id="clip0_180_5195">
<rect width="198.472" height="200" fill="white" transform="translate(27 20)"/>
</clipPath>
</defs>
</svg>
