<svg width="29" height="32" viewBox="0 0 29 32" fill="none" xmlns="http://www.w3.org/2000/svg">
<path d="M24.4399 12.2216H26.3149V19.7785H24.4399V12.2216Z" fill="#3C4467"/>
<path d="M13.5625 5.94153H15.4375V10.996H13.5625V5.94153Z" fill="#BEC3D2"/>
<path d="M5.31982 11.783L6.25732 10.1592L10.6345 12.6865L9.69702 14.3102L5.31982 11.783Z" fill="#BEC3D2"/>
<path d="M5.31982 20.2169L9.69702 17.6897L10.6345 19.3134L6.25732 21.8407L5.31982 20.2169Z" fill="#BEC3D2"/>
<path d="M13.5625 21.004H15.4375V26.0585H13.5625V21.004Z" fill="#BEC3D2"/>
<path d="M18.3643 19.3145L19.3018 17.6907L23.679 20.218L22.7415 21.8417L18.3643 19.3145Z" fill="#BEC3D2"/>
<path d="M18.3643 12.6859L22.7415 10.1587L23.679 11.7824L19.3018 14.3097L18.3643 12.6859Z" fill="#BEC3D2"/>
<path d="M5.31982 7.65686L11.8641 3.87839L12.8016 5.50214L6.25732 9.28061L5.31982 7.65686Z" fill="#7F859F"/>
<path d="M2.68457 12.2214H4.55957V19.7784H2.68457V12.2214Z" fill="#7F859F"/>
<path d="M5.31934 24.3434L6.25684 22.7196L12.8011 26.4981L11.8636 28.1219L5.31934 24.3434Z" fill="#7F859F"/>
<path d="M16.1968 26.4973L22.7411 22.7188L23.6786 24.3426L17.1343 28.1211L16.1968 26.4973Z" fill="#3C4467"/>
<path d="M16.1978 5.50281L17.1353 3.87906L23.6796 7.65753L22.7421 9.28128L16.1978 5.50281Z" fill="#3C4467"/>
<path d="M3.62261 13.1588C5.52219 13.1588 7.0621 11.6189 7.0621 9.71928C7.0621 7.8197 5.52219 6.27979 3.62261 6.27979C1.72302 6.27979 0.183105 7.8197 0.183105 9.71928C0.183105 11.6189 1.72302 13.1588 3.62261 13.1588Z" fill="#FFE4D1"/>
<path d="M3.62261 11.2838C4.48665 11.2838 5.18711 10.5833 5.18711 9.71929C5.18711 8.85524 4.48665 8.15479 3.62261 8.15479C2.75856 8.15479 2.05811 8.85524 2.05811 9.71929C2.05811 10.5833 2.75856 11.2838 3.62261 11.2838Z" fill="#FF7A1A"/>
<path d="M25.377 13.1599C27.2766 13.1599 28.8165 11.62 28.8165 9.72038C28.8165 7.8208 27.2766 6.28088 25.377 6.28088C23.4774 6.28088 21.9375 7.8208 21.9375 9.72038C21.9375 11.62 23.4774 13.1599 25.377 13.1599Z" fill="#FFE4D1"/>
<path d="M25.377 11.2849C26.2411 11.2849 26.9415 10.5844 26.9415 9.72038C26.9415 8.85633 26.2411 8.15588 25.377 8.15588C24.513 8.15588 23.8125 8.85633 23.8125 9.72038C23.8125 10.5844 24.513 11.2849 25.377 11.2849Z" fill="#FFAF76"/>
<path d="M25.377 25.7192C27.2766 25.7192 28.8165 24.1793 28.8165 22.2797C28.8165 20.3801 27.2766 18.8402 25.377 18.8402C23.4774 18.8402 21.9375 20.3801 21.9375 22.2797C21.9375 24.1793 23.4774 25.7192 25.377 25.7192Z" fill="#FFF2E9"/>
<path d="M25.377 23.8442C26.2411 23.8442 26.9415 23.1438 26.9415 22.2797C26.9415 21.4157 26.2411 20.7152 25.377 20.7152C24.513 20.7152 23.8125 21.4157 23.8125 22.2797C23.8125 23.1438 24.513 23.8442 25.377 23.8442Z" fill="#FF9548"/>
<path d="M3.62261 25.7192C5.52219 25.7192 7.06211 24.1793 7.06211 22.2797C7.06211 20.3801 5.52219 18.8402 3.62261 18.8402C1.72302 18.8402 0.183105 20.3801 0.183105 22.2797C0.183105 24.1793 1.72302 25.7192 3.62261 25.7192Z" fill="#FFF2E9"/>
<path d="M3.62261 23.8442C4.48665 23.8442 5.18711 23.1438 5.18711 22.2797C5.18711 21.4157 4.48665 20.7152 3.62261 20.7152C2.75856 20.7152 2.05811 21.4157 2.05811 22.2797C2.05811 23.1438 2.75856 23.8442 3.62261 23.8442Z" fill="#FFAF76"/>
<path d="M17.939 3.4395C17.939 1.543 16.3961 0 14.4995 0L13.2485 3.4395L14.4995 6.879C16.3961 6.879 17.939 5.33606 17.939 3.4395Z" fill="#FFF2E9"/>
<path d="M14.4996 0C12.603 0 11.0601 1.543 11.0601 3.4395C11.0601 5.336 12.6031 6.879 14.4996 6.879V0Z" fill="#FFF2E9"/>
<path d="M16.0645 3.4395C16.0645 2.57681 15.3627 1.875 14.5 1.875L13.8745 3.4395L14.5 5.004C15.3627 5.004 16.0645 4.30219 16.0645 3.4395Z" fill="#FF9548"/>
<path d="M14.4996 1.875C13.6369 1.875 12.9351 2.57681 12.9351 3.4395C12.9351 4.30219 13.6369 5.004 14.4996 5.004V1.875Z" fill="#FFAF76"/>
<path d="M17.939 28.5605C17.939 26.6639 16.3961 25.121 14.4995 25.121L13.2485 28.5605L14.4995 32C16.3961 32 17.939 30.457 17.939 28.5605Z" fill="#FFE4D1"/>
<path d="M14.4996 25.121C12.603 25.121 11.0601 26.664 11.0601 28.5605C11.0601 30.457 12.603 32 14.4996 32V25.121Z" fill="#FFE4D1"/>
<path d="M16.0645 28.5605C16.0645 27.6978 15.3627 26.996 14.5 26.996L13.8745 28.5605L14.5 30.125C15.3627 30.125 16.0645 29.4232 16.0645 28.5605Z" fill="#FFAF76"/>
<path d="M14.4996 26.996C13.6369 26.996 12.9351 27.6978 12.9351 28.5605C12.9351 29.4232 13.6369 30.125 14.4996 30.125V26.996Z" fill="#FF7A1A"/>
<path d="M20.441 16C20.441 12.7238 17.7757 10.0585 14.4995 10.0585L13.2485 15.9999L14.4995 21.9415C17.7757 21.9415 20.441 19.2762 20.441 16V16Z" fill="#FF9548"/>
<path d="M14.4996 10.0585C11.2235 10.0585 8.55811 12.7238 8.55811 16C8.55811 19.2761 11.2235 21.9415 14.4996 21.9415V10.0585Z" fill="url(#paint0_linear_192_1822)"/>
<path d="M18.566 16C18.566 13.7577 16.7418 11.9335 14.4995 11.9335L13.2485 16.0001L14.4995 20.0665C16.7418 20.0665 18.566 18.2423 18.566 16V16Z" fill="#FFE4D1"/>
<path d="M14.4996 11.9335C12.2574 11.9335 10.4331 13.7577 10.4331 16C10.4331 18.2422 12.2574 20.0665 14.4996 20.0665V11.9335Z" fill="#FF9548"/>
<defs>
<linearGradient id="paint0_linear_192_1822" x1="12.3094" y1="8.10426" x2="6.02015" y2="14.9003" gradientUnits="userSpaceOnUse">
<stop stop-color="#FF7A1A"/>
<stop offset="1" stop-color="#FFE0C9"/>
</linearGradient>
</defs>
</svg>
