<svg width="33" height="19" viewBox="0 0 33 19" fill="none" xmlns="http://www.w3.org/2000/svg">
<path d="M31.5625 15.6316H4.4375C3.91968 15.6316 3.5 15.2231 3.5 14.7192V0.912347C3.5 0.408418 3.91968 0 4.4375 0H21.6409C24.2134 0 26.4443 1.23357 27.7615 3.38448L29.5999 6.38667C31.2024 6.40615 32.5 7.68082 32.5 9.24512V14.7192C32.5 15.2231 32.0803 15.6316 31.5625 15.6316Z" fill="url(#paint0_linear_192_1860)"/>
<path d="M29.5999 6.38667L27.7615 3.38448C26.4443 1.23357 24.2134 0 21.6409 0H18V15.6316H31.5625C32.0803 15.6316 32.5 15.2231 32.5 14.7192V9.24512C32.5 7.68082 31.2024 6.40615 29.5999 6.38667Z" fill="url(#paint1_linear_192_1860)"/>
<path d="M4.4375 11.982H1.4375C0.919678 11.982 0.5 11.5736 0.5 11.0697C0.5 10.5658 0.919678 10.1573 1.4375 10.1573H4.4375C4.95532 10.1573 5.375 10.5658 5.375 11.0697C5.375 11.5736 4.95532 11.982 4.4375 11.982Z" fill="#E2E4E9"/>
<path d="M9.875 8.33275H1.4375C0.919678 8.33275 0.5 7.92433 0.5 7.4204C0.5 6.91647 0.919678 6.50806 1.4375 6.50806H9.875C10.3928 6.50806 10.8125 6.91647 10.8125 7.4204C10.8125 7.92433 10.3928 8.33275 9.875 8.33275Z" fill="#E2E4E9"/>
<path d="M7.09863 4.74413H2.375C1.85718 4.74413 1.4375 4.33571 1.4375 3.83178C1.4375 3.32785 1.85718 2.91943 2.375 2.91943H7.09863C7.61646 2.91943 8.03613 3.32785 8.03613 3.83178C8.03613 4.33571 7.61646 4.74413 7.09863 4.74413Z" fill="#E2E4E9"/>
<path d="M27.7615 3.38448C26.4443 1.23357 24.2134 0 21.6409 0H21.4297V5.47408C21.4297 5.97801 21.8494 6.38643 22.3672 6.38643H29.5996L27.7615 3.38448Z" fill="#E2E4E9"/>
<path fill-rule="evenodd" clip-rule="evenodd" d="M9.84375 17.5171C11.3066 17.5171 12.5 16.3558 12.5 14.9322C12.5 13.5085 11.3066 12.3472 9.84375 12.3472C8.38086 12.3472 7.1875 13.5085 7.1875 14.9322C7.1875 16.3558 8.38086 17.5171 9.84375 17.5171Z" fill="#E2E4E9"/>
<path d="M9.84375 18.4292C7.86206 18.4292 6.25 16.8604 6.25 14.9319C6.25 13.0034 7.86206 11.4346 9.84375 11.4346C11.8254 11.4346 13.4375 13.0034 13.4375 14.9319C13.4375 16.8604 11.8254 18.4292 9.84375 18.4292ZM9.84375 13.2593C8.896 13.2593 8.125 14.0096 8.125 14.9319C8.125 15.8542 8.896 16.6045 9.84375 16.6045C10.7915 16.6045 11.5625 15.8542 11.5625 14.9319C11.5625 14.0096 10.7915 13.2593 9.84375 13.2593Z" fill="#FF9548"/>
<path fill-rule="evenodd" clip-rule="evenodd" d="M26.4062 17.5171C27.8691 17.5171 29.0625 16.3558 29.0625 14.9322C29.0625 13.5085 27.8691 12.3472 26.4062 12.3472C24.9434 12.3472 23.75 13.5085 23.75 14.9322C23.75 16.3558 24.9434 17.5171 26.4062 17.5171Z" fill="#E2E4E9"/>
<path d="M26.4062 18.4292C24.4246 18.4292 22.8125 16.8604 22.8125 14.9319C22.8125 13.0034 24.4246 11.4346 26.4062 11.4346C28.3879 11.4346 30 13.0034 30 14.9319C30 16.8604 28.3879 18.4292 26.4062 18.4292ZM26.4062 13.2593C25.4585 13.2593 24.6875 14.0096 24.6875 14.9319C24.6875 15.8542 25.4585 16.6045 26.4062 16.6045C27.354 16.6045 28.125 15.8542 28.125 14.9319C28.125 14.0096 27.354 13.2593 26.4062 13.2593Z" fill="#FF9548"/>
<defs>
<linearGradient id="paint0_linear_192_1860" x1="18" y1="1.93557" x2="18" y2="15.6316" gradientUnits="userSpaceOnUse">
<stop stop-color="#C6C8D2"/>
<stop offset="1" stop-color="#F3F3F3"/>
</linearGradient>
<linearGradient id="paint1_linear_192_1860" x1="27.1632" y1="-1.45655" x2="7.8665" y2="17.103" gradientUnits="userSpaceOnUse">
<stop/>
<stop offset="1" stop-color="#B9B9B9"/>
</linearGradient>
</defs>
</svg>
