<svg width="33" height="32" viewBox="0 0 33 32" fill="none" xmlns="http://www.w3.org/2000/svg">
<g clip-path="url(#clip0_192_1898)">
<path d="M19.5938 10.425L14.7376 15.2812C14.5501 15.4499 14.3065 15.5436 14.0814 15.5436C13.8377 15.5436 13.5938 15.4499 13.4063 15.2812C13.0501 14.9062 13.0501 14.3061 13.4063 13.9499L18.2625 9.09369C18.619 8.73749 19.2188 8.73749 19.5941 9.09369C19.95 9.46869 19.95 10.0688 19.5938 10.425Z" fill="#2D334D"/>
<path d="M19.5938 10.425L16.5 13.5187V10.8561L18.2625 9.09369C18.6187 8.73749 19.2188 8.73749 19.5938 9.09369C19.95 9.46869 19.95 10.0688 19.5938 10.425Z" fill="#2D334D"/>
<path d="M11.0717 16.0363C10.9308 16.0363 10.788 16.0044 10.6532 15.9375L6.50795 13.8647C6.04457 13.633 5.85682 13.07 6.08851 12.6069C6.32118 12.1445 6.88417 11.9558 7.34657 12.1875L11.4918 14.2602C11.9552 14.4919 12.143 15.0549 11.9113 15.518C11.7465 15.8469 11.4159 16.0363 11.0717 16.0363Z" fill="#2D334D"/>
<path d="M21.7506 8.24978C21.465 8.24978 21.184 8.12087 20.9999 7.87453C20.6886 7.46071 20.7729 6.87282 21.1877 6.56252L25.6884 3.18801C26.1012 2.87673 26.6881 2.959 27.0004 3.37551C27.3117 3.78933 27.2275 4.37722 26.8127 4.68752L22.3119 8.06203C22.1435 8.1885 21.9467 8.24978 21.7506 8.24978Z" fill="#2D334D"/>
<path d="M5.25 9.375C3.6936 9.375 2.4375 10.6311 2.4375 12.1875C2.4375 13.7437 3.6936 15 5.25 15C6.8064 15 8.0625 13.7437 8.0625 12.1875C8.0625 10.6311 6.8064 9.375 5.25 9.375Z" fill="#2D334D"/>
<path d="M12.75 13.125C11.1936 13.125 9.9375 14.3811 9.9375 15.9375C9.9375 17.4937 11.1936 18.75 12.75 18.75C14.3064 18.75 15.5625 17.4937 15.5625 15.9375C15.5625 14.3811 14.3064 13.125 12.75 13.125Z" fill="#2D334D"/>
<path d="M20.25 5.625C18.6936 5.625 17.4375 6.8811 17.4375 8.4375C17.4375 9.99365 18.6936 11.25 20.25 11.25C21.8064 11.25 23.0625 9.99365 23.0625 8.4375C23.0625 6.8811 21.8064 5.625 20.25 5.625Z" fill="#2D334D"/>
<path d="M27.75 0C26.1936 0 24.9375 1.2561 24.9375 2.8125C24.9375 4.36865 26.1936 5.625 27.75 5.625C29.3064 5.625 30.5625 4.36865 30.5625 2.8125C30.5625 1.2561 29.3064 0 27.75 0Z" fill="#2D334D"/>
<path d="M30.5625 10.3125V30.6499H24.9375V10.3125C24.9375 9.78735 25.3499 9.375 25.875 9.375H29.625C30.1501 9.375 30.5625 9.78735 30.5625 10.3125Z" fill="#FFCAA3"/>
<path d="M15.5625 23.4375V30.6499H9.9375V23.4375C9.9375 22.9124 10.3499 22.5 10.875 22.5H14.625C15.1501 22.5 15.5625 22.9124 15.5625 23.4375Z" fill="#FFCAA3"/>
<path d="M27.75 5.625V0C29.3064 0 30.5625 1.2561 30.5625 2.8125C30.5625 4.36865 29.3064 5.625 27.75 5.625Z" fill="#A4A8B7"/>
<path d="M30.5625 10.3125V30.6499H27.75V9.375H29.625C30.1501 9.375 30.5625 9.78735 30.5625 10.3125Z" fill="#FFAF76"/>
<path d="M20.25 11.25V5.625C21.8064 5.625 23.0625 6.8811 23.0625 8.4375C23.0625 9.99365 21.8064 11.25 20.25 11.25Z" fill="#A4A8B7"/>
<path fill-rule="evenodd" clip-rule="evenodd" d="M17.4375 30.6499H20.25H23.0625V15.9375C23.0625 15.4124 22.6501 15 22.125 15H20.25H18.375C17.8499 15 17.4375 15.4124 17.4375 15.9375V30.6499Z" fill="url(#paint0_linear_192_1898)"/>
<path d="M12.75 18.75V13.125C14.3064 13.125 15.5625 14.3811 15.5625 15.9375C15.5625 17.4937 14.3064 18.75 12.75 18.75Z" fill="#A4A8B7"/>
<path d="M15.5625 23.4375V30.6499H12.75V22.5H14.625C15.1501 22.5 15.5625 22.9124 15.5625 23.4375Z" fill="#FFAF76"/>
<path d="M5.25 15V9.375C6.8064 9.375 8.0625 10.6311 8.0625 12.1875C8.0625 13.7437 6.8064 15 5.25 15Z" fill="#A4A8B7"/>
<path fill-rule="evenodd" clip-rule="evenodd" d="M2.4375 30.6499H5.25H8.0625V19.6875C8.0625 19.1624 7.65015 18.75 7.125 18.75H5.25H3.375C2.84985 18.75 2.4375 19.1624 2.4375 19.6875V30.6499Z" fill="url(#paint1_linear_192_1898)"/>
<path d="M32.5 31.0625C32.5 31.5874 32.0876 32 31.5625 32H1.4375C0.912354 32 0.5 31.5874 0.5 31.0625C0.5 30.5374 0.912354 30.125 1.4375 30.125H31.5625C32.0876 30.125 32.5 30.5374 32.5 31.0625Z" fill="#2D334D"/>
<path d="M32.5 31.0625C32.5 31.5874 32.0876 32 31.5625 32H16.5V30.125H31.5625C32.0876 30.125 32.5 30.5374 32.5 31.0625Z" fill="#3C4467"/>
</g>
<defs>
<linearGradient id="paint0_linear_192_1898" x1="20.989" y1="12.4263" x2="12.9393" y2="18.6791" gradientUnits="userSpaceOnUse">
<stop stop-color="#FF7A1A"/>
<stop offset="1" stop-color="#FFE0C9"/>
</linearGradient>
<linearGradient id="paint1_linear_192_1898" x1="5.98897" y1="16.793" x2="-0.326722" y2="23.2449" gradientUnits="userSpaceOnUse">
<stop stop-color="#FF7A1A"/>
<stop offset="1" stop-color="#FFE0C9"/>
</linearGradient>
<clipPath id="clip0_192_1898">
<rect width="32" height="32" fill="white" transform="translate(0.5)"/>
</clipPath>
</defs>
</svg>
