<svg width="33" height="28" viewBox="0 0 33 28" fill="none" xmlns="http://www.w3.org/2000/svg">
<path d="M29.6875 22.562H3.3125C1.76172 22.562 0.5 21.3003 0.5 19.7495V2.8125C0.5 1.26172 1.76172 0 3.3125 0H29.6875C31.2383 0 32.5 1.26172 32.5 2.8125V19.7495C32.5 21.3003 31.2383 22.562 29.6875 22.562Z" fill="#E9EDF5"/>
<path d="M16.5 0H3.3125C1.76172 0 0.5 1.26172 0.5 2.8125V19.7495C0.5 21.3003 1.76172 22.562 3.3125 22.562H16.5V0Z" fill="white"/>
<path d="M19.5171 27.8291C20.0349 27.8291 20.4546 27.4094 20.4546 26.8916V22.0356C20.4546 21.5178 20.0349 21.0981 19.5171 21.0981H13.4829C12.9651 21.0981 12.5454 21.5178 12.5454 22.0356V26.8916C12.5454 27.4094 12.9651 27.8291 13.4829 27.8291H19.5171Z" fill="#9196AA"/>
<path d="M16.5 21.0981H13.4829C12.9651 21.0981 12.5454 21.5178 12.5454 22.0356V26.8916C12.5454 27.4094 12.9651 27.8291 13.4829 27.8291H16.5V21.0981Z" fill="#CDD2E1"/>
<path d="M23.0444 27.8389H9.95508C9.43726 27.8389 9.01758 27.4192 9.01758 26.9014C9.01758 26.3835 9.43726 25.9639 9.95508 25.9639H23.0447C23.5623 25.9639 23.9822 26.3835 23.9822 26.9014C23.9822 27.4192 23.5623 27.8389 23.0444 27.8389Z" fill="#BEC3D2"/>
<path d="M0.5 17.2324V19.7495C0.5 21.3003 1.76172 22.562 3.3125 22.562H29.6875C31.2383 22.562 32.5 21.3003 32.5 19.7495V17.2324H0.5Z" fill="#BEC3D2"/>
<path d="M16.5 17.2324H0.5V19.7495C0.5 21.3003 1.76172 22.562 3.3125 22.562H16.5V17.2324Z" fill="#E9EDF5"/>
<path d="M16.9048 19.9829H16.0947C15.5771 19.9829 15.1572 19.563 15.1572 19.0454C15.1572 18.5276 15.5771 18.1079 16.0947 18.1079H16.9048C17.4224 18.1079 17.8423 18.5276 17.8423 19.0454C17.8423 19.563 17.4224 19.9829 16.9048 19.9829Z" fill="#9196AA"/>
<path d="M16.4998 18.1079H16.0947C15.5771 18.1079 15.1572 18.5276 15.1572 19.0454C15.1572 19.563 15.5771 19.9829 16.0947 19.9829H16.4998V18.1079Z" fill="#CDD2E1"/>
<path d="M16.4998 25.9639H9.95508C9.43726 25.9639 9.01758 26.3835 9.01758 26.9014C9.01758 27.4192 9.43726 27.8389 9.95508 27.8389H16.4998V25.9639Z" fill="#E9EDF5"/>
<path d="M32.5 2.8125C32.5 1.26172 31.2383 0 29.6875 0H3.3125C1.76172 0 0.5 1.26172 0.5 2.8125V17.2324H32.5V2.8125ZM30.625 15.3574H2.375V2.8125C2.375 2.29565 2.79565 1.875 3.3125 1.875H29.6875C30.2043 1.875 30.625 2.29565 30.625 2.8125V15.3574Z" fill="url(#paint0_linear_192_1875)"/>
<path d="M16.5 15.3574H2.375V2.8125C2.375 2.29565 2.79565 1.875 3.3125 1.875H16.5V0H3.3125C1.76172 0 0.5 1.26172 0.5 2.8125V17.2324H16.5V15.3574Z" fill="url(#paint1_linear_192_1875)"/>
<path d="M20.9685 7.60303C20.5029 7.60303 20.1252 7.22534 20.1252 6.75952V5.94336H19.6868C19.2209 5.94336 18.8433 5.56592 18.8433 5.1001C18.8433 4.63428 19.2209 4.25684 19.6868 4.25684H20.9688C21.4343 4.25684 21.812 4.63428 21.812 5.1001V6.75952C21.812 7.22534 21.4343 7.60303 20.9685 7.60303Z" fill="#1A0C03"/>
<path d="M15.0647 6.7334H6.09375C5.57593 6.7334 5.15625 6.31372 5.15625 5.7959C5.15625 5.27808 5.57593 4.8584 6.09375 4.8584H15.0647C15.5825 4.8584 16.0022 5.27808 16.0022 5.7959C16.0022 6.31372 15.5825 6.7334 15.0647 6.7334Z" fill="#2D334D"/>
<path d="M15.0647 9.72412H6.09375C5.57593 9.72412 5.15625 9.30444 5.15625 8.78662C5.15625 8.26904 5.57593 7.84912 6.09375 7.84912H15.0647C15.5825 7.84912 16.0022 8.26904 16.0022 8.78662C16.0022 9.30444 15.5825 9.72412 15.0647 9.72412Z" fill="#2D334D"/>
<path d="M15.0647 12.7151H6.09375C5.57593 12.7151 5.15625 12.2954 5.15625 11.7776C5.15625 11.2598 5.57593 10.8401 6.09375 10.8401H15.0647C15.5825 10.8401 16.0022 11.2598 16.0022 11.7776C16.0022 12.2954 15.5825 12.7151 15.0647 12.7151Z" fill="#2D334D"/>
<path d="M22.2722 12.4631C22.2722 12.9617 21.8679 13.366 21.3694 13.366C20.8708 13.366 20.4668 12.9617 20.4668 12.4631C20.4668 11.9646 20.8708 11.5605 21.3694 11.5605C21.8679 11.5605 22.2722 11.9646 22.2722 12.4631Z" fill="#FF9548"/>
<path d="M25.0222 12.4631C25.0222 12.9617 24.6179 13.366 24.1194 13.366C23.6208 13.366 23.2168 12.9617 23.2168 12.4631C23.2168 11.9646 23.6208 11.5605 24.1194 11.5605C24.6179 11.5605 25.0222 11.9646 25.0222 12.4631Z" fill="#FF9548"/>
<path d="M24.8645 10.9709H20.9648C20.7412 10.9709 20.5264 10.8821 20.3684 10.7236C20.2102 10.5652 20.1213 10.3506 20.1216 10.1267L20.1252 6.77222C20.1257 6.30688 20.5032 5.92969 20.9685 5.92969H26.7712C27.0715 5.92969 27.3494 6.08936 27.5002 6.34888C27.6514 6.60864 27.6528 6.92871 27.5044 7.18994L25.5977 10.5444C25.4478 10.8081 25.1677 10.9709 24.8645 10.9709Z" fill="#FF7A1A"/>
<defs>
<linearGradient id="paint0_linear_192_1875" x1="39.5894" y1="0.658565" x2="5.25631" y2="14.493" gradientUnits="userSpaceOnUse">
<stop/>
<stop offset="1" stop-opacity="0"/>
</linearGradient>
<linearGradient id="paint1_linear_192_1875" x1="10.6111" y1="-1.60572" x2="4.29887" y2="9.60959" gradientUnits="userSpaceOnUse">
<stop/>
<stop offset="1" stop-color="#B9B9B9"/>
</linearGradient>
</defs>
</svg>
