<svg width="33" height="23" viewBox="0 0 33 23" fill="none" xmlns="http://www.w3.org/2000/svg">
<mask id="mask0_192_1926" style="mask-type:alpha" maskUnits="userSpaceOnUse" x="0" y="0" width="33" height="23">
<path d="M32.5 2.13448V20.411C32.5 21.5916 31.5138 22.5455 30.2931 22.5455H2.7069C1.48621 22.5455 0.5 21.5916 0.5 20.411V2.13448C0.5 0.953846 1.48621 0 2.7069 0H30.2931C31.5138 0 32.5 0.953846 32.5 2.13448Z" fill="url(#paint0_linear_192_1926)"/>
</mask>
<g mask="url(#mask0_192_1926)">
<path d="M32.5 2.13448V20.411C32.5 21.5916 31.5138 22.5455 30.2931 22.5455H2.7069C1.48621 22.5455 0.5 21.5916 0.5 20.411V2.13448C0.5 0.953846 1.48621 0 2.7069 0H30.2931C31.5138 0 32.5 0.953846 32.5 2.13448Z" fill="#F5F5F5"/>
</g>
<path d="M0.5 4.80273H32.5V9.33851H0.5V4.80273Z" fill="#7F859F"/>
<path d="M31.7414 4.80273C31.0586 5.01618 24.2517 4.68934 17.169 9.32516C17.1414 9.34518 17.9207 9.3385 0.5 9.3385V4.80273H31.7414Z" fill="url(#paint1_linear_192_1926)"/>
<path d="M9.60308 14.8749H4.98239C4.67894 14.8749 4.43066 14.6347 4.43066 14.3412C4.43066 14.0477 4.67894 13.8076 4.98239 13.8076H9.60308C9.90652 13.8076 10.1548 14.0477 10.1548 14.3412C10.1548 14.6347 9.90652 14.8749 9.60308 14.8749Z" fill="#FF7A1A"/>
<path d="M9.60308 18.2101H4.98239C4.67894 18.2101 4.43066 17.9699 4.43066 17.6764C4.43066 17.383 4.67894 17.1428 4.98239 17.1428H9.60308C9.90652 17.1428 10.1548 17.383 10.1548 17.6764C10.1548 17.9699 9.90652 18.2101 9.60308 18.2101Z" fill="#FF7A1A"/>
<defs>
<linearGradient id="paint0_linear_192_1926" x1="20.7039" y1="-3.70769" x2="13.6501" y2="17.9295" gradientUnits="userSpaceOnUse">
<stop stop-color="#FF7A1A"/>
<stop offset="1" stop-color="#FFE0C9"/>
</linearGradient>
<linearGradient id="paint1_linear_192_1926" x1="38.6627" y1="4.97612" x2="26.6106" y2="22.9849" gradientUnits="userSpaceOnUse">
<stop/>
<stop offset="1" stop-opacity="0"/>
</linearGradient>
</defs>
</svg>
