<svg width="33" height="32" viewBox="0 0 33 32" fill="none" xmlns="http://www.w3.org/2000/svg">
<g clip-path="url(#clip0_192_1937)">
<path d="M17.8772 25.2898L16.5118 26.6552C16.1344 27.0326 15.5236 27.0326 15.1463 26.6552C14.7689 26.2779 14.7689 25.6671 15.1463 25.2898L16.5118 23.9244C16.8884 23.5477 16.8884 22.9356 16.5118 22.5589L15.2563 21.3035C14.8789 20.9261 14.8789 20.3154 15.2563 19.9381C15.6337 19.5607 16.2444 19.5607 16.6218 19.9381L17.8772 21.1935C19.0067 22.3229 19.0067 24.1603 17.8772 25.2898Z" fill="#3C4467"/>
<path d="M19.9254 31.4345C19.1713 32.1886 17.9486 32.1886 17.1945 31.4345L10.3672 24.6072L13.0981 21.8762L19.9254 28.7035C20.6796 29.4577 20.6796 30.6803 19.9254 31.4345Z" fill="url(#paint0_linear_192_1937)"/>
<path fill-rule="evenodd" clip-rule="evenodd" d="M14.545 20.5924L10.312 16.3594L7.63585 16.414L2.85673 21.1931C1.72329 22.3264 1.70966 24.1425 2.82935 25.2622L4.22245 26.6553L4.22217 26.6556L5.56036 27.9938C6.69367 29.1272 8.55073 29.1545 9.68404 28.0211L14.4632 23.242L14.5451 20.593L14.545 20.5929L14.545 20.5924Z" fill="#FF9548"/>
<path d="M22.3122 3.86238C21.7795 3.863 21.3468 3.43031 21.3468 2.897L21.3462 0.965501C21.3461 0.432063 21.7781 6.76239e-07 22.3116 6.76239e-07C22.8443 -0.000624324 23.2769 0.432063 23.2769 0.965376L23.2776 2.89688C23.2776 3.43031 22.8456 3.86238 22.3122 3.86238Z" fill="#FF7A1A"/>
<path d="M30.0365 9.65598L28.105 9.65536C27.5716 9.65536 27.1389 9.22267 27.1396 8.68998C27.1396 8.15661 27.5717 7.72461 28.105 7.72461L30.0365 7.72523C30.5699 7.72523 31.0027 8.15792 31.0019 8.69061C31.0019 9.22392 30.5699 9.65598 30.0365 9.65598Z" fill="#FF7A1A"/>
<path d="M28.801 2.07682C29.1833 2.45913 29.1834 3.05995 28.801 3.44226L26.7528 5.49044C26.3704 5.87282 25.7696 5.87276 25.3874 5.49044C25.005 5.10807 25.005 4.50732 25.3874 4.12501L27.4356 2.07682C27.8179 1.69445 28.4186 1.69445 28.801 2.07682Z" fill="#FF7A1A"/>
<path d="M9.68416 21.193C10.0665 21.5753 10.0665 22.1761 9.68416 22.5584L8.31872 23.9239C7.93635 24.3063 7.33553 24.3062 6.95328 23.9239C6.57091 23.5415 6.57091 22.9408 6.95328 22.5585L8.31872 21.193C8.7011 20.8107 9.30185 20.8107 9.68416 21.193Z" fill="#FFCAA3"/>
<path fill-rule="evenodd" clip-rule="evenodd" d="M21.9731 8.90464L17.1941 4.12555L13.9441 3.00586L13.3843 5.80505C12.5651 9.90136 10.5716 13.4789 7.86787 16.1826L7.63574 16.4147L14.4632 23.2421L14.6953 23.01C17.2624 20.4429 21.0447 18.2445 25.0319 17.4526L27.7217 16.8927C27.7215 16.8926 27.7212 16.8926 27.7209 16.8925L27.7221 16.8923C27.5239 16.8618 27.33 15.9504 27.1498 15.1037C27.0072 14.4337 26.8733 13.8041 26.7526 13.6834L21.9735 8.9043L21.9731 8.90464Z" fill="url(#paint1_linear_192_1937)"/>
<path d="M9.684 21.1936C10.0663 21.5759 10.0664 22.1767 9.684 22.559L8.31856 23.9245C7.93619 24.3069 7.33537 24.3068 6.95312 23.9245L9.684 21.1936Z" fill="#FFCAA3"/>
<path d="M17.1941 1.39431L29.4833 13.6835C30.2343 14.4345 30.2343 15.6634 29.4833 16.4144C29.4014 16.4964 29.2921 16.5509 29.1828 16.6056C28.7459 16.9061 28.2271 17.0153 27.7218 16.8923C27.3668 16.8378 27.0254 16.6876 26.7523 16.4144L14.4631 4.12519C14.149 3.81106 13.9989 3.41513 13.9442 3.0055C13.8896 2.59588 13.9716 2.18613 14.1764 1.81756C14.2719 1.66731 14.3402 1.51719 14.4631 1.39425C15.2141 0.643312 16.4431 0.643312 17.1941 1.39431Z" fill="url(#paint2_linear_192_1937)"/>
<path d="M23.3384 7.53906L29.483 13.6836C30.234 14.4346 30.234 15.6636 29.483 16.4146C29.401 16.4965 29.2918 16.5511 29.1825 16.6057C28.7455 16.9062 28.2267 17.0154 27.7214 16.8924C27.3665 16.8379 27.0251 16.6877 26.752 16.4146L20.6074 10.27L23.3384 7.53906Z" fill="url(#paint3_linear_192_1937)"/>
</g>
<defs>
<linearGradient id="paint0_linear_192_1937" x1="15.4291" y1="23.1298" x2="15.4291" y2="32.0001" gradientUnits="userSpaceOnUse">
<stop stop-color="#C6C8D2"/>
<stop offset="1" stop-color="#F3F3F3"/>
</linearGradient>
<linearGradient id="paint1_linear_192_1937" x1="20.3292" y1="1.12024" x2="3.31952" y2="17.6793" gradientUnits="userSpaceOnUse">
<stop/>
<stop offset="1" stop-color="#B9B9B9"/>
</linearGradient>
<linearGradient id="paint2_linear_192_1937" x1="21.9872" y1="2.82598" x2="21.9872" y2="16.9419" gradientUnits="userSpaceOnUse">
<stop stop-color="#C6C8D2"/>
<stop offset="1" stop-color="#F3F3F3"/>
</linearGradient>
<linearGradient id="paint3_linear_192_1937" x1="25.3268" y1="8.70339" x2="25.3268" y2="16.9421" gradientUnits="userSpaceOnUse">
<stop stop-color="#C6C8D2"/>
<stop offset="1" stop-color="#F3F3F3"/>
</linearGradient>
<clipPath id="clip0_192_1937">
<rect width="32" height="32" fill="white" transform="translate(0.5)"/>
</clipPath>
</defs>
</svg>
